<?xml version="1.0" encoding="UTF-8"?>
<svg width="354px" height="112px" viewBox="0 0 354 112" version="1.1" xmlns="http://www.w3.org/2000/svg" xmlns:xlink="http://www.w3.org/1999/xlink">
    <!-- Generator: Sketch 54 (76480) - https://sketchapp.com -->
    <title>LOGO-FINAL2</title>
    <desc>Created with Sketch.</desc>
    <g id="页面1" stroke="none" stroke-width="1" fill="none" fill-rule="evenodd">
        <g id="LOGO-FINAL2" transform="translate(-48.000000, -42.000000)">
            <path d="M92.181,129.1 C85.791,129.1 79.386,127.271 73.893,123.445 C56.406,111.265 52.269,85.703 64.857,67.629 L68.503,70.167 C57.29,86.267 60.921,108.996 76.432,119.8 C88.943,128.51 106.944,125.212 115.738,112.597 C119.042,107.853 120.288,102.017 119.246,96.171 C118.202,90.321 115.017,85.281 110.276,81.979 C102.643,76.66 92.11,78.545 86.792,86.177 C82.681,92.083 84.139,100.232 90.043,104.343 C92.234,105.87 94.893,106.451 97.516,105.982 C100.144,105.512 102.431,104.046 103.957,101.855 C105.111,100.2 105.55,98.195 105.195,96.209 C104.84,94.223 103.733,92.495 102.077,91.34 C99.545,89.578 96.049,90.205 94.283,92.736 C93.668,93.619 93.434,94.691 93.624,95.752 C93.813,96.812 94.405,97.735 95.289,98.349 L92.753,101.998 C90.894,100.705 89.65,98.764 89.251,96.534 C88.852,94.305 89.345,92.054 90.638,90.197 C93.803,85.653 100.073,84.529 104.617,87.696 C107.247,89.528 109.005,92.273 109.569,95.427 C110.133,98.581 109.434,101.766 107.602,104.395 C105.399,107.56 102.095,109.677 98.298,110.356 C94.503,111.039 90.667,110.193 87.502,107.987 C79.59,102.48 77.636,91.555 83.146,83.638 C89.864,73.998 103.17,71.617 112.815,78.334 C118.531,82.314 122.368,88.372 123.619,95.39 C124.87,102.406 123.365,109.419 119.382,115.134 C113.07,124.197 102.645,129.1 92.181,129.1" id="Fill-1" fill="#144439"></path>
            <path d="M93.771,122.727 C85.385,122.727 77.108,118.863 71.8,111.583 C60.962,96.713 64.241,75.795 79.108,64.953 L81.727,68.543 C68.837,77.942 65.995,96.076 75.391,108.967 C82.764,119.078 96.992,121.31 107.109,113.939 C115,108.184 116.74,97.079 110.987,89.184 C106.526,83.067 97.923,81.718 91.805,86.177 C89.531,87.835 88.038,90.281 87.602,93.062 C87.166,95.843 87.838,98.627 89.498,100.902 C90.754,102.627 92.606,103.759 94.714,104.089 C96.816,104.416 98.93,103.909 100.656,102.651 C101.94,101.716 102.782,100.338 103.028,98.768 C103.275,97.2 102.895,95.629 101.959,94.346 C100.56,92.424 97.855,91.999 95.933,93.401 C94.596,94.378 94.3,96.261 95.276,97.601 L91.686,100.217 C89.268,96.9 89.999,92.232 93.315,89.811 C97.222,86.968 102.707,87.83 105.549,91.728 C107.184,93.971 107.847,96.715 107.418,99.458 C106.987,102.2 105.516,104.609 103.272,106.243 C100.59,108.197 97.31,108.991 94.026,108.477 C90.747,107.963 87.862,106.202 85.908,103.519 C83.55,100.286 82.593,96.328 83.213,92.374 C83.833,88.421 85.955,84.944 89.188,82.587 C97.287,76.687 108.674,78.472 114.577,86.568 C121.772,96.441 119.596,110.33 109.726,117.527 C104.911,121.037 99.317,122.727 93.771,122.727" id="Fill-2" fill="#2B9C8D"></path>
            <path d="M92.307,133.081 C78.571,133.081 65.475,126.028 58.014,113.791 L61.808,111.48 C70.409,125.588 87.432,131.948 103.203,126.944 C118.032,122.243 126.271,106.355 121.572,91.526 C117.885,79.897 105.419,73.44 93.794,77.121 C84.726,79.998 79.686,89.716 82.559,98.787 C84.786,105.809 92.311,109.716 99.332,107.484 C101.942,106.657 104.072,104.863 105.332,102.434 C106.591,100.006 106.83,97.232 106.003,94.624 C104.709,90.549 100.342,88.279 96.269,89.576 C93.247,90.536 91.565,93.779 92.523,96.805 C93.217,98.991 95.561,100.202 97.748,99.514 L99.089,103.749 C94.562,105.184 89.719,102.668 88.289,98.145 C86.591,92.787 89.568,87.044 94.926,85.34 C101.343,83.311 108.204,86.875 110.238,93.281 C111.423,97.021 111.081,100.998 109.276,104.48 C107.469,107.963 104.415,110.534 100.675,111.718 C91.317,114.69 81.291,109.486 78.324,100.13 C74.711,88.723 81.049,76.503 92.451,72.887 C106.415,68.46 121.379,76.219 125.806,90.183 C131.247,107.347 121.71,125.738 104.546,131.178 C100.497,132.462 96.373,133.081 92.307,133.081" id="Fill-3" fill="#126053"></path>
            <path d="M56.687,111.445 C55.612,109.379 54.707,107.2 54,104.963 L58.234,103.623 C58.866,105.614 59.67,107.555 60.627,109.393 L56.687,111.445" id="Fill-4" fill="#126053"></path>
            <path d="M95.206,119.889 C85.667,119.889 76.535,114.421 72.342,105.182 C65.329,89.733 72.195,71.454 87.647,64.435 C101.179,58.294 117.147,60.656 128.329,70.453 L125.4,73.794 C115.53,65.144 101.433,63.056 89.484,68.48 C76.263,74.486 70.386,90.127 76.387,103.347 C81.088,113.701 93.333,118.297 103.691,113.605 C111.754,109.946 115.335,100.41 111.677,92.347 C108.852,86.123 101.486,83.357 95.261,86.181 C90.503,88.341 88.39,93.971 90.548,98.729 C92.173,102.308 96.41,103.904 99.997,102.275 L101.832,106.323 C96.016,108.955 89.141,106.375 86.502,100.564 C83.332,93.577 86.438,85.31 93.424,82.135 C101.879,78.3 111.883,82.056 115.723,90.511 C117.985,95.498 118.172,101.067 116.246,106.193 C114.32,111.319 110.515,115.386 105.527,117.648 C102.178,119.17 98.665,119.889 95.206,119.889" id="Fill-5" fill="#3A9992"></path>
            <path d="M130.687,79.675 C129.866,78.507 128.972,77.395 128.031,76.368 L131.309,73.368 C132.377,74.535 133.39,75.796 134.32,77.118 L130.687,79.675" id="Fill-6" fill="#3A9992"></path>
            <path d="M133.804,85.13 C133.413,84.27 132.991,83.433 132.535,82.621 L136.412,80.45 C136.926,81.37 137.404,82.316 137.848,83.291 L133.804,85.13" id="Fill-7" fill="#3A9992"></path>
            <path d="M114.913,133.126 L112.453,129.425 C120.101,124.343 125.523,116.631 127.72,107.707 C130.163,97.791 127.119,87.207 119.772,80.085 C116.252,76.674 112.851,74.845 107.64,73.563 C95.214,70.499 82.741,77.568 79.848,89.314 C78.71,93.934 79.269,98.514 81.424,102.211 C83.585,105.92 87.273,108.577 91.811,109.694 C99.581,111.603 107.008,107.668 108.717,100.725 C110.102,95.106 106.655,89.408 101.035,88.022 C96.776,86.972 92.458,89.586 91.411,93.844 C91.033,95.378 91.274,96.967 92.092,98.321 C92.911,99.674 94.207,100.627 95.743,101.006 C98.044,101.57 100.369,100.163 100.934,97.865 L105.248,98.928 C104.097,103.603 99.354,106.486 94.681,105.319 C91.993,104.657 89.724,102.987 88.291,100.62 C86.859,98.252 86.435,95.466 87.098,92.781 C88.732,86.145 95.473,82.075 102.097,83.708 C110.097,85.68 115.001,93.791 113.032,101.787 C110.726,111.15 100.944,116.519 90.748,114.006 C85.033,112.601 80.358,109.206 77.586,104.449 C74.847,99.749 74.118,93.997 75.534,88.252 C79.014,74.128 93.891,65.6 108.703,69.248 C114.673,70.719 118.776,72.934 122.865,76.895 C131.34,85.113 134.853,97.326 132.034,108.77 C129.57,118.776 123.488,127.425 114.913,133.126" id="Fill-8" fill="#126053"></path>
            <path d="M92.215,140 C91.193,140 90.175,139.961 89.164,139.885 L89.498,135.456 C91.44,135.599 93.419,135.59 95.379,135.421 C99.339,135.074 103.204,134.085 106.867,132.478 L108.652,136.547 C104.545,138.347 100.208,139.458 95.764,139.846 C94.584,139.948 93.397,140 92.215,140" id="Fill-9" fill="#126053"></path>
            <path d="M86.257,139.564 C84.936,139.367 83.629,139.108 82.373,138.798 L83.443,134.486 C84.562,134.764 85.729,134.994 86.912,135.169 L86.257,139.564" id="Fill-10" fill="#126053"></path>
            <path d="M94.368,126.41 C93.332,126.41 92.291,126.347 91.248,126.219 C73.244,124.013 60.364,107.347 62.536,89.065 C64.145,75.529 72.226,63.693 84.156,57.405 L86.228,61.336 C75.59,66.942 68.383,77.504 66.948,89.59 C65.064,105.447 76.207,119.9 91.788,121.812 C97.385,122.486 102.949,120.926 107.453,117.393 C112.275,113.607 115.468,107.839 116.213,101.568 C117.363,91.885 110.863,83.393 101.415,82.235 C97.886,81.806 94.393,82.784 91.578,84.995 C88.688,87.263 86.855,90.546 86.416,94.235 C85.73,100.015 89.781,105.282 95.448,105.976 C97.492,106.23 99.519,105.659 101.151,104.378 C102.834,103.059 103.901,101.147 104.156,98.998 C104.543,95.734 102.263,92.759 99.072,92.368 C97.979,92.228 96.892,92.538 96.014,93.227 C95.106,93.94 94.529,94.974 94.392,96.138 L89.979,95.615 C90.258,93.269 91.428,91.18 93.271,89.732 C95.086,88.31 97.345,87.677 99.613,87.958 C105.226,88.648 109.242,93.835 108.569,99.523 C108.172,102.855 106.512,105.82 103.893,107.874 C101.322,109.887 98.126,110.781 94.907,110.384 C86.819,109.395 81.03,101.916 82.004,93.712 C82.583,88.84 85.009,84.503 88.835,81.5 C92.586,78.555 97.245,77.252 101.954,77.825 C113.866,79.285 122.067,89.944 120.625,102.093 C119.741,109.529 115.939,116.379 110.194,120.887 C105.592,124.499 100.066,126.41 94.368,126.41" id="Fill-11" fill="#34837B"></path>
            <path d="M88.861,60.08 L87.117,55.993 C88.786,55.282 90.503,54.682 92.224,54.209 L93.399,58.493 C91.872,58.913 90.345,59.447 88.861,60.08" id="Fill-12" fill="#34837B"></path>
            <path d="M127.071,129.221 L123.691,126.337 C131.2,117.54 134.442,105.946 132.586,94.526 C129.863,77.785 114.019,66.388 97.288,69.103 C84.137,71.244 75.178,83.682 77.317,96.832 C78.126,101.811 80.826,106.176 84.92,109.124 C89.013,112.072 94.009,113.252 98.99,112.44 C106.97,111.141 112.407,103.592 111.11,95.613 C110.111,89.468 104.298,85.286 98.155,86.281 C93.484,87.044 90.301,91.464 91.06,96.135 C91.336,97.829 92.254,99.315 93.646,100.316 C95.039,101.319 96.737,101.729 98.432,101.442 C99.67,101.243 100.756,100.57 101.489,99.553 C102.222,98.536 102.514,97.295 102.313,96.057 L106.698,95.344 C107.09,97.753 106.521,100.171 105.094,102.152 C103.666,104.132 101.553,105.438 99.145,105.829 C96.286,106.291 93.407,105.616 91.05,103.922 C88.695,102.226 87.141,99.713 86.676,96.849 C85.523,89.76 90.352,83.053 97.44,81.897 C106.016,80.506 114.102,86.338 115.494,94.899 C117.185,105.297 110.101,115.132 99.703,116.827 C93.547,117.829 87.379,116.371 82.323,112.729 C77.266,109.087 73.932,103.694 72.932,97.545 C70.399,81.978 81.005,67.253 96.574,64.719 C115.718,61.598 133.852,74.653 136.97,93.812 C139.037,106.525 135.429,119.43 127.071,129.221" id="Fill-13" fill="#178070"></path>
            <path d="M105.39,96.928 C105.39,100.92 102.151,104.158 98.159,104.158 C94.165,104.158 90.928,100.92 90.928,96.928 C90.928,92.933 94.165,89.694 98.159,89.694 C102.151,89.694 105.39,92.933 105.39,96.928" id="Fill-14" fill="#FFFFFE"></path>
            <path d="M98.159,91.915 C95.396,91.915 93.149,94.164 93.149,96.928 C93.149,99.69 95.396,101.937 98.159,101.937 C100.921,101.937 103.168,99.69 103.168,96.928 C103.168,94.164 100.921,91.915 98.159,91.915 Z M98.159,106.379 C92.947,106.379 88.706,102.139 88.706,96.928 C88.706,91.714 92.947,87.473 98.159,87.473 C103.37,87.473 107.611,91.714 107.611,96.928 C107.611,102.139 103.37,106.379 98.159,106.379 L98.159,106.379 Z" id="Fill-15" fill="#147061"></path>
            <path d="M170.7,103.347 C171.514,104.171 172.505,104.582 173.673,104.582 C174.84,104.582 175.824,104.171 176.622,103.347 C177.42,102.524 177.821,101.51 177.821,100.309 C177.821,99.107 177.42,98.095 176.622,97.27 C175.824,96.447 174.84,96.036 173.673,96.036 C172.505,96.036 171.514,96.447 170.7,97.27 C169.886,98.095 169.478,99.107 169.478,100.309 C169.478,101.51 169.886,102.524 170.7,103.347 Z M181.047,79.359 L174.456,91.132 C175.562,91.217 176.669,91.455 177.774,91.847 C179.034,92.321 180.14,92.964 181.092,93.773 C182.107,94.667 182.86,95.631 183.352,96.664 C183.903,97.781 184.181,98.968 184.181,100.225 C184.181,101.483 183.903,102.654 183.352,103.746 C182.828,104.863 182.075,105.825 181.092,106.635 C180.11,107.501 179.002,108.16 177.774,108.605 C176.392,109.078 175.024,109.316 173.673,109.316 C172.26,109.316 170.892,109.078 169.571,108.605 C168.341,108.16 167.221,107.501 166.206,106.635 C165.315,105.881 164.562,104.917 163.948,103.746 C163.395,102.654 163.119,101.483 163.119,100.225 C163.119,98.968 163.395,97.781 163.948,96.664 L173.673,79.359 L181.047,79.359 L181.047,79.359 Z" id="Fill-16" fill="#343534"></path>
            <polyline id="Fill-17" fill="#343534" points="212.847 79.359 212.847 85.226 197.776 85.226 197.776 90.63 210.22 90.63 210.22 96.495 197.776 96.495 197.776 102.864 212.708 102.864 212.708 108.731 191.323 108.731 191.323 79.359 212.847 79.359"></polyline>
            <path d="M230.497,96.33 L230.268,96.287 C228.208,95.813 226.578,95.197 225.381,94.442 C222.769,92.878 221.388,90.673 221.231,87.823 C221.079,85.478 221.864,83.48 223.583,81.833 C224.658,80.828 225.91,80.093 227.339,79.632 C228.769,79.173 230.02,78.941 231.095,78.941 C232.541,78.941 233.924,79.108 235.244,79.443 C236.565,79.779 237.549,80.108 238.194,80.429 C238.84,80.75 239.697,81.23 240.775,81.874 L241.835,82.504 L238.471,87.489 L237.319,86.818 C236.426,86.316 235.767,85.952 235.335,85.729 C234.906,85.506 234.312,85.296 233.561,85.099 C232.81,84.904 231.987,84.809 231.095,84.809 C230.787,84.809 230.327,84.904 229.712,85.099 C229.098,85.296 228.608,85.562 228.24,85.896 C227.837,86.259 227.655,86.818 227.686,87.572 C227.716,88.325 228.045,88.934 228.678,89.396 C229.306,89.854 230.357,90.253 231.833,90.589 C232.078,90.645 232.386,90.729 232.753,90.84 C235.858,91.817 238.24,93.116 239.898,94.736 C241.588,96.441 242.435,98.353 242.435,100.476 C242.435,102.629 241.572,104.568 239.852,106.301 C237.887,108.311 235.413,109.316 232.433,109.316 C230.405,109.316 228.515,109.078 226.763,108.605 C223.813,107.765 221.249,106.286 219.066,104.164 L223.768,100.142 C226.041,102.347 228.929,103.451 232.433,103.451 C233.598,103.451 234.482,103.103 235.084,102.403 C235.682,101.706 235.98,101.064 235.98,100.476 C235.98,98.856 234.2,97.487 230.636,96.369 L230.497,96.33" id="Fill-18" fill="#343534"></path>
            <polyline id="Fill-19" fill="#343534" points="247.043 79.359 271.421 79.359 271.421 85.226 262.48 85.226 262.48 108.731 256.029 108.731 256.029 85.226 247.043 85.226 247.043 79.359"></polyline>
            <path d="M285.018,97.418 L292.024,97.418 L288.66,90.881 L285.018,97.418 Z M297.878,108.731 L295.067,103.282 L281.7,103.282 L278.659,108.731 L271.423,108.731 L287.877,79.359 L289.765,79.359 L305.02,108.731 L297.878,108.731 L297.878,108.731 Z" id="Fill-20" fill="#343534"></path>
            <polyline id="Fill-21" fill="#343534" points="304.098 79.359 328.479 79.359 328.479 85.226 319.538 85.226 319.538 108.731 313.085 108.731 313.085 85.226 304.098 85.226 304.098 79.359"></polyline>
            <polyline id="Fill-22" fill="#343534" points="355.532 79.359 355.532 85.226 340.461 85.226 340.461 90.63 352.906 90.63 352.906 96.495 340.461 96.495 340.461 102.864 355.394 102.864 355.394 108.731 334.009 108.731 334.009 79.359 355.532 79.359"></polyline>
            <path d="M373.181,96.33 L372.952,96.287 C370.895,95.813 369.266,95.197 368.066,94.442 C365.454,92.878 364.072,90.673 363.919,87.823 C363.765,85.478 364.549,83.48 366.269,81.833 C367.345,80.828 368.597,80.093 370.026,79.632 C371.453,79.173 372.705,78.941 373.781,78.941 C375.226,78.941 376.607,79.108 377.929,79.443 C379.25,79.779 380.233,80.108 380.879,80.429 C381.524,80.75 382.383,81.23 383.46,81.874 L384.521,82.504 L381.155,87.489 L380.003,86.818 C379.111,86.316 378.453,85.952 378.022,85.729 C377.591,85.506 376.999,85.296 376.248,85.099 C375.495,84.904 374.672,84.809 373.781,84.809 C373.474,84.809 373.013,84.904 372.397,85.099 C371.785,85.296 371.293,85.562 370.925,85.896 C370.524,86.259 370.34,86.818 370.37,87.572 C370.4,88.325 370.731,88.934 371.361,89.396 C371.99,89.854 373.043,90.253 374.52,90.589 C374.765,90.645 375.072,90.729 375.44,90.84 C378.544,91.817 380.927,93.116 382.585,94.736 C384.274,96.441 385.119,98.353 385.119,100.476 C385.119,102.629 384.257,104.568 382.537,106.301 C380.57,108.311 378.098,109.316 375.117,109.316 C373.091,109.316 371.202,109.078 369.45,108.605 C366.5,107.765 363.935,106.286 361.753,104.164 L366.454,100.142 C368.728,102.347 371.615,103.451 375.117,103.451 C376.284,103.451 377.169,103.103 377.769,102.403 C378.366,101.706 378.668,101.064 378.668,100.476 C378.668,98.856 376.885,97.487 373.319,96.369 L373.181,96.33" id="Fill-23" fill="#343534"></path>
            <text id="POWERING--SMARTER--DECISIONS" font-family="LucidaGrande, Lucida Grande" font-size="12" font-weight="normal" letter-spacing="0.075" fill="#343534">
                <tspan x="164.383" y="121.277187">P</tspan>
                <tspan x="171.090813" y="121.277187" letter-spacing="-0.237">O</tspan>
                <tspan x="180.176078" y="121.277187">WERING  SMA</tspan>
                <tspan x="259.024516" y="121.277187" letter-spacing="-0.057">R</tspan>
                <tspan x="266.555406" y="121.277187">TER  D</tspan>
                <tspan x="305.267125" y="121.277187" letter-spacing="-0.105">E</tspan>
                <tspan x="311.666031" y="121.277187">CISIONS</tspan>
            </text>
        </g>
    </g>
</svg>