<?xml version="1.0" encoding="UTF-8"?>
<svg width="42px" height="46px" viewBox="0 0 42 46" version="1.1" xmlns="http://www.w3.org/2000/svg" xmlns:xlink="http://www.w3.org/1999/xlink">
    <!-- Generator: Sketch 54 (76480) - https://sketchapp.com -->
    <title>rengongzhineng-2</title>
    <desc>Created with Sketch.</desc>
    <g id="Page-1" stroke="none" stroke-width="1" fill="none" fill-rule="evenodd">
        <g id="MIKA-1" transform="translate(-551.000000, -1807.000000)">
            <rect id="矩形" stroke="#0D5FFF" stroke-width="4" x="395" y="1772" width="353" height="296"></rect>
            <g id="rengongzhineng-2" transform="translate(552.000000, 1807.000000)" fill="#FFFFFF" fill-rule="nonzero">
                <path d="M39.9534884,18.2659062 C39.7093023,13.3510773 37.75,8.77439797 34.4360465,5.38707224 C31.0406977,1.91229404 26.505814,0 21.6686047,0 C19.1976744,0 16.8023256,0.495564005 14.5406977,1.47503169 C12.3662791,2.41368821 10.4127907,3.76045627 8.73255814,5.46869455 C7.05813953,7.17110266 5.73837209,9.15335868 4.81976744,11.3513308 C3.86627907,13.6309252 3.38372093,16.0387833 3.38372093,18.5107731 C3.38372093,20.6854246 2.43604651,22.8134347 1.43023256,25.0580482 C1,26.0200253 0.558139535,27.0111534 0.191860465,28.0081115 C-0.127906977,28.8826362 7.19216353e-15,29.8621039 0.534883721,30.6258555 C1.06976744,31.3896071 1.94186047,31.8443599 2.87209302,31.8443599 L5.72674419,31.8443599 L5.72674419,35.6514575 C5.72674419,37.8086185 7.35465116,39.5868188 9.50581395,39.7850444 L9.72093023,39.8025349 C10.8197674,39.9016477 11.9534884,40.0007605 12.75,40.5779468 C13.6511628,41.2250951 14.1046512,42.5077313 14.1395349,44.513308 C14.1511628,45.3062104 14.8023256,45.9475285 15.5930233,45.9475285 L33.8313953,45.9475285 C34.6337209,45.9475285 35.2848837,45.2945501 35.2848837,44.4899873 L35.2848837,29.9553866 C37.0639535,28.9700887 40.3430233,26.0841572 39.9534884,18.2659062 Z M35.3488372,26.1016477 C34.4825581,27.2385298 33.5872093,27.5591888 33.4651163,27.6 C32.7965116,27.7457541 32.377907,28.3229404 32.377907,29.0108999 L32.377907,43.026616 L16.9476744,43.026616 C16.6802326,40.8053232 15.8488372,39.2195184 14.4360465,38.2050697 C12.994186,37.1731305 11.3197674,37.0215463 9.97674419,36.8991128 L9.76744186,36.8816223 C9.11627907,36.8233207 8.62790698,36.2927757 8.62790698,35.6514575 L8.62790698,30.3868188 C8.62790698,29.582256 7.97674419,28.9292776 7.1744186,28.9292776 L2.94767442,28.9292776 C3.27325581,28.0547529 3.6627907,27.174398 4.0755814,26.2474018 C5.1627907,23.8162231 6.28488372,21.3034221 6.28488372,18.504943 C6.28488372,14.3713561 7.88953488,10.4651458 10.7965116,7.50925222 C13.7151163,4.54752852 17.5755814,2.91508238 21.6686047,2.91508238 C25.7209302,2.91508238 29.5174419,4.51837769 32.3604651,7.42762991 C35.1744186,10.3077313 36.8430233,14.2081115 37.0523256,18.4116603 C37.2151163,21.7581749 36.627907,24.41673 35.3488372,26.1016477 L35.3488372,26.1016477 Z" id="Shape"></path>
                <path d="M28.1395349,11.3513308 C26.6453488,11.2930292 25.4127907,12.4940431 25.4127907,13.9807351 C25.4127907,14.1206591 25.4244186,14.260583 25.4476744,14.3946768 L20.9651163,18.5224335 L17.3837209,15.4324461 C17.4011628,15.321673 17.4069767,15.2050697 17.4069767,15.0884664 C17.4069767,13.6017744 16.1744186,12.4007605 14.6802326,12.4590621 C13.3197674,12.5115336 12.2151163,13.6192649 12.1627907,14.9835234 C12.1046512,16.4818758 13.3023256,17.7178707 14.7848837,17.7178707 C15.0232558,17.7178707 15.25,17.6828897 15.4709302,17.6245881 L19.5872093,21.1751584 L19.5872093,29.3665399 C19.5872093,30.1711027 20.2383721,30.8240811 21.0406977,30.8240811 C21.8430233,30.8240811 22.494186,30.1711027 22.494186,29.3665399 L22.494186,21.0760456 L27.4186047,16.5401774 C27.6162791,16.5868188 27.8255814,16.6159696 28.0406977,16.6159696 C29.5232558,16.6159696 30.7209302,15.3799747 30.6627907,13.8816223 C30.6104651,12.5173638 29.5,11.4038023 28.1395349,11.3513308 L28.1395349,11.3513308 Z" id="Path"></path>
            </g>
        </g>
    </g>
</svg>