<?xml version="1.0" encoding="UTF-8"?>
<svg width="93px" height="100px" viewBox="0 0 93 100" version="1.1" xmlns="http://www.w3.org/2000/svg" xmlns:xlink="http://www.w3.org/1999/xlink">
    <!-- Generator: Sketch 54 (76480) - https://sketchapp.com -->
    <title>diagram</title>
    <desc>Created with Sketch.</desc>
    <g id="Page-1" stroke="none" stroke-width="1" fill="none" fill-rule="evenodd">
        <g id="MIKA-1" transform="translate(-513.000000, -1926.000000)" fill-rule="nonzero">
            <g id="diagram" transform="translate(513.000000, 1926.000000)">
                <path d="M46.6346154,39.4230769 C42.0577919,39.4230769 38.4615385,35.7893432 38.4615385,31.1643801 C38.4615385,30.1733442 39.1153157,29.5127181 40.0960772,29.5127181 C41.0768388,29.5127181 41.730616,30.1733442 41.730616,31.1643801 C41.730616,33.9723796 43.8555355,36.1195595 46.6344238,36.1195595 C48.1055662,36.1195595 49.4133121,35.4589334 50.3940737,34.3025958 C50.8844545,33.8070779 51.0478509,33.1464518 50.8844545,32.4856322 C50.8844545,31.8250061 50.3940737,31.1641865 49.9036929,30.6686686 L41.4038232,23.8965255 C40.0960772,22.9054896 39.2789036,21.4189358 39.1153157,19.7672739 C38.9517277,18.1156119 39.4423,16.6290581 40.4230616,15.4727205 C42.0577919,13.656144 44.1827115,12.5 46.6346154,12.5 C51.2114389,12.5 54.8076923,16.1337337 54.8076923,20.7586969 C54.8076923,21.7497327 54.1539151,22.4103588 53.1731535,22.4103588 C52.192392,22.4103588 51.5386148,21.7497327 51.5386148,20.7586969 C51.5386148,17.9506973 49.4136952,15.8035175 46.6348069,15.8035175 C45.1636646,15.8035175 43.8559186,16.4641435 42.8751571,17.6204811 C42.3847763,18.115999 42.2213799,18.7766251 42.3847763,19.4374447 C42.3847763,20.0980708 42.8751571,20.7588904 43.3655379,21.2544084 L51.8654076,28.0265514 C53.1731535,29.0175873 53.9903271,30.5041411 54.1539151,32.1558031 C54.3173115,33.807465 53.8269307,35.2940188 52.8461692,36.4503564 C51.3750268,38.432041 49.0865193,39.4230769 46.6346154,39.4230769 Z" id="Path" fill="#0D5FFF"></path>
                <path d="M46.6346154,42.3076923 C45.769197,42.3076923 45.1923077,41.6539075 45.1923077,40.6731344 L45.1923077,11.2499425 C45.1923077,10.2691695 45.769197,9.61538462 46.6346154,9.61538462 C47.5000338,9.61538462 48.0769231,10.2691695 48.0769231,11.2499425 L48.0769231,40.6731344 C48.0769231,41.6537159 47.5000338,42.3076923 46.6346154,42.3076923 Z" id="Path" fill="#0D5FFF"></path>
                <path d="M46.6346154,82.6923077 C45.769197,82.6923077 45.1923077,82.0385228 45.1923077,81.0577498 L45.1923077,51.6345579 C45.1923077,50.6537849 45.769197,50 46.6346154,50 C47.5000338,50 48.0769231,50.6537849 48.0769231,51.6345579 L48.0769231,81.0577498 C48.0769231,82.0383313 47.5000338,82.6923077 46.6346154,82.6923077 Z" id="Path" fill="#333333"></path>
                <path d="M81.0531951,82.6923077 C80.0698044,82.6923077 79.4142746,82.0385305 79.4142746,81.0577689 L79.4142746,79.4230386 C79.4142746,74.02885 74.9890162,69.6154229 69.5803672,69.6154229 L23.6886715,69.6154229 C18.2800225,69.6154229 13.8547641,74.02885 13.8547641,79.4230386 L13.8547641,81.0575774 C13.8547641,82.0383389 13.1992343,82.6921161 12.2158436,82.6921161 C11.2324529,82.6921161 10.5769231,82.0383389 10.5769231,81.0575774 L10.5769231,79.4230386 C10.5769231,72.2307233 16.4772675,66.3461538 23.6888636,66.3461538 L69.5803672,66.3461538 C76.7919633,66.3461538 82.6923077,72.2307233 82.6923077,79.4230386 L82.6923077,81.0575774 C82.6921156,82.0383389 82.0365858,82.6923077 81.0531951,82.6923077 Z" id="Path" fill="#333333"></path>
                <path d="M21.4286266,100 L1.64829646,100 C0.65927995,100 0,99.3269822 0,98.317357 L0,81.4903353 C0,80.4807101 0.65927995,79.8076923 1.64829646,79.8076923 L21.4286266,79.8076923 C22.4176431,79.8076923 23.0769231,80.4807101 23.0769231,81.4903353 L23.0769231,98.317357 C23.0769231,99.3269822 22.4176431,100 21.4286266,100 Z M3.29659292,96.6345168 L19.780137,96.6345168 L19.780137,83.1727811 L3.29659292,83.1727811 L3.29659292,96.6345168 Z" id="Shape" fill="#333333"></path>
                <path d="M56.0440112,100 L36.2636811,100 C35.2746646,100 34.6153846,99.3269822 34.6153846,98.317357 L34.6153846,81.4903353 C34.6153846,80.4807101 35.2746646,79.8076923 36.2636811,79.8076923 L56.0440112,79.8076923 C57.0330277,79.8076923 57.6923077,80.4807101 57.6923077,81.4903353 L57.6923077,98.317357 C57.6923077,99.3269822 57.0330277,100 56.0440112,100 Z M37.9119775,96.6345168 L54.3955216,96.6345168 L54.3955216,83.1727811 L37.9119775,83.1727811 L37.9119775,96.6345168 Z" id="Shape" fill="#333333"></path>
                <path d="M90.6593958,100 L70.8790657,100 C69.8900492,100 69.2307692,99.3269822 69.2307692,98.317357 L69.2307692,81.4903353 C69.2307692,80.4807101 69.8900492,79.8076923 70.8790657,79.8076923 L90.6593958,79.8076923 C91.6484124,79.8076923 92.3076923,80.4807101 92.3076923,81.4903353 L92.3076923,98.317357 C92.3076923,99.3269822 91.6484124,100 90.6593958,100 Z M72.5273621,96.6345168 L89.0109062,96.6345168 L89.0109062,83.1727811 L72.5273621,83.1727811 L72.5273621,96.6345168 Z" id="Shape" fill="#333333"></path>
                <path d="M46.6346154,52.8846154 C32.0913752,52.8846154 20.1923077,40.9855914 20.1923077,26.4424045 C20.1923077,11.8992176 32.0913752,0 46.6346154,0 C61.1778556,0 73.0769231,11.8990239 73.0769231,26.4422109 C73.0769231,40.9853978 61.1778556,52.8846154 46.6346154,52.8846154 Z M46.6346154,3.30534898 C33.9091592,3.30534898 23.4974751,13.7169949 23.4974751,26.4424045 C23.4974751,39.1678141 33.9091592,49.5792664 46.6346154,49.5792664 C59.3600716,49.5792664 69.7717557,39.1676205 69.7717557,26.4422109 C69.7717557,13.7168013 59.3600716,3.30534898 46.6346154,3.30534898 Z" id="Shape" fill="#333333"></path>
                <path d="M14.7438088,90.3846154 L8.33330203,90.3846154 C7.37174479,90.3846154 6.73076923,89.8077261 6.73076923,88.9423077 C6.73076923,88.0768893 7.37174479,87.5 8.33330203,87.5 L14.743621,87.5 C15.7051783,87.5 16.3461538,88.0768893 16.3461538,88.9423077 C16.3461538,89.8077261 15.7053661,90.3846154 14.7438088,90.3846154 Z" id="Path" fill="#333333"></path>
                <path d="M49.3590057,90.3846154 L42.9486866,90.3846154 C41.9871294,90.3846154 41.3461538,89.8077261 41.3461538,88.9423077 C41.3461538,88.0768893 41.9871294,87.5 42.9486866,87.5 L49.3590057,87.5 C50.3205629,87.5 50.9615385,88.0768893 50.9615385,88.9423077 C50.9615385,89.8077261 50.3205629,90.3846154 49.3590057,90.3846154 Z" id="Path" fill="#333333"></path>
                <path d="M83.9743903,90.3846154 L77.5640713,90.3846154 C76.602514,90.3846154 75.9615385,89.8077261 75.9615385,88.9423077 C75.9615385,88.0768893 76.602514,87.5 77.5640713,87.5 L83.9743903,87.5 C84.9359475,87.5 85.5769231,88.0768893 85.5769231,88.9423077 C85.5769231,89.8077261 84.9359475,90.3846154 83.9743903,90.3846154 Z" id="Path" fill="#333333"></path>
            </g>
        </g>
    </g>
</svg>