<?xml version="1.0" encoding="UTF-8"?>
<svg width="42px" height="46px" viewBox="0 0 42 46" version="1.1" xmlns="http://www.w3.org/2000/svg" xmlns:xlink="http://www.w3.org/1999/xlink">
    <!-- Generator: Sketch 54 (76480) - https://sketchapp.com -->
    <title>zhishixiaojie</title>
    <desc>Created with Sketch.</desc>
    <g id="Page-1" stroke="none" stroke-width="1" fill="none" fill-rule="evenodd">
        <g id="MIKA-1" transform="translate(-939.000000, -1807.000000)">
            <rect id="矩形" stroke="#0D5FFF" stroke-width="4" x="782" y="1772" width="356" height="296"></rect>
            <g id="zhishixiaojie" transform="translate(940.000000, 1807.000000)" fill="#FFFFFF" fill-rule="nonzero">
                <path d="M34.5433156,0.00470764415 L5.09150561,0.00470764415 C2.28898521,0.00470764415 0.0151056138,2.26437281 0.0151056627,5.03335932 L0.0151056627,40.6930276 C0.0151056627,43.4691876 2.29622692,45.7216792 5.09150561,45.7216792 L34.5433156,45.7216792 C37.3458359,45.7216792 39.6197155,43.4620141 39.6197155,40.6930276 L39.6197155,5.03335932 C39.6197155,2.26437281 37.3458359,0.00470764415 34.5433156,0.00470764415 Z M29.0686246,3.43365985 L29.0686246,16.1523466 L27.946168,15.1050097 C27.3016608,14.4952588 26.2878291,14.4952588 25.6360802,15.0906627 L24.3977572,16.224082 L24.3977572,3.4408334 L29.0686246,3.4408334 L29.0686246,3.43365985 L29.0686246,3.43365985 Z M36.2378627,40.6930276 C36.2378627,41.6184142 35.477489,42.371636 34.5433156,42.371636 L5.09150561,42.371636 C4.15733216,42.371636 3.39695837,41.6184143 3.39695842,40.6930276 L3.39695842,5.03335932 C3.39695842,4.10797265 4.15733216,3.3547509 5.09150561,3.3547509 L21.0086628,3.3547509 L21.0086628,20.0475789 C21.0086628,20.7147182 21.4069538,21.3172956 22.0224945,21.5827165 C22.6380351,21.8481375 23.354959,21.7333609 23.8473915,21.2814278 L26.7657783,18.6128709 L29.5972654,21.2670807 C29.9158982,21.5683694 30.3359142,21.7261873 30.7631718,21.7261873 C30.987663,21.7261873 31.219396,21.6831461 31.429404,21.5898901 C32.0521863,21.3244691 32.4504773,20.7218917 32.4504773,20.0475789 L32.4504773,3.36192444 L34.5433156,3.36192444 C35.477489,3.36192444 36.2378628,4.11514615 36.2378627,5.04053287 L36.2378627,40.6930276 L36.2378627,40.6930276 Z" id="Shape"></path>
                <path d="M20.7407216,25.5568578 L9.60305655,25.5568578 C8.66888311,25.5568578 7.90850932,26.3100795 7.90850932,27.2354662 C7.90850932,28.1608529 8.66888306,28.9140746 9.60305655,28.9140746 L20.7334799,28.9140746 C21.6676533,28.9140746 22.4280271,28.1608529 22.4280271,27.2354662 C22.4280271,26.3100795 21.6748951,25.5568578 20.7407216,25.5568578 Z M16.2364123,34.1794531 L9.61029821,34.1794531 C8.67612477,34.1794531 7.91575098,34.9326748 7.91575098,35.8580615 C7.91575098,36.7834482 8.67612472,37.5366699 9.61029821,37.5366699 L16.2364123,37.5366699 C17.1705858,37.5366699 17.9309596,36.7834482 17.9309595,35.8580615 C17.9309595,34.9255013 17.1705858,34.1794531 16.2364123,34.1794531 Z" id="Shape"></path>
            </g>
        </g>
    </g>
</svg>