<?xml version="1.0" encoding="UTF-8"?>
<svg width="42px" height="40px" viewBox="0 0 42 40" version="1.1" xmlns="http://www.w3.org/2000/svg" xmlns:xlink="http://www.w3.org/1999/xlink">
    <!-- Generator: Sketch 54 (76480) - https://sketchapp.com -->
    <title>zhishidianchuti</title>
    <desc>Created with Sketch.</desc>
    <g id="Page-1" stroke="none" stroke-width="1" fill="none" fill-rule="evenodd">
        <g id="MIKA-1" transform="translate(-1329.000000, -1801.000000)">
            <rect id="矩形-copy" stroke="#0D5FFF" stroke-width="4" x="1173" y="1772" width="355" height="296"></rect>
            <g id="zhishidianchuti" transform="translate(1330.000000, 1801.000000)" fill="#FFFFFF" fill-rule="nonzero">
                <path d="M4.96605238,2.5 C3.59471488,2.5 2.48302619,3.61928813 2.48302619,5 L2.48302619,35 C2.48302619,36.3807119 3.59471488,37.5 4.96605238,37.5 L16.1396702,37.5 C17.5110077,37.5 18.6226964,36.3807119 18.6226964,35 L18.6226964,5 C18.6226964,3.61928813 17.5110077,2.5 16.1396702,2.5 L4.96605238,2.5 Z M4.96605238,0 L16.1396702,0 C18.8823452,1.69088438e-16 21.1057226,2.23857625 21.1057226,5 L21.1057226,35 C21.1057226,37.7614237 18.8823452,40 16.1396702,40 L4.96605238,40 C2.22337738,40 3.35880815e-16,37.7614237 0,35 L0,5 C-3.35880815e-16,2.23857625 2.22337738,5.07265313e-16 4.96605238,0 Z" id="Shape"></path>
                <path d="M6.10824442,13.75 C5.42257567,13.75 4.86673133,13.1903559 4.86673133,12.5 C4.86673133,11.8096441 5.42257567,11.25 6.10824442,11.25 L15.551193,11.25 C16.2368618,11.25 16.7927061,11.8096441 16.7927061,12.5 C16.7927061,13.1903559 16.2368618,13.75 15.551193,13.75 L6.11072745,13.75 L6.10824442,13.75 Z M6.10824442,21.25 C5.42257567,21.25 4.86673133,20.6903559 4.86673133,20 C4.86673133,19.3096441 5.42257567,18.75 6.10824442,18.75 L13.3288846,18.75 C14.0145533,18.75 14.5703977,19.3096441 14.5703977,20 C14.5703977,20.6903559 14.0145533,21.25 13.3288846,21.25 L6.11072745,21.25 L6.10824442,21.25 Z M6.10824442,28.75 C5.42257567,28.75 4.86673133,28.1903559 4.86673133,27.5 C4.86673133,26.8096441 5.42257567,26.25 6.10824442,26.25 L11.1090592,26.25 C11.7947279,26.25 12.3505723,26.8096441 12.3505723,27.5 C12.3505723,28.1903559 11.7947279,28.75 11.1090592,28.75 L6.10824442,28.75 Z" id="Shape"></path>
                <path d="M23.8494665,2.5 C22.478129,2.5 21.3664403,3.61928813 21.3664403,5 L21.3664403,35 C21.3664403,36.3807119 22.478129,37.5 23.8494665,37.5 L35.0230844,37.5 C36.3944219,37.5 37.5061106,36.3807119 37.5061106,35 L37.5061106,5 C37.5061106,3.61928813 36.3944219,2.5 35.0230844,2.5 L23.8494665,2.5 Z M23.8494665,0 L35.0230844,0 C37.7657594,1.69088438e-16 39.9891368,2.23857625 39.9891368,5 L39.9891368,35 C39.9891368,37.7614237 37.7657594,40 35.0230844,40 L23.8494665,40 C21.1067915,40 18.8834142,37.7614237 18.8834142,35 L18.8834142,5 C18.8834142,2.23857625 21.1067915,5.07265313e-16 23.8494665,0 Z" id="Shape"></path>
                <path d="M24.9941416,13.75 C24.3084729,13.75 23.7526285,13.1903559 23.7526285,12.5 C23.7526285,11.8096441 24.3084729,11.25 24.9941416,11.25 L34.4346072,11.25 C35.1202759,11.25 35.6761203,11.8096441 35.6761203,12.5 C35.6761203,13.1903559 35.1202759,13.75 34.4346072,13.75 L24.9941416,13.75 Z M24.9941416,21.25 C24.3084729,21.25 23.7526285,20.6903559 23.7526285,20 C23.7526285,19.3096441 24.3084729,18.75 24.9941416,18.75 L32.2147818,18.75 C32.9004505,18.75 33.4562949,19.3096441 33.4562949,20 C33.4562949,20.6903559 32.9004505,21.25 32.2147818,21.25 L24.9941416,21.25 Z M24.9941416,28.75 C24.3084729,28.75 23.7526285,28.1903559 23.7526285,27.5 C23.7526285,26.8096441 24.3084729,26.25 24.9941416,26.25 L29.9924733,26.25 C30.6781421,26.25 31.2339864,26.8096441 31.2339864,27.5 C31.2339864,28.1903559 30.6781421,28.75 29.9924733,28.75 L24.9941416,28.75 Z" id="Shape"></path>
            </g>
        </g>
    </g>
</svg>