<?xml version="1.0" encoding="UTF-8"?>
<svg width="85px" height="100px" viewBox="0 0 85 100" version="1.1" xmlns="http://www.w3.org/2000/svg" xmlns:xlink="http://www.w3.org/1999/xlink">
    <!-- Generator: Sketch 54 (76480) - https://sketchapp.com -->
    <title>knowledge (1)</title>
    <desc>Created with Sketch.</desc>
    <g id="Page-1" stroke="none" stroke-width="1" fill="none" fill-rule="evenodd">
        <g id="MIKA-1" transform="translate(-1285.000000, -1926.000000)" fill-rule="nonzero">
            <g id="knowledge-(1)" transform="translate(1285.000000, 1926.000000)">
                <g id="Group" fill="#333333">
                    <path d="M84.6362903,37.0806452 C84.6362903,16.8935484 68.2185484,0.261290323 48.0395161,0.00322580645 C47.8814516,0.00161290323 47.725,0 47.5701613,0 C30.1475806,0 14.9153226,12.4112903 11.2491935,29.6741935 C10.3443548,33.9387097 10.2314516,38.3322581 10.9104839,42.7451613 L0.00725806452,62.2467742 L12.0604839,65.7290323 L12.0862903,85.4532258 L28.2137097,85.4532258 L28.2137097,99.9693548 L31.4395161,99.9693548 L31.4395161,82.2274194 L15.308871,82.2274194 L15.2830645,63.3032258 L4.80564516,60.2741935 L14.2782258,43.333871 L14.1830645,42.7725806 C13.4717742,38.5725806 13.5443548,34.3903226 14.4056452,30.3451613 C17.7862903,14.4274194 31.8733871,3.06774194 47.9975806,3.22903226 C66.4217742,3.46451613 81.4104839,18.6516129 81.4104839,37.0822581 L81.4137097,42.9693548 C81.4233871,55.8903226 75.0604839,67.9870968 64.3943548,75.3290323 L63.6959677,75.8096774 L63.6959677,99.9693548 L66.9217742,99.9693548 L66.9217742,77.4951613 C78.0427419,69.5080645 84.6491935,56.666129 84.6395161,42.966129 L84.6362903,37.0806452 Z" id="Path"></path>
                    <polygon id="Path" points="58.0508065 11.4903226 49.1556452 6.15322581 40.2604839 11.4903226 41.9217742 14.2564516 47.5427419 10.8822581 47.5427419 51.5822581 50.7685484 51.5822581 50.7685484 10.8822581 56.3895161 14.2564516"></polygon>
                    <rect id="Rectangle" x="47.5427419" y="54.8080645" width="3.22580645" height="3.22580645"></rect>
                    <rect id="Rectangle" x="47.5427419" y="61.2596774" width="3.22580645" height="3.22580645"></rect>
                    <rect id="Rectangle" x="47.5427419" y="67.7112903" width="3.22580645" height="3.22580645"></rect>
                    <polygon id="Path" points="34.6395161 29.0016129 31.4137097 29.0016129 31.4137097 33.8403226 26.575 33.8403226 26.575 37.066129 31.4137097 37.066129 31.4137097 41.9048387 34.6395161 41.9048387 34.6395161 37.066129 39.4782258 37.066129 39.4782258 33.8403226 34.6395161 33.8403226"></polygon>
                    <polygon id="Path" points="26.575 58.033871 26.575 53.1951613 31.4137097 53.1951613 31.4137097 49.9693548 26.575 49.9693548 26.575 45.1306452 23.3491935 45.1306452 23.3491935 49.9693548 18.5104839 49.9693548 18.5104839 53.1951613 23.3491935 53.1951613 23.3491935 58.033871"></polygon>
                    <polygon id="Path" points="65.2846774 30.6145161 65.2846774 25.7758065 70.1233871 25.7758065 70.1233871 22.55 65.2846774 22.55 65.2846774 17.7112903 62.058871 17.7112903 62.058871 22.55 57.2201613 22.55 57.2201613 25.7758065 62.058871 25.7758065 62.058871 30.6145161"></polygon>
                    <polygon id="Path" points="68.5104839 51.5822581 71.7362903 51.5822581 71.7362903 46.7435484 76.575 46.7435484 76.575 43.5177419 71.7362903 43.5177419 71.7362903 38.6790323 68.5104839 38.6790323 68.5104839 43.5177419 63.6717742 43.5177419 63.6717742 46.7435484 68.5104839 46.7435484"></polygon>
                </g>
                <g id="Group" transform="translate(42.540323, 16.129032)" fill="#21B3A7">
                    <rect id="Rectangle" x="9.84112903" y="0" width="3.22580645" height="3.22580645"></rect>
                    <rect id="Rectangle" x="9.84112903" y="6.4516129" width="3.22580645" height="3.22580645"></rect>
                    <rect id="Rectangle" x="9.84112903" y="12.9032258" width="3.22580645" height="3.22580645"></rect>
                    <rect id="Rectangle" x="9.84112903" y="19.3548387" width="3.22580645" height="3.22580645"></rect>
                    <rect id="Rectangle" x="9.84112903" y="25.8064516" width="3.22580645" height="3.22580645"></rect>
                    <rect id="Rectangle" x="9.84112903" y="32.2580645" width="3.22580645" height="3.22580645"></rect>
                    <rect id="Rectangle" x="9.84112903" y="38.7096774" width="3.22580645" height="3.22580645"></rect>
                    <rect id="Rectangle" x="9.84112903" y="45.1612903" width="3.22580645" height="3.22580645"></rect>
                    <rect id="Rectangle" x="9.84112903" y="51.6129032" width="3.22580645" height="3.22580645"></rect>
                    <rect id="Rectangle" x="9.84112903" y="58.0645161" width="3.22580645" height="3.22580645"></rect>
                    <rect id="Rectangle" x="0.163709677" y="3.22580645" width="3.22580645" height="3.22580645"></rect>
                    <rect id="Rectangle" x="0.163709677" y="9.67741935" width="3.22580645" height="3.22580645"></rect>
                    <rect id="Rectangle" x="0.163709677" y="16.1290323" width="3.22580645" height="3.22580645"></rect>
                    <rect id="Rectangle" x="0.163709677" y="22.5806452" width="3.22580645" height="3.22580645"></rect>
                    <rect id="Rectangle" x="0.163709677" y="29.0322581" width="3.22580645" height="3.22580645"></rect>
                    <rect id="Rectangle" x="0.163709677" y="35.483871" width="3.22580645" height="3.22580645"></rect>
                    <rect id="Rectangle" x="0.163709677" y="41.9354839" width="3.22580645" height="3.22580645"></rect>
                    <rect id="Rectangle" x="0.163709677" y="48.3870968" width="3.22580645" height="3.22580645"></rect>
                    <rect id="Rectangle" x="0.163709677" y="54.8387097" width="3.22580645" height="3.22580645"></rect>
                </g>
            </g>
        </g>
    </g>
</svg>