<?xml version="1.0" encoding="UTF-8"?>
<svg width="283px" height="178px" viewBox="0 0 283 178" version="1.1" xmlns="http://www.w3.org/2000/svg" xmlns:xlink="http://www.w3.org/1999/xlink">
    <!-- Generator: Sketch 54 (76480) - https://sketchapp.com -->
    <title>Group 3</title>
    <desc>Created with Sketch.</desc>
    <defs>
        <linearGradient x1="100%" y1="50%" x2="-57.494213%" y2="50%" id="linearGradient-1">
            <stop stop-color="#80DCC5" offset="0%"></stop>
            <stop stop-color="#0D5FFF" offset="100%"></stop>
        </linearGradient>
        <circle id="path-2" cx="183" cy="60" r="14"></circle>
        <filter x="-25.0%" y="-17.9%" width="150.0%" height="150.0%" filterUnits="objectBoundingBox" id="filter-3">
            <feOffset dx="0" dy="2" in="SourceAlpha" result="shadowOffsetOuter1"></feOffset>
            <feGaussianBlur stdDeviation="2" in="shadowOffsetOuter1" result="shadowBlurOuter1"></feGaussianBlur>
            <feColorMatrix values="0 0 0 0 0.314369351   0 0 0 0 0.8883757   0 0 0 0 0.759899616  0 0 0 1 0" type="matrix" in="shadowBlurOuter1"></feColorMatrix>
        </filter>
    </defs>
    <g id="Page-1" stroke="none" stroke-width="1" fill="none" fill-rule="evenodd">
        <g id="MIKA-1" transform="translate(-436.000000, -1545.000000)">
            <g id="Group-3" transform="translate(436.000000, 1545.000000)">
                <g id="profits" fill="#333333" fill-rule="nonzero">
                    <path d="M182.958591,155.833758 L182.958591,142.274406 C182.964726,142.100922 182.950923,141.927439 182.918717,141.75549 C182.93712,141.669516 182.950923,141.580471 182.958591,141.492962 L182.958591,55.2685598 C183.013803,54.9753268 183.013803,54.6744169 182.958591,54.382719 L182.958591,23.1863824 C182.958591,22.2283847 182.380405,21.3640373 181.493953,21.0017176 C180.605968,20.639398 179.589157,20.851263 178.918951,21.5359856 L158.59499,42.3279142 L140.356796,30.9363385 C139.36759,30.3160964 138.071654,30.5172146 137.315564,31.4076612 L119.473052,52.4314126 L112.484198,49.486798 C111.456651,49.0523214 110.265003,49.4008238 109.631605,50.3204404 L98.1614189,66.9502985 L78.940154,47.2990629 C78.3527651,46.6972438 77.4893191,46.4546736 76.6749496,46.663468 C75.8605801,46.8707272 75.2179797,47.4971104 74.9894656,48.3077239 L66.3626712,78.7364341 L61.7969882,75.8793287 C60.7755755,75.2421987 59.4382307,75.4770923 58.6959429,76.4258783 L47.2809684,91.0077095 L31.5472288,74.4684313 C30.9889797,73.8804294 30.1684756,73.6225069 29.3740435,73.7821732 C28.5612079,73.9403044 27.8802663,74.4945305 27.5612666,75.2606218 L18.0602901,100.222297 L18.0602901,2.17030716 C18.0878957,1.58230524 17.8624491,1.0081209 17.4422281,0.595137605 C17.0220076,0.182154704 16.4453543,-0.0327806854 15.8564318,0.00406538139 L2.3112142,0.00406538139 C1.010677,0.00406538139 0,0.869947952 0,2.17030716 L0,155.833758 C0,157.135653 1.010677,158 2.31274775,158 L180.645844,158 C181.947914,158 182.958591,157.135653 182.958591,155.833758 Z M18.0602901,139.920863 L18.0602901,139.024276 L27.8572614,120.777796 L42.8609825,124.01718 C43.8501881,124.23058 44.8669998,123.794568 45.3945762,122.930221 L58.5119047,101.195647 L70.4314508,110.046379 C71.4451949,110.797118 72.8684243,110.619028 73.6643899,109.639537 L93.904,84.7408074 L114.212625,100.0918 C115.224835,100.856356 116.6588,100.682872 117.459367,99.6987754 L130.130402,84.1512703 L143.264601,92.5168631 C143.844322,92.8853237 144.555936,92.9835799 145.213873,92.7839968 C145.87181,92.5844142 146.408588,92.1069505 146.686179,91.4790322 L157.412544,67.1115 L167.372082,72.2822313 C168.372024,72.8011466 169.600479,72.5386187 170.301359,71.6543131 L178.247211,61.639859 L178.247211,139.920863 L18.0602901,139.920863 Z M30.6439076,80.4390293 L45.7105084,96.2383158 C46.1905418,96.7342026 46.8607478,96.9998012 47.5493576,96.967561 C48.2349003,96.9337852 48.8728997,96.6052409 49.2992549,96.0663675 L61.0945752,81.0040023 L66.5252381,84.3984463 C67.1540358,84.791471 67.9300637,84.8651632 68.621741,84.5995645 C69.3134183,84.3324304 69.8394608,83.7551753 70.0403693,83.0412829 L78.4141112,53.5060896 L96.793401,72.2914427 C97.2857033,72.7950056 97.9773806,73.0513929 98.6767261,72.9915179 C99.3776055,72.9316434 100.015605,72.5616472 100.415888,71.982857 L112.421319,54.5776962 L119.233802,57.4486187 C120.1816,57.8477845 121.278161,57.5867917 121.943766,56.8022774 L139.588436,36.0134196 L157.705472,47.3328382 C158.644067,47.9193046 159.86332,47.7734559 160.636281,46.9828006 L178.247211,28.9681442 L178.247211,54.0557103 L167.818375,67.2020796 L157.351198,61.7688203 C156.773011,61.4694459 156.098204,61.421853 155.483209,61.6383235 C154.869748,61.8547944 154.372845,62.3153703 154.110591,62.9110483 L143.477779,87.0636452 L130.894161,79.0465549 C129.886552,78.4048195 128.558409,78.6182197 127.803852,79.5439768 L115.240172,94.9594499 L94.9300133,79.6069221 C93.9193367,78.8423664 92.4838381,79.0158499 91.6832714,79.9999468 L71.4344592,104.915565 L59.2480578,95.8637141 C58.7143468,95.4676187 58.0395397,95.3156286 57.3892711,95.4430547 C56.737469,95.5720159 56.1700174,95.9696465 55.8280128,96.5376902 L42.2505886,119.052172 L27.1901225,115.78976 C26.1395707,115.567148 25.0660141,116.050753 24.5369041,116.984187 L18.0602901,129.00061 L18.0602901,113.559038 L30.6439076,80.4390293 Z M178.247211,153.283703 L4.71138004,153.283703 L4.71138004,4.72036194 L13.3489101,4.72036194 L13.3489101,142.275941 C13.4209919,143.607005 14.5252216,144.647907 15.8564318,144.63716 L178.247211,144.63716 L178.247211,153.283703 Z" id="Shape"></path>
                </g>
                <g id="search" transform="translate(136.000000, 31.000000)" fill-rule="nonzero">
                    <path d="M147,135.372014 L103.60201,91.9740243 C110.805769,82.3607884 115.128573,70.4723926 115.128573,57.5642866 C115.128573,25.8216943 89.306879,0 57.5642866,0 C25.8216943,0 0,25.8216943 0,57.5642866 C0,89.306879 25.8216943,115.128573 57.5642866,115.128573 C70.4723926,115.128573 82.3607884,110.805769 91.9740243,103.60201 L135.372014,147 L147,135.372014 Z M5.48231301,57.5642866 C5.48231301,28.8451899 28.8451899,5.48231301 57.5642866,5.48231301 C86.2833834,5.48231301 109.64626,28.8451899 109.64626,57.5642866 C109.64626,86.2833834 86.2833834,109.64626 57.5642866,109.64626 C28.8451899,109.64626 5.48231301,86.2833834 5.48231301,57.5642866 Z" id="Shape" fill="#333333"></path>
                    <path d="M5.48231301,57.5642866 C5.48231301,28.8451899 28.8451899,5.48231301 57.5642866,5.48231301 C86.2833834,5.48231301 109.64626,28.8451899 109.64626,57.5642866 C109.64626,86.2833834 86.2833834,109.64626 57.5642866,109.64626 C28.8451899,109.64626 5.48231301,86.2833834 5.48231301,57.5642866 Z" id="Path" fill="#FFFFFF"></path>
                </g>
                <polyline id="Path-5" stroke="#333333" stroke-width="5" points="136 84.9244276 150.361437 97.1405021 180.517687 58"></polyline>
                <g id="Oval" fill-rule="nonzero">
                    <use fill="black" fill-opacity="1" filter="url(#filter-3)" xlink:href="#path-2"></use>
                    <use fill="url(#linearGradient-1)" xlink:href="#path-2"></use>
                </g>
            </g>
        </g>
    </g>
</svg>