<?xml version="1.0" encoding="UTF-8"?>
<svg width="100px" height="100px" viewBox="0 0 100 100" version="1.1" xmlns="http://www.w3.org/2000/svg" xmlns:xlink="http://www.w3.org/1999/xlink">
    <!-- Generator: Sketch 54 (76480) - https://sketchapp.com -->
    <title>product-icon1</title>
    <desc>Created with Sketch.</desc>
    <g id="Page-1" stroke="none" stroke-width="1" fill="none" fill-rule="evenodd">
        <g id="MIKA2" transform="translate(-502.000000, -1881.000000)" fill-rule="nonzero">
            <g id="product-icon1" transform="translate(502.000000, 1881.000000)">
                <path d="M25.2717391,86.5917426 L23.3544565,86.5917426 C24.6044858,84.6897383 25.2707009,82.4667722 25.2717391,80.1943278 L25.2717391,75.9791069 C25.2725031,75.0523434 25.1182028,74.1319162 24.815163,73.2555547 L19.6041304,58.1829973 C19.1502761,56.4981677 17.8526858,55.1667399 16.173913,54.6633298 L19.3497283,42.8590352 C19.9196006,40.8075985 19.1134898,38.6228609 17.344837,37.4253389 C16.8865881,37.0979479 16.3730204,36.8549864 15.8285326,36.7079971 C15.3905089,36.5821977 14.9366123,36.5195466 14.4807065,36.5219576 C12.2174978,36.5009588 10.222688,37.995828 9.61842391,40.1656515 L0.628423913,67.6525791 C0.175987718,69.0503126 0.0970226516,70.5411236 0.399293478,71.9784181 L2.99722826,82.0212029 C3.24391656,82.9738969 3.36901319,83.9537051 3.36956522,84.9374989 L3.36956522,86.5917426 L1.68478261,86.5917426 C0.754302867,86.5917426 0,87.3421278 0,88.2677748 L0,98.3239678 C0,99.2496148 0.754302867,100 1.68478261,100 L25.2717391,100 C26.2022189,100 26.9565217,99.2496148 26.9565217,98.3239678 L26.9565217,88.2677748 C26.9565217,87.3421278 26.2022189,86.5917426 25.2717391,86.5917426 Z M6.26065217,81.1781587 L3.68293478,71.2242037 C3.51274381,70.3779334 3.56438231,69.5023296 3.83288043,68.6816629 L12.8515217,41.1042295 C12.9672321,40.6773314 13.2497526,40.3141965 13.6361515,40.0957132 C14.0225504,39.8772299 14.4807339,39.8215453 14.9086413,39.9410632 C15.0947503,39.9887753 15.2698175,40.0718702 15.4241848,40.1857639 C16.0170968,40.5811196 16.2886778,41.3099043 16.0980978,41.9942026 L12.6190217,54.9147346 C10.8183206,55.7227314 9.66344719,57.5084117 9.67065217,59.4735421 C9.66409759,59.9134059 9.72083172,60.3519405 9.83913043,60.7758191 L12.888587,72.1091487 C13.1295812,73.0033237 14.0536022,73.533846 14.9524457,73.2941034 C15.8512891,73.0543608 16.3845812,72.135139 16.143587,71.240964 L13.0890761,59.8690857 C13.0539515,59.7402227 13.0374993,59.6070312 13.0402174,59.4735421 C13.0335495,58.7680292 13.4846153,58.1385987 14.1572283,57.9148322 C14.1959783,57.9014239 14.3560326,57.8477909 14.3813043,57.8427628 C15.2996628,57.6624668 16.1926257,58.2516925 16.3828261,59.1634762 L21.6275543,74.3466516 C21.8096915,74.8718301 21.9025047,75.4235509 21.9021739,75.9791069 L21.9021739,80.1943278 C21.9035279,81.8493026 21.4109825,83.467427 20.4869565,84.8436411 L19.3160326,86.5917426 L6.73913043,86.5917426 L6.73913043,84.9374989 C6.73854933,83.6693949 6.57779745,82.4063887 6.26065217,81.1781587 L6.26065217,81.1781587 Z M23.5869565,96.6479357 L3.36956522,96.6479357 L3.36956522,89.943807 L23.5869565,89.943807 L23.5869565,96.6479357 Z" id="Shape" fill="#000000"></path>
                <path d="M73.0434783,88.2665251 L73.0434783,98.3237893 C73.0434783,99.2495349 73.7977811,100 74.7282609,100 L98.3152174,100 C99.2456971,100 100,99.2495349 100,98.3237893 L100,88.2665251 C100,87.3407795 99.2456971,86.5903144 98.3152174,86.5903144 L96.6304348,86.5903144 L96.6304348,84.9358944 C96.6302785,83.949191 96.7553808,82.9664184 97.0027717,82.0109067 L99.6007065,71.9670522 C99.9029773,70.5296045 99.8240123,69.0386347 99.3715761,67.6407523 L90.3815761,40.1592778 C89.7755895,37.9949152 87.7859006,36.5038852 85.5277174,36.5219006 C85.0718117,36.5194894 84.617915,36.5821472 84.1798913,36.70796 C83.6354035,36.8549649 83.1218358,37.0979523 82.663587,37.4253782 C80.8949341,38.6230278 80.0888233,40.8079981 80.6586957,42.8596533 L83.826087,54.6652053 C82.1473142,55.1686691 80.8497239,56.5002387 80.3958696,58.1852478 L75.184837,73.2594106 C74.882534,74.1337377 74.7282438,75.0519362 74.7282609,75.9765482 L74.7282609,80.1922181 C74.7292991,82.4649045 75.3955142,84.6881075 76.6455435,86.5903144 L74.7282609,86.5903144 C73.7977811,86.5903144 73.0434783,87.3407795 73.0434783,88.2665251 Z M93.2608696,84.9358944 L93.2608696,86.5903144 L80.6839674,86.5903144 L79.5130435,84.8420266 C78.5890175,83.4656659 78.0964721,81.8473691 78.0978261,80.1922181 L78.0978261,75.9765482 C78.0974953,75.4209329 78.1903085,74.8691534 78.3724457,74.343919 L83.6171739,59.1591262 C83.8073743,58.2472454 84.7003372,57.6579569 85.6186957,57.8382721 C85.6439674,57.8382721 85.8040217,57.8969395 85.8427717,57.9103492 C86.5153847,58.1341396 86.9664505,58.7636371 86.9597826,59.4692252 C86.9625007,59.6027284 86.9460485,59.7359341 86.9109239,59.8648109 L83.8496739,71.2379005 C83.6086797,72.1321708 84.1419718,73.0514905 85.0408152,73.2912586 C85.9396586,73.5310267 86.8636796,73.0004479 87.1046739,72.1061777 L90.1541304,60.7716409 C90.2724292,60.3477171 90.3291633,59.9091358 90.3226087,59.4692252 C90.3310064,57.5054561 89.1790462,55.7200094 87.3809783,54.909932 L83.903587,41.9863475 C83.713007,41.3019763 83.984588,40.573114 84.5775,40.1777162 C84.7318673,40.0638103 84.9069345,39.9807065 85.0930435,39.9329894 C85.5209509,39.8134588 85.9791343,39.8691493 86.3655333,40.0876558 C86.7519322,40.3061624 87.0344527,40.669336 87.150163,41.0962796 L96.1688043,68.6766506 C96.4373025,69.4974047 96.488941,70.3731018 96.31875,71.2194622 L93.7410326,81.1744776 C93.4231791,82.4033098 93.2618599,83.6670236 93.2608696,84.9358944 L93.2608696,84.9358944 Z M76.4130435,89.9427358 L96.6304348,89.9427358 L96.6304348,96.6475786 L76.4130435,96.6475786 L76.4130435,89.9427358 Z" id="Shape" fill="#000000"></path>
                <path d="M77.2634269,11.7752898 L50.6649615,0.138781751 C50.2409646,-0.0462605835 49.7590352,-0.0462605835 49.3350383,0.138781751 L22.7365729,11.7752898 C22.1310332,12.0395616 21.7394708,12.6373303 21.7391304,13.29801 L21.7391304,46.5451757 C21.7391315,47.1702797 22.089819,47.7425397 22.6468031,48.0263369 L49.2452685,61.5579334 C49.4790231,61.6770383 49.737649,61.7391296 49.9999999,61.7391304 C50.2590621,61.7387039 50.514519,61.6783973 50.7464193,61.5629205 L77.3448847,48.1975598 C77.9066983,47.9152562 78.2611638,47.3401502 78.2608694,46.7114115 L78.2608694,13.29801 C78.260529,12.6373303 77.8689666,12.0395616 77.2634269,11.7752898 Z M49.9999999,3.47513483 L72.4507671,13.29801 L49.9999999,23.1208851 L44.1649616,20.5675027 L53.0438618,16.6825714 C53.6486351,16.4177077 54.0393455,15.8200659 54.0393455,15.1598512 C54.0393455,14.4996366 53.6486351,13.9019948 53.0438618,13.637131 L45.9104859,10.5268587 C45.4864889,10.3418164 45.0045595,10.3418164 44.5805626,10.5268587 L32.8921995,15.6352857 L27.5575447,13.29801 L49.9999999,3.47513483 Z M35.0383631,20.2034463 L38.3631713,21.6580098 L38.3631713,28.8942554 L35.0383631,27.2318971 L35.0383631,20.2034463 Z M37.033248,17.450581 L45.2388746,13.8648741 L48.2145779,15.1631759 L40.0255754,18.7522075 L37.033248,17.450581 Z M25.0639386,15.8397558 L31.713555,18.7488828 L31.713555,28.2592345 C31.7132613,28.8893115 32.0692236,29.4654008 32.6328644,29.7470452 L39.2824808,33.0717618 C39.7979285,33.3293248 40.4099967,33.3016051 40.9000514,32.9985043 C41.390106,32.6954035 41.688248,32.1601545 41.6879795,31.5839511 L41.6879795,23.1059238 L48.3375958,26.0150508 L48.3375958,57.3654658 L25.0639386,45.5261501 L25.0639386,15.8397558 Z M51.662404,57.380427 L51.662404,26.0217003 L74.9360612,15.8397558 L74.9360612,45.6857365 L51.662404,57.380427 Z" id="Shape" fill="#0D5FFF"></path>
                <path d="M60.9588873,45.4030092 L53.9997904,48.8922925 C53.14277,49.322871 52.7979209,50.3649876 53.2295484,51.2199251 C53.6611759,52.0748626 54.7058314,52.4188736 55.5628518,51.9882951 L62.5219488,48.4990118 C63.3789692,48.0684333 63.7238182,47.0263167 63.2921907,46.1713792 C62.8605632,45.3164417 61.8159077,44.9724308 60.9588873,45.4030092 Z" id="Path" fill="#000000"></path>
                <path d="M55.5224047,45.2173905 C55.7724721,45.2173723 56.0190878,45.1540151 56.2426481,45.0323552 L62.593008,41.5673072 C63.3863471,41.1334725 63.705572,40.0834749 63.3060167,39.222072 C62.9064615,38.360669 61.9394296,38.0140565 61.1460905,38.4478912 L54.7973383,41.9129392 C54.1321091,42.2769661 53.7843267,43.0895123 53.9569729,43.8763382 C54.1296192,44.6631642 54.7774679,45.2181542 55.5224047,45.2173905 L55.5224047,45.2173905 Z" id="Path" fill="#000000"></path>
            </g>
        </g>
    </g>
</svg>