<?xml version="1.0" encoding="UTF-8"?>
<svg width="110px" height="110px" viewBox="0 0 110 110" version="1.1" xmlns="http://www.w3.org/2000/svg" xmlns:xlink="http://www.w3.org/1999/xlink">
    <!-- Generator: Sketch 54 (76480) - https://sketchapp.com -->
    <title>product-icon2</title>
    <desc>Created with Sketch.</desc>
    <g id="Page-1" stroke="none" stroke-width="1" fill="none" fill-rule="evenodd">
        <g id="MIKA2" transform="translate(-896.000000, -1879.000000)" fill-rule="nonzero">
            <g id="product-icon2" transform="translate(896.000000, 1879.000000)">
                <path d="M109.450484,43.7014802 L65.6207625,0.533526574 L65.6207625,0.524342684 C65.5767088,0.482096793 65.5179706,0.465565792 65.4702458,0.426993457 C65.3390026,0.309898867 65.1910099,0.212779237 65.0315448,0.13861933 C64.5836659,-0.0462064434 64.0807199,-0.0462064434 63.6328411,0.13861933 C63.4288634,0.22747346 63.2425531,0.351685564 63.0821703,0.505974905 C63.0704685,0.514470003 63.0580784,0.522505906 63.0454589,0.529853018 L18.7715297,44.5574187 C18.4216243,44.9006666 18.2233828,45.3695041 18.2208589,45.8596942 C18.2208589,45.8982665 18.2410502,45.9294918 18.2428857,45.9662273 C18.2483924,46.1687321 18.288775,46.3687113 18.3621977,46.5576698 C18.4486989,46.7672921 18.5730587,46.9592354 18.7293116,47.1233974 C18.7384894,47.1325813 18.740325,47.1454387 18.7495028,47.1546226 C19.0952782,47.502692 19.5658722,47.6978497 20.0564281,47.6964721 L36.576551,47.6964721 C37.590244,47.6964721 38.4121202,46.8740548 38.4121202,45.8596942 C38.6277995,41.6298244 41.9588988,38.2232902 46.180249,37.9156299 C50.1342946,37.8809607 53.3706325,41.0546833 53.4160629,45.0111028 C53.4160629,46.0254634 54.237939,46.8478807 55.2516321,46.8478807 L62.4856103,46.8478807 L62.4856103,52.2737226 C56.6315212,53.1907339 52.6286037,58.6826998 53.5450116,64.5408732 C54.2643253,69.1399354 57.8638765,72.7512703 62.4580768,73.4829967 L62.2745198,89.9203219 C62.2623592,90.9346825 63.0741397,91.7669725 64.0878328,91.7791411 C64.0878328,91.7791411 64.0880622,91.7791411 64.0880622,91.7791411 L64.110089,91.7791411 C64.6846222,91.7720236 65.2215262,91.490767 65.554682,91.0223886 C65.5785444,91.0003473 65.6097491,90.9930002 65.6317759,90.9709588 L109.474346,46.2986841 C110.184482,45.5749936 110.173698,44.4120836 109.450484,43.7014802 Z M66.1567487,6.21468054 L103.683126,43.174325 L91.533493,43.174325 C90.5197999,43.174325 89.6979238,43.9967423 89.6979238,45.0111028 C89.6343672,49.0095387 86.3434211,52.1991035 82.3478458,52.135505 C78.4417545,52.0732842 75.2905411,48.9197662 75.2281317,45.0111028 C75.2281317,43.9967423 74.4062556,43.174325 73.3925625,43.174325 L66.1567487,43.174325 L66.1567487,37.7503199 C72.0106084,36.8321606 76.0123787,31.3392763 75.0948235,25.4813325 C74.3732154,20.8737752 70.7612741,17.2594555 66.1567487,16.5373722 L66.1567487,6.21468054 L66.1567487,6.21468054 Z M56.9164933,43.174325 C55.9727813,37.9872642 51.449021,34.2234768 46.180249,34.2420741 C40.617786,34.5010598 35.9607175,38.5479407 34.9245387,44.0229163 L24.5058479,44.0229163 L62.4856103,6.24590577 L62.4856103,18.2088401 C62.4856103,19.2232007 63.3074864,20.0456179 64.3211795,20.0456179 C68.2387431,19.9824787 71.4659032,23.1093634 71.5290009,27.0295066 C71.5920986,30.9496498 68.4672714,34.1789349 64.5497079,34.2420741 C64.4735317,34.2432221 64.3975851,34.2432221 64.3214089,34.2420741 C63.3077159,34.2420741 62.4858397,35.0644914 62.4858397,36.078852 L62.4858397,43.174325 L56.9164933,43.174325 Z M65.9988898,85.3504185 L66.1567487,71.8372437 L66.1567487,71.8152024 C66.1452764,71.7010925 66.1225612,71.5885899 66.0888326,71.479072 C66.0890621,71.2269743 65.9901708,70.9847492 65.8134973,70.8049745 C65.761413,70.7062477 65.6999214,70.6125721 65.6299403,70.5257843 C65.4381234,70.3912403 65.2449297,70.2589923 65.0499005,70.1290403 C64.9305885,70.0904679 64.8076053,70.0640643 64.6827866,70.0500588 C64.5733408,70.0151601 64.4609122,69.9910523 64.3468775,69.9784245 L64.3248506,69.9784245 C60.3694284,70.0140121 57.1314844,66.8391415 57.0872013,62.8811148 C57.1285016,58.9223993 60.365069,55.7445439 64.3211795,55.7782947 C65.3348726,55.7782947 66.1567487,54.9558774 66.1567487,53.9415169 L66.1567487,46.8478807 L71.7277012,46.8478807 C72.8177999,52.7822804 78.5089822,56.7088523 84.4394769,55.6180359 C88.8966978,54.7981441 92.3845088,51.3082662 93.203861,46.8478807 L103.79326,46.8478807 L65.9988898,85.3504185 Z" id="Shape" fill="#333333"></path>
                <path d="M44.919078,74.761701 C45.0866874,74.7554961 45.2545238,74.7554961 45.4223603,74.761701 C46.4257453,74.761701 47.2392638,73.9385182 47.2392638,72.9232134 L47.2392638,64.0378029 C47.2392638,63.0224981 46.4257453,62.1993153 45.4223603,62.1993153 L38.0566335,62.1993153 C37.0866342,57.0159294 32.5920692,53.275986 27.3786917,53.3139048 C22.1148952,53.241974 17.5483353,56.9766317 16.5136088,62.1993153 L1.81644932,62.1993153 C0.813064362,62.1995451 -0.000227065382,63.022728 4.75546559e-08,64.0382625 C4.75546559e-08,64.5256916 0.191456253,64.9928972 0.531898546,65.3376136 L44.1375824,109.461316 C44.4782518,109.806032 44.9401995,109.999993 45.4221332,109.999993 C45.661056,110.000682 45.8974806,109.953341 46.1180072,109.860268 C46.7968478,109.575532 47.2392638,108.904943 47.2390367,108.161505 L47.2390367,90.6958729 C47.2390367,89.6805682 46.4255182,88.8573853 45.4221332,88.8573853 C41.5755214,88.9980296 38.3443856,85.9564817 38.2053925,82.0641737 C38.0666265,78.1718657 41.0722391,74.9023453 44.919078,74.761701 Z M34.7212529,83.3885742 C35.4082696,88.0351218 39.0132332,91.6831408 43.6054568,92.3783189 L43.6054568,103.71811 L6.20245435,65.8762905 L18.1685808,65.8762905 C19.1719657,65.8762905 19.9854843,65.0531077 19.9854843,64.0378029 C20.1580901,60.0510426 23.4351027,56.9272224 27.3784646,56.99088 C31.290712,56.9242348 34.5157157,60.0790795 34.5824869,64.0378029 C34.5824869,65.0531077 35.3960055,65.8762905 36.3993904,65.8762905 L43.6052297,65.8762905 L43.6052297,71.2354818 C37.8354255,72.1089932 33.8579967,77.5499972 34.7212529,83.3885742 Z" id="Shape" fill="#0D5FFF"></path>
                <path d="M60.254163,27.6687117 L51.0955302,27.6687117 C50.0839592,27.6687117 49.2638037,28.4241181 49.2638037,29.3558282 C49.2638037,30.2875383 50.0839592,31.0429448 51.0955302,31.0429448 L60.254163,31.0429448 C61.265734,31.0429448 62.0858896,30.2875383 62.0858896,29.3558282 C62.0858896,28.4241181 61.265963,27.6687117 60.254163,27.6687117 Z" id="Path" fill="#333333"></path>
                <path d="M60.254163,22.2699387 L51.0955302,22.2699387 C50.0839592,22.2699387 49.2638037,23.0253451 49.2638037,23.9570552 C49.2638037,24.8887653 50.0839592,25.6441718 51.0955302,25.6441718 L60.254163,25.6441718 C61.265734,25.6441718 62.0858896,24.8887653 62.0858896,23.9570552 C62.0858896,23.0253451 61.265963,22.2699387 60.254163,22.2699387 Z" id="Path" fill="#333333"></path>
                <path d="M77.1253287,64.1104294 L67.9666959,64.1104294 C66.9551249,64.1104294 66.1349693,64.8658359 66.1349693,65.797546 C66.1349693,66.7292561 66.9551249,67.4846626 67.9666959,67.4846626 L77.1253287,67.4846626 C78.1368996,67.4846626 78.9570552,66.7292561 78.9570552,65.797546 C78.9570552,64.8658359 78.1371286,64.1104294 77.1253287,64.1104294 Z" id="Path" fill="#333333"></path>
                <path d="M77.1253287,58.7116564 L67.9666959,58.7116564 C66.9551249,58.7116564 66.1349693,59.4670629 66.1349693,60.398773 C66.1349693,61.3304831 66.9551249,62.0858896 67.9666959,62.0858896 L77.1253287,62.0858896 C78.1368996,62.0858896 78.9570552,61.3304831 78.9570552,60.398773 C78.9570552,59.4670629 78.1371286,58.7116564 77.1253287,58.7116564 Z" id="Path" fill="#333333"></path>
            </g>
        </g>
    </g>
</svg>