<?xml version="1.0" encoding="UTF-8"?>
<svg width="110px" height="110px" viewBox="0 0 110 110" version="1.1" xmlns="http://www.w3.org/2000/svg" xmlns:xlink="http://www.w3.org/1999/xlink">
    <!-- Generator: Sketch 54 (76480) - https://sketchapp.com -->
    <title>product-icon3</title>
    <desc>Created with Sketch.</desc>
    <g id="Page-1" stroke="none" stroke-width="1" fill="none" fill-rule="evenodd">
        <g id="MIKA2" transform="translate(-1279.000000, -1871.000000)" fill-rule="nonzero">
            <g id="product-icon3" transform="translate(1279.000000, 1871.000000)">
                <path d="M38,94.682729 C32.9889746,92.5422035 28.3894632,89.4376592 24.4308036,85.4655057 C16.7700893,77.778522 12.3504464,67.660192 11.9084821,56.8542085 L0,56.8542085 L0,53.1703505 L11.9330357,53.1703505 C12.375,42.2415718 16.7946429,32.1232418 24.4553571,24.4362581 C32.1160714,16.7492744 42.2566964,12.3532038 53.1830357,11.9111409 L53.1830357,0 L56.8660714,0 L56.8660714,11.9111409 C67.6696429,12.3777629 77.7611607,16.7738334 85.4709821,24.4362581 C93.2053571,32.1232418 97.6495536,42.2661308 98.0915179,53.1703505 L110,53.1703505 L110,56.8296495 L98.0915179,56.8296495 C97.6495536,67.635633 93.2053571,77.7294039 85.4709821,85.4655057 C81.2606741,89.6767538 76.3445952,92.9055242 71,95.0488137 L71,91.0784675 C84.2708123,85.1619692 93.706299,72.12086 94.4084821,56.8542085 L86.972298,56.8542085 C86.990706,56.4050964 87,55.9536336 87,55.5 C87,54.7166685 86.972287,53.9398097 86.9177879,53.1703505 L94.4084821,53.1703505 C93.4754464,32.8845724 77.1227679,16.5282429 56.8415179,15.5949989 L56.8415179,23.0830548 C56.0681789,23.0279987 55.2873592,23 54.5,23 C54.0506353,23 53.6034007,23.0091199 53.1584711,23.0271847 L53.1584821,15.5949989 C32.5334821,16.5036839 16.5,32.5407457 15.5915179,53.1703505 L22.0822121,53.1703505 C22.027713,53.9398097 22,54.7166685 22,55.5 C22,55.9536336 22.009294,56.4050964 22.027702,56.8542085 L15.5915179,56.8542085 C16.2759324,71.7345402 25.2572534,84.5005384 38,90.6157095 L38,94.682729 Z M53.1584821,99 L56.8415179,99 L56.8415179,110 L53.1584821,110 L53.1584821,99 Z" id="Combined-Shape" fill="#333333"></path>
                <path d="M71.57045,33.6969899 C65.5787886,28.8240122 57.7228733,26.9536434 50.0181412,28.5658717 C40.3000149,30.5993034 32.4645297,38.5239624 30.5211087,48.2857639 C27.988277,61.0067252 34.9519043,72.5606867 45.6925612,77.0482426 L45.6925612,85.1845257 C45.6925612,90.5967869 50.0922006,95 55.5000696,95 C60.9079384,95 65.307578,90.5967869 65.307578,85.1845257 C64.5031395,79.1281909 66.3934421,76.720583 68.696945,75.3245794 C76.1095254,70.8319118 81,62.7140309 81,53.5124709 C81,45.7927909 77.5631328,38.5704788 71.57045,33.6969899 Z M61.3849832,85.1845257 C61.3849832,88.4319847 58.7448931,91.073708 55.5000696,91.073708 C52.255246,91.073708 49.6156666,88.4319847 49.6156666,85.1845257 L49.6156666,82.9594052 L53.9535048,82.9594052 L55.5000696,89.4159857 L57.0471451,82.9594052 L61.3849832,82.9594052 L61.3849832,85.1845257 Z M66.6646527,71.9661967 C63.9418204,73.6162514 62.1230235,76.174143 61.5657902,79.0331133 L57.9874441,79.0331133 L53.012695,79.0331133 L49.6156666,79.0331133 L49.6156666,77.0482426 C49.6156666,75.4585058 48.6687278,74.0359214 47.2028623,73.4240517 C37.5889298,69.4083051 32.3113033,59.3863182 34.3686225,49.052518 C36.0091661,40.8129788 42.6203727,34.1248387 50.8205366,32.408843 C57.3643236,31.0399315 64.025584,32.6199561 69.0968658,36.7440705 C74.1681475,40.8686963 77.0768945,46.9802374 77.0768945,53.5129821 C77.0768945,61.1161154 73.1844343,68.0143462 66.6646527,71.9661967 Z" id="Shape" fill="#333333"></path>
                <path d="M52.3731682,64.9091645 L50.9851892,64.4163463 C45.9262597,62.6213839 42.4231643,57.9849281 42,52.6758042 L44.6659353,50 L50.0831441,55.4387013 L55.4996475,50 L60.9168561,55.4387013 L66.3340647,50 L69,52.6758042 C68.5768357,57.9849281 65.073035,62.6213839 60.0141055,64.4163463 L58.6261265,64.9091645 L55.4996475,78 L52.3731682,64.9091645 Z" id="Path" fill="#0D5FFF"></path>
            </g>
        </g>
    </g>
</svg>