<?xml version="1.0" encoding="UTF-8"?>
<svg width="275px" height="214px" viewBox="0 0 275 214" version="1.1" xmlns="http://www.w3.org/2000/svg" xmlns:xlink="http://www.w3.org/1999/xlink">
    <!-- Generator: Sketch 54 (76480) - https://sketchapp.com -->
    <title>product-icon-large</title>
    <desc>Created with Sketch.</desc>
    <defs>
        <linearGradient x1="100%" y1="50%" x2="-57.494213%" y2="50%" id="linearGradient-1">
            <stop stop-color="#80DCC5" offset="0%"></stop>
            <stop stop-color="#0D5FFF" offset="100%"></stop>
        </linearGradient>
        <path d="M35.9651802,51.5094425 C35.9651802,50.1111111 34.8197923,48.9670218 33.4198738,48.9670218 L2.54530645,48.9670218 C1.1453879,48.9670218 0,50.1111111 0,51.5094425 C0,52.9077738 1.1453879,54.0518631 2.54530645,54.0518631 L33.4198738,54.0518631 C34.8197923,54.0518631 35.9651802,52.933198 35.9651802,51.5094425 Z" id="path-2"></path>
        <filter x="-19.5%" y="-98.3%" width="138.9%" height="375.3%" filterUnits="objectBoundingBox" id="filter-3">
            <feOffset dx="0" dy="2" in="SourceAlpha" result="shadowOffsetOuter1"></feOffset>
            <feGaussianBlur stdDeviation="2" in="shadowOffsetOuter1" result="shadowBlurOuter1"></feGaussianBlur>
            <feColorMatrix values="0 0 0 0 0.314369351   0 0 0 0 0.8883757   0 0 0 0 0.759899616  0 0 0 1 0" type="matrix" in="shadowBlurOuter1"></feColorMatrix>
        </filter>
        <linearGradient x1="100%" y1="50%" x2="-57.494213%" y2="50%" id="linearGradient-4">
            <stop stop-color="#80DCC5" offset="0%"></stop>
            <stop stop-color="#0D5FFF" offset="100%"></stop>
        </linearGradient>
        <path d="M7.71227856,42.3313039 L38.5868459,42.5092734 C39.9867644,42.5092734 41.1321523,41.3906083 41.1576054,39.9922769 C41.1830584,38.5685213 40.0376705,37.424432 38.637752,37.424432 L7.76318469,37.2464626 C7.73773162,37.2464626 7.73773162,37.2464626 7.73773162,37.2464626 C6.33781307,37.2464626 5.19242517,38.3651277 5.19242517,39.763459 C5.1669721,41.1872146 6.31236001,42.3313039 7.71227856,42.3313039 Z" id="path-5"></path>
        <filter x="-19.5%" y="-95.0%" width="138.9%" height="366.0%" filterUnits="objectBoundingBox" id="filter-6">
            <feOffset dx="0" dy="2" in="SourceAlpha" result="shadowOffsetOuter1"></feOffset>
            <feGaussianBlur stdDeviation="2" in="shadowOffsetOuter1" result="shadowBlurOuter1"></feGaussianBlur>
            <feColorMatrix values="0 0 0 0 0.314369351   0 0 0 0 0.8883757   0 0 0 0 0.759899616  0 0 0 1 0" type="matrix" in="shadowBlurOuter1"></feColorMatrix>
        </filter>
        <path d="M12.9047037,30.7887141 L43.779271,30.7887141 C45.1791896,30.7887141 46.3245775,29.6446248 46.3245775,28.2462935 C46.3245775,26.8479621 45.1791896,25.7038728 43.779271,25.7038728 L12.9047037,25.7038728 C11.5047852,25.7038728 10.3593973,26.8479621 10.3593973,28.2462935 C10.3593973,29.6446248 11.5047852,30.7887141 12.9047037,30.7887141 Z" id="path-7"></path>
        <filter x="-19.5%" y="-98.3%" width="138.9%" height="375.3%" filterUnits="objectBoundingBox" id="filter-8">
            <feOffset dx="0" dy="2" in="SourceAlpha" result="shadowOffsetOuter1"></feOffset>
            <feGaussianBlur stdDeviation="2" in="shadowOffsetOuter1" result="shadowBlurOuter1"></feGaussianBlur>
            <feColorMatrix values="0 0 0 0 0.314369351   0 0 0 0 0.8883757   0 0 0 0 0.759899616  0 0 0 1 0" type="matrix" in="shadowBlurOuter1"></feColorMatrix>
        </filter>
    </defs>
    <g id="Page-1" stroke="none" stroke-width="1" fill="none" fill-rule="evenodd">
        <g id="MIKA2" transform="translate(-429.000000, -1502.000000)" fill-rule="nonzero">
            <g id="product-icon-large" transform="translate(429.000000, 1502.000000)">
                <g id="delivery-truck" transform="translate(150.000000, 132.000000)">
                    <path d="M105.14661,24.127572 C104.688454,23.6953605 104.077581,23.4665426 103.441254,23.4665426 L90.3838322,23.4665426 C88.9839137,23.4665426 87.8385258,24.6106319 87.8385258,26.0089633 L87.8385258,46.8568127 C87.8385258,48.255144 88.9839137,49.3992333 90.3838322,49.3992333 L111.102627,49.3992333 C112.502545,49.3992333 113.647933,48.255144 113.647933,46.8568127 L113.647933,32.8989233 C113.647933,32.1870455 113.342496,31.5005919 112.807982,31.017532 L105.14661,24.127572 Z M108.55732,44.314392 L92.9291387,44.314392 L92.9291387,28.5259597 L102.448585,28.5259597 L108.55732,34.0175884 L108.55732,44.314392 Z M23.0604765,65.365635 L17.9444105,65.365635 L17.9444105,58.6027961 C17.9444105,57.2044647 16.7990226,56.0603754 15.3991041,56.0603754 C13.9991855,56.0603754 12.8537976,57.2044647 12.8537976,58.6027961 L12.8537976,67.9080557 C12.8537976,69.3063871 13.9991855,70.4504764 15.3991041,70.4504764 L23.0604765,70.4504764 C24.460395,70.4504764 25.6057829,69.3063871 25.6057829,67.9080557 C25.6057829,66.5097243 24.460395,65.365635 23.0604765,65.365635 Z M124.058237,27.3564462 L124.058237,27.3564462 L105.833842,12.2798918 C105.375687,11.8985287 104.81572,11.695135 104.204846,11.695135 L82.7733659,11.695135 L82.7733659,2.54242066 C82.7733659,1.14408929 81.627978,0 80.2280595,0 L15.3991041,0 C13.9991855,0 12.8537976,1.14408929 12.8537976,2.54242066 L12.8537976,21.1529399 C12.8537976,22.5512712 13.9991855,23.6953605 15.3991041,23.6953605 C16.7990226,23.6953605 17.9444105,22.5512712 17.9444105,21.1529399 L17.9444105,5.08484131 L77.7082061,5.08484131 L77.7082061,65.365635 L56.8366931,65.365635 C55.4367746,65.365635 54.2913867,66.5097243 54.2913867,67.9080557 C54.2913867,69.3063871 55.4367746,70.4504764 56.8366931,70.4504764 L87.914885,70.4504764 C89.3148035,70.4504764 90.4601914,69.3063871 90.4601914,67.9080557 C90.4601914,66.5097243 89.3148035,65.365635 87.914885,65.365635 L82.798819,65.365635 L82.798819,16.7799763 L103.313989,16.7799763 L119.909387,30.5090479 L119.731216,65.3147866 L117.084097,65.3147866 C115.684178,65.3147866 114.53879,66.4588759 114.53879,67.8572073 C114.53879,69.2555386 115.684178,70.3996279 117.084097,70.3996279 L122.251069,70.3996279 C123.650988,70.3996279 124.796375,69.2809629 124.796375,67.8826315 L125,29.3395344 C124.974547,28.5768082 124.643657,27.8395062 124.058237,27.3564462 Z" id="Shape" fill="#333333"></path>
                    <g id="Path">
                        <use fill="black" fill-opacity="1" filter="url(#filter-3)" xlink:href="#path-2"></use>
                        <use fill="url(#linearGradient-1)" xlink:href="#path-2"></use>
                    </g>
                    <g id="Path">
                        <use fill="black" fill-opacity="1" filter="url(#filter-6)" xlink:href="#path-5"></use>
                        <use fill="url(#linearGradient-4)" xlink:href="#path-5"></use>
                    </g>
                    <g id="Path">
                        <use fill="black" fill-opacity="1" filter="url(#filter-8)" xlink:href="#path-7"></use>
                        <use fill="url(#linearGradient-1)" xlink:href="#path-7"></use>
                    </g>
                    <path d="M41,61.5 C38.2727273,61.5 35.6818182,62.5705556 33.7272727,64.5066667 C31.7727273,66.4655556 30.6818182,69.0166667 30.6818182,71.75 C30.6818182,74.4833333 31.75,77.0344444 33.7272727,78.9933333 C35.7045455,80.9294444 38.2727273,82 41,82 C46.5909091,82 51.1363636,77.3988889 51.1363636,71.75 C51.1363636,66.1011111 46.5909091,61.5 41,61.5 Z" id="Path" fill="#333333"></path>
                    <path d="M103.5,61.5 C100.772727,61.5 98.1818182,62.5705556 96.2272727,64.5066667 C94.2727273,66.4655556 93.1818182,69.0166667 93.1818182,71.75 C93.1818182,74.4833333 94.25,77.0344444 96.2272727,78.9933333 C98.2045455,80.9294444 100.772727,82 103.5,82 C109.090909,82 113.636364,77.3988889 113.636364,71.75 C113.636364,66.1011111 109.090909,61.5 103.5,61.5 Z" id="Path" fill="#333333"></path>
                </g>
                <g id="brain-process" fill="#000000">
                    <path d="M163.09752,120.775758 L157.866286,120.775758 L162.733684,108.080472 L156.727122,102.863878 C156.105973,102.323348 155.796193,101.506156 155.90263,100.687365 C156.588913,95.3732195 156.450703,89.9839111 155.491178,84.7113448 C155.343437,83.9005497 155.611913,83.0673659 156.202879,82.4964508 L161.994977,76.9024451 L156.349031,63.9089353 L148.326515,64.5038381 C147.490902,64.5646076 146.683885,64.1919938 146.185059,63.5139325 L146.185059,63.5155316 C143.034831,59.2232755 139.168137,55.5163272 134.756547,52.5594039 C134.055967,52.0892389 133.646104,51.2896383 133.669933,50.4420619 L133.906637,42.3708932 L120.78466,37.2726397 L115.604179,43.3192194 C115.067227,43.9445072 114.255443,44.2579506 113.442072,44.150804 C110.20447,43.7286149 106.933507,43.6166706 103.675253,43.8165711 L103.675253,61.4669549 C104.642721,61.3789987 105.616543,61.3358202 106.590366,61.3358202 C124.395587,61.3358202 138.829762,75.8661627 138.829762,93.79001 C138.829762,111.715456 124.395587,126.245799 106.590366,126.245799 C105.616543,126.245799 104.642721,126.201021 103.675253,126.113065 L103.675253,143.672295 C107.765943,144.059301 111.027374,143.861001 115.608945,143.018221 C116.415963,142.869495 117.242044,143.138161 117.80918,143.734664 L123.364574,149.563752 L136.270499,143.880191 L135.681123,135.804225 C135.620755,134.964644 135.990903,134.150651 136.664476,133.648501 C140.926736,130.478885 144.610739,126.586429 147.548092,122.145447 C148.016735,121.441799 148.809455,121.029204 149.651422,121.051593 L149.898305,121.058931 L149.898305,127.298204 C147.240433,130.847687 144.131105,134.034117 140.64714,136.773341 L141.266701,145.253905 C141.341365,146.291786 140.758343,147.2657 139.809939,147.683091 L123.761728,154.751561 C122.824444,155.164154 121.729887,154.945064 121.022952,154.201435 L115.187962,148.078094 C110.476123,148.924071 105.657848,148.999234 100.920592,148.300383 C99.7052992,148.142062 98.7966102,147.099383 98.7966102,145.866399 L98.7966102,41.5568994 C98.7966102,40.2983284 99.7402489,39.2444547 100.982547,39.11332 C104.8969,38.7039245 108.843025,38.7071231 112.755789,39.1245145 L118.214277,32.7548959 C118.887851,31.9696884 119.977642,31.6946258 120.940344,32.0672396 L137.276094,38.41287 C138.240385,38.7886824 138.8663,39.7354096 138.836116,40.7764892 L138.588292,49.2474584 C142.636088,52.1212229 146.240661,55.5770967 149.289217,59.506334 L157.713654,58.8826457 C158.744666,58.8074832 159.712134,59.3943901 160.126763,60.3491131 L167.148451,76.5042441 C167.558314,77.4493721 167.340673,78.5496226 166.601966,79.2628661 L160.514386,85.1399307 C161.291219,90.0526769 161.419897,95.046982 160.897242,99.9949108 L167.223116,105.491365 C168.001538,106.169427 168.27478,107.266479 167.904632,108.233996 L163.09752,120.775758 Z M184.368388,120.775758 L179.292502,120.775758 C180.493067,116.494718 181.365637,112.102503 181.891232,107.634724 L171.406909,107.634724 C170.507206,107.634724 169.680754,107.140854 169.253992,106.350664 C168.82723,105.560473 168.86704,104.599817 169.35909,103.847861 L182.93425,83.1419938 C183.38649,82.45217 184.154024,82.0363636 184.978884,82.0363636 C185.803744,82.0363636 186.57287,82.45217 187.023518,83.1419938 L200.598677,103.847861 C201.092319,104.599817 201.133722,105.560473 200.705368,106.352257 C200.278606,107.14404 199.452154,107.636317 198.554043,107.636317 L186.814914,107.636317 C186.813322,107.672959 186.813322,107.708007 186.808545,107.744649 C186.311415,112.167157 185.492564,116.521163 184.368388,120.775758 Z M149.898305,171.0532 C135.034698,181.890375 117.407536,188 100.559703,188 C88.0769264,188 75.0654741,184.654434 62.9314312,178.324941 C50.3913276,171.772411 39.5152762,162.439875 31.134506,151.036274 C30.3351239,149.946575 30.572391,148.415581 31.6615881,147.615831 C32.7523784,146.817675 34.282669,147.055051 35.0804583,148.144749 C43.0169505,158.942962 53.3165554,167.781629 65.1926308,173.985265 C76.6292049,179.951524 88.8587916,183.105915 100.559703,183.105915 C117.482914,183.105915 135.289554,176.506227 149.898305,164.905323 L149.898305,171.0532 Z M32.9322041,114.264722 C32.930603,108.320341 35.5222917,102.667524 40.0333343,98.7720511 C36.3739151,95.2717019 34.6706683,90.2083834 35.4774694,85.2199478 C36.2842705,80.2331048 39.497068,75.9568474 44.0753442,73.7757013 C42.218421,66.7622568 44.2114118,59.2931455 49.3211523,54.1214866 C54.4324935,48.9498278 61.9018073,46.841971 68.9789259,48.5738235 C68.3177973,43.4866063 70.554109,38.4551531 74.7802102,35.5188108 C79.0063114,32.5840616 84.5226538,32.2303624 89.0929262,34.6042909 C93.6615979,36.9766259 96.5270223,41.6814649 96.5254216,46.8116993 L96.5254216,140.068844 C96.5286234,146.312754 92.8836109,151.991063 87.18958,154.61513 C81.4955491,157.237604 74.7882141,156.329457 70.006637,152.285812 C65.0185566,155.029373 58.9451372,154.944931 54.0386979,152.062759 C49.1306575,149.180587 46.1195605,143.929266 46.1227623,138.25733 L46.1227623,133.425032 C38.1796129,130.353264 32.9418087,122.745541 32.9322041,114.264722 Z M41.9558905,93.4729335 C42.5818014,94.4129451 43.356587,95.24621 44.2498309,95.9392697 C47.1392674,94.4718953 50.3392585,93.7087331 53.5840719,93.7103262 C54.9431475,93.7103262 56.0428944,94.8064756 56.0428944,96.1575436 C56.0428944,97.5086115 54.9431475,98.604761 53.5840719,98.604761 C47.9124519,98.5282854 42.6378293,101.496493 39.7788081,106.373402 C36.9213871,111.250311 36.9213871,117.280726 39.7788081,122.157635 C42.6378293,127.034544 47.9124519,130.002751 53.5840719,129.926276 C54.9431475,129.926276 56.0428944,131.022425 56.0428944,132.373493 C56.0428944,133.724561 54.9431475,134.82071 53.5840719,134.82071 C52.7340491,134.819117 51.8840264,134.764947 51.0404073,134.6582 L51.0404073,138.25733 C51.1220476,144.348289 56.1069262,149.24113 62.2267686,149.24113 C68.3466114,149.24113 73.3298889,144.348289 73.4131307,138.25733 C73.4131307,136.906262 74.5144783,135.810113 75.8719532,135.810113 C77.2294281,135.810113 78.3307757,136.906262 78.3307757,138.25733 C78.3339771,142.31372 76.7844067,146.218753 73.9990218,149.178994 C77.4135193,151.567261 81.8813408,151.863604 85.5839816,149.948529 C89.2866224,148.031861 91.6093773,144.222422 91.6077766,140.068844 L91.6077766,46.8116993 C91.6077766,43.1137882 89.3026305,39.8030343 85.8241012,38.5045436 C82.3455714,37.2076457 78.422021,38.1922681 75.9808069,40.978846 C73.5379926,43.7654235 73.088169,47.7676436 74.8538466,51.022634 C75.3484928,51.3253495 75.8335341,51.6503706 76.3057686,51.9976972 C77.3991123,52.8006904 77.6296269,54.3333875 76.8228258,55.4199777 C76.0160246,56.5081607 74.4760592,56.7375873 73.3843162,55.9345941 C67.3877345,51.532471 59.1100193,51.9196281 53.5552573,56.8634534 C47.9988947,61.8056856 46.6894438,69.950331 50.4160967,76.3726834 C51.0964348,77.5421218 50.6946354,79.0381747 49.519651,79.7153018 C48.3446666,80.3924289 46.8399189,79.994119 46.1595803,78.8230871 C46.0667343,78.6669497 45.988295,78.5012527 45.9002516,78.3403351 C45.557681,78.5155918 45.2247155,78.7067807 44.9045563,78.9170884 C40.0573463,82.1306544 38.7382905,88.6422283 41.9558905,93.4729335 Z M80.1673656,95.7285549 L80.1690044,95.7285549 C82.4093568,95.8274772 84.5726815,96.5598205 86.3951188,97.8330445 C87.5226699,98.6244219 87.7783355,100.15612 86.9654499,101.255432 C86.1525642,102.35315 84.5792371,102.602051 83.451686,101.810673 C81.3522777,100.3412 78.5579833,100.224727 76.3372976,101.513907 C74.1166118,102.803086 72.8940058,105.253803 73.2250598,107.749195 C73.4069758,109.092622 72.4367575,110.322767 71.0584575,110.499869 C69.6785183,110.676972 68.4149398,109.732425 68.2330238,108.388998 C67.5987766,103.65988 70.1046277,99.058403 74.4804439,96.9140255 C74.5787764,96.8677556 74.6771098,96.8246765 74.7754423,96.780002 C75.6014391,94.6882769 75.2261351,92.3269089 73.7888353,90.5782201 C72.9185887,89.5219864 73.0923104,87.9791194 74.1772504,87.1334946 C75.2605515,86.2862739 76.8453509,86.4553992 77.7155976,87.5100371 C79.6216179,89.8235394 80.5049752,92.7800359 80.1673656,95.7285549 Z M54.3778634,88.2015574 C53.8626005,87.624105 53.4180332,86.9654976 53.0577571,86.2491446 C53.0305664,86.2647517 53.0060947,86.2834798 52.9789044,86.2975259 C52.307295,86.6783322 51.5106091,86.6174655 50.8893024,86.1383361 C50.267996,85.6576466 49.9172364,84.8336068 49.9716177,83.9752317 C50.025999,83.1184176 50.474645,82.3599262 51.1503326,81.9884842 C52.7355479,81.0926528 53.5580651,79.0465992 53.1216552,77.0801408 C52.9258825,76.2482972 53.1352504,75.3587089 53.6709064,74.7516035 C54.2065621,74.1460595 54.9842148,73.9166392 55.7074862,74.1507412 C56.4307576,74.3864042 56.9881662,75.0496938 57.1662651,75.8877797 C57.6842469,78.2256809 57.3701948,80.7040432 56.2934449,82.7766283 C56.4633864,83.5351197 56.8100673,84.2265013 57.2981397,84.7743007 C58.1124998,85.7013453 58.1220163,87.2089639 57.3198922,88.1516156 C56.5177677,89.0927066 55.2044593,89.116117 54.3778634,88.2015574 Z M67.8606139,64.2122235 C66.9949753,64.4322867 66.0724936,64.1886457 65.445596,63.5708979 C64.817074,62.9531504 64.579957,62.0571809 64.8219464,61.2225143 C65.0655593,60.3878477 65.750924,59.7433785 66.621435,59.5343186 C70.5224935,58.5676148 74.6265629,60.1049099 76.8401943,63.3602666 C78.3148654,63.6463479 79.8382597,63.1920757 80.8906685,62.1530653 C81.8537523,61.2005083 83.4339894,61.1832175 84.4181867,62.1153403 C85.4040079,63.047463 85.4218726,64.5768989 84.4587887,65.5294564 C82.8509423,67.1217673 80.695778,68.0868998 78.4009423,68.2456592 C78.4269277,69.8363984 78.024154,71.4051311 77.2315993,72.7993858 C76.8044642,73.5601741 75.987548,74.0411686 75.0943001,74.0600311 C74.1994277,74.0788936 73.3630225,73.6324807 72.9017817,72.8905549 C72.4405408,72.1486291 72.4259241,71.2243656 72.8611796,70.468293 C73.0804315,70.083183 73.2363439,69.6682075 73.3256684,69.2375135 C73.6277489,67.7850995 73.1372747,66.285529 72.0263984,65.2638093 C70.9171469,64.2436615 69.3450301,63.8459764 67.8606139,64.2122235 Z M58.6324013,120.442771 L58.6324013,120.444382 C57.6772671,119.479084 57.6756753,117.911079 58.6308095,116.94417 C59.5843514,115.977261 61.133261,115.975649 62.0883951,116.942559 C63.4176232,118.284951 64.4443927,119.904524 65.1002515,121.686861 C67.7650756,123.011526 70.9313453,122.766576 73.3653458,121.045477 C74.0816962,120.534627 75.0113601,120.450828 75.8057135,120.8247 C76.6000668,121.198571 77.134942,121.972099 77.2113527,122.855209 C77.2861712,123.73832 76.8897907,124.594035 76.1718485,125.100051 C73.1790947,127.217582 69.4492957,127.968548 65.8850533,127.17246 C65.7067616,129.932986 64.6752167,132.566202 62.9368725,134.701461 C62.07566,135.744111 60.5442614,135.887536 59.5079407,135.022152 C58.4700286,134.15838 58.3172072,132.608102 59.1640924,131.552559 C60.8371692,129.493042 61.4277606,126.745408 60.7527991,124.168595 C60.7273288,124.089631 60.7050422,124.010666 60.6859399,123.931702 C60.2991105,122.613482 59.593903,121.414514 58.6324013,120.442771 Z M103.675253,66.4084869 L103.675253,121.171533 C104.642721,121.275482 105.616543,121.329854 106.590366,121.331454 C121.699704,121.331454 133.94953,109.000013 133.94953,93.79001 C133.94953,78.578408 121.699704,66.2469673 106.590366,66.2469673 C105.616543,66.2485663 104.642721,66.3029394 103.675253,66.4084869 Z M184.978884,88.942568 L175.935678,102.739045 L194.023682,102.739045 L184.978884,88.942568 Z M13.9751853,102.580971 L0.401575128,81.8764962 C-0.092068397,81.1246488 -0.133470978,80.1641323 0.293291987,79.3724622 C0.72164725,78.5807925 1.5481025,78.0885874 2.4462156,78.0885874 L14.4640519,78.0885874 C17.4720937,56.0795303 28.4596477,35.9437196 45.3374861,21.5072949 C61.2726243,7.83864581 81.3575543,0 100.442458,0 C112.923682,0 125.935175,3.3450836 138.069257,9.6736631 C150.6094,16.2236554 161.485486,25.5564387 169.866282,36.9568021 C170.664075,38.0479368 170.428399,39.5787107 169.337606,40.376752 C168.248405,41.176386 166.718109,40.9390445 165.920317,39.849503 C157.9838,29.0528476 147.684163,20.2154553 135.80805,14.0127144 C124.369847,8.04731541 112.140222,4.89337944 100.440865,4.89337944 C82.505674,4.89337944 63.5816028,12.3019433 48.5206921,25.2219302 C32.730462,38.7296963 22.3846449,57.517916 19.4100434,78.0885874 L29.5950282,78.0885874 C30.4931413,78.0885874 31.3195965,78.5807925 31.7463595,79.3724622 C32.1731225,80.1641323 32.1333126,81.1246488 31.6396687,81.8764962 L18.0644662,102.580971 C17.6138172,103.269102 16.8446883,103.684848 16.0198257,103.684848 C15.1949632,103.684848 14.4258343,103.269102 13.9751853,102.580971 Z M25.0646528,82.9819669 L6.97499872,82.9819669 L16.021418,96.7764545 L25.0646528,82.9819669 Z" id="Combined-Shape"></path>
                </g>
            </g>
        </g>
    </g>
</svg>