<?xml version="1.0" encoding="UTF-8"?>
<svg width="110px" height="109px" viewBox="0 0 110 109" version="1.1" xmlns="http://www.w3.org/2000/svg" xmlns:xlink="http://www.w3.org/1999/xlink">
    <!-- Generator: Sketch 54 (76480) - https://sketchapp.com -->
    <title>brand-icon1</title>
    <desc>Created with Sketch.</desc>
    <g id="Page-1" stroke="none" stroke-width="1" fill="none" fill-rule="evenodd">
        <g id="MIKA3" transform="translate(-601.000000, -1923.000000)" fill-rule="nonzero">
            <g id="brand-icon1" transform="translate(601.000000, 1923.000000)">
                <path d="M102.80877,49.3664007 C98.1479183,44.5205805 91.9035409,41.7566174 85.2259852,41.5834148 C78.2934169,41.4065725 71.7465874,43.9583677 66.7884358,48.7765697 C61.828567,53.5964845 59.0970543,60.05401 59.0970543,66.9594216 C59.0970543,67.394034 59.0970543,67.4096629 61.134151,71.4355003 L58.8976378,91.8828322 L67.1952112,91.8828322 L67.1952112,103.652262 L81.0779498,103.652262 L81.0779498,108.267717 L84.5485272,108.267717 L84.5485272,103.652262 L94.7290734,103.652262 L94.7290734,100.190778 L70.6657885,100.190778 L70.6657885,88.4213485 L62.7670482,88.4213485 L64.6953136,70.7912892 C64.6953136,70.7912892 62.9381299,67.3131061 62.5708515,66.5721243 C62.6706671,60.7543139 65.0192313,55.328511 69.2101982,51.2557868 C73.4921796,47.0944274 79.1488257,44.8841133 85.1351852,45.043828 C96.9318854,45.3497694 106.529208,55.2938276 106.529208,67.2101266 L106.529208,108.267717 L110,108.267717 L110,67.2101266 C110,60.5248043 107.446009,54.1878142 102.80877,49.3664007 Z" id="Path" fill="#000000"></path>
                <path d="M48.8658678,71.4355854 C50.9027327,67.4097338 50.9027327,67.3941049 50.9027327,66.959491 C50.9027327,60.0538411 48.1710283,53.596293 43.2114158,48.7765754 C38.2533058,43.9583565 31.7069607,41.4067665 24.774236,41.5833953 C18.0965218,41.7568126 11.8521968,44.5205713 7.19138452,49.3664085 C2.5539697,54.1876248 0,60.5246371 0,67.2099828 L0,108.267717 L3.47054817,108.267717 L3.47054817,67.2099828 C3.47054817,55.2936421 13.0677902,45.349549 24.8641766,45.0436065 C30.8547789,44.887745 36.507299,47.0944272 40.7890298,51.2555871 C44.9799615,55.3283255 47.3287206,60.7541474 47.4285354,66.5719782 C47.0610454,67.3129627 45.3038764,70.791158 45.3038764,70.791158 L47.2321257,88.421279 L39.3336664,88.421279 L39.3336664,100.19075 L15.2707983,100.19075 L15.2707983,103.652246 L25.451259,103.652246 L25.451259,108.267717 L28.9218072,108.267717 L28.9218072,103.652246 L42.8044292,103.652246 L42.8044292,91.8827748 L51.1023622,91.8827748 L48.8658678,71.4355854 Z" id="Path" fill="#000000"></path>
                <path d="M66.9815586,6.91287895 L66.9815586,0 L8.66141732,0 L8.66141732,31.1078484 L18.3622985,31.1078484 L18.3622985,39.8587746 L29.4729274,31.1078484 L38.995742,31.1078484 L38.995742,27.6515158 L28.2701741,27.6515158 L21.8269908,32.7261338 L21.8269908,27.6515158 L12.1258953,27.6515158 L12.1258953,3.45654637 L63.5170806,3.45654637 L63.5170806,6.91287895 L42.1522997,6.91287895 L42.1522997,38.0207274 L51.9444642,38.0207274 L63.055093,46.7716535 L63.055093,38.0207274 L100.472441,38.0207274 L100.472441,6.91287895 L66.9815586,6.91287895 Z M97.007963,34.564181 L59.5906151,34.564181 L59.5906151,39.6387989 L53.1474317,34.564181 L45.6167777,34.564181 L45.6167777,31.1078484 L66.9815586,31.1078484 L66.9815586,13.7105326 L63.5170806,13.7105326 L63.5170806,27.6515158 L45.6167777,27.6515158 L45.6167777,10.3692115 L97.007963,10.3692115 L97.007963,34.564181 Z" id="Shape" fill="#000000"></path>
                <g id="Group" transform="translate(18.188976, 11.259843)" fill="#000000">
                    <rect id="Rectangle" x="0.0160909886" y="0.165336833" width="3.42314611" height="3.11195101"></rect>
                    <rect id="Rectangle" x="15.5347909" y="0.165336833" width="3.42314611" height="3.11195101"></rect>
                    <rect id="Rectangle" x="7.77533508" y="0.165336833" width="3.42314611" height="3.11195101"></rect>
                </g>
                <g id="Group" transform="translate(71.889764, 20.787402)" fill="#0D5FFF">
                    <rect id="Rectangle" x="8.19026477" y="0.172650919" width="3.5394168" height="3.11195101"></rect>
                    <rect id="Rectangle" x="0.167251017" y="0.172650919" width="3.5394168" height="3.11195101"></rect>
                    <rect id="Rectangle" x="16.2130596" y="0.172650919" width="3.5394168" height="3.11195101"></rect>
                </g>
            </g>
        </g>
    </g>
</svg>