<?xml version="1.0" encoding="UTF-8"?>
<svg width="110px" height="100px" viewBox="0 0 110 100" version="1.1" xmlns="http://www.w3.org/2000/svg" xmlns:xlink="http://www.w3.org/1999/xlink">
    <!-- Generator: Sketch 54 (76480) - https://sketchapp.com -->
    <title>brand-icon2</title>
    <desc>Created with Sketch.</desc>
    <g id="Page-1" stroke="none" stroke-width="1" fill="none" fill-rule="evenodd">
        <g id="MIKA3" transform="translate(-1201.000000, -1923.000000)">
            <g id="brand-icon2" transform="translate(1201.000000, 1923.000000)">
                <path d="M12.0263808,28.8652482 C11.1820589,28.8652482 10.4356921,28.2472068 10.2813908,27.368096 L8.610084,17.8426209 C8.52513157,17.3639941 8.63175546,16.8720472 8.90568334,16.4751154 C9.17787762,16.0772956 9.59397061,15.8082346 10.0620752,15.7274274 L19.6616872,14.068661 C20.6213017,13.9008306 21.532372,14.5597197 21.7048773,15.5400613 L23.3761841,25.0664244 C23.4602695,25.5441632 23.3536457,26.0361101 23.0805846,26.4339299 C22.8075237,26.8308617 22.3914307,27.0999227 21.9241929,27.1807299 L12.3237139,28.8394963 C12.2240249,28.8572561 12.125203,28.8652482 12.0263808,28.8652482 Z M12.4216691,19.0076645 L13.4645022,24.9536495 L19.563732,23.8996048 L18.5208989,17.9536199 L12.4216691,19.0076645 Z" id="Shape" fill="#000000" fill-rule="nonzero"></path>
                <polygon id="Path" fill="#000000" fill-rule="nonzero" points="14.0425532 33.7557066 28.2519985 31.2056738 28.8652482 34.8958612 14.6566827 37.4468085"></polygon>
                <path d="M9.36949361,51.4893617 C8.51218748,51.4893617 7.75013759,50.8914429 7.59402303,50.0400958 L0.0282083299,8.84297471 C-0.0599918894,8.36360888 0.0608423546,7.86963855 0.359841155,7.47961669 C0.658839954,7.08873603 1.11218897,6.83788503 1.60875626,6.78462204 L28.4216229,3.91186273 C28.9340661,3.85516364 29.4420994,4.01667045 29.8240065,4.349993 C30.2067954,4.68331555 30.4255319,5.16010431 30.4255319,5.66094705 L30.4255319,49.7299684 C30.4255319,50.7015863 29.6158538,51.4893617 28.6191914,51.4893617 C27.6216469,51.4893617 26.8128509,50.7015863 26.8128509,49.7299684 L26.8128509,7.62480116 L3.92577608,10.0757528 L11.1502559,49.4215591 C11.3248924,50.3777137 10.6722108,51.2917735 9.68966024,51.4635892 C9.58205609,51.48163 9.47533388,51.4893617 9.36949361,51.4893617 Z" id="Path" fill="#000000" fill-rule="nonzero"></path>
                <path d="M97.8343339,29.6453901 C97.7327969,29.6453901 97.6286114,29.6365063 97.5244256,29.6178501 L87.3159954,27.8446343 C86.8427452,27.7620143 86.4215877,27.4937222 86.1452308,27.098391 C85.8679911,26.7021713 85.7593907,26.2135596 85.8432688,25.736497 L87.620606,15.5476118 C87.7918942,14.5606163 88.7225019,13.8987696 89.709617,14.0693395 L99.9180474,15.8434439 C100.391298,15.9251753 100.812455,16.1934676 101.088812,16.5896871 C101.366052,16.9850185 101.474652,17.4745184 101.390774,17.9515812 L99.6134368,28.1395778 C99.4598069,29.0235207 98.696073,29.6453901 97.8343339,29.6453901 Z M89.7193292,24.5691595 L96.3642564,25.724948 L97.5164793,19.119807 L90.8706692,17.9649068 L89.7193292,24.5691595 Z" id="Shape" fill="#000000" fill-rule="nonzero"></path>
                <rect id="Rectangle" fill="#0D5FFF" x="37.4" y="9.9" width="18.7" height="18.7"></rect>
                <polygon id="Path" fill="#000000" fill-rule="nonzero" points="81.1347518 34.896402 81.7480015 31.2056738 95.9574468 33.7560803 95.3441971 37.4468085"></polygon>
                <path d="M102.682317,40.5673759 C102.58332,40.5673759 102.483476,40.5587485 102.381095,40.5397679 C101.438506,40.3715318 100.808139,39.4552924 100.97398,38.4950528 L106.235219,7.93216744 L85.3806436,6.03929613 L85.3806436,38.8004658 C85.3806436,39.7753724 84.603896,40.5673759 83.6477686,40.5673759 C82.6907951,40.5673759 81.9148936,39.7753724 81.9148936,38.8004658 L81.9148936,4.10760094 C81.9148936,3.6123831 82.1196573,3.13873392 82.4775705,2.80398707 C82.8363297,2.47010335 83.312701,2.30272993 83.8009181,2.34759288 L108.421619,4.58211303 C108.90476,4.62611307 109.347286,4.87458479 109.642586,5.26713567 C109.937885,5.65968654 110.057189,6.16008099 109.974269,6.64753415 L104.386424,39.1041535 C104.240043,39.9625889 103.50814,40.5673759 102.682317,40.5673759 Z" id="Path" fill="#000000" fill-rule="nonzero"></path>
                <polygon id="Path" fill="#000000" fill-rule="nonzero" points="63.9716312 10.9219858 77.2340426 10.9219858 77.2340426 14.0425532 63.9716312 14.0425532"></polygon>
                <polygon id="Path" fill="#000000" fill-rule="nonzero" points="63.9716312 21.0638298 77.2340426 21.0638298 77.2340426 24.1843972 63.9716312 24.1843972"></polygon>
                <polygon id="Path" fill="#000000" fill-rule="nonzero" points="35.106383 37.4468085 56.1702128 37.4468085 56.1702128 40.5673759 35.106383 40.5673759"></polygon>
                <path d="M29.0756212,51.4893617 C28.0977829,51.4893617 27.3049645,50.6917983 27.3049645,49.7081081 L27.3049645,1.78125359 C27.3049645,0.797563199 28.0977829,0 29.0756212,0 L83.2648043,0 C84.2417781,0 85.035461,0.797563199 85.035461,1.78125359 L85.035461,39.595493 C85.035461,40.5783137 84.2417781,41.3767466 83.2648043,41.3767466 C82.2869661,41.3767466 81.4941477,40.5783137 81.4941477,39.595493 L81.4941477,3.56250719 L30.8462778,3.56250719 L30.8462778,49.7081081 C30.8462778,50.6926682 30.0534595,51.4893617 29.0756212,51.4893617 Z" id="Path" fill="#000000" fill-rule="nonzero"></path>
                <path d="M99.8814902,99.858156 L10.0982171,99.858156 C8.55122203,99.858156 7.27019848,98.6611899 7.18125051,97.1344739 L3.90587634,51.3710751 C3.8579142,50.5601155 4.1456868,49.7768514 4.69245437,49.2004381 C5.24271031,48.6214285 6.01882411,48.2899476 6.82197091,48.2899476 L54.2878632,48.2899476 L63.2742132,39.9284945 C64.4523364,38.8310592 65.9949713,38.2269504 67.6160898,38.2269504 L103.176921,38.2269504 C103.97658,38.2269504 104.748333,38.5558348 105.297717,39.1287861 C105.844485,39.7000064 106.135746,40.477212 106.095632,41.2613418 L102.799329,97.12755 C102.723461,98.650804 101.442438,99.858156 99.8814902,99.858156 L99.8814902,99.858156 Z M10.7025395,96.3131284 L99.2693196,96.3131284 L102.488011,41.7711126 L67.6160898,41.7711126 C66.9053788,41.7711126 66.2312936,42.0342201 65.7167912,42.513699 L55.7005646,51.8341098 L7.51960119,51.8341098 L10.7025395,96.3131284 Z" id="Shape" fill="#000000" fill-rule="nonzero"></path>
                <path d="M71.6903421,81.9148936 L39.0880741,81.9148936 C37.8689112,81.9148936 36.8821374,80.9531321 36.7941112,79.6764424 L35.8927228,66.5700005 C35.8434281,65.8518624 36.0899015,65.1549461 36.5705245,64.6592102 C37.0009728,64.2161037 37.5749035,63.9716312 38.1866857,63.9716312 L72.5926107,63.9716312 C73.2043929,63.9716312 73.7774434,64.2152549 74.2078915,64.6583612 C74.6885148,65.1532483 74.9367488,65.8501648 74.8874541,66.5691514 L73.9843051,79.6764424 C73.8980393,80.9522831 72.9112655,81.9148936 71.6903421,81.9148936 L71.6903421,81.9148936 Z M40.3222017,78.4379515 L70.4562145,78.4379515 L71.2132399,67.4477245 L39.5660565,67.4477245 L40.3222017,78.4379515 Z" id="Shape" fill="#000000" fill-rule="nonzero"></path>
                <polygon id="Path" fill="#000000" fill-rule="nonzero" points="44.4680851 71.7730496 65.5319149 71.7730496 65.5319149 74.893617 44.4680851 74.893617"></polygon>
            </g>
        </g>
    </g>
</svg>