<?xml version="1.0" encoding="UTF-8"?>
<svg width="249px" height="198px" viewBox="0 0 249 198" version="1.1" xmlns="http://www.w3.org/2000/svg" xmlns:xlink="http://www.w3.org/1999/xlink">
    <!-- Generator: Sketch 54 (76480) - https://sketchapp.com -->
    <title>brand-large-icon</title>
    <desc>Created with Sketch.</desc>
    <defs>
        <linearGradient x1="100%" y1="50%" x2="-57.494213%" y2="50%" id="linearGradient-1">
            <stop stop-color="#80DCC5" offset="0%"></stop>
            <stop stop-color="#0D5FFF" offset="100%"></stop>
        </linearGradient>
        <circle id="path-2" cx="171.5" cy="68.5" r="16.5"></circle>
        <filter x="-21.2%" y="-15.2%" width="142.4%" height="142.4%" filterUnits="objectBoundingBox" id="filter-3">
            <feOffset dx="0" dy="2" in="SourceAlpha" result="shadowOffsetOuter1"></feOffset>
            <feGaussianBlur stdDeviation="2" in="shadowOffsetOuter1" result="shadowBlurOuter1"></feGaussianBlur>
            <feColorMatrix values="0 0 0 0 0.314369351   0 0 0 0 0.8883757   0 0 0 0 0.759899616  0 0 0 1 0" type="matrix" in="shadowBlurOuter1"></feColorMatrix>
        </filter>
    </defs>
    <g id="Page-1" stroke="none" stroke-width="1" fill="none" fill-rule="evenodd">
        <g id="MIKA3" transform="translate(-390.000000, -1530.000000)">
            <g id="brand-large-icon" transform="translate(390.000000, 1530.000000)">
                <g id="network" transform="translate(53.000000, 0.000000)">
                    <path d="M7.8002422,120.158952 L38.5664063,128.415164 L38.5664063,132 C38.5664063,139.179702 44.3867045,145 51.5664063,145 L180.566406,145 C187.746108,145 193.566406,139.179702 193.566406,132 L193.566406,15 C193.566406,7.82029825 187.746108,2 180.566406,2 L51.5664063,2 C44.3867045,2 38.5664063,7.82029825 38.5664063,15 L38.5664063,110.315449 L7.8002422,120.158952 Z" id="Rectangle" stroke="#333333" stroke-width="4" fill="#FFFFFF"></path>
                    <path d="M154.981818,23 C148.905291,23 143.963636,27.9416545 143.963636,34.0181818 C143.963636,35.9188182 144.4466,37.7074364 145.296836,39.2701818 L127.247218,57.3198 C124.758945,55.3824364 121.644473,54.2181818 118.254545,54.2181818 C114.864618,54.2181818 111.750145,55.3824364 109.260036,57.3179636 L95.1769636,43.2348909 C95.8233636,42.1422545 96.2181818,40.8861818 96.2181818,39.5272727 C96.2181818,35.4762545 92.9237455,32.1818182 88.8727273,32.1818182 C84.8217091,32.1818182 81.5272727,35.4762545 81.5272727,39.5272727 C81.5272727,43.5782909 84.8217091,46.8727273 88.8727273,46.8727273 C90.2316364,46.8727273 91.4877091,46.4779091 92.5803455,45.8315091 L106.663418,59.9145818 C104.727891,62.4046909 103.563636,65.5191636 103.563636,68.9090909 C103.563636,72.2990182 104.727891,75.4134909 106.663418,77.9017636 L83.4077091,101.159309 C81.4501455,99.3835455 78.8627091,98.2909091 76.0181818,98.2909091 C69.9416545,98.2909091 65,103.232564 65,109.309091 C65,115.385618 69.9416545,120.327273 76.0181818,120.327273 C82.0947091,120.327273 87.0363636,115.385618 87.0363636,109.309091 C87.0363636,107.408455 86.5534,105.619836 85.7031636,104.057091 L109.261873,80.4983818 C111.292891,82.0776545 113.7426,83.1354 116.420018,83.4714545 L116.420018,102.128909 C111.2176,103.006691 107.2382,107.531491 107.2382,112.981818 C107.2382,119.058345 112.179855,124 118.256382,124 C124.332909,124 129.274564,119.058345 129.274564,112.981818 C129.274564,107.533327 125.295164,103.008527 120.092745,102.128909 L120.092745,83.4714545 C122.770164,83.1354 125.219873,82.0776545 127.250891,80.4983818 L141.333964,94.5814545 C140.685727,95.6759273 140.290909,96.932 140.290909,98.2909091 C140.290909,102.341927 143.585345,105.636364 147.636364,105.636364 C151.687382,105.636364 154.981818,102.341927 154.981818,98.2909091 C154.981818,94.2398909 151.687382,90.9454545 147.636364,90.9454545 C146.277455,90.9454545 145.021382,91.3402727 143.928745,91.9866727 L129.845673,77.9036 C131.7812,75.4134909 132.945455,72.2990182 132.945455,68.9090909 C132.945455,65.5191636 131.7812,62.4046909 129.845673,59.9164182 L147.594127,42.1679636 C149.549855,43.9437273 152.137291,45.0363636 154.981818,45.0363636 C161.058345,45.0363636 166,40.0947091 166,34.0181818 C166,27.9416545 161.058345,23 154.981818,23 Z" id="Path" fill="#333333" fill-rule="nonzero"></path>
                    <path d="M85.2,39.5272727 C85.2,37.5017636 86.8472182,35.8545455 88.8727273,35.8545455 C90.8982364,35.8545455 92.5454545,37.5017636 92.5454545,39.5272727 C92.5454545,41.5527818 90.8982364,43.2 88.8727273,43.2 C86.8472182,43.2 85.2,41.5527818 85.2,39.5272727 Z M76.0181818,116.654545 C71.9671636,116.654545 68.6727273,113.360109 68.6727273,109.309091 C68.6727273,105.258073 71.9671636,101.963636 76.0181818,101.963636 C80.0692,101.963636 83.3636364,105.258073 83.3636364,109.309091 C83.3636364,113.360109 80.0692,116.654545 76.0181818,116.654545 Z M125.6,112.981818 C125.6,117.032836 122.305564,120.327273 118.254545,120.327273 C114.203527,120.327273 110.909091,117.032836 110.909091,112.981818 C110.909091,108.9308 114.203527,105.636364 118.254545,105.636364 C122.305564,105.636364 125.6,108.9308 125.6,112.981818 Z M151.309091,98.2909091 C151.309091,100.316418 149.661873,101.963636 147.636364,101.963636 C145.610855,101.963636 143.963636,100.316418 143.963636,98.2909091 C143.963636,96.2654 145.610855,94.6181818 147.636364,94.6181818 C149.661873,94.6181818 151.309091,96.2654 151.309091,98.2909091 Z M154.981818,41.3636364 C150.9308,41.3636364 147.636364,38.0692 147.636364,34.0181818 C147.636364,29.9671636 150.9308,26.6727273 154.981818,26.6727273 C159.032836,26.6727273 162.327273,29.9671636 162.327273,34.0181818 C162.327273,38.0692 159.032836,41.3636364 154.981818,41.3636364 Z" id="Shape" fill="#FFFFFF" fill-rule="nonzero"></path>
                </g>
                <g id="smartphone-(3)" transform="translate(0.000000, 52.000000)" fill="#000000" fill-rule="nonzero">
                    <path d="M80,46 L76.3549033,46 L76.3549033,20.2300537 L3.64331777,20.2300537 L3.64331777,116.08105 L76.3549033,116.08105 L76.3549033,88 L80,88 L80,136.223418 C80,141.614653 75.622326,146 70.2413164,146 L9.75868357,146 C4.37731821,146 0,141.614297 0,136.223418 L0,9.77658203 C0,4.38534668 4.37731821,0 9.75868357,0 L70.2413164,0 C75.6226818,0 80,4.38534668 80,9.77658203 L80,46 Z M76.3549033,136.223418 L76.3549033,119.73105 L3.64331777,119.73105 L3.64331777,136.223418 C3.64331777,139.60145 6.38683567,142.35 9.75868357,142.35 L70.2395375,142.35 C73.6113854,142.35 76.3549033,139.60145 76.3549033,136.223418 Z M76.3549033,16.5800537 L76.3549033,9.77658203 C76.3549033,6.3985498 73.6113854,3.65 70.2395375,3.65 L9.75868357,3.65 C6.38683567,3.65 3.64331777,6.3985498 3.64331777,9.77658203 L3.64331777,16.5800537 L76.3549033,16.5800537 Z M39.5,124 C43.6351582,124 47,127.363462 47,131.49911 C47,135.634759 43.6351582,139 39.5,139 C35.3648418,139 32,135.636538 32,131.50089 C32,127.365241 35.3648418,124 39.5,124 Z M39.5,135.35791 C41.625931,135.35791 43.3565634,133.627073 43.3565634,131.50089 C43.3565634,129.374706 41.625931,127.643869 39.5,127.643869 C37.374069,127.643869 35.6434366,129.374706 35.6434366,131.50089 C35.6434366,133.627073 37.374069,135.35791 39.5,135.35791 Z" id="Combined-Shape"></path>
                    <path d="M39.5,124 C35.3648418,124 32,127.365241 32,131.50089 C32,135.636538 35.3648418,139 39.5,139 C43.6351582,139 47,135.634759 47,131.49911 C47,127.363462 43.6351582,124 39.5,124 Z" id="Path"></path>
                </g>
                <path d="M18.5,98 L61.4140625,98" id="Line" stroke="#333333" stroke-width="4" stroke-linecap="square"></path>
                <path d="M18.5,108 L50.5,108" id="Line" stroke="#333333" stroke-width="4" stroke-linecap="square"></path>
                <path d="M18.5,118 L39.9570312,118" id="Line" stroke="#333333" stroke-width="4" stroke-linecap="square"></path>
                <path d="M18.5,128 L61.4140625,128" id="Line" stroke="#333333" stroke-width="4" stroke-linecap="square"></path>
                <path d="M18.5,138 L61.4140625,138" id="Line" stroke="#333333" stroke-width="4" stroke-linecap="square"></path>
                <g id="Oval" fill-rule="nonzero">
                    <use fill="black" fill-opacity="1" filter="url(#filter-3)" xlink:href="#path-2"></use>
                    <use fill="url(#linearGradient-1)" xlink:href="#path-2"></use>
                </g>
            </g>
        </g>
    </g>
</svg>