<svg xmlns="http://www.w3.org/2000/svg" width="305" height="247" viewBox="0 0 305 247">
    <g fill="none" fill-rule="evenodd">
        <g fill-rule="nonzero">
            <g fill="#0D5FFF">
                <path d="M186.09 34.132l-11.206 7.447-18.679-3.724-11.207-3.723-14.942 3.723-11.208-3.723 7.472-14.896h14.942l14.644-7.299a106.975 106.975 0 0 1 30.185 22.195zM100.17 19.236l-3.735 11.172-11.207 3.724-11.207 18.62-18.679 11.171-26.15 3.724v11.172l7.472 7.447v14.896l-11.206-7.448-11.208-7.448-6.5-19.475C18.94 40.213 40.325 19.202 67.147 8.437l10.61 7.075 22.413 3.724z"/>
                <path d="M107.642 123.505l-3.736 18.62-14.942 14.895v11.172L74.02 179.363v18.62l-11.207-3.724-7.471-18.62V138.4l-18.679-3.723-7.47-14.896v-11.172l7.47-7.447L47.872 89.99l7.47 14.895h26.15l11.207 18.62zM202.154 55.842c20.393 36.267 18.07 80.987-5.977 114.956l-10.086-10.054v-14.896l-7.471-14.896-7.471-14.895V101.16l-11.208-7.448L145 97.437l-26.15-11.172-3.735-26.067 11.207-11.172h22.414l7.47 11.172 22.415 3.724 22.414-7.447 1.12-.633z"/>
            </g>
            <path fill="#ACE6DA" d="M130.241 37.253l14.887-3.725 11.165 3.725 18.608 3.725 11.165-7.45a106.385 106.385 0 0 1 16.003 21.719l-1.116.633-22.33 7.45-22.33-3.725-7.443-11.176h-22.33l-11.164 11.176 3.721 26.078 26.051 11.176 14.887-3.725 11.165 7.45v14.902l7.443 14.902 7.443 14.901v14.902l10.048 10.058C161.745 219 94.402 230.627 45.705 196.222 4.347 167-11.169 112.934 8.395 66.2l6.476 19.484 11.165 7.45 11.165 7.45-7.443 7.452v11.176l7.443 14.902 18.608 3.725v37.254l7.443 18.627 11.165 3.725v-18.627l14.887-11.176v-11.176l14.886-14.902 3.722-18.627H93.025L81.86 104.31H55.81l-7.443-14.901-11.165 11.176V85.682l-7.443-7.45V67.056l26.051-3.725 18.608-11.177 11.165-18.627 11.165-3.725 3.722-11.176-22.33-3.725-10.57-7.079a107.835 107.835 0 0 1 88.426 3.502l-14.589 7.302H126.52l-7.443 14.901 11.164 3.726z"/>
        </g>
        <path fill="#000" fill-opacity=".85" fill-rule="nonzero" d="M201 83c-34.242 0-62 27.534-62 61.5s27.758 61.5 62 61.5c34.242 0 62-27.534 62-61.5-.037-33.95-27.774-61.463-62-61.5z"/>
        <path fill="#FFF" fill-rule="nonzero" d="M202.477 88c18.123.014 35.106 8.952 45.523 23.96l-7.335 7.422a11.477 11.477 0 0 0-5.915-1.693c-6.481 0-11.735 5.317-11.735 11.876.01 2.114.585 4.185 1.663 5.994L205.467 155a11.264 11.264 0 0 0-11.847 0l-13.344-13.503a11.822 11.822 0 0 0 1.664-5.994c.008-6.546-5.23-11.859-11.698-11.867-5.35-.007-10.024 3.655-11.357 8.898H148c5.555-25.958 28.23-44.495 54.477-44.534z"/>
        <path fill="#00DCF6" fill-rule="nonzero" d="M239 129.5a5.5 5.5 0 1 1-11 0 5.5 5.5 0 0 1 11 0z"/>
        <path fill="#D9FFA6" fill-rule="nonzero" d="M205 164.5a5.5 5.5 0 1 1-11 0 5.5 5.5 0 0 1 11 0z"/>
        <path fill="#0D5FFF" fill-rule="nonzero" d="M175 135.5a5.5 5.5 0 1 1-11 0 5.5 5.5 0 0 1 11 0z"/>
        <path fill="#FFF" fill-rule="nonzero" d="M228.202 192.975A56 56 0 0 1 200.995 200c-30.904.02-55.974-24.983-55.995-55.85a55.788 55.788 0 0 1 .315-5.963h11.892a11.786 11.786 0 0 0 11.37 8.83 11.642 11.642 0 0 0 5.95-1.668l13.404 13.386a11.606 11.606 0 0 0-1.671 5.943c0 6.503 5.278 11.774 11.788 11.774 6.51 0 11.789-5.271 11.789-11.774a11.606 11.606 0 0 0-1.671-5.943l19.297-19.273a11.642 11.642 0 0 0 5.95 1.669c6.511 0 11.79-5.272 11.79-11.774a11.606 11.606 0 0 0-1.672-5.943l6.425-6.414c14.999 26.98 5.26 60.995-21.754 75.975z"/>
        <path fill="#000" fill-opacity=".85" fill-rule="nonzero" d="M275.325 100.341a11.725 11.725 0 0 0 11.307-8.8h18v-5.866h-18a11.725 11.725 0 0 0-11.307-8.8c-6.474 0-11.722 5.254-11.722 11.734.01 2.088.584 4.134 1.661 5.922l-5.149 5.153c-24.638-32.126-70.633-38.18-102.732-13.52-32.099 24.659-38.147 70.693-13.509 102.82 23.257 30.324 65.888 37.68 97.948 16.9l8.844 8.852 4.144 4.148 23.593 23.612c6 6.005 15.728 6.005 21.728 0 6-6.005 6-15.741 0-21.747l-23.592-23.612-4.144-4.148-8.845-8.852c15.7-24.205 15.7-55.39 0-79.595l5.861-5.867a11.562 11.562 0 0 0 5.914 1.666zm0-17.599a5.864 5.864 0 0 1 5.862 5.867 5.864 5.864 0 0 1-5.862 5.866 5.864 5.864 0 0 1-5.861-5.866 5.864 5.864 0 0 1 5.861-5.867zm20.662 142.155c3.753 3.672 3.822 9.695.153 13.451a9.499 9.499 0 0 1-13.593 0l-23.593-23.612 13.44-13.451 23.593 23.612zm-27.736-27.76l-13.44 13.452-8.113-8.12c.413-.316.8-.665 1.208-.99.407-.326.879-.717 1.316-1.083a72.573 72.573 0 0 0 1.896-1.646c.32-.293.624-.586.938-.88a75.426 75.426 0 0 0 3.49-3.493c.293-.314.586-.62.88-.939a72.598 72.598 0 0 0 1.643-1.898c.368-.434.728-.873 1.082-1.317.322-.404.67-.792.987-1.205l8.113 8.119zm-11.366-13.625a68.46 68.46 0 0 1-2.88 3.772c-.294.355-.607.698-.91 1.048a66.06 66.06 0 0 1-4.046 4.308 62.266 62.266 0 0 1-3.037 2.781c-.348.293-.691.613-1.046.91a68.413 68.413 0 0 1-3.769 2.883c-30.338 21.693-72.504 14.663-94.178-15.702-21.674-30.364-14.65-72.565 15.688-94.258 30.339-21.693 72.504-14.664 94.178 15.701 16.772 23.496 16.772 55.062 0 78.557z"/>
        <path stroke="#333" stroke-width="7" d="M89.042 135.436h40.5"/>
    </g>
</svg>
