<?xml version="1.0" encoding="UTF-8"?>
<svg width="156px" height="120px" viewBox="0 0 156 120" version="1.1" xmlns="http://www.w3.org/2000/svg" xmlns:xlink="http://www.w3.org/1999/xlink">
    <!-- Generator: Sketch 54 (76480) - https://sketchapp.com -->
    <title>1</title>
    <desc>Created with Sketch.</desc>
    <defs>
        <linearGradient x1="100%" y1="50%" x2="-57.494213%" y2="50%" id="linearGradient-1">
            <stop stop-color="#80DCC5" offset="0%"></stop>
            <stop stop-color="#0D5FFF" offset="100%"></stop>
        </linearGradient>
        <linearGradient x1="100%" y1="50%" x2="-57.494213%" y2="50%" id="linearGradient-2">
            <stop stop-color="#80DCC5" offset="0%"></stop>
            <stop stop-color="#0D5FFF" offset="100%"></stop>
        </linearGradient>
        <linearGradient x1="100%" y1="50%" x2="-57.494213%" y2="50%" id="linearGradient-3">
            <stop stop-color="#80DCC5" offset="0%"></stop>
            <stop stop-color="#0D5FFF" offset="100%"></stop>
        </linearGradient>
    </defs>
    <g id="Page-1" stroke="none" stroke-width="1" fill="none" fill-rule="evenodd">
        <g id="Financial" transform="translate(-425.000000, -1605.000000)" fill-rule="nonzero">
            <g id="1" transform="translate(425.000000, 1605.000000)">
                <path d="M45.3808637,38.0140786 C48.2123061,36.8598147 51.2409138,36.2658367 54.2994707,36.2658367 C55.357674,36.2658367 56.2162162,35.4085617 56.2162162,34.3491346 C56.2162162,33.2909553 55.357674,32.4324324 54.2994707,32.4324324 C39.1901251,32.5959012 27.027027,44.8897483 27.027027,60 C27.027027,75.1102514 39.1901251,87.4040988 54.2994707,87.5675676 C55.357674,87.5675676 56.2162162,86.7090447 56.2162162,85.6508654 C56.2162162,84.591438 55.357674,83.7341633 54.2994707,83.7341633 C42.9449996,83.7329152 33.1828249,75.6905029 31.009016,64.5471762 C28.8352068,53.4038491 34.8599772,42.2817358 45.3808637,38.0140786 Z" id="Path" fill="#333333"></path>
                <path d="M1.57824916,69.6682743 L8.56351574,72.0263037 C9.75741669,76.2019806 11.5059443,80.2000498 13.7636169,83.9121824 L10.7201174,90.6839592 C10.3865833,91.4246226 10.5533503,92.2937679 11.135772,92.8606017 L22.0615427,103.48811 C22.6502808,104.061242 23.5371787,104.201061 24.27626,103.838287 L30.9646305,100.544352 C34.7396309,102.723513 38.8191077,104.328283 43.0691412,105.305757 L45.6616116,112.252623 C45.9446103,113.010921 46.6697943,113.513514 47.4808889,113.513514 L47.5124735,113.513514 L54.3044419,113.396368 C55.3770574,113.378733 56.231107,112.496991 56.2121561,111.428824 C56.1932056,110.359397 55.310098,109.509146 54.2374822,109.526781 L48.8175522,109.619994 L46.3375234,102.966622 C46.1037969,102.340586 45.5643306,101.87956 44.9098963,101.74604 C40.3654934,100.816432 36.0181785,99.1071124 32.0625137,96.6923997 C31.4939898,96.3460011 30.7877564,96.3145104 30.1901744,96.6080043 L23.7885924,99.760861 L14.8160182,91.0353964 L17.7268618,84.5571136 C17.9934362,83.9638275 17.9429008,83.2773284 17.5929426,82.7281295 C15.0926997,78.8094171 13.219097,74.5279309 12.0403567,70.0348267 C11.8748533,69.4050112 11.4036097,68.9011587 10.7845502,68.6920601 L4.11639354,66.4423588 L3.90414453,53.9657129 L10.5760915,51.4917974 C11.2039947,51.2600253 11.6663942,50.7221628 11.8015767,50.0684145 C12.7339564,45.5362616 14.4483725,41.2006115 16.8702853,37.2554466 C17.2177168,36.6886128 17.2493014,35.9844789 16.953669,35.3886735 L13.7914113,29.0048631 L22.5466833,20.0602228 L29.043019,22.9624128 C29.6380744,23.2281947 30.3278835,23.1790694 30.8774569,22.8301516 C34.8078539,20.3373416 39.1033697,18.4693086 43.6086075,17.292813 C44.240301,17.1290611 44.7469191,16.6592188 44.9566415,16.0419994 L47.2143142,9.39366665 L54.3069685,9.27526117 C55.379584,9.2576265 56.2336339,8.37714428 56.2159464,7.30771756 C56.1982588,6.23955039 55.3151515,5.38803977 54.2425361,5.40567444 L45.7816331,5.54927255 C44.9616951,5.56312825 44.2390377,6.08965421 43.9762532,6.86306754 L41.6099295,13.8288277 C37.4218015,15.0179194 33.4130747,16.7625084 29.6886098,19.0134693 L22.8966414,15.9777585 C22.1550331,15.6464754 21.2832963,15.8114868 20.714772,16.392177 L10.055576,27.2829473 C9.47947155,27.8711951 9.33923552,28.7554563 9.70309097,29.4923404 L13.0081113,36.1608273 C10.822452,39.9258646 9.21289682,43.9944732 8.23124521,48.2331317 L1.26492919,50.8153756 C0.492999981,51.1000521 -0.0136183799,51.8407152 0.00027889313,52.6619946 L0.259273145,67.8695208 C0.273170483,68.6870216 0.801266083,69.406271 1.57824916,69.6682743 Z" id="Path" fill="#333333"></path>
                <path d="M58.3783784,58.055157 L58.3783784,61.9448433 L135.458333,61.9448433 C136.454423,67.1424872 141.211,70.7270256 146.444242,70.2230883 C151.678742,69.7191512 155.675676,65.2938732 155.675676,60.0000001 C155.675676,54.7061267 151.678742,50.2808491 146.444242,49.7769117 C141.211,49.2729746 136.454423,52.8575131 135.458333,58.055157 L58.3783784,58.055157 Z M140.98839,55.4949531 C143.459747,53.0069215 147.466743,53.0069215 149.938101,55.493687 C152.408201,57.9817187 152.408201,62.015749 149.938101,64.5037807 C147.466743,66.9918124 143.459747,66.9918124 140.98839,64.5037807 C138.520805,62.0144829 138.520805,57.9842512 140.98839,55.4949531 Z" id="Shape" fill="url(#linearGradient-1)"></path>
                <path d="M118.542118,21.6216216 C113.699336,21.6216216 109.537512,25.1152448 108.617096,29.9492522 L92.476153,29.9492522 C86.8139768,29.955593 82.2243714,34.6222111 82.2181353,40.3793977 C82.214394,43.9871499 79.3384075,46.9101267 75.7914407,46.9151991 L58.3783784,46.9151991 L58.3783784,50.8108108 L75.7914407,50.8108108 C81.4536169,50.8044704 86.0432223,46.1378522 86.0494581,40.3793977 C86.0531997,36.7729134 88.9279391,33.8486683 92.476153,33.8448639 L108.617096,33.8448639 C109.627309,39.1683594 114.532449,42.7786481 119.82172,42.0913362 C125.112238,41.4040247 128.96601,36.657516 128.628026,31.2452534 C128.290041,25.8342588 123.87504,21.6216216 118.542118,21.6216216 L118.542118,21.6216216 Z M122.979568,36.4089678 C120.530116,38.8969853 116.559109,38.8957173 114.110904,36.4051634 C111.662699,33.9146096 111.662699,29.8782385 114.110904,27.387685 C116.559109,24.8971308 120.530116,24.8958628 122.979568,27.3838806 C125.427773,29.8782385 125.427773,33.9158776 122.979568,36.4089678 Z" id="Shape" fill="url(#linearGradient-2)"></path>
                <path d="M118.545322,97.2972973 C123.87728,97.296029 128.290022,93.0833918 128.628024,87.6736656 C128.966027,82.2652072 125.11205,77.5186988 119.823744,76.831387 C114.535439,76.1440751 109.631285,79.7518277 108.619771,85.0740548 L92.4779686,85.0740548 C88.9295658,85.0702504 86.0546733,82.1460057 86.0509314,78.5395215 C86.0446953,72.781067 81.4548456,68.1157169 75.7923679,68.1081081 L58.3783784,68.1081081 L58.3783784,72.0037197 L75.7923679,72.0037197 C79.3395235,72.0087922 82.2156632,74.9317692 82.2194047,78.5395215 C82.2256412,84.2967079 86.8154909,88.963326 92.4779686,88.9696665 L108.619771,88.9696665 C109.540236,93.8049422 113.702282,97.2972973 118.545322,97.2972973 L118.545322,97.2972973 Z M114.107635,82.5099512 C116.558466,80.0181291 120.530931,80.0181291 122.981761,82.5099512 C125.432591,85.0017731 125.432591,89.0419483 122.981761,91.5337701 C120.530931,94.0255922 116.558466,94.0255922 114.107635,91.5337701 C112.926498,90.3392174 112.261717,88.7147779 112.261717,87.0218607 C112.262965,85.3276754 112.926498,83.7045039 114.107635,82.5099512 Z" id="Shape" fill="url(#linearGradient-2)"></path>
                <path d="M94.0245479,102.500995 C92.3556093,104.177758 91.3214436,106.391945 91.0998367,108.75914 L88.9200753,108.75914 C85.3167712,108.749024 82.0953321,106.484255 80.8345512,103.073826 L75.3870261,88.2194261 C73.5628378,83.2890349 68.9053354,80.0151743 63.6931895,80 L58.3783784,80 L58.3783784,83.8846272 L63.6931895,83.8846272 C67.2977458,83.8947434 70.5191849,86.1595116 71.7799659,89.5686766 L77.2287429,104.423076 C79.0529312,109.354732 83.7104336,112.628592 88.9213272,112.643767 L91.4654253,112.643767 C92.7550028,117.072141 96.8165452,120.08298 101.386407,119.998257 C105.956268,119.914798 109.906381,116.756009 111.0357,112.282112 C112.165019,107.80948 110.195596,103.125671 106.222947,100.841935 C102.25155,98.5581996 97.258507,99.2372506 94.0257999,102.500995 L94.0245479,102.500995 Z M107.498752,109.746735 C107.4975,112.779071 105.375332,115.389055 102.430588,115.979589 C99.4858449,116.570124 96.5373453,114.978084 95.3879941,112.177156 C94.2398945,109.374964 95.2102076,106.144097 97.7067292,104.458483 C100.201999,102.772868 103.529859,103.10291 105.65328,105.246283 C106.838939,106.437468 107.50376,108.057327 107.498752,109.746735 L107.498752,109.746735 Z" id="Shape" fill="url(#linearGradient-3)"></path>
                <path d="M75.4053835,31.7763472 L80.8587881,16.9143087 C82.1209298,13.5021254 85.3445921,11.2361927 88.9530389,11.2260712 L91.1351529,11.2260712 C91.6440202,16.4702313 96.015768,20.4656616 101.236046,20.4568053 C106.455071,20.449214 110.814285,16.438602 111.305605,11.1931768 C111.798179,5.94775131 108.262427,1.18435863 103.136152,0.186133456 C98.01113,-0.810825979 92.9738436,2.2863282 91.4998828,7.3394464 L88.9530389,7.3394464 C83.7365211,7.35462853 79.0727386,10.6301726 77.2478347,15.5643643 L71.7931769,30.4264028 C70.5310352,33.837321 67.3073725,36.1019886 63.6989257,36.1133752 L58.3783784,36.1133752 L58.3783784,40 L63.6989257,40 C68.9166971,39.9848179 73.5792263,36.7092738 75.4053835,31.7763472 Z M96.7865895,5.73646661 C98.913555,3.58819562 102.247514,3.25798441 104.747983,4.94446574 C107.249706,6.63221218 108.22232,9.86727093 107.070474,12.6721691 C105.919882,15.4783323 102.965694,17.0724557 100.015266,16.4803527 C97.064837,15.8882497 94.9391248,13.2743935 94.9391248,10.2379678 C94.9366182,8.54895596 95.6021564,6.92952894 96.7865895,5.73773203 L96.7865895,5.73646661 Z" id="Shape" fill="url(#linearGradient-3)"></path>
            </g>
        </g>
    </g>
</svg>