<?xml version="1.0" encoding="UTF-8"?>
<svg width="120px" height="120px" viewBox="0 0 120 120" version="1.1" xmlns="http://www.w3.org/2000/svg" xmlns:xlink="http://www.w3.org/1999/xlink">
    <!-- Generator: Sketch 54 (76480) - https://sketchapp.com -->
    <title>2</title>
    <desc>Created with Sketch.</desc>
    <defs>
        <linearGradient x1="100%" y1="50%" x2="-57.494213%" y2="50%" id="linearGradient-1">
            <stop stop-color="#80DCC5" offset="0%"></stop>
            <stop stop-color="#0D5FFF" offset="100%"></stop>
        </linearGradient>
    </defs>
    <g id="Page-1" stroke="none" stroke-width="1" fill="none" fill-rule="evenodd">
        <g id="Financial" transform="translate(-909.000000, -1605.000000)" fill-rule="nonzero">
            <g id="2" transform="translate(909.000000, 1605.000000)">
                <path d="M1.37773652,59.6962549 C1.09415255,60.2533385 1.09415255,60.91171 1.37773652,61.4687936 C12.7425252,83.8065796 35.6094824,97.8640777 60.5825243,97.8640777 C85.5555661,97.8640777 108.422523,83.8065796 119.787312,61.4687936 C120.070896,60.91171 120.070896,60.2533385 119.787312,59.6962549 C108.422523,37.3584689 85.5555661,23.3009709 60.5825243,23.3009709 C35.6094824,23.3009709 12.7425252,37.3584689 1.37773652,59.6962549 Z M60.5825243,27.198024 C83.7444091,27.1904272 105.016994,40.0337362 115.880154,60.5825243 C105.014473,81.130046 83.7444091,93.9746213 60.5825243,93.9746213 C37.4206394,93.9746213 16.1505753,81.130046 5.28489488,60.5825243 C16.1480543,40.0337362 37.4206394,27.1904272 60.5825243,27.198024 Z" id="Shape" fill="#0D5FFF"></path>
                <path d="M60.5797742,71.0679612 C64.035436,71.0666971 67.3115503,69.5320348 69.5255512,66.8798758 C71.7395517,64.2289808 72.662579,60.731114 72.0455417,57.3318501 C71.935537,56.7301206 71.5473598,56.2143527 70.9986013,55.9425636 C70.4498429,55.670774 69.8049881,55.6733025 69.257494,55.9488842 C68.7201152,56.2219377 68.124573,56.3635211 67.521444,56.3609929 C65.3769864,56.3597286 63.6384081,54.6215406 63.6371434,52.4775645 C63.6346147,51.8745709 63.7762299,51.2791624 64.0493447,50.7406402 C64.3249883,50.1945331 64.3275173,49.5498231 64.0556668,49.0011879 C63.7825519,48.4525527 63.2679329,48.0644626 62.6648039,47.9544826 C58.3227832,47.1669252 53.9086902,48.8987929 51.2622576,52.428263 C48.6145603,55.9577332 48.1884506,60.6792845 50.1622113,64.6259197 C52.1347078,68.5725548 56.1669458,71.0654331 60.5797742,71.0679612 Z M59.7907756,51.6900071 C59.7654872,51.9491551 59.7528428,52.2120956 59.7528428,52.4775645 C59.7566362,56.7655167 63.2325288,60.2406289 67.521444,60.2444214 C67.7869725,60.2444214 68.0487077,60.2317799 68.3091782,60.2064971 C67.8931839,64.2706973 64.4008539,67.318531 60.3167746,67.1794761 C56.2326954,67.0416853 52.9540524,63.7637785 52.8162306,59.6806162 C52.6771445,55.5974539 55.7256627,52.1059081 59.7907756,51.6900071 Z" id="Shape" fill="url(#linearGradient-1)"></path>
                <path d="M60.0000489,81.5533981 C71.8992938,81.5431932 81.5431929,71.8996281 81.5533981,60.0007953 C81.5546736,50.0140927 74.6942387,41.3336086 64.9763518,39.0298678 C55.2584653,36.7261271 45.2305962,41.4012155 40.7479688,50.3253401 C39.2248449,53.323009 38.4364946,56.639579 38.4466998,60.0007953 C38.4594561,71.8983525 48.1020796,81.5406422 60.0000489,81.5533981 Z M44.2470715,52.0882244 C47.6862185,45.2382319 55.1564134,41.3935617 62.7299357,42.5785979 C70.303458,43.7623583 76.2428752,49.7053964 77.4241255,57.2786565 C78.6053754,64.8519168 74.7580209,72.3205772 67.9065156,75.7557786 C65.4572714,76.9994924 62.746519,77.6436723 60.0000489,77.634743 C50.2655787,77.6232627 42.3769713,69.7349284 42.3654905,60.0007953 C42.3578365,57.2518689 43.002039,54.5399352 44.2470715,52.0882244 Z" id="Shape" fill="#0D5FFF"></path>
                <path d="M1.96679764,33.7864078 C3.05263384,33.7864078 3.93359528,32.9054463 3.93359528,31.8196101 L3.93359528,3.93359528 L31.8196101,3.93359528 C32.9054463,3.93359528 33.7864078,3.05263384 33.7864078,1.96679764 C33.7864078,0.880961444 32.9054463,0 31.8196101,0 L1.96679764,0 C0.880961444,0 0,0.880961444 0,1.96679764 L0,31.8196101 C0,32.9054463 0.880961444,33.7864078 1.96679764,33.7864078 Z" id="Path" fill="#333333"></path>
                <path d="M1.96679764,120 L31.8196101,120 C32.9054463,120 33.7864078,119.119039 33.7864078,118.033202 C33.7864078,116.947366 32.9054463,116.066405 31.8196101,116.066405 L3.93359528,116.066405 L3.93359528,88.1803899 C3.93359528,87.0945537 3.05263384,86.2135922 1.96679764,86.2135922 C0.880961444,86.2135922 0,87.0945537 0,88.1803899 L0,118.033202 C0,119.119039 0.880961444,120 1.96679764,120 Z" id="Path" fill="#333333"></path>
                <path d="M118.033202,86.2135922 C116.947366,86.2135922 116.066405,87.0945537 116.066405,88.1803899 L116.066405,116.066405 L88.1803899,116.066405 C87.0945537,116.066405 86.2135922,116.947366 86.2135922,118.033202 C86.2135922,119.119039 87.0945537,120 88.1803899,120 L118.033202,120 C119.119039,120 120,119.119039 120,118.033202 L120,88.1803899 C120,87.0945537 119.119039,86.2135922 118.033202,86.2135922 Z" id="Path" fill="#333333"></path>
                <path d="M88.1803899,3.93359528 L116.066405,3.93359528 L116.066405,31.8196101 C116.066405,32.9054463 116.947366,33.7864078 118.033202,33.7864078 C119.119039,33.7864078 120,32.9054463 120,31.8196101 L120,1.96679764 C120,0.880961444 119.119039,0 118.033202,0 L88.1803899,0 C87.0945537,0 86.2135922,0.880961444 86.2135922,1.96679764 C86.2135922,3.05263384 87.0945537,3.93359528 88.1803899,3.93359528 Z" id="Path" fill="#333333"></path>
            </g>
        </g>
    </g>
</svg>