<?xml version="1.0" encoding="UTF-8"?>
<svg width="120px" height="138px" viewBox="0 0 120 138" version="1.1" xmlns="http://www.w3.org/2000/svg" xmlns:xlink="http://www.w3.org/1999/xlink">
    <!-- Generator: Sketch 54 (76480) - https://sketchapp.com -->
    <title>3</title>
    <desc>Created with Sketch.</desc>
    <defs>
        <linearGradient x1="100%" y1="50%" x2="-57.494213%" y2="50%" id="linearGradient-1">
            <stop stop-color="#80DCC5" offset="0%"></stop>
            <stop stop-color="#0D5FFF" offset="100%"></stop>
        </linearGradient>
    </defs>
    <g id="Page-1" stroke="none" stroke-width="1" fill="none" fill-rule="evenodd">
        <g id="Financial" transform="translate(-1360.000000, -1596.000000)" fill-rule="nonzero">
            <g id="3" transform="translate(1360.000000, 1596.000000)">
                <path d="M29.335299,122.537811 C43.7276159,133.030941 57.9014882,137.232047 58.498798,137.40544 C58.8139498,137.497237 59.1484431,137.499503 59.4635952,137.409973 C60.0802461,137.23658 74.7387926,133.040008 89.6282988,122.555944 C98.4150076,116.368181 105.42344,109.272654 110.46132,101.464287 C116.752981,91.7803255 120.068334,80.4757598 119.998932,68.9411359 L119.998932,35.280162 C119.998932,34.5854555 119.582522,33.9564795 118.941979,33.6822233 L118.558563,33.5178963 C98.1385385,24.765499 78.8334922,13.6309266 61.0473189,0.347636814 C60.4261168,-0.115878938 59.5716799,-0.115878938 58.9504777,0.347636814 C41.1643045,13.6309266 21.8592582,24.765499 1.43923396,33.5167631 L1.05581815,33.68109 C0.415274643,33.955346 -0.00113562457,34.5854555 2.32644707e-06,35.280162 L2.32644707e-06,68.9411359 C2.32644707e-06,80.7024178 3.09691025,91.6363979 9.20653402,101.439355 C14.0726165,109.249988 20.8455384,116.346649 29.335299,122.537811 Z M3.49511679,36.4259181 C23.5192101,27.7823166 42.4783857,16.8732687 59.9994673,3.91296642 C77.519411,16.8732687 96.4785866,27.7823166 116.503818,36.4259181 L116.503818,68.9411359 C116.569806,79.788986 113.458108,90.4203777 107.551,99.5331613 C102.771386,106.957343 96.0906199,113.726483 87.6930158,119.653589 C74.7638228,128.778838 61.6537303,133.095539 58.9982626,133.913774 C56.4019568,133.084206 43.7719875,128.769772 31.3160913,119.667188 C23.2097468,113.743482 16.7599406,106.975475 12.1452973,99.5546939 C6.40543657,90.3229149 3.49511679,80.0235771 3.49511679,68.9411359 L3.49511679,36.4259181 Z" id="Shape" fill="#333333"></path>
                <path d="M34.0781177,114.338267 C46.2093147,123.216268 58.160698,126.773124 58.6639498,126.920148 C58.9772098,127.011755 59.3096955,127.014018 59.6240864,126.924672 C60.1443018,126.777648 72.5028102,123.225316 85.0501795,114.3541 C92.4621182,109.114382 98.3733481,103.104484 102.623282,96.4906554 C107.937395,88.2787865 110.737511,78.6939373 110.678704,68.912302 L110.678704,40.5151367 C110.678704,39.8207298 110.265925,39.1941805 109.628095,38.9193583 L109.306919,38.7813818 C92.170345,31.407551 75.9690282,22.0251429 61.0422389,10.8332059 C60.4247657,10.3695139 59.5754578,10.3695139 58.9579846,10.8332059 C44.0311953,22.0251429 27.8298785,31.4064198 10.6921737,38.7802506 L10.3709972,38.9182274 C9.73316789,39.1930494 9.32038835,39.8207298 9.32038835,40.5140056 L9.32038835,68.9089091 C9.32038835,78.8805452 11.936167,88.1521195 17.0964777,96.4646433 C21.2027867,103.081865 26.9172396,109.095156 34.0781177,114.338267 Z M12.7945225,41.6574018 C29.5171858,34.3966665 45.354352,25.2483664 60.0006773,14.3900613 C74.6458715,25.2483664 90.4841685,34.3966665 107.205701,41.658533 L107.205701,68.9100402 C107.261115,78.0051854 104.664562,86.9205088 99.7315626,94.563507 C98.6651213,96.222619 97.5059454,97.8206592 96.2596904,99.3497113 L96.2596904,99.1314369 C96.2596904,98.1723865 95.4816291,97.394289 94.5226234,97.394289 C93.5636176,97.394289 92.7855563,98.1723865 92.7855563,99.1314369 L92.7855563,102.672459 C92.7855563,102.842102 92.810436,103.010615 92.860196,103.173473 C89.8768737,106.228184 86.6176113,109.002418 83.1253827,111.458853 C75.7688582,116.606964 67.6942105,120.642213 59.1604163,123.434543 C50.8991697,120.628642 43.1083784,116.596785 36.0470198,111.471294 C32.7968046,109.100811 29.7614609,106.447589 26.9794394,103.542164 C27.1332422,103.27752 27.2146672,102.976686 27.2146672,102.671328 L27.2146672,99.130306 C27.2146672,98.1712556 26.4366059,97.3931581 25.4776001,97.3931581 C24.5185944,97.3931581 23.7405331,98.1712556 23.7405331,99.130306 L23.7405331,99.8337603 C22.3947583,98.1599459 21.150765,96.4069648 20.0164692,94.5827331 C15.2237022,86.8413418 12.7945225,78.2031027 12.7945225,68.9089091 L12.7945225,41.6574018 Z" id="Shape" fill="#333333"></path>
                <path d="M60,97.8640777 C59.0340562,97.8640777 58.2524272,98.6393993 58.2524272,99.5950284 L58.2524272,103.123418 C58.2524272,104.079047 59.0340562,104.854369 60,104.854369 C60.9648058,104.854369 61.7475728,104.079047 61.7475728,103.123418 L61.7475728,99.5950284 C61.7475728,98.6393993 60.9648058,97.8640777 60,97.8640777 Z" id="Path" fill="#0D5FFF"></path>
                <path d="M71.6504854,97.8640777 C70.6856796,97.8640777 69.9029126,98.6393993 69.9029126,99.5950284 L69.9029126,103.123418 C69.9029126,104.079047 70.6856796,104.854369 71.6504854,104.854369 C72.6152913,104.854369 73.3980583,104.079047 73.3980583,103.123418 L73.3980583,99.5950284 C73.3980583,98.6393993 72.6152913,97.8640777 71.6504854,97.8640777 Z" id="Path" fill="#0D5FFF"></path>
                <path d="M83.3009709,97.8640777 C82.3350271,97.8640777 81.5533981,98.6393993 81.5533981,99.5950284 L81.5533981,103.123418 C81.5533981,104.079047 82.3350271,104.854369 83.3009709,104.854369 C84.2657767,104.854369 85.0485437,104.079047 85.0485437,103.123418 L85.0485437,99.5950284 C85.0485437,98.6393993 84.2657767,97.8640777 83.3009709,97.8640777 Z" id="Path" fill="#0D5FFF"></path>
                <path d="M48.3495146,97.8640777 C47.3847087,97.8640777 46.6019417,98.6393993 46.6019417,99.5950284 L46.6019417,103.123418 C46.6019417,104.079047 47.3847087,104.854369 48.3495146,104.854369 C49.3143204,104.854369 50.0970874,104.079047 50.0970874,103.123418 L50.0970874,99.5950284 C50.0970874,98.6393993 49.3143204,97.8640777 48.3495146,97.8640777 Z" id="Path" fill="#0D5FFF"></path>
                <path d="M36.6990291,97.8640777 C35.7330853,97.8640777 34.9514563,98.6393993 34.9514563,99.5950284 L34.9514563,103.123418 C34.9514563,104.079047 35.7330853,104.854369 36.6990291,104.854369 C37.663835,104.854369 38.4466019,104.079047 38.4466019,103.123418 L38.4466019,99.5950284 C38.4466019,98.6393993 37.663835,97.8640777 36.6990291,97.8640777 Z" id="Path" fill="#0D5FFF"></path>
                <path d="M31.6064958,60.8340734 C31.5723629,60.9131281 31.5427809,60.9955709 31.5200256,61.0791434 C31.5154745,61.0938249 31.5120611,61.1085064 31.5086481,61.1220587 C31.4870304,61.2067604 31.4722395,61.2925914 31.4631374,61.3784224 L31.4631374,61.4055269 C31.4597241,61.4507011 31.4563107,61.4958753 31.4563107,61.5421788 C31.4563107,61.5771888 31.4597241,61.6121989 31.4608617,61.6460794 C31.4608617,61.660761 31.4608617,61.6754428 31.4642751,61.6901243 C31.4711016,61.774826 31.4847548,61.8595274 31.5052347,61.9419706 C31.5075101,61.9555228 31.5120611,61.9690751 31.5154745,61.9826273 C31.5370921,62.0673288 31.5655362,62.1509012 31.5996693,62.2310854 C31.6030824,62.2367321 31.6053581,62.2423789 31.6087715,62.2480256 C31.64518,62.3282098 31.6872772,62.4061355 31.7350632,62.4795435 C31.7396143,62.4863195 31.7430277,62.4930958 31.7475787,62.5010011 C31.7987781,62.5744094 31.8545289,62.6455585 31.9159681,62.7110612 C31.9216568,62.7178372 31.9262079,62.7257428 31.9318967,62.7313898 L58.1460222,90.3294374 C58.1687778,90.3531538 58.1938085,90.3746116 58.2177015,90.3971987 C58.2313547,90.410751 58.2461456,90.4254326 58.2609368,90.4378555 C58.3155495,90.4864179 58.3747133,90.5315921 58.4350149,90.5733781 C58.4498058,90.582413 58.4645966,90.5914478 58.4805255,90.6016119 C58.5317249,90.6343632 58.5852,90.6648558 58.6409504,90.6919603 C58.658017,90.6998659 58.6739456,90.7089007 58.6910121,90.716806 C58.7592781,90.7484282 58.8298197,90.7744032 58.9014987,90.7969903 C58.9128765,90.8003784 58.925392,90.8026373 58.9367695,90.8060251 C58.9993467,90.8240948 59.0619239,90.837647 59.1245011,90.8478115 C59.1472562,90.8523286 59.1688738,90.8557167 59.1904914,90.8579756 C59.259895,90.8681397 59.3304367,90.8726571 59.400978,90.8737864 L59.4180446,90.8737864 C59.4760707,90.8737864 59.5340968,90.8703983 59.5921227,90.8647516 C59.6012248,90.8647516 59.6091892,90.862493 59.6182914,90.8613634 C59.6660774,90.8557167 59.7138637,90.8489407 59.76165,90.8387766 C59.7798543,90.8353885 59.7980585,90.8297418 59.8174005,90.8252241 C59.853809,90.8173188 59.8902175,90.808284 59.9254883,90.7969903 C59.950519,90.7890847 59.9732743,90.7800499 59.9971673,90.7721446 C60.0210603,90.764239 60.042678,90.7574631 60.0654333,90.7484282 C60.0733977,90.7461694 60.0802245,90.7416519 60.0870509,90.7393934 C60.1143573,90.7280997 60.140526,90.7156767 60.1666944,90.703254 C60.1928631,90.690831 60.2224451,90.6761495 60.2497515,90.662597 C60.2713691,90.6501743 60.2918488,90.6377513 60.3134664,90.6253283 C60.3419105,90.6072586 60.3737679,90.589189 60.402212,90.5688607 C60.4204162,90.557567 60.4363451,90.545144 60.4534117,90.5327213 C60.4841311,90.5101342 60.5148509,90.4875471 60.5432949,90.4627012 C60.5592238,90.4502785 60.572877,90.436726 60.5876679,90.423174 C60.6172499,90.3971987 60.6445563,90.3712235 60.6718627,90.344119 C60.6764135,90.3384723 60.6832402,90.3339549 60.6877913,90.3283079 L86.9019168,62.7313898 C86.9087433,62.7246135 86.9121566,62.7167079 86.9189834,62.709932 C86.9792849,62.6444292 87.036173,62.5744094 87.086235,62.4998718 C87.0907858,62.4930958 87.0953371,62.4863195 87.0987502,62.4784143 C87.1476742,62.405006 87.1897715,62.3282098 87.22618,62.2480256 C87.2284557,62.2412496 87.2318691,62.2367321 87.2341444,62.2299559 C87.2694153,62.1497719 87.2967216,62.0661995 87.319477,61.9814981 C87.3228903,61.9679455 87.3263034,61.9543935 87.3297168,61.940841 C87.3501967,61.8583982 87.3638496,61.7736967 87.3706763,61.6889951 C87.3706763,61.6743135 87.3706763,61.6596317 87.3729517,61.6460794 C87.3752274,61.6110696 87.3786408,61.5771888 87.3786408,61.5410495 C87.3786408,61.494746 87.3752274,61.4495718 87.3706763,61.4043976 C87.3706763,61.3953628 87.3706763,61.3863279 87.3706763,61.3772931 C87.3627119,61.2914621 87.347921,61.2056311 87.3263034,61.1209294 C87.3217523,61.1073772 87.318339,61.0926956 87.3149259,61.0780141 C87.2921706,60.9944417 87.2625885,60.9131281 87.2273177,60.8329438 C87.2227669,60.8227797 87.2170779,60.811486 87.2113891,60.8001926 C87.1727049,60.7177498 87.1271943,60.6375655 87.0748572,60.5618986 L87.0725815,60.5573812 L77.9067397,47.3529627 C77.5802011,46.8831511 77.0420377,46.6019417 76.467466,46.6019417 L42.3674855,46.6019417 C41.7917758,46.6019417 41.2536126,46.8831511 40.9282114,47.3529627 L31.7623696,60.5573812 L31.7589563,60.5618986 C31.7077569,60.6375655 31.6622462,60.7166205 31.6235623,60.8001926 C31.6178736,60.8126156 31.6121845,60.8227797 31.6064958,60.8340734 L31.6064958,60.8340734 Z M47.1108313,63.276868 L54.376604,81.305891 L37.2498145,63.276868 L47.1108313,63.276868 Z M66.1490674,50.0724495 L68.4769362,59.8074895 L50.4695161,59.8074895 L52.6312713,50.0724495 L66.1490674,50.0724495 Z M81.5805859,63.276868 L64.465174,81.2968561 L71.7901104,63.276868 L81.5805859,63.276868 Z M68.0206922,63.276868 L59.4112178,84.455662 L50.8768362,63.276868 L68.0206922,63.276868 Z M82.304205,59.8074895 L72.0688633,59.8074895 L69.7421319,50.0724495 L75.5458758,50.0724495 L82.304205,59.8074895 Z M43.2856623,50.0724495 L49.0518597,50.0724495 L46.8912425,59.8074895 L36.5273331,59.8074895 L43.2856623,50.0724495 Z" id="Shape" fill="url(#linearGradient-1)"></path>
            </g>
        </g>
    </g>
</svg>