<?xml version="1.0" encoding="UTF-8"?>
<svg width="29px" height="31px" viewBox="0 0 29 31" version="1.1" xmlns="http://www.w3.org/2000/svg" xmlns:xlink="http://www.w3.org/1999/xlink">
    <!-- Generator: Sketch 54 (76480) - https://sketchapp.com -->
    <title>fuzhi</title>
    <desc>Created with Sketch.</desc>
    <g id="Page-1" stroke="none" stroke-width="1" fill="none" fill-rule="evenodd">
        <g id="Financial-Intelligence-" transform="translate(-810.000000, -2956.000000)" fill="#333333" fill-rule="nonzero">
            <g id="fuzhi" transform="translate(810.000000, 2956.000000)">
                <path d="M21.75,4.42857143 L2.78846154,4.42857143 C1.24920113,4.4304016 0.00184379565,5.66854201 0,7.19642857 L0,28.2321429 C0,29.7588929 1.25146154,31 2.78846154,31 L21.75,31 C23.2881154,31 24.5384615,29.7588929 24.5384615,28.2321429 L24.5384615,7.19642857 C24.5384615,5.67078571 23.2881154,4.42857143 21.75,4.42857143 Z M22.3076923,28.2321429 C22.3076923,28.5366071 22.0567308,28.7857143 21.75,28.7857143 L2.78846154,28.7857143 C2.48045658,28.7857143 2.23076923,28.5378719 2.23076923,28.2321429 L2.23076923,7.19642857 C2.23076923,6.89069951 2.48045658,6.64285714 2.78846154,6.64285714 L21.75,6.64285714 C22.058005,6.64285714 22.3076923,6.89069951 22.3076923,7.19642857 L22.3076923,28.2321429 Z" id="Shape"></path>
                <path d="M26.2115385,0 L7.25,0 C6.63399009,0 6.13461538,0.495684741 6.13461538,1.10714286 C6.13461538,1.71860097 6.63399009,2.21428571 7.25,2.21428571 L26.2115385,2.21428571 C26.5195434,2.21428571 26.7692308,2.46212808 26.7692308,2.76785714 L26.7692308,23.8035714 C26.7692308,24.4150295 27.2686055,24.9107143 27.8846154,24.9107143 C28.5006253,24.9107143 29,24.4150295 29,23.8035714 L29,2.76785714 C29,1.24221429 27.7496538,0 26.2115385,0 Z" id="Path"></path>
                <path d="M17.8461538,10.2410714 L6.69230769,10.2410714 C6.07629778,10.2410714 5.57692308,10.7367562 5.57692308,11.3482143 C5.57692308,11.9596724 6.07629778,12.4553571 6.69230769,12.4553571 L17.8461538,12.4553571 C18.4621638,12.4553571 18.9615385,11.9596724 18.9615385,11.3482143 C18.9615385,10.7367562 18.4621638,10.2410714 17.8461538,10.2410714 Z M17.8461538,15.7767857 L6.69230769,15.7767857 C6.07629778,15.7767857 5.57692308,16.2724705 5.57692308,16.8839286 C5.57692308,17.4953867 6.07629778,17.9910714 6.69230769,17.9910714 L17.8461538,17.9910714 C18.4621638,17.9910714 18.9615385,17.4953867 18.9615385,16.8839286 C18.9615385,16.2724705 18.4621638,15.7767857 17.8461538,15.7767857 Z M13.3846154,21.266 L6.69230769,21.266 C6.07629778,21.266 5.57692308,21.7616847 5.57692308,22.3731429 C5.57692308,22.984601 6.07629778,23.4802857 6.69230769,23.4802857 L13.3846154,23.4802857 C14.0006253,23.4802857 14.5,22.984601 14.5,22.3731429 C14.5,21.7616847 14.0006253,21.266 13.3846154,21.266 Z" id="Shape"></path>
            </g>
        </g>
    </g>
</svg>