<?xml version="1.0" encoding="UTF-8"?>
<svg width="31px" height="31px" viewBox="0 0 31 31" version="1.1" xmlns="http://www.w3.org/2000/svg" xmlns:xlink="http://www.w3.org/1999/xlink">
    <!-- Generator: Sketch 54 (76480) - https://sketchapp.com -->
    <title>daibanshixiang</title>
    <desc>Created with Sketch.</desc>
    <g id="Page-1" stroke="none" stroke-width="1" fill="none" fill-rule="evenodd">
        <g id="Financial-Intelligence-" transform="translate(-1202.000000, -2956.000000)" fill="#333333" fill-rule="nonzero">
            <g id="daibanshixiang" transform="translate(1202.000000, 2956.000000)">
                <path d="M9.41071429,16.6071429 C6.66389286,16.6071429 4.42857143,18.8424643 4.42857143,21.5892857 C4.42857143,24.3361071 6.66389286,26.5714286 9.41071429,26.5714286 C12.1575357,26.5714286 14.3928571,24.3361071 14.3928571,21.5892857 C14.3928571,18.8424643 12.1575357,16.6071429 9.41071429,16.6071429 Z M9.41071429,24.3571429 C7.88507143,24.3571429 6.64285714,23.1160357 6.64285714,21.5892857 C6.64285714,20.0625357 7.88507143,18.8214286 9.41071429,18.8214286 C10.9363571,18.8214286 12.1785714,20.0625357 12.1785714,21.5892857 C12.1785714,23.1160357 10.9363571,24.3571429 9.41071429,24.3571429 Z M25.4642857,6.64285714 L18.1493929,6.64285714 C17.5379347,6.64285714 17.04225,7.13854188 17.04225,7.75 C17.04225,8.36145812 17.5379347,8.85714286 18.1493929,8.85714286 L25.4642857,8.85714286 C26.0757438,8.85714286 26.5714286,8.36145812 26.5714286,7.75 C26.5714286,7.13854188 26.0757438,6.64285714 25.4642857,6.64285714 Z M25.4642857,17.7142857 L18.1493929,17.7142857 C17.5379347,17.7142857 17.04225,18.2099705 17.04225,18.8214286 C17.04225,19.4328867 17.5379347,19.9285714 18.1493929,19.9285714 L25.4642857,19.9285714 C26.0757438,19.9285714 26.5714286,19.4328867 26.5714286,18.8214286 C26.5714286,18.2099705 26.0757438,17.7142857 25.4642857,17.7142857 Z M25.4642857,11.0714286 L18.1493929,11.0714286 C17.5379347,11.0714286 17.04225,11.5671133 17.04225,12.1785714 C17.04225,12.7900295 17.5379347,13.2857143 18.1493929,13.2857143 L25.4642857,13.2857143 C26.0757438,13.2857143 26.5714286,12.7900295 26.5714286,12.1785714 C26.5714286,11.5671133 26.0757438,11.0714286 25.4642857,11.0714286 Z M25.4642857,22.4196429 L18.1493929,22.4196429 C17.5379347,22.4196429 17.04225,22.9153276 17.04225,23.5267857 C17.04225,24.1382438 17.5379347,24.6339286 18.1493929,24.6339286 L25.4642857,24.6339286 C26.0757438,24.6339286 26.5714286,24.1382438 26.5714286,23.5267857 C26.5714286,22.9153276 26.0757438,22.4196429 25.4642857,22.4196429 Z M13.0089286,5.94425 L8.82282143,11.0858214 L6.36496429,8.30578571 C5.95824834,7.85479429 5.26414984,7.81561229 4.80926238,8.21796601 C4.35437493,8.62031973 4.3085101,9.3140087 4.70646429,9.77275 L7.16321429,12.5527857 C7.58307656,13.0305472 8.18900473,13.3034369 8.82503571,13.3012143 C9.49056506,13.303491 10.1210898,13.0032993 10.5388929,12.48525 L14.725,7.34146429 C15.0852407,6.86609891 15.0041649,6.19079932 14.5416399,5.8142144 C14.0791148,5.43762949 13.4014004,5.49512695 13.0089286,5.94425 Z" id="Shape"></path>
                <path d="M28.7857143,0 L2.21428571,0 C0.993107143,0 0,0.993107143 0,2.21428571 L0,28.7857143 C0,30.0068929 0.993107143,31 2.21428571,31 L28.7857143,31 C30.0068929,31 31,30.0068929 31,28.7857143 L31,2.21428571 C31,0.993107143 30.0068929,0 28.7857143,0 Z M2.21428571,28.7857143 L2.21428571,2.21428571 L28.7857143,2.21428571 L28.7879286,28.7857143 L2.21428571,28.7857143 Z" id="Shape"></path>
            </g>
        </g>
    </g>
</svg>