<?xml version="1.0" encoding="UTF-8"?>
<svg width="27px" height="31px" viewBox="0 0 27 31" version="1.1" xmlns="http://www.w3.org/2000/svg" xmlns:xlink="http://www.w3.org/1999/xlink">
    <!-- Generator: Sketch 54 (76480) - https://sketchapp.com -->
    <title>icon_bangzhuwendang</title>
    <desc>Created with Sketch.</desc>
    <g id="Page-1" stroke="none" stroke-width="1" fill="none" fill-rule="evenodd">
        <g id="Financial-Intelligence-" transform="translate(-810.000000, -2869.000000)" fill="#333333" fill-rule="nonzero">
            <g id="icon_bangzhuwendang" transform="translate(810.000000, 2869.000000)">
                <path d="M27,0 L4.67964,0 C2.08332,0 0,2.24196429 0,4.98214286 C0,5.17146429 0.03348,5.35192857 0.05184,5.53571429 L0,5.53571429 L0,25.4642857 C0,28.5100357 2.31336,31 5.1948,31 L27,31 L27,7.75 L4.67964,7.75 C3.30048,7.75 2.16,6.52217857 2.16,4.98214286 C2.16,3.44210714 3.30048,2.21428571 4.67964,2.21428571 L27,2.21428571 L27,0 Z M12.42,9.96428571 L18.36,9.96428571 L18.36,15.9218214 L16.05852,14.0640357 C15.666755,13.7474103 15.114325,13.7474103 14.72256,14.0640357 L12.42,15.9218214 L12.42,9.96428571 Z M4.67964,9.96428571 L10.26,9.96428571 L10.26,18.2025357 C10.2597479,18.6267958 10.4960209,19.0138939 10.8683239,19.199184 C11.2406269,19.384474 11.683479,19.3353671 12.00852,19.07275 L15.39,16.3425357 L18.77148,19.07275 C19.096521,19.3353671 19.5393731,19.384474 19.9116761,19.199184 C20.2839791,19.0138939 20.5202521,18.6267958 20.52,18.2025357 L20.52,9.96428571 L24.84,9.96428571 L24.84,28.7857143 L5.1948,28.7857143 C3.53052,28.7857143 2.16,27.3098929 2.16,25.4642857 L2.16,9.16935714 C2.88684,9.66646429 3.7476,9.96428571 4.67964,9.96428571 Z" id="Shape"></path>
                <polygon id="Path" points="5.39244 3.875 24.84 3.875 24.84 6.08928571 5.39244 6.08928571"></polygon>
            </g>
        </g>
    </g>
</svg>