<?xml version="1.0" encoding="UTF-8"?>
<svg width="31px" height="27px" viewBox="0 0 31 27" version="1.1" xmlns="http://www.w3.org/2000/svg" xmlns:xlink="http://www.w3.org/1999/xlink">
    <!-- Generator: Sketch 54 (76480) - https://sketchapp.com -->
    <title>xiaoxitongzhi</title>
    <desc>Created with Sketch.</desc>
    <g id="Page-1" stroke="none" stroke-width="1" fill="none" fill-rule="evenodd">
        <g id="Financial-Intelligence-" transform="translate(-420.000000, -2960.000000)" fill="#333333" fill-rule="nonzero">
            <g id="xiaoxitongzhi" transform="translate(420.000000, 2960.000000)">
                <path d="M28.7857143,0 L2.21428571,0 C0.991369483,0 0,0.96706494 0,2.16 L0,24.84 C0,26.0329351 0.991369483,27 2.21428571,27 L28.7857143,27 C30.0086305,27 31,26.0329351 31,24.84 L31,2.16 C31,0.96706494 30.0086305,0 28.7857143,0 Z M28.7857143,2.16 L28.7857143,6.13116 L15.7269643,14.7474 L2.21428571,5.83092 L2.21428571,2.16 L28.7857143,2.16 Z M2.21428571,24.84 L2.21428571,8.43912 L15.1069643,16.9452 C15.4814344,17.1924691 15.9724942,17.1924691 16.3469643,16.9452 L28.7857143,8.73828 L28.7857143,24.84 L2.21428571,24.84 Z" id="Shape"></path>
            </g>
        </g>
    </g>
</svg>