<?xml version="1.0" encoding="UTF-8"?>
<svg width="31px" height="31px" viewBox="0 0 31 31" version="1.1" xmlns="http://www.w3.org/2000/svg" xmlns:xlink="http://www.w3.org/1999/xlink">
    <!-- Generator: Sketch 54 (76480) - https://sketchapp.com -->
    <title>icon_wangye</title>
    <desc>Created with Sketch.</desc>
    <g id="Page-1" stroke="none" stroke-width="1" fill="none" fill-rule="evenodd">
        <g id="Financial-Intelligence-" transform="translate(-420.000000, -2869.000000)" fill="#000000" fill-rule="nonzero">
            <g id="icon_wangye" transform="translate(420.000000, 2869.000000)">
                <path d="M28.7857143,0 L2.21428571,0 C0.991369483,0 0,0.991369483 0,2.21428571 L0,28.7857143 C0,30.0086305 0.991369483,31 2.21428571,31 L28.7857143,31 C30.0086305,31 31,30.0086305 31,28.7857143 L31,2.21428571 C31,0.991369483 30.0086305,0 28.7857143,0 Z M2.21428571,2.21428571 L28.7857143,2.21428571 L28.7857143,8.85714286 L2.21428571,8.85714286 L2.21428571,2.21428571 Z M28.7857143,28.7857143 L2.21428571,28.7857143 L2.21428571,11.0714286 L28.7857143,11.0714286 L28.7857143,28.7857143 Z" id="Shape"></path>
                <path d="M6.64285714,17.7142857 L24.3571429,17.7142857 C24.968601,17.7142857 25.4642857,17.218601 25.4642857,16.6071429 C25.4642857,15.9956847 24.968601,15.5 24.3571429,15.5 L6.64285714,15.5 C6.03139903,15.5 5.53571429,15.9956847 5.53571429,16.6071429 C5.53571429,17.218601 6.03139903,17.7142857 6.64285714,17.7142857 Z M6.64285714,23.25 L24.3571429,23.25 C24.968601,23.25 25.4642857,22.7543153 25.4642857,22.1428571 C25.4642857,21.531399 24.968601,21.0357143 24.3571429,21.0357143 L6.64285714,21.0357143 C6.03139903,21.0357143 5.53571429,21.531399 5.53571429,22.1428571 C5.53571429,22.7543153 6.03139903,23.25 6.64285714,23.25 Z M24.3571429,4.42857143 L22.1428571,4.42857143 C21.531399,4.42857143 21.0357143,4.92425617 21.0357143,5.53571429 C21.0357143,6.1471724 21.531399,6.64285714 22.1428571,6.64285714 L24.3571429,6.64285714 C24.968601,6.64285714 25.4642857,6.1471724 25.4642857,5.53571429 C25.4642857,4.92425617 24.968601,4.42857143 24.3571429,4.42857143 Z" id="Shape"></path>
            </g>
        </g>
    </g>
</svg>