<?xml version="1.0" encoding="UTF-8"?>
<svg width="31px" height="31px" viewBox="0 0 31 31" version="1.1" xmlns="http://www.w3.org/2000/svg" xmlns:xlink="http://www.w3.org/1999/xlink">
    <!-- Generator: Sketch 54 (76480) - https://sketchapp.com -->
    <title>shujukanban</title>
    <desc>Created with Sketch.</desc>
    <g id="Page-1" stroke="none" stroke-width="1" fill="none" fill-rule="evenodd">
        <g id="Financial-Intelligence-" transform="translate(-1200.000000, -2873.000000)" fill="#333333" fill-rule="nonzero">
            <g id="shujukanban" transform="translate(1200.000000, 2873.000000)">
                <path d="M30.9391494,3.28157143 C30.8040593,2.68605895 30.2229115,2.31531998 29.6410033,2.45342857 L24.0005583,3.79085714 C23.6207733,3.88073543 23.3176041,4.17277612 23.2069714,4.5553138 C23.0963388,4.93785148 23.195353,5.35172268 23.4661549,5.63867857 L24.6972301,6.94178571 L18.1199564,12.9469286 L14.7047503,9.63657143 C14.2720414,9.21739306 13.5896064,9.23521267 13.1783468,9.67642857 L5.85139368,17.5393571 C4.95497729,17.347693 4.03774839,17.7543801 3.5612774,18.5547642 C3.0848064,19.3551483 3.1523074,20.3758487 3.72981238,21.1032257 C4.30731735,21.8306027 5.26972601,22.1070905 6.13273244,21.7935541 C6.99573887,21.4800176 7.57239689,20.6443759 7.57251908,19.7071429 C7.57251908,19.4668929 7.52600218,19.2410357 7.45676772,19.0251429 L13.9994242,12.0036429 L17.3540502,15.2542143 C17.7622431,15.6495932 18.3982766,15.6592154 18.8177099,15.2763571 L26.200916,8.53607143 L27.6039956,10.0229643 C27.8747008,10.3098317 28.2752374,10.4255271 28.6525441,10.3258386 C29.0298508,10.22615 29.3256135,9.92648475 29.4268092,9.54135714 L30.9294133,3.81853571 C30.9758929,3.64311054 30.9792376,3.45864067 30.9391494,3.28157143 L30.9391494,3.28157143 Z" id="Path"></path>
                <path d="M29.2082879,13.3709643 C28.6108326,13.3709643 28.1264995,13.866649 28.1264995,14.4781071 L28.1264995,23.25 C28.1264995,23.8614581 27.6421663,24.3571429 27.044711,24.3571429 L3.24536532,24.3571429 C2.64791006,24.3571429 2.16357688,23.8614581 2.16357688,23.25 L2.16357688,3.32142857 C2.16357688,2.70997046 2.64791006,2.21428571 3.24536532,2.21428571 L21.184663,2.21428571 C21.7821183,2.21428571 22.2664515,1.71860097 22.2664515,1.10714286 C22.2664515,0.495684741 21.7821183,0 21.184663,0 L3.24536532,0 C1.45299955,-4.91670197e-16 -1.37304441e-14,1.48705422 -1.42108547e-14,3.32142857 L-1.42108547e-14,23.25 C-1.37304441e-14,25.0843743 1.45299955,26.5714286 3.24536532,26.5714286 L27.044711,26.5714286 C28.8370768,26.5714286 30.2900763,25.0843743 30.2900763,23.25 L30.2900763,14.4781071 C30.2900763,13.866649 29.8057432,13.3709643 29.2082879,13.3709643 Z M28.6673937,28.7857143 L1.62268266,28.7857143 C1.0252274,28.7857143 0.54089422,29.281399 0.54089422,29.8928571 C0.54089422,30.5043153 1.0252274,31 1.62268266,31 L28.6673937,31 C29.2648489,31 29.7491821,30.5043153 29.7491821,29.8928571 C29.7491821,29.281399 29.2648489,28.7857143 28.6673937,28.7857143 Z" id="Shape"></path>
            </g>
        </g>
    </g>
</svg>