<svg xmlns="http://www.w3.org/2000/svg" width="67" height="90" viewBox="0 0 67 90">
    <path fill="#0D5FFF" fill-rule="nonzero" d="M31.196 76.992c.979 0 1.772.787 1.772 1.758v9.492c0 .97-.793 1.758-1.772 1.758a1.765 1.765 0 0 1-1.773-1.758V80.5a20.425 20.425 0 0 1-13.771-5.853l-.088-.087a20.563 20.563 0 0 1-2.22-2.604A20.058 20.058 0 0 1 9.57 60.204v-.79H1.773A1.778 1.778 0 0 1 .4 58.768a1.747 1.747 0 0 1-.364-1.463l3.863-18.81v-7.206a30.897 30.897 0 0 1 5.908-18.233 1.782 1.782 0 0 1 2.474-.402c.795.566.976 1.664.405 2.453a27.422 27.422 0 0 0-5.242 16.182v7.383c0 .118-.012.235-.035.35L3.942 55.899h7.4c.978 0 1.772.788 1.772 1.758v2.548a16.58 16.58 0 0 0 3.664 10.432c.402.502.837.986 1.294 1.44l.073.07c3.188 3.125 7.413 4.846 11.897 4.846h1.154zM17.469 7.682a1.748 1.748 0 0 1-.197 2.478l-.07.06a1.774 1.774 0 0 1-1.152.423c-.5 0-.996-.209-1.347-.614a1.748 1.748 0 0 1 .192-2.479l.075-.063a1.783 1.783 0 0 1 2.499.195zM35.449 0C52.846 0 67 14.036 67 31.29v36.915c0 2.908-2.385 5.273-5.317 5.273H43.238c-2.932 0-5.318-2.365-5.318-5.273v-14.33L23.001 42.281a1.752 1.752 0 0 1-.679-1.383v-8.421a5.888 5.888 0 0 1-2.39-1.44 5.843 5.843 0 0 1 0-8.302c2.308-2.288 6.063-2.289 8.371 0a5.843 5.843 0 0 1 0 8.302 5.89 5.89 0 0 1-2.436 1.454v7.551L37.92 49.41V35.184c0-.971.794-1.758 1.773-1.758.979 0 1.772.787 1.772 1.758v7.803l8.699-5.143v-4.618a5.9 5.9 0 0 1-2.436-1.46 5.807 5.807 0 0 1-1.734-4.15c0-1.568.616-3.042 1.734-4.15 2.308-2.29 6.063-2.29 8.37 0a5.842 5.842 0 0 1 0 8.3 5.9 5.9 0 0 1-2.39 1.445v5.632c0 .62-.328 1.193-.864 1.51L41.465 47.08v3.922H47.9c.275-.876.76-1.7 1.46-2.393 2.307-2.288 6.062-2.288 8.37 0a5.842 5.842 0 0 1 0 8.302 5.905 5.905 0 0 1-4.185 1.72 5.904 5.904 0 0 1-5.645-4.113h-6.435v13.686c0 .97.795 1.758 1.773 1.758h18.445c.977 0 1.772-.789 1.772-1.758V31.29c0-15.314-12.563-27.773-28.005-27.773-4.405 0-8.62.984-12.527 2.926a1.78 1.78 0 0 1-2.38-.784 1.751 1.751 0 0 1 .792-2.36C25.74 1.11 30.489 0 35.449 0zm16.417 51.096a2.343 2.343 0 0 0 0 3.33c.448.444 1.044.69 1.679.69.634 0 1.23-.246 1.678-.69a2.343 2.343 0 0 0 0-3.33 2.377 2.377 0 0 0-1.678-.688c-.608 0-1.216.23-1.68.688zm-2.327-23.48c0 .629.247 1.22.696 1.665a2.39 2.39 0 0 0 3.357 0 2.343 2.343 0 0 0 0-3.33 2.377 2.377 0 0 0-1.679-.688c-.608 0-1.216.23-1.678.688a2.328 2.328 0 0 0-.696 1.665zm-27.1.935a2.39 2.39 0 0 0 3.358 0 2.343 2.343 0 0 0 0-3.33 2.377 2.377 0 0 0-1.68-.688c-.607 0-1.215.23-1.678.688a2.343 2.343 0 0 0 0 3.33zm17.254-17.096c3.714 0 6.735 2.997 6.735 6.68s-3.021 6.68-6.735 6.68c-3.714 0-6.736-2.997-6.736-6.68s3.022-6.68 6.736-6.68zm0 9.844c1.759 0 3.19-1.42 3.19-3.164 0-1.745-1.431-3.164-3.19-3.164-1.76 0-3.19 1.42-3.19 3.164 0 1.745 1.43 3.164 3.19 3.164zm1.253 6.731c.33.327.52.78.52 1.243a1.763 1.763 0 0 1-1.773 1.758c-.466 0-.923-.189-1.253-.516-.33-.326-.52-.78-.52-1.242a1.763 1.763 0 0 1 1.773-1.758c.466 0 .923.188 1.253.515z"/>
</svg>
