<svg xmlns="http://www.w3.org/2000/svg" width="90" height="90" viewBox="0 0 90 90">
    <path fill="#0D5FFF" fill-rule="nonzero" d="M51.328 36.914H38.672c-.971 0-1.758.787-1.758 1.758v12.656c0 .97.787 1.758 1.758 1.758h12.656c.971 0 1.758-.787 1.758-1.758V38.672c0-.97-.787-1.758-1.758-1.758zM84.023 9.492A5.983 5.983 0 0 1 90 15.47a5.983 5.983 0 0 1-5.977 5.976 5.983 5.983 0 0 1-5.976-5.976 5.983 5.983 0 0 1 5.976-5.977zm0 8.438a2.464 2.464 0 0 0 2.461-2.461 2.464 2.464 0 0 0-2.46-2.461 2.464 2.464 0 0 0-2.462 2.46 2.464 2.464 0 0 0 2.461 2.462zm-9.036-3.71c.326.328.515.781.515 1.243 0 .463-.189.916-.515 1.243-.327.327-.78.515-1.243.515-.464 0-.916-.188-1.245-.515a1.77 1.77 0 0 1-.513-1.243c0-.462.186-.915.513-1.242.327-.327.78-.515 1.245-.515.462 0 .916.188 1.243.515zm-1.944 32.538H62.227v7.383h12.31c.97 0 1.758.787 1.758 1.757v22.415a5.987 5.987 0 0 1 4.213 5.71A5.983 5.983 0 0 1 74.53 90a5.983 5.983 0 0 1-5.976-5.977 5.987 5.987 0 0 1 4.224-5.714V57.656H62.227v2.813c0 .97-.787 1.758-1.758 1.758H46.758v10.816a5.987 5.987 0 0 1 4.219 5.712A5.983 5.983 0 0 1 45 84.732a5.983 5.983 0 0 1-5.977-5.977 5.987 5.987 0 0 1 4.22-5.712V62.227h-7.384v12.31c0 .97-.787 1.757-1.757 1.757H22.496a1.758 1.758 0 0 1 0-3.515h9.848V62.227H29.53c-.97 0-1.758-.788-1.758-1.758V46.758H16.957a5.987 5.987 0 0 1-5.712 4.219A5.983 5.983 0 0 1 5.268 45a5.983 5.983 0 0 1 5.977-5.977 5.987 5.987 0 0 1 5.712 4.22h10.816v-7.384h-12.31c-.97 0-1.758-.787-1.758-1.757V11.687a5.987 5.987 0 0 1-4.213-5.71A5.983 5.983 0 0 1 15.47 0a5.983 5.983 0 0 1 5.976 5.977 5.987 5.987 0 0 1-4.224 5.714v20.653h10.552V29.53c0-.97.787-1.758 1.758-1.758h13.711V16.957a5.987 5.987 0 0 1-4.219-5.712A5.983 5.983 0 0 1 45 5.268a5.983 5.983 0 0 1 5.977 5.977 5.987 5.987 0 0 1-4.22 5.712v10.816h7.384v-12.31c0-.97.787-1.757 1.757-1.757h11.606a1.758 1.758 0 0 1 0 3.515h-9.848v10.552h2.813c.97 0 1.758.788 1.758 1.758v13.711h10.816a5.987 5.987 0 0 1 5.712-4.219A5.983 5.983 0 0 1 84.732 45a5.983 5.983 0 0 1-5.977 5.977 5.987 5.987 0 0 1-5.712-4.22zm5.712-4.219A2.464 2.464 0 0 0 76.295 45a2.464 2.464 0 0 0 2.46 2.46A2.464 2.464 0 0 0 81.216 45a2.464 2.464 0 0 0-2.46-2.46zM15.47 8.437a2.464 2.464 0 0 0 2.46-2.46 2.464 2.464 0 0 0-2.46-2.461 2.464 2.464 0 0 0-2.461 2.46 2.464 2.464 0 0 0 2.46 2.462zm-4.224 39.024A2.464 2.464 0 0 0 13.705 45a2.464 2.464 0 0 0-2.46-2.46A2.464 2.464 0 0 0 8.784 45a2.464 2.464 0 0 0 2.46 2.46zm31.294-36.216A2.464 2.464 0 0 0 45 13.705a2.464 2.464 0 0 0 2.46-2.46A2.464 2.464 0 0 0 45 8.784a2.464 2.464 0 0 0-2.46 2.46zm4.922 67.51A2.464 2.464 0 0 0 45 76.295a2.464 2.464 0 0 0-2.46 2.46A2.464 2.464 0 0 0 45 81.216a2.464 2.464 0 0 0 2.46-2.46zm2.11-29.185H40.43v-9.14h9.14v9.14zm9.14 9.14V31.29H31.289v27.42h27.422zm15.82 22.852a2.464 2.464 0 0 0-2.46 2.461 2.464 2.464 0 0 0 2.46 2.461 2.464 2.464 0 0 0 2.461-2.46 2.464 2.464 0 0 0-2.46-2.462zM5.977 68.555a5.983 5.983 0 0 1 5.976 5.976 5.983 5.983 0 0 1-5.976 5.977A5.983 5.983 0 0 1 0 74.53a5.983 5.983 0 0 1 5.977-5.976zm0 8.437a2.464 2.464 0 0 0 2.46-2.46 2.464 2.464 0 0 0-2.46-2.462 2.464 2.464 0 0 0-2.461 2.461 2.464 2.464 0 0 0 2.46 2.461zm11.526-3.698c.326.327.515.78.515 1.243 0 .462-.189.915-.515 1.242a1.77 1.77 0 0 1-1.243.515c-.463 0-.916-.188-1.243-.515a1.77 1.77 0 0 1-.515-1.242c0-.463.188-.916.515-1.243a1.77 1.77 0 0 1 1.243-.515c.462 0 .916.188 1.243.515z"/>
</svg>
