<svg xmlns="http://www.w3.org/2000/svg" width="90" height="90" viewBox="0 0 90 90">
    <path fill="#0D5FFF" fill-rule="nonzero" d="M45 11.602c-18.416 0-33.398 14.982-33.398 33.398 0 18.416 14.982 33.398 33.398 33.398 18.416 0 33.398-14.982 33.398-33.398 0-18.416-14.982-33.398-33.398-33.398zm-14.644 7.357a18.199 18.199 0 0 0-3.331 7.602 14.597 14.597 0 0 1-4.23-1.536 30.088 30.088 0 0 1 7.561-6.066zm-9.782 8.845a18.084 18.084 0 0 0 6.146 2.274v13.164H15.17a29.706 29.706 0 0 1 5.404-15.438zm0 34.392a29.706 29.706 0 0 1-5.404-15.438h11.55v13.164a18.085 18.085 0 0 0-6.146 2.274zm2.22 2.778a14.593 14.593 0 0 1 4.231-1.535 18.2 18.2 0 0 0 3.331 7.602 30.086 30.086 0 0 1-7.562-6.067zm20.448 9.792c-6.3-.751-11.396-5.483-12.687-11.604h12.687v11.604zm0-15.12H30.236V46.758h13.006v12.888zm0-16.404H30.236V30.354h13.006v12.888zm0-16.404H30.555c1.291-6.121 6.386-10.853 12.687-11.605v11.605zm26.184.966a29.707 29.707 0 0 1 5.404 15.438H63.28V30.078a18.08 18.08 0 0 0 6.146-2.274zm-2.22-2.778a14.593 14.593 0 0 1-4.231 1.535 18.2 18.2 0 0 0-3.331-7.602 30.086 30.086 0 0 1 7.562 6.067zm-20.448-9.793c6.3.752 11.396 5.484 12.687 11.605H46.758V15.233zm0 15.12h13.006v12.89H46.758v-12.89zm0 16.405h13.006v12.888H46.758V46.758zm0 28.009V63.162h12.687c-1.291 6.121-6.386 10.853-12.687 11.605zm12.886-3.726a18.199 18.199 0 0 0 3.331-7.602c1.481.29 2.904.806 4.23 1.536a30.088 30.088 0 0 1-7.561 6.066zm9.782-8.845a18.084 18.084 0 0 0-6.146-2.274V46.758h11.55a29.706 29.706 0 0 1-5.404 15.438zm1.941 17.122c.56.793.372 1.89-.42 2.45C63.328 87.154 54.356 90 45 90a44.868 44.868 0 0 1-15.086-2.593 1.758 1.758 0 0 1 1.179-3.312A41.36 41.36 0 0 0 45 86.485c8.626 0 16.896-2.624 23.917-7.588a1.758 1.758 0 0 1 2.45.421zM61.84 3.258a1.758 1.758 0 1 1-1.317 3.26A41.253 41.253 0 0 0 45 3.517c-8.848 0-17.292 2.748-24.42 7.947a1.756 1.756 0 0 1-2.072-2.84C26.243 2.982 35.404 0 45 0c5.82 0 11.487 1.096 16.84 3.259zm19.276 14.9C86.932 25.957 90 35.205 90 45c0 5.856-1.11 11.554-3.297 16.935a1.759 1.759 0 0 1-3.257-1.325A41.246 41.246 0 0 0 86.484 45c0-8.945-2.774-17.396-8.038-24.542a6.654 6.654 0 0 1-2.87.645 6.635 6.635 0 0 1-4.722-1.957 6.636 6.636 0 0 1-1.957-4.723c0-1.784.695-3.461 1.957-4.723a6.636 6.636 0 0 1 4.723-1.956c1.784 0 3.461.694 4.723 1.956a6.636 6.636 0 0 1 1.956 4.723c0 1.351-.399 2.64-1.14 3.735zm-3.302-1.498a3.143 3.143 0 0 0 .927-2.237c0-.845-.33-1.64-.927-2.237a3.143 3.143 0 0 0-2.237-.927c-.845 0-1.64.329-2.238.927a3.143 3.143 0 0 0-.926 2.237c0 .845.329 1.64.926 2.237a3.143 3.143 0 0 0 2.238.927c.845 0 1.64-.329 2.237-.927zM18.152 71.848a5.28 5.28 0 0 1 0 7.458 5.257 5.257 0 0 1-3.729 1.542c-1.35 0-2.7-.514-3.729-1.542a5.282 5.282 0 0 1-.89-6.272L9.772 73C3.379 64.965 0 55.284 0 45c0-4.774.745-9.476 2.213-13.974a1.758 1.758 0 1 1 3.342 1.092A41.432 41.432 0 0 0 3.515 45c0 9.431 3.084 18.312 8.918 25.694a5.282 5.282 0 0 1 5.72 1.154zm-2.486 4.972c.332-.332.515-.774.515-1.243 0-.47-.183-.911-.515-1.243a1.746 1.746 0 0 0-1.243-.515c-.47 0-.91.183-1.243.515a1.746 1.746 0 0 0-.515 1.243c0 .47.183.91.515 1.243.332.332.774.515 1.243.515.47 0 .911-.183 1.243-.515zm0-63.64c.327.327.515.78.515 1.243 0 .462-.188.916-.515 1.243-.327.327-.78.515-1.243.515-.462 0-.916-.188-1.243-.515a1.771 1.771 0 0 1-.515-1.243c0-.462.188-.916.515-1.243.327-.327.78-.515 1.243-.515.464 0 .916.188 1.243.515zM76.82 74.334c.327.327.515.78.515 1.243 0 .462-.188.916-.515 1.243-.327.327-.78.515-1.243.515-.462 0-.916-.188-1.243-.515a1.771 1.771 0 0 1-.515-1.243c0-.462.188-.916.515-1.243.327-.327.78-.515 1.243-.515.462 0 .916.188 1.243.515z"/>
</svg>
