<?xml version="1.0" encoding="UTF-8"?>
<svg width="83px" height="76px" viewBox="0 0 83 76" version="1.1" xmlns="http://www.w3.org/2000/svg" xmlns:xlink="http://www.w3.org/1999/xlink">
    <!-- Generator: Sketch 54 (76480) - https://sketchapp.com -->
    <title>2</title>
    <desc>Created with Sketch.</desc>
    <g id="Page-1" stroke="none" stroke-width="1" fill="none" fill-rule="evenodd">
        <g id="MIKA-1" transform="translate(-930.000000, -1652.000000)">
            <g id="2" transform="translate(930.000000, 1652.000000)">
                <path d="M44.4746788,27.2 L13.4845049,27.2 C12.7990023,27.2 12.244898,27.7376 12.244898,28.4 C12.244898,29.0624 12.7990023,29.6 13.4845049,29.6 L44.4746788,29.6 C45.1601814,29.6 45.7142857,29.0624 45.7142857,28.4 C45.7142857,27.7376 45.1601814,27.2 44.4746788,27.2 Z" id="Path" fill="#333333" fill-rule="nonzero"></path>
                <path d="M13.4693878,20 L25.7142857,20 C26.3914286,20 26.9387755,19.4624 26.9387755,18.8 C26.9387755,18.1376 26.3914286,17.6 25.7142857,17.6 L13.4693878,17.6 C12.7922449,17.6 12.244898,18.1376 12.244898,18.8 C12.244898,19.4624 12.7922449,20 13.4693878,20 Z" id="Path" fill="#333333" fill-rule="nonzero"></path>
                <path d="M45.7142857,38 C45.7142857,37.3376 45.1601814,36.8 44.4746788,36.8 L13.4845049,36.8 C12.7990023,36.8 12.244898,37.3376 12.244898,38 C12.244898,38.6624 12.7990023,39.2 13.4845049,39.2 L44.4746788,39.2 C45.1601814,39.2 45.7142857,38.6624 45.7142857,38 Z" id="Path" fill="#333333" fill-rule="nonzero"></path>
                <path d="M35.9183673,47.6 C35.9183673,46.9376 35.3614178,46.4 34.6723953,46.4 L13.49087,46.4 C12.8018475,46.4 12.244898,46.9376 12.244898,47.6 C12.244898,48.2624 12.8018475,48.8 13.49087,48.8 L34.6723953,48.8 C35.3614178,48.8 35.9183673,48.2624 35.9183673,47.6 Z" id="Path" fill="#333333" fill-rule="nonzero"></path>
                <path d="M13.5204082,56.8 C12.815051,56.8 12.244898,57.3376 12.244898,58 C12.244898,58.6624 12.815051,59.2 13.5204082,59.2 L31.377551,59.2 C32.0829082,59.2 32.6530612,58.6624 32.6530612,58 C32.6530612,57.3376 32.0829082,56.8 31.377551,56.8 L13.5204082,56.8 Z" id="Path" fill="#333333" fill-rule="nonzero"></path>
                <path d="M2.50108554,2.45333333 L38.7668259,2.45333333 L38.7668259,19.6266667 L56.2744247,19.6266667 L56.2744247,38.0266667 L58.7755102,38.0266667 L58.7755102,17.89216 L40.5350934,0 L0,0 L0,73.6 L46.2700825,73.6 L46.2700825,71.1466667 L2.50108554,71.1466667 L2.50108554,2.45333333 Z M41.2679114,4.18784 L54.5061572,17.1733333 L41.2679114,17.1733333 L41.2679114,4.18784 Z" id="Shape" fill="#333333" fill-rule="nonzero"></path>
                <polygon id="Star" stroke="#21B3A7" stroke-width="3" points="63.6734694 68 54.0769755 72.9442719 55.9097427 62.472136 48.1460161 55.0557281 58.8752224 53.527864 63.6734694 44 68.4717163 53.527864 79.2009227 55.0557281 71.4371961 62.472136 73.2699633 72.9442719"></polygon>
            </g>
        </g>
    </g>
</svg>