<?xml version="1.0" encoding="UTF-8"?>
<svg width="130px" height="100px" viewBox="0 0 130 100" version="1.1" xmlns="http://www.w3.org/2000/svg" xmlns:xlink="http://www.w3.org/1999/xlink">
    <!-- Generator: Sketch 54 (76480) - https://sketchapp.com -->
    <title>1</title>
    <desc>Created with Sketch.</desc>
    <defs>
        <linearGradient x1="100%" y1="50%" x2="-57.494213%" y2="50%" id="linearGradient-1">
            <stop stop-color="#80DCC5" offset="0%"></stop>
            <stop stop-color="#0D5FFF" offset="100%"></stop>
        </linearGradient>
        <linearGradient x1="100%" y1="50%" x2="-57.494213%" y2="50%" id="linearGradient-2">
            <stop stop-color="#80DCC5" offset="0%"></stop>
            <stop stop-color="#0D5FFF" offset="100%"></stop>
        </linearGradient>
        <linearGradient x1="100%" y1="50%" x2="-57.494213%" y2="50%" id="linearGradient-3">
            <stop stop-color="#80DCC5" offset="0%"></stop>
            <stop stop-color="#0D5FFF" offset="100%"></stop>
        </linearGradient>
    </defs>
    <g id="Page-1" stroke="none" stroke-width="1" fill="none" fill-rule="evenodd">
        <g id="Financial" transform="translate(-432.000000, -1402.000000)" fill-rule="nonzero">
            <g id="1" transform="translate(432.000000, 1402.000000)">
                <path d="M37.8961726,31.6783989 C40.2606236,30.7165123 42.7897214,30.2215306 45.3438288,30.2215306 C46.227502,30.2215306 46.9444444,29.5071347 46.9444444,28.6242788 C46.9444444,27.7424627 46.227502,27.027027 45.3438288,27.027027 C32.726476,27.163251 22.5694444,37.4081236 22.5694444,50 C22.5694444,62.5918762 32.726476,72.836749 45.3438288,72.972973 C46.227502,72.972973 46.9444444,72.2575373 46.9444444,71.3757212 C46.9444444,70.492865 46.227502,69.7784694 45.3438288,69.7784694 C35.862057,69.7774293 27.7099632,63.0754191 25.8946818,53.7893135 C24.0794001,44.5032076 29.1105018,35.2347798 37.8961726,31.6783989 Z" id="Path" fill="#333333"></path>
                <path d="M1.31794765,58.0568953 L7.15113034,60.0219198 C8.14812054,63.5016505 9.6082625,66.8333749 11.4935759,69.9268187 L8.9520425,75.569966 C8.67351831,76.1871855 8.8127804,76.9114733 9.29914292,77.3838348 L18.4229202,86.2400913 C18.9145574,86.7177015 19.6551787,86.8342171 20.2723629,86.5319057 L25.8576168,83.7869598 C29.0100042,85.6029278 32.4166507,86.940236 35.9657238,87.7547975 L38.1306166,93.5438521 C38.3669402,94.1757672 38.9725192,94.5945946 39.6498395,94.5945946 L39.6762148,94.5945946 L45.3479802,94.496973 C46.2436886,94.4822774 46.9568793,93.7474926 46.941054,92.8573533 C46.925229,91.9661644 46.1877728,91.2576218 45.2920641,91.2723174 L40.7660462,91.3499948 L38.6950499,85.8055184 C38.4998721,85.2838213 38.0493802,84.8996337 37.5028821,84.7883664 C33.7079901,84.0136934 30.0776803,82.5892604 26.7744255,80.5769997 C26.2996685,80.2883342 25.7099146,80.262092 25.2108922,80.5066703 L19.8651267,83.1340509 L12.3724041,75.8628303 L14.8031607,70.4642613 C15.0257688,69.9698563 14.9835682,69.3977736 14.6913288,68.9401079 C12.6034524,65.6745143 11.038864,62.1066091 10.054534,58.3623556 C9.91632714,57.8375093 9.52280601,57.4176323 9.00584837,57.2433834 L3.43747447,55.3686324 L3.2602318,44.9714274 L8.83177082,42.9098312 C9.35611364,42.7166878 9.74224932,42.268469 9.85513608,41.7236787 C10.6337379,37.9468847 12.0653944,34.333843 14.0878598,31.0462055 C14.3779892,30.573844 14.4043645,29.9870658 14.1574909,29.4905613 L11.5167861,24.1707193 L18.8280463,16.7168523 L24.2529377,19.135344 C24.7498503,19.356829 25.3258888,19.3158911 25.7848208,19.0251264 C29.0669752,16.9477847 32.6540292,15.3910905 36.4162157,14.4106775 C36.9437236,14.2742176 37.3667849,13.8826823 37.5419177,13.3683328 L39.4272311,7.82805554 L45.3500901,7.72938431 C46.2457985,7.71468875 46.9589895,6.98095357 46.9442191,6.08976463 C46.9294487,5.19962532 46.1919929,4.49003314 45.2962844,4.5047287 L38.230843,4.62439379 C37.5461377,4.63594021 36.9426686,5.07471184 36.7232253,5.71922295 L34.7471807,11.5240231 C31.249803,12.5149328 27.9022377,13.968757 24.7920509,15.8445577 L19.1202856,13.3147987 C18.5009912,13.0387295 17.7730304,13.176239 17.2982731,13.6601475 L8.39710428,22.7357894 C7.91601704,23.2259959 7.79891022,23.9628803 8.10275479,24.5769504 L10.8626763,30.1340227 C9.03749898,33.2715538 7.69340863,36.662061 6.87366136,40.1942764 L1.05630371,42.3461464 C0.41168922,42.5833767 -0.011372293,43.200596 0.000232895131,43.8849955 L0.216511081,56.557934 C0.228116323,57.2391847 0.669112822,57.8385592 1.31794765,58.0568953 Z" id="Path" fill="#333333"></path>
                <path d="M48.75,48.3792975 L48.75,51.6207027 L113.117115,51.6207027 C113.948919,55.9520726 117.920992,58.939188 122.291112,58.5192402 C126.662283,58.0992927 130,54.411561 130,50.0000001 C130,45.5884389 126.662283,41.9007076 122.291112,41.4807597 C117.920992,41.0608122 113.948919,44.0479276 113.117115,48.3792975 L48.75,48.3792975 Z M117.735096,46.2457943 C119.798852,44.1724345 123.144971,44.1724345 125.208727,46.2447392 C127.271432,48.3180989 127.271432,51.6797909 125.208727,53.7531506 C123.144971,55.8265103 119.798852,55.8265103 117.735096,53.7531506 C115.674491,51.6787358 115.674491,48.3202094 117.735096,46.2457943 Z" id="Shape" fill="url(#linearGradient-1)"></path>
                <path d="M98.9909008,18.018018 C94.9468415,18.018018 91.4714293,20.9293707 90.7028184,24.9577102 L77.2240097,24.9577102 C72.4956994,24.9629941 68.6630602,28.8518426 68.6578526,33.6494981 C68.6547284,36.6559583 66.2530799,39.0917723 63.2911163,39.0959993 L48.75,39.0959993 L48.75,42.3423423 L63.2911163,42.3423423 C68.0194266,42.3370586 71.8520658,38.4482102 71.8572731,33.6494981 C71.8603976,30.6440945 74.2610047,28.2072236 77.2240097,28.2040532 L90.7028184,28.2040532 C91.5464157,32.6402995 95.6425488,35.6488734 100.059457,35.0761135 C104.477407,34.5033539 107.695574,30.54793 107.413334,26.0377112 C107.131093,21.528549 103.444261,18.018018 98.9909008,18.018018 L98.9909008,18.018018 Z M102.69648,30.3408065 C100.651017,32.4141544 97.3349506,32.4130977 95.2905294,30.3376362 C93.2461079,28.2621747 93.2461079,24.898532 95.2905294,22.8230708 C97.3349506,20.747609 100.651017,20.7465523 102.69648,22.8199005 C104.740901,24.898532 104.740901,28.2632314 102.69648,30.3408065 Z" id="Shape" fill="url(#linearGradient-2)"></path>
                <path d="M98.9935759,81.0810811 C103.446131,81.0800241 107.131077,77.5694932 107.413333,73.061388 C107.695588,68.5543393 104.47725,64.5989157 100.061148,64.0261558 C95.6450457,63.4533959 91.549736,66.4598564 90.7050522,70.8950457 L77.2255258,70.8950457 C74.2623631,70.8918754 71.8616282,68.4550047 71.8585035,65.4496012 C71.8532959,60.6508891 68.0204526,56.7630974 63.2918906,56.7567568 L48.75,56.7567568 L48.75,60.0030998 L63.2918906,60.0030998 C66.2540118,60.0073268 68.6557882,62.443141 68.6589126,65.4496012 C68.6641205,70.2472566 72.4969638,74.136105 77.2255258,74.1413887 L90.7050522,74.1413887 C91.4737041,78.1707851 94.9493013,81.0810811 98.9935759,81.0810811 L98.9935759,81.0810811 Z M95.2877996,68.7582927 C97.3344131,66.6817743 100.651697,66.6817743 102.698311,68.7582927 C104.744924,70.8348109 104.744924,74.2016235 102.698311,76.2781417 C100.651697,78.3546602 97.3344131,78.3546602 95.2877996,76.2781417 C94.3014676,75.2826812 93.74633,73.9289816 93.74633,72.5182172 C93.7473715,71.1063962 94.3014676,69.7537532 95.2877996,68.7582927 Z" id="Shape" fill="url(#linearGradient-2)"></path>
                <path d="M78.517027,85.4174958 C77.1233474,86.8147984 76.2597472,88.6599542 76.0746901,90.6326165 L74.2544379,90.6326165 C71.2454287,90.6241863 68.5553034,88.7368795 67.5024637,85.894855 L62.953402,73.5161884 C61.4300781,69.4075291 57.5407401,66.6793119 53.1882364,66.6666667 L48.75,66.6666667 L48.75,69.903856 L53.1882364,69.903856 C56.1982912,69.9122862 58.8884166,71.799593 59.9412562,74.6405638 L64.4913634,87.0192301 C66.0146874,91.1289432 69.9040253,93.8571603 74.2554833,93.8698058 L76.3799819,93.8698058 C77.4568686,97.5601173 80.8485386,100.06915 84.6646902,99.9985471 C88.4808415,99.928998 91.7794602,97.296674 92.7225199,93.5684267 C93.66558,89.8412332 92.0209753,85.9380596 88.7035374,84.0349462 C85.3871449,82.131833 81.2176074,82.6977088 78.5180725,85.4174958 L78.517027,85.4174958 Z M89.7689233,91.4556128 C89.7678779,93.9825593 87.9957198,96.1575459 85.5366545,96.6496578 C83.0775892,97.1417696 80.6153873,95.8150699 79.6555992,93.4809635 C78.6968563,91.1458035 79.5071351,88.4534145 81.591904,87.0487357 C83.6756272,85.644057 86.454622,85.9190915 88.2278256,87.7052361 C89.2179337,88.6978897 89.7731054,90.0477726 89.7689233,91.4556128 L89.7689233,91.4556128 Z" id="Shape" fill="url(#linearGradient-3)"></path>
                <path d="M62.9687317,26.4802893 L67.5227032,14.0952572 C68.5766792,11.2517712 71.2686611,9.36349389 74.2819648,9.35505937 L76.1041815,9.35505937 C76.529121,13.7251928 80.1798341,17.054718 84.5391286,17.0473377 C88.8973767,17.0410117 92.5376233,13.698835 92.9479099,9.32764733 C93.359243,4.95645942 90.4066452,0.986965529 86.1258491,0.155111213 C81.8460999,-0.675688316 77.639616,1.9052735 76.4087563,6.11620534 L74.2819648,6.11620534 C69.9258102,6.12885711 66.0312279,8.85847719 64.5073064,12.9703036 L59.9522883,25.3553357 C58.8983124,28.1977675 56.2063302,30.0849905 53.1930265,30.0944793 L48.75,30.0944793 L48.75,33.3333333 L53.1930265,33.3333333 C57.550228,33.3206816 61.4437636,30.5910615 62.9687317,26.4802893 Z M80.8235235,4.78038884 C82.5996874,2.99016301 85.3837748,2.71498701 87.4718403,4.12038812 C89.5609525,5.52684348 90.3731524,8.22272577 89.4112816,10.5601409 C88.4504573,12.8986102 85.9835048,14.2270465 83.5196923,13.7336273 C81.0558795,13.2402081 79.2807622,11.0619946 79.2807622,8.53163984 C79.278669,7.12412997 79.8344396,5.77460745 80.8235235,4.78144336 L80.8235235,4.78038884 Z" id="Shape" fill="url(#linearGradient-3)"></path>
            </g>
        </g>
    </g>
</svg>