<?xml version="1.0" encoding="UTF-8"?>
<svg width="100px" height="115px" viewBox="0 0 100 115" version="1.1" xmlns="http://www.w3.org/2000/svg" xmlns:xlink="http://www.w3.org/1999/xlink">
    <!-- Generator: Sketch 54 (76480) - https://sketchapp.com -->
    <title>3</title>
    <desc>Created with Sketch.</desc>
    <defs>
        <linearGradient x1="100%" y1="50%" x2="-57.494213%" y2="50%" id="linearGradient-1">
            <stop stop-color="#80DCC5" offset="0%"></stop>
            <stop stop-color="#0D5FFF" offset="100%"></stop>
        </linearGradient>
    </defs>
    <g id="Page-1" stroke="none" stroke-width="1" fill="none" fill-rule="evenodd">
        <g id="Financial" transform="translate(-1360.000000, -1393.000000)" fill-rule="nonzero">
            <g id="3" transform="translate(1360.000000, 1393.000000)">
                <path d="M24.4460825,102.504264 C36.4396799,111.281886 48.2512401,114.796158 48.7489983,114.941203 C49.0116249,115.017992 49.2903692,115.019888 49.552996,114.944995 C50.0668718,114.79995 62.2823271,111.28947 74.690249,102.519432 C82.0125063,97.3432985 87.8528669,91.4078097 92.0511,84.8760227 C97.2941509,76.7752793 100.056945,67.3188824 99.9991102,57.6700392 L99.9991102,29.5122542 C99.9991102,28.9311243 99.6521017,28.4049788 99.1183154,28.1755603 L98.7988023,28.038099 C81.7821154,20.7166197 65.6945768,11.4024242 50.8727658,0.290802123 C50.3550973,-0.0969340409 49.6430666,-0.0969340409 49.1253981,0.290802123 C34.3035871,11.4024242 18.2160485,20.7166197 1.19936163,28.037151 L0.879848462,28.1746124 C0.346062202,28.4040306 -0.000946353809,28.9311243 1.93870589e-06,29.5122542 L1.93870589e-06,57.6700392 C1.93870589e-06,67.5084844 2.58075854,76.6548823 7.67211168,84.8551664 C11.7271804,91.3888495 17.371282,97.3252865 24.4460825,102.504264 Z M2.91259733,30.4706921 C19.5993417,23.2402218 35.3986547,14.11468 49.9995561,3.27324063 C64.5995092,14.11468 80.3988222,23.2402218 97.0865149,30.4706921 L97.0865149,57.6700392 C97.1415051,66.7443884 94.5484229,75.6376677 89.6258333,83.2606141 C85.6428213,89.4710257 80.0755165,95.133488 73.0775132,100.091579 C62.3031857,107.724953 51.3781086,111.335922 49.1652189,112.020385 C47.0016306,111.326442 36.4766563,107.717369 26.0967428,100.102955 C19.3414557,95.1477082 13.9666172,89.4861939 10.1210811,83.2786264 C5.33786381,75.5561389 2.91259733,66.9406265 2.91259733,57.6700392 L2.91259733,30.4706921 Z" id="Shape" fill="#333333"></path>
                <path d="M28.3984314,95.645252 C38.5077622,103.071801 48.4672483,106.047151 48.8866248,106.170138 C49.1476749,106.246769 49.4247462,106.248661 49.6867387,106.173922 C50.1202515,106.050935 60.4190085,103.079369 70.8751496,95.6584967 C77.0517651,91.2754139 81.9777901,86.2480659 85.5194016,80.7155235 C89.9478292,73.8462024 92.2812594,65.8283678 92.2322534,57.6459193 L92.2322534,33.8913697 C92.2322534,33.3104905 91.8882704,32.7863749 91.356746,32.5564829 L91.0890989,32.4410641 C76.8086209,26.2727713 63.3075235,18.4242809 50.8685325,9.06209911 C50.3539714,8.67421555 49.6462148,8.67421555 49.1316538,9.06209911 C36.6926627,18.4242809 23.1915654,26.2718251 8.91014472,32.4401179 L8.64249767,32.5555369 C8.11097324,32.7854287 7.76699029,33.3104905 7.76699029,33.8904234 L7.76699029,57.6430811 C7.76699029,65.9844674 9.94680584,73.740244 14.2470647,80.6937641 C17.6689889,86.2291447 22.431033,91.2593307 28.3984314,95.645252 Z M10.6621021,34.8468873 C24.5976548,28.7732002 37.7952933,21.1205438 50.0005644,12.0374489 C62.2048929,21.1205438 75.4034738,28.7732002 89.3380842,34.8478335 L89.3380842,57.6440273 C89.3842627,65.252219 87.2204682,72.7099878 83.1096355,79.1034421 C82.2209344,80.491308 81.2549545,81.8280868 80.2164087,83.1071561 L80.2164087,82.9245671 C80.2164087,82.1223106 79.5680243,81.4714233 78.7688528,81.4714233 C77.9696813,81.4714233 77.3212969,82.1223106 77.3212969,82.9245671 L77.3212969,85.8866722 C77.3212969,86.0285806 77.34203,86.1695433 77.3834967,86.3057756 C74.8973947,88.8610759 72.1813427,91.1817541 69.2711522,93.2365903 C63.1407151,97.5430426 56.4118421,100.918575 49.3003469,103.25439 C42.4159747,100.907222 35.9236487,97.5345281 30.0391832,93.246997 C27.3306705,91.2640612 24.8012174,89.0446109 22.4828662,86.6141901 C22.6110352,86.3928126 22.6788893,86.1411615 22.6788893,85.8857259 L22.6788893,82.9236211 C22.6788893,82.1213646 22.0305049,81.4704773 21.2313335,81.4704773 C20.432162,81.4704773 19.7837776,82.1213646 19.7837776,82.9236211 L19.7837776,83.5120685 C18.6622986,82.1119039 17.6256375,80.6455154 16.680391,79.119525 C12.6864185,72.6437637 10.6621021,65.4177791 10.6621021,57.6430811 L10.6621021,34.8468873 Z" id="Shape" fill="#333333"></path>
                <path d="M50,81.8644068 C49.1950468,81.8644068 48.5436893,82.5129721 48.5436893,83.3123666 L48.5436893,86.2639046 C48.5436893,87.0632991 49.1950468,87.7118644 50,87.7118644 C50.8040049,87.7118644 51.4563107,87.0632991 51.4563107,86.2639046 L51.4563107,83.3123666 C51.4563107,82.5129721 50.8040049,81.8644068 50,81.8644068 Z" id="Path" fill="#0D5FFF"></path>
                <path d="M59.7087379,81.8644068 C58.904733,81.8644068 58.2524272,82.5129721 58.2524272,83.3123666 L58.2524272,86.2639046 C58.2524272,87.0632991 58.904733,87.7118644 59.7087379,87.7118644 C60.5127427,87.7118644 61.1650485,87.0632991 61.1650485,86.2639046 L61.1650485,83.3123666 C61.1650485,82.5129721 60.5127427,81.8644068 59.7087379,81.8644068 Z" id="Path" fill="#0D5FFF"></path>
                <path d="M69.4174757,81.8644068 C68.6125226,81.8644068 67.961165,82.5129721 67.961165,83.3123666 L67.961165,86.2639046 C67.961165,87.0632991 68.6125226,87.7118644 69.4174757,87.7118644 C70.2214806,87.7118644 70.8737864,87.0632991 70.8737864,86.2639046 L70.8737864,83.3123666 C70.8737864,82.5129721 70.2214806,81.8644068 69.4174757,81.8644068 Z" id="Path" fill="#0D5FFF"></path>
                <path d="M40.2912621,81.8644068 C39.4872573,81.8644068 38.8349515,82.5129721 38.8349515,83.3123666 L38.8349515,86.2639046 C38.8349515,87.0632991 39.4872573,87.7118644 40.2912621,87.7118644 C41.095267,87.7118644 41.7475728,87.0632991 41.7475728,86.2639046 L41.7475728,83.3123666 C41.7475728,82.5129721 41.095267,81.8644068 40.2912621,81.8644068 Z" id="Path" fill="#0D5FFF"></path>
                <path d="M30.5825243,81.8644068 C29.7775711,81.8644068 29.1262136,82.5129721 29.1262136,83.3123666 L29.1262136,86.2639046 C29.1262136,87.0632991 29.7775711,87.7118644 30.5825243,87.7118644 C31.3865291,87.7118644 32.038835,87.0632991 32.038835,86.2639046 L32.038835,83.3123666 C32.038835,82.5129721 31.3865291,81.8644068 30.5825243,81.8644068 Z" id="Path" fill="#0D5FFF"></path>
                <path d="M26.3387465,50.8883898 C26.3103025,50.9545199 26.2856507,51.0234843 26.266688,51.0933936 C26.2628954,51.1056749 26.2600509,51.1179561 26.2572067,51.1292928 C26.239192,51.2001467 26.2268663,51.2719453 26.2192812,51.3437438 L26.2192812,51.3664171 C26.2164367,51.4042058 26.2135922,51.4419945 26.2135922,51.4807279 C26.2135922,51.5100142 26.2164367,51.5393006 26.2173848,51.567642 C26.2173848,51.5799233 26.2173848,51.5922048 26.2202293,51.6044861 C26.225918,51.67534 26.2372956,51.7461937 26.2543622,51.8151583 C26.2562584,51.8264949 26.2600509,51.8378315 26.2628954,51.8491681 C26.2809101,51.9200218 26.3046135,51.9899311 26.3330578,52.0570062 C26.335902,52.0617297 26.3377984,52.0664532 26.3406429,52.0711767 C26.3709833,52.1382518 26.4060644,52.2034375 26.445886,52.2648442 C26.4496786,52.2705123 26.4525231,52.2761808 26.4563156,52.2827936 C26.4989818,52.3442005 26.5454407,52.4037176 26.5966401,52.4585113 C26.6013807,52.4641795 26.6051733,52.4707926 26.6099139,52.4755164 L48.4550185,75.5615951 C48.4739815,75.5814341 48.4948404,75.5993838 48.5147513,75.6182782 C48.5261289,75.6296148 48.5384547,75.6418961 48.5507806,75.652288 C48.5962913,75.692911 48.6455945,75.7306997 48.6958457,75.7656542 C48.7081715,75.773212 48.7204972,75.7807697 48.7337713,75.7892721 C48.7764374,75.8166689 48.821,75.8421763 48.8674587,75.8648496 C48.8816808,75.8714627 48.8949546,75.8790204 48.9091768,75.8856333 C48.9660651,75.9120856 49.0248497,75.933814 49.0845823,75.9527083 C49.0940638,75.9555425 49.1044934,75.9574321 49.1139746,75.9602661 C49.1661223,75.9753816 49.2182699,75.9867182 49.2704176,75.9952208 C49.2893801,75.9989994 49.3073948,76.0018337 49.3254095,76.0037232 C49.3832459,76.0122256 49.4420306,76.0160045 49.500815,76.0169492 L49.5150371,76.0169492 C49.5633923,76.0169492 49.6117474,76.0141149 49.6601022,76.0093914 C49.6676873,76.0093914 49.6743244,76.0075021 49.6819095,76.0065572 C49.7217312,76.0018337 49.7615531,75.9961655 49.801375,75.9876631 C49.8165452,75.9848289 49.8317154,75.9801053 49.8478337,75.9763262 C49.8781741,75.9697134 49.9085146,75.9621556 49.9379069,75.9527083 C49.9587658,75.9460952 49.9777286,75.9385375 49.9976394,75.9319246 C50.0175503,75.9253115 50.035565,75.9196434 50.0545277,75.9120856 C50.0611648,75.9101961 50.0668537,75.9064172 50.0725424,75.9045279 C50.0952977,75.8950806 50.117105,75.8846886 50.138912,75.8742969 C50.1607192,75.8639049 50.1853709,75.8516236 50.2081262,75.8402868 C50.2261409,75.8298951 50.2432073,75.8195031 50.261222,75.8091111 C50.2849254,75.7939957 50.3114733,75.7788802 50.3351766,75.7618754 C50.3503469,75.7524281 50.3636209,75.7420361 50.377843,75.7316444 C50.4034426,75.71275 50.4290424,75.6938556 50.4527458,75.6730717 C50.4660198,75.66268 50.4773975,75.6513431 50.4897232,75.6400068 C50.514375,75.6182782 50.5371303,75.5965496 50.5598856,75.5738764 C50.5636779,75.5691528 50.5693668,75.565374 50.5731594,75.5606502 L72.418264,52.4755164 C72.4239527,52.4698479 72.4267972,52.4632349 72.4324861,52.4575667 C72.4827374,52.4027729 72.5301442,52.3442005 72.5718625,52.281849 C72.5756548,52.2761808 72.5794476,52.2705123 72.5822919,52.2638995 C72.6230619,52.2024926 72.6581429,52.1382518 72.6884833,52.0711767 C72.6903797,52.0655086 72.6932242,52.0617297 72.6951204,52.0560613 C72.7245127,51.9889864 72.747268,51.9190772 72.7662308,51.8482235 C72.7690753,51.8368866 72.7719195,51.8255503 72.774764,51.8142134 C72.7918306,51.745249 72.803208,51.6743953 72.808897,51.6035414 C72.808897,51.5912601 72.808897,51.5789786 72.8107931,51.567642 C72.8126895,51.5383559 72.815534,51.5100142 72.815534,51.4797833 C72.815534,51.4410499 72.8126895,51.4032612 72.808897,51.3654724 C72.808897,51.3579147 72.808897,51.3503569 72.808897,51.3427992 C72.8022599,51.2710006 72.7899342,51.199202 72.7719195,51.1283481 C72.7681269,51.1170115 72.7652825,51.1047302 72.7624382,51.0924489 C72.7434755,51.0225397 72.7188238,50.9545199 72.6894314,50.8874449 C72.6856391,50.8789425 72.6808982,50.8694952 72.6761576,50.8600481 C72.6439208,50.7910838 72.6059953,50.7240087 72.562381,50.6607125 L72.5604846,50.6569336 L64.9222831,39.6112884 C64.6501676,39.2182856 64.2016981,38.9830508 63.7228883,38.9830508 L35.3062379,38.9830508 C34.8264798,38.9830508 34.3780105,39.2182856 34.1068429,39.6112884 L26.4686414,50.6569336 L26.4657969,50.6607125 C26.4231307,50.7240087 26.3852052,50.7901391 26.3529686,50.8600481 C26.348228,50.8704401 26.3434871,50.8789425 26.3387465,50.8883898 L26.3387465,50.8883898 Z M39.2590261,52.9318151 L45.3138366,68.0132965 L31.0415121,52.9318151 L39.2590261,52.9318151 Z M55.1242229,41.8861698 L57.0641135,50.0296408 L42.0579301,50.0296408 L43.8593927,41.8861698 L55.1242229,41.8861698 Z M67.9838216,52.9318151 L53.7209783,68.0057388 L59.825092,52.9318151 L67.9838216,52.9318151 Z M56.6839102,52.9318151 L49.5093482,70.6481155 L42.3973635,52.9318151 L56.6839102,52.9318151 Z M68.5868375,50.0296408 L60.0573861,50.0296408 L58.1184432,41.8861698 L62.9548965,41.8861698 L68.5868375,50.0296408 Z M36.0713853,41.8861698 L40.8765498,41.8861698 L39.0760355,50.0296408 L30.4394442,50.0296408 L36.0713853,41.8861698 Z" id="Shape" fill="url(#linearGradient-1)"></path>
            </g>
        </g>
    </g>
</svg>