<svg xmlns="http://www.w3.org/2000/svg" width="36" height="42" viewBox="0 0 36 42">
    <g fill="#333" fill-rule="nonzero">
        <path d="M17.693 20.232c2.85 0 5.318-.997 7.334-2.964s3.039-4.373 3.039-7.153c0-2.778-1.022-5.185-3.039-7.152C23.01.997 20.543 0 17.693 0c-2.85 0-5.317.997-7.334 2.963C8.343 4.93 7.32 7.336 7.32 10.115c0 2.78 1.023 5.187 3.04 7.153 2.016 1.966 4.484 2.964 7.333 2.964zM12.144 4.704c1.547-1.51 3.362-2.243 5.55-2.243 2.186 0 4.001.734 5.549 2.243 1.547 1.509 2.3 3.28 2.3 5.411 0 2.133-.753 3.903-2.3 5.413-1.548 1.509-3.363 2.242-5.55 2.242-2.186 0-4.001-.733-5.549-2.242-1.548-1.51-2.3-3.28-2.3-5.413 0-2.132.752-3.902 2.3-5.411zM35.843 32.296a24.399 24.399 0 0 0-.35-2.654c-.174-.95-.4-1.848-.669-2.668a13.017 13.017 0 0 0-1.125-2.489 9.413 9.413 0 0 0-1.695-2.155c-.67-.625-1.489-1.127-2.437-1.493-.944-.364-1.99-.549-3.11-.549-.44 0-.865.176-1.686.697-.505.322-1.096.693-1.756 1.104-.564.351-1.328.68-2.272.977a9.233 9.233 0 0 1-2.78.438 9.24 9.24 0 0 1-2.779-.438c-.943-.297-1.707-.626-2.27-.976-.654-.407-1.245-.78-1.758-1.105-.82-.521-1.246-.697-1.685-.697-1.12 0-2.166.185-3.11.55-.947.365-1.767.867-2.437 1.492a9.414 9.414 0 0 0-1.695 2.155c-.468.803-.846 1.64-1.125 2.49a20.53 20.53 0 0 0-.669 2.667c-.173.942-.29 1.835-.349 2.655A35.056 35.056 0 0 0 0 34.777c0 2.192.715 3.967 2.124 5.276C3.516 41.345 5.357 42 7.597 42h20.736c2.24 0 4.08-.655 5.473-1.947 1.41-1.308 2.124-3.083 2.124-5.276 0-.847-.03-1.681-.087-2.481zm-3.778 5.974c-.92.854-2.14 1.269-3.732 1.269H7.597c-1.593 0-2.814-.415-3.733-1.269-.902-.837-1.34-1.98-1.34-3.493 0-.787.026-1.564.08-2.31.051-.732.158-1.536.315-2.39.155-.844.353-1.636.588-2.352.226-.688.534-1.368.916-2.024a6.977 6.977 0 0 1 1.246-1.593c.433-.404.978-.735 1.62-.983a5.937 5.937 0 0 1 1.988-.374c.089.046.246.134.501.296.519.33 1.117.706 1.778 1.118.745.463 1.705.881 2.852 1.243 1.173.37 2.369.557 3.556.557a11.82 11.82 0 0 0 3.555-.557c1.148-.362 2.108-.78 2.854-1.244.677-.422 1.258-.787 1.777-1.117.255-.162.412-.25.5-.296a5.94 5.94 0 0 1 1.989.374c.642.248 1.187.58 1.62.983.463.432.882.968 1.246 1.593.382.656.69 1.337.916 2.023.236.718.434 1.51.589 2.353.157.856.263 1.66.315 2.39v.001c.054.743.08 1.52.081 2.31 0 1.512-.439 2.655-1.34 3.492z"/>
    </g>
</svg>
