<?xml version="1.0" encoding="UTF-8"?>
<svg width="50px" height="48px" viewBox="0 0 50 48" version="1.1" xmlns="http://www.w3.org/2000/svg" xmlns:xlink="http://www.w3.org/1999/xlink">
    <!-- Generator: Sketch 54 (76480) - https://sketchapp.com -->
    <title>brain</title>
    <desc>Created with Sketch.</desc>
    <g id="Page-1" stroke="none" stroke-width="1" fill="none" fill-rule="evenodd">
        <g id="home" transform="translate(-936.000000, -2565.000000)">
            <path d="M956.486154,2587.06572 C958.449934,2587.68567 957.506275,2590.64574 955.547,2590.02722 C953.507781,2589.38582 951.529671,2591.45982 952.020284,2593.88817 C952.424913,2595.89906 949.378368,2596.53637 948.968723,2594.49893 C948.474835,2592.04771 949.394132,2589.60588 951.137325,2588.15051 C950.845394,2587.57304 950.599013,2585.5983 951.434067,2583.70882 C952.263491,2581.83079 955.111355,2583.08162 954.282238,2584.96129 C954.018763,2585.55755 953.924285,2586.20967 954.006275,2586.86281 C954.836416,2586.74487 955.68406,2586.81318 956.486154,2587.06572 Z M982.896914,2580.43678 C985.192033,2581.75634 986.863983,2584.37044 986.992445,2587.46888 C987.145781,2591.16562 984.952408,2594.63597 981.556303,2595.78448 C982.658619,2600.49106 979.803897,2605.16476 975.435576,2606.04563 C974.288119,2613.26878 965.59242,2615.51638 961.49873,2609.66129 C957.4206,2615.49841 948.712413,2613.28767 947.561885,2606.04563 C943.18865,2605.16384 940.340172,2600.48535 941.441158,2595.78448 C938.270246,2594.71215 936,2591.53733 936,2587.80678 C936,2584.5373 937.749642,2581.78636 940.100547,2580.43678 C939.237037,2575.31214 942.930908,2570.58758 947.779708,2570.58758 C947.817069,2570.58758 947.854431,2570.5886 947.891792,2570.5886 C949.959057,2564.29992 957.744775,2562.9868 961.49873,2568.35479 C965.247261,2562.99466 973.035128,2564.29012 975.105669,2570.5886 C975.14303,2570.5886 975.180392,2570.58758 975.217753,2570.58758 C980.063278,2570.58758 983.760833,2575.30917 982.896914,2580.43678 Z M979.417897,2593.06112 C982.191243,2592.91673 984.112031,2590.14547 983.872303,2587.42895 C983.643733,2583.78133 980.203614,2581.4697 977.21306,2583.03904 C975.391049,2583.99618 973.942448,2581.25066 975.760467,2580.29178 C977.098212,2579.5885 978.545277,2579.33851 979.882817,2579.473 C980.212928,2576.05688 977.428016,2573.06413 974.264269,2573.80366 C973.375783,2574.00953 972.501525,2573.41082 972.371732,2572.5128 C971.451719,2566.1656 963.055219,2566.93352 963.055219,2573.36374 C963.055219,2573.70154 963.051841,2604.61476 963.061463,2604.88435 C963.306411,2610.86443 970.90921,2611.77369 972.27623,2605.98568 C970.983319,2605.67515 969.778745,2605.01373 968.777458,2604.05005 C967.294976,2602.62317 969.459688,2600.3916 970.939816,2601.81624 C974.840249,2605.57425 980.6194,2600.42959 978.101239,2595.29493 C977.609193,2594.29337 978.306368,2593.11851 979.417897,2593.06112 Z M959.936101,2604.88435 C959.945722,2604.61476 959.942345,2573.70236 959.942447,2573.36374 C959.942447,2566.9323 951.545025,2566.17183 950.625934,2572.5128 C950.496243,2573.4099 949.622804,2574.00984 948.733397,2573.80366 C945.589303,2573.06872 942.782383,2576.03227 943.114849,2579.473 C944.458121,2579.3379 945.904572,2579.59115 947.237199,2580.29178 C949.057162,2581.25178 947.604774,2583.99526 945.784606,2583.03904 C942.693023,2581.4167 939.112874,2583.94808 939.112874,2587.80678 C939.112874,2590.62236 941.074914,2592.93072 943.579666,2593.06112 C944.691604,2593.11851 945.388063,2594.29378 944.896325,2595.29493 C942.386249,2600.41315 948.154755,2605.5766 952.057747,2601.81624 C953.540229,2600.38936 955.699619,2602.62613 954.220105,2604.05005 C953.218819,2605.01373 952.014142,2605.67515 950.721333,2605.98568 C952.086204,2611.76501 959.690743,2610.87475 959.936101,2604.88435 Z M971.860034,2588.15051 C973.603227,2589.60588 974.522523,2592.04771 974.028533,2594.49893 C973.618376,2596.53893 970.573264,2595.89446 970.976973,2593.88817 C971.469632,2591.44971 969.476578,2589.38991 967.450256,2590.02722 C965.486477,2590.64717 964.552031,2587.68424 966.511204,2587.06572 C967.313298,2586.81308 968.161045,2586.74477 968.991084,2586.86281 C969.073074,2586.20967 968.978698,2585.55755 968.715121,2584.96129 C967.886618,2583.08295 970.732946,2581.82895 971.563292,2583.70882 C972.386062,2585.57052 972.165783,2587.54557 971.860034,2588.15051 Z" id="brain" fill="#0D5FFF" fill-rule="nonzero"></path>
            <g id="切片" transform="translate(0.000000, 100.000000)"></g>
        </g>
    </g>
</svg>