<?xml version="1.0" encoding="UTF-8"?>
<svg width="39px" height="40px" viewBox="0 0 39 40" version="1.1" xmlns="http://www.w3.org/2000/svg" xmlns:xlink="http://www.w3.org/1999/xlink">
    <!-- Generator: Sketch 54 (76480) - https://sketchapp.com -->
    <title>fuwudiqiu</title>
    <desc>Created with Sketch.</desc>
    <g id="Page-1" stroke="none" stroke-width="1" fill="none" fill-rule="evenodd">
        <g id="home" transform="translate(-1323.000000, -1363.000000)">
            <rect id="Rectangle-Copy-4" stroke="#EAEAEA" x="1170.5" y="1333.5" width="359" height="225"></rect>
            <g id="fuwudiqiu" transform="translate(1323.000000, 1363.000000)" fill-rule="nonzero">
                <path d="M22.8473898,2.81306972 C22.1263471,2.72651138 21.4709722,3.24207329 21.3794754,3.96782983 C21.2879786,4.69358637 21.794612,5.35784866 22.5142373,5.45565036 C25.1382495,5.79521572 27.634707,6.79670429 29.7722034,8.36728408 C24.9904068,9.46347555 23.5361695,12.7813528 23.2307797,15.6516961 C22.7878983,19.8007076 25.7188475,21.9771072 27.6582712,23.4169407 C28.3391186,23.9230801 29.367661,24.6876171 29.4152542,25.0445786 C29.4218644,25.0965245 29.3742712,25.2696774 29.1442373,25.5613736 C26.6217966,28.7647034 25.6818305,31.4232674 26.3534237,33.4678044 C26.558339,34.0884912 26.9853559,34.8370447 27.8526102,35.4590635 C25.5835299,36.6647534 23.0568437,37.2947603 20.4915254,37.2944849 C20.3672542,37.2944849 20.2456271,37.2798335 20.1213559,37.2771696 C21.7778644,34.4720916 21.1842712,32.3529657 20.2628136,30.9877211 C18.0285763,27.6791675 14.6891186,26.6535692 11.544,28.3158377 C11.3258644,28.4343809 11.1473898,28.3864308 10.1228136,27.4154422 C9.11277966,26.4564412 7.51047458,24.9619979 5.16386441,25.404204 C4.95630508,24.6050364 4.79237288,23.7858897 4.70776271,22.9401041 C4.63200521,22.209092 3.98488691,21.6766894 3.25881356,21.7480125 C2.53301695,21.8226015 2.00288136,22.4752549 2.07559322,23.2078252 C3.01362622,32.7378434 10.9860795,39.9893356 20.4915254,39.9583767 C30.6976271,39.9583767 39,31.5937565 39,21.3111342 C39,11.9448907 32.056678,3.99317378 22.8473898,2.81306972 Z M6.0760678,27.9841831 C6.83491525,28.013486 7.44437288,28.5342768 8.31030508,29.3547555 C9.30183051,30.2964412 10.803661,31.7136316 12.7721695,30.6747138 C15.3884746,29.2894901 17.2181695,31.2154839 18.0761695,32.4848283 C18.4119661,32.9816441 19.2699661,34.2576483 17.1494237,36.9281998 C12.2604621,35.8824056 8.15256202,32.5644298 6.0760678,27.9841831 L6.0760678,27.9841831 Z M30.4239661,33.7555047 C29.5567119,33.5050989 29.0265763,33.1281582 28.861322,32.6286785 C28.508339,31.556462 29.3874915,29.5332362 31.2132203,27.2183143 C31.8689492,26.3858481 32.1452542,25.5360666 32.0342034,24.6929448 C31.8385424,23.2144849 30.5693898,22.2714672 29.2248814,21.2738398 C27.4322034,19.9418939 25.5773898,18.5659938 25.857661,15.9380645 C26.0863729,13.8042872 27.026339,11.0125286 32.331661,10.6888658 C34.9225562,13.6114292 36.35505,17.3925695 36.3559322,21.3111342 C36.3559322,26.337898 34.0357627,30.8238918 30.4239661,33.7555047 L30.4239661,33.7555047 Z" id="Shape" fill="#333333"></path>
                <path d="M9.02552542,23.6287201 C9.52990586,24.0910963 10.3006026,24.0910963 10.8049831,23.6287201 C16.8784068,18.0651821 19.8305085,13.6031634 19.8305085,9.98959417 C19.8305085,4.48066597 15.3831864,0 9.91525424,0 C4.44732203,0 0,4.48066597 0,9.98959417 C0,13.6031634 2.95210169,18.0651821 9.02552542,23.6287201 L9.02552542,23.6287201 Z M9.91525424,2.66389178 C13.9249831,2.66389178 17.1864407,5.94980229 17.1864407,9.98959417 C17.1864407,11.815692 15.8961356,15.1562123 9.91525424,20.8289698 C3.93437288,15.1562123 2.6440678,11.815692 2.6440678,9.98959417 C2.6440678,5.94980229 5.90552542,2.66389178 9.91525424,2.66389178 Z" id="Shape" fill="#0D5FFF"></path>
                <path d="M6.61016949,9.98959417 C6.61016949,11.8286277 8.08990634,13.3194589 9.91525424,13.3194589 C11.7406021,13.3194589 13.220339,11.8286277 13.220339,9.98959417 C13.220339,8.79994807 12.5903934,7.70066973 11.5677966,7.10584667 C10.5451998,6.51102361 9.28530863,6.51102361 8.26271184,7.10584667 C7.24011505,7.70066973 6.61016947,8.79994807 6.61016949,9.98959417 L6.61016949,9.98959417 Z" id="Path" fill="#0D5FFF"></path>
            </g>
            <g id="切片" transform="translate(0.000000, 100.000000)"></g>
        </g>
    </g>
</svg>
