<?xml version="1.0" encoding="UTF-8"?>
<svg width="40px" height="40px" viewBox="0 0 40 40" version="1.1" xmlns="http://www.w3.org/2000/svg" xmlns:xlink="http://www.w3.org/1999/xlink">
    <!-- Generator: Sketch 54 (76480) - https://sketchapp.com -->
    <title>jichuguanli</title>
    <desc>Created with Sketch.</desc>
    <g id="Page-1" stroke="none" stroke-width="1" fill="none" fill-rule="evenodd">
        <g id="home" transform="translate(-1328.000000, -1623.000000)">
            <rect id="Rectangle-Copy-7" stroke="#EAEAEA" x="1170.5" y="1589.5" width="359" height="225"></rect>
            <g id="jichuguanli" transform="translate(1328.000000, 1623.000000)" fill-rule="nonzero">
                <path d="M37.8561331,34.6918626 C35.6602543,27.2373993 29.0743362,21.9292099 21.3305613,21.3724037 L21.3305613,13.3194589 L26.6528067,13.3194589 C27.3876554,13.3194589 27.983368,12.7231264 27.983368,11.987513 L27.983368,6.65972945 C27.983368,5.92411605 27.3876554,5.32778356 26.6528067,5.32778356 L13.3471933,5.32778356 C12.6123446,5.32778356 12.016632,5.92411605 12.016632,6.65972945 L12.016632,11.987513 C12.016632,12.7231264 12.6123446,13.3194589 13.3471933,13.3194589 L18.6694387,13.3194589 L18.6694387,21.3724037 C10.9248093,21.9285167 4.33776193,27.2367616 2.14120582,34.6918626 C0.775906044,34.9868829 -0.129200675,36.2883553 0.0683248411,37.6725028 C0.265850358,39.0566503 1.49878023,40.0523778 2.89198842,39.952924 C4.28519662,39.8534702 5.36450423,38.6926842 5.36382536,37.2944849 C5.36382536,36.6085328 5.0977131,35.9891779 4.67193347,35.5176691 C6.51214817,29.1581743 12.0786897,24.5927802 18.6694387,24.0376275 L18.6694387,35.0008741 C17.8777547,35.4617274 17.3388773,36.3115088 17.3388773,37.2958169 C17.3388773,38.7670437 18.5303025,39.9597086 20,39.9597086 C21.4696975,39.9597086 22.6611227,38.7670437 22.6611227,37.2958169 C22.6611227,36.3128408 22.1222453,35.4630593 21.3305613,35.0008741 L21.3305613,24.0376275 C27.9218243,24.5929611 33.4882806,29.1597788 35.326736,35.520333 C34.8838746,36.0049967 34.6376238,36.6376505 34.6361746,37.2944849 C34.6361746,38.7657117 35.8275998,39.9583767 37.2972973,39.9583767 C38.7669948,39.9583767 39.95842,38.7657117 39.95842,37.2944849 C39.9575406,36.0395411 39.0818183,34.9554006 37.8561331,34.6918626 Z" id="Path" fill="#333333"></path>
                <path d="M10.6860707,18.6472425 L13.9073597,18.6472425 C14.6422084,18.6472425 15.237921,18.05091 15.237921,17.3152966 C15.237921,16.5796832 14.6422084,15.9833507 13.9073597,15.9833507 L10.6860707,15.9833507 C9.95122195,15.9833507 9.35550936,15.3870182 9.35550936,14.6514048 L9.35550936,3.99583767 C9.35550936,3.26022427 9.95122195,2.66389178 10.6860707,2.66389178 L29.3139293,2.66389178 C30.048778,2.66389178 30.6444906,3.26022427 30.6444906,3.99583767 L30.6444906,14.6514048 C30.6444906,15.3870182 30.048778,15.9833507 29.3139293,15.9833507 L25.5457796,15.9833507 C24.8109309,15.9833507 24.2152183,16.5796832 24.2152183,17.3152966 C24.2152183,18.05091 24.8109309,18.6472425 25.5457796,18.6472425 L29.3139293,18.6472425 C31.5184755,18.6472425 33.3056133,16.858245 33.3056133,14.6514048 L33.3056133,3.99583767 C33.3056133,1.78899746 31.5184755,-6.80967596e-15 29.3139293,-7.10542736e-15 L10.6860707,-7.10542736e-15 C8.48152449,-7.40117876e-15 6.69438669,1.78899746 6.69438669,3.99583767 L6.69438669,14.6514048 C6.69438669,16.858245 8.48152449,18.6472425 10.6860707,18.6472425 Z" id="Path" fill="#0D5FFF"></path>
            </g>
            <g id="切片" transform="translate(0.000000, 100.000000)"></g>
        </g>
    </g>
</svg>
