<?xml version="1.0" encoding="UTF-8"?>
<svg width="40px" height="33px" viewBox="0 0 40 33" version="1.1" xmlns="http://www.w3.org/2000/svg" xmlns:xlink="http://www.w3.org/1999/xlink">
    <!-- Generator: Sketch 54 (76480) - https://sketchapp.com -->
    <title>peiwangyindao</title>
    <desc>Created with Sketch.</desc>
    <g id="Page-1" stroke="none" stroke-width="1" fill="none" fill-rule="evenodd">
        <g id="home" transform="translate(-940.000000, -1623.000000)">
            <rect id="Rectangle-Copy-6" stroke="#EAEAEA" x="780.5" y="1589.5" width="359" height="225"></rect>
            <g id="peiwangyindao" transform="translate(940.000000, 1623.000000)" fill-rule="nonzero">
                <path d="M8.01670146,26.4727347 L17.3695198,26.4727347 C18.017877,26.4725685 18.5727809,26.941668 18.685595,27.5853061 C18.8178706,28.3557551 19.4485177,28.7194286 20.0631315,28.6924898 C20.6536952,28.7194286 21.2602923,28.3813469 21.4273069,27.6607347 C21.5929854,26.9455102 22.1341127,26.4727347 22.7139875,26.4727347 L32.0668058,26.4727347 C34.2805568,26.4727347 36.0751566,24.6635996 36.0751566,22.4319184 L36.0751566,4.04081633 C36.0751566,1.80913509 34.2805568,-2.84217094e-14 32.0668058,-2.84217094e-14 L22.7139875,-2.84217094e-14 C21.6931942,-2.84217094e-14 20.7832985,0.418897959 20.0831733,1.08293878 C19.347194,0.38871993 18.3774332,0.00171709804 17.3695198,-2.72253875e-14 L8.01670146,-2.72253875e-14 C5.80295048,-2.84217094e-14 4.00835073,1.80913509 4.00835073,4.04081633 L4.00835073,22.4319184 C4.00835073,24.6635996 5.80295048,26.4727347 8.01670146,26.4727347 Z M22.7139875,2.69387755 L32.0668058,2.69387755 C32.8047228,2.69387755 33.4029228,3.29692258 33.4029228,4.04081633 L33.4029228,22.4319184 C33.4029228,23.1758121 32.8047228,23.7788571 32.0668058,23.7788571 L22.7139875,23.7788571 C22.2463466,23.7788571 21.7960752,23.8650612 21.3778706,24.024 L21.3778706,4.31963265 C21.3778706,3.39428571 22.0071816,2.69387755 22.7139875,2.69387755 Z M6.68058455,4.04081633 C6.68058455,3.29692258 7.27878447,2.69387755 8.01670146,2.69387755 L17.3695198,2.69387755 C18.1074368,2.69387755 18.7056367,3.29692258 18.7056367,4.04081633 L18.7056367,24.0105306 C18.2764911,23.8577432 17.824642,23.7798511 17.3695198,23.7802041 L8.01670146,23.7802041 C7.27878447,23.7802041 6.68058455,23.1771591 6.68058455,22.4332653 L6.68058455,4.04081633 Z" id="Shape" fill="#333333"></path>
                <path d="M38.663215,6.73469388 C37.925298,6.73469388 37.3270981,7.33773891 37.3270981,8.08163265 L37.3270981,26.9387755 C37.3270981,27.6826693 36.7288982,28.2857143 35.9909812,28.2857143 L26.6381628,28.2857143 C25.2058974,28.2861027 23.8824431,29.0561144 23.165595,30.3061224 L16.833737,30.3061224 C16.1168889,29.0561144 14.7934345,28.2861027 13.3611691,28.2857143 L4.00835073,28.2857143 C3.27043374,28.2857143 2.67223382,27.6826693 2.67223382,26.9387755 L2.67223382,8.08163265 C2.67223382,7.33773891 2.0740339,6.73469388 1.33611691,6.73469388 C0.598199917,6.73469388 0,7.33773891 0,8.08163265 L0,26.9387755 C0,29.1704567 1.79459975,30.9795918 4.00835073,30.9795918 L13.3611691,30.9795918 C13.9744468,30.9795918 14.5048852,31.3998367 14.6558664,31.988449 C14.8077633,32.5840484 15.3405359,33.0003053 15.9505637,33 L24.0501044,33 C24.6593737,33 25.1924843,32.5837959 25.3448017,31.988449 C25.4976003,31.3944047 26.0294032,30.9795839 26.6381628,30.9795918 L35.9909812,30.9795918 C38.2047322,30.9795918 39.9993319,29.1704567 39.9993319,26.9387755 L39.9993319,8.08163265 C39.9993319,7.33773891 39.401132,6.73469388 38.663215,6.73469388 Z" id="Path" fill="#666666"></path>
                <path d="M10.0208768,8.75510204 L14.7453862,8.75510204 C15.4833032,8.75510204 16.0815031,8.15205701 16.0815031,7.40816327 C16.0815031,6.66426952 15.4833032,6.06122449 14.7453862,6.06122449 L10.0208768,6.06122449 C9.28295983,6.06122449 8.68475992,6.66426952 8.68475992,7.40816327 C8.68475992,8.15205701 9.28295983,8.75510204 10.0208768,8.75510204 Z M10.0208768,14.1428571 L14.7453862,14.1428571 C15.4833032,14.1428571 16.0815031,13.5398121 16.0815031,12.7959184 C16.0815031,12.0520246 15.4833032,11.4489796 14.7453862,11.4489796 L10.0208768,11.4489796 C9.28295983,11.4489796 8.68475992,12.0520246 8.68475992,12.7959184 C8.68475992,13.5398121 9.28295983,14.1428571 10.0208768,14.1428571 Z" id="Shape" fill="#0D5FFF"></path>
            </g>
            <g id="切片" transform="translate(0.000000, 100.000000)"></g>
        </g>
    </g>
</svg>
