<?xml version="1.0" encoding="UTF-8"?>
<svg width="48px" height="51px" viewBox="0 0 48 51" version="1.1" xmlns="http://www.w3.org/2000/svg" xmlns:xlink="http://www.w3.org/1999/xlink">
    <!-- Generator: Sketch 54 (76480) - https://sketchapp.com -->
    <title>strategic</title>
    <desc>Created with Sketch.</desc>
    <g id="Page-1" stroke="none" stroke-width="1" fill="none" fill-rule="evenodd">
        <g id="home" transform="translate(-546.000000, -2563.000000)">
            <path d="M593.37065,2577.76945 C596.519676,2593.08155 586.832052,2594.38153 586.739083,2599.83686 C586.664665,2604.17677 588.002089,2608.78603 589.136174,2611.88821 C589.510149,2612.91214 588.753079,2614 587.659348,2614 L567.056103,2614 C566.292011,2614 565.639021,2613.45188 565.506956,2612.69939 C565.269028,2611.34218 564.990224,2610.32874 564.749152,2609.61083 C562.120213,2610.9803 555.993952,2613.25663 553.810786,2611.28874 C552.245916,2609.87598 551.605504,2608.01468 550.449408,2598.52577 L549.15391,2598.34132 C546.583562,2597.97545 545.172244,2595.14764 546.51994,2592.89259 C550.740057,2585.51401 550.531058,2585.99076 550.520681,2585.63181 C550.162952,2573.34842 559.029883,2563.35321 572.936261,2563.0082 C582.65166,2562.76715 591.329088,2567.84268 593.37065,2577.76945 Z M583.594669,2599.78331 C583.726001,2592.01622 593.229571,2592.69577 590.291222,2578.40341 C588.569341,2570.03181 581.282687,2565.95108 572.92274,2566.17285 C560.699672,2566.497 553.361449,2575.17661 553.664047,2585.54052 C553.683961,2586.22279 553.530933,2586.90192 553.220684,2587.50663 C553.210203,2587.52864 553.198674,2587.5496 553.186096,2587.57056 L549.240905,2594.46768 C549.234616,2594.47816 549.228328,2594.48969 549.222039,2594.50017 C549.013983,2594.84455 549.266375,2595.18108 549.597272,2595.22855 L551.167382,2595.45178 C552.411522,2595.6289 553.38629,2596.62349 553.537222,2597.87169 C554.615756,2606.78208 555.184895,2608.22418 555.830548,2608.87186 C556.797979,2609.13178 561.006252,2608.36147 564.648531,2606.04531 C565.37489,2605.58313 566.338129,2605.79169 566.808743,2606.51274 C566.907268,2606.66365 567.698612,2607.93806 568.346361,2610.85579 L585.461403,2610.85579 C584.456239,2607.68968 583.528637,2603.67571 583.594669,2599.78331 Z M577.685268,2592.37905 C578.825642,2592.82132 579.635853,2593.93004 579.635853,2595.22446 L579.635853,2598.25328 C579.635853,2599.1221 578.932552,2599.82534 578.063646,2599.82534 L564.928383,2599.82534 C564.059477,2599.82534 563.356177,2599.1221 563.356177,2598.25328 L563.356177,2595.22446 C563.356177,2593.93014 564.166387,2592.82132 565.306761,2592.37905 L565.306761,2590.4601 C565.306761,2589.35966 565.96604,2588.4091 566.910412,2587.98569 L566.910412,2581.05609 L566.115924,2581.05609 C565.248066,2581.05609 564.543717,2580.35286 564.543717,2579.48404 C564.543717,2578.67013 564.543717,2572.7369 564.543717,2571.87845 C564.543717,2569.79863 567.68813,2569.80125 567.68813,2571.87845 L567.68813,2573.19164 L569.923808,2573.19164 L569.923808,2571.87845 C569.923808,2569.79821 573.068222,2569.80188 573.068222,2571.87845 L573.068222,2573.19164 L575.303899,2573.19164 L575.303899,2571.87845 C575.303899,2569.79821 578.448313,2569.80188 578.448313,2571.87845 C578.448313,2572.73679 578.448313,2578.66919 578.448313,2579.48404 C578.448313,2580.35286 577.743964,2581.05609 576.876106,2581.05609 L576.081618,2581.05609 L576.081618,2587.98569 C577.02599,2588.4091 577.685268,2589.35966 577.685268,2590.4601 L577.685268,2592.37905 Z M575.303899,2576.33564 L567.68813,2576.33564 L567.68813,2577.91188 L575.303899,2577.91188 L575.303899,2576.33564 Z M570.056922,2581.05609 L570.056922,2587.74779 L572.935108,2587.74779 L572.935108,2581.05609 L570.056922,2581.05609 Z M576.49144,2595.31669 C575.219524,2595.31669 567.586671,2595.31669 566.50059,2595.31669 L566.50059,2596.68123 L576.49144,2596.68123 L576.49144,2595.31669 Z M568.451175,2590.89189 L568.451175,2592.17259 L574.540855,2592.17259 L574.540855,2590.89189 L568.451175,2590.89189 Z" id="strategic" fill="#0D5FFF" fill-rule="nonzero"></path>
            <g id="切片" transform="translate(0.000000, 100.000000)"></g>
        </g>
    </g>
</svg>