<?xml version="1.0" encoding="UTF-8"?>
<svg width="35px" height="40px" viewBox="0 0 35 40" version="1.1" xmlns="http://www.w3.org/2000/svg" xmlns:xlink="http://www.w3.org/1999/xlink">
    <!-- Generator: Sketch 54 (76480) - https://sketchapp.com -->
    <title>wuguan</title>
    <desc>Created with Sketch.</desc>
    <g id="Page-1" stroke="none" stroke-width="1" fill="none" fill-rule="evenodd">
        <g id="home" transform="translate(-550.000000, -1613.000000)">
            <rect id="Rectangle-Copy-5" stroke="#EAEAEA" x="390.5" y="1589.5" width="359" height="225"></rect>
            <g id="wuguan" transform="translate(550.000000, 1613.000000)" fill-rule="nonzero">
                <path d="M16.9093333,0 C8.648,0 1.896,6.04133333 1.896,13.5733333 C1.896,14.5613333 2.01333333,15.536 2.24266667,16.484 L0.117333333,21.2426667 C-0.0534110743,21.6247544 -0.0348517192,22.0648406 0.167456104,22.4311959 C0.369763927,22.7975513 0.732343976,23.0476632 1.14666667,23.1066667 C3.408,23.4293333 4.34133333,24.4053333 4.34133333,26.328 L4.34133333,30.976 C4.34133333,32.4487593 5.53524067,33.6426667 7.008,33.6426667 L7.87066667,33.6426667 C9.343426,33.6426667 10.5373333,34.836574 10.5373333,36.3093333 L10.5373333,38.6666667 C10.5373333,39.4030463 11.134287,40 11.8706667,40 L26.2706667,40 C27.0070463,40 27.604,39.4030463 27.604,38.6666667 C27.604,37.930287 27.0070463,37.3333333 26.2706667,37.3333333 L13.204,37.3333333 L13.204,36.308 C13.204,33.3624813 10.8161853,30.9746667 7.87066667,30.9746667 L7.00666667,30.9746667 L7.00666667,26.3266667 C7.00666667,23.5906667 5.66533333,21.7146667 3.20666667,20.8626667 L4.868,17.1426667 C4.99573953,16.8570657 5.01886899,16.5356134 4.93333333,16.2346667 C4.68694075,15.3685859 4.56219034,14.4724471 4.56266667,13.572 C4.56266667,7.584 10.06,2.66533333 16.9093333,2.66533333 C23.7586667,2.66533333 29.256,7.58266667 29.256,13.572 C29.256,14.3083797 29.8529537,14.9053333 30.5893333,14.9053333 C31.325713,14.9053333 31.9226667,14.3083797 31.9226667,13.572 C31.9226667,6.04133333 25.1693333,0 16.9093333,0 Z" id="Shape" fill="#333333"></path>
                <path d="M33.6666667,17.3333333 C32.930287,17.3333333 32.3333333,17.930287 32.3333333,18.6666667 L32.3333333,33.6666667 C32.3333333,34.4030463 32.930287,35 33.6666667,35 C34.4030463,35 35,34.4030463 35,33.6666667 L35,18.6666667 C35,17.930287 34.4030463,17.3333333 33.6666667,17.3333333 Z" id="Path" fill="#0D5FFF"></path>
                <path d="M24.0786667,18.1106667 C23.5893333,17.0453333 22.0613333,17.084 21.628,18.1746667 L16.0946667,32.0813333 C15.8222062,32.7657982 16.1562018,33.5415395 16.8406667,33.814 C17.5251316,34.0864604 18.3008728,33.7524649 18.5733333,33.068 L19.932,29.6546667 C19.956,29.656 19.9773333,29.668 20.0013333,29.668 L26.4533333,29.668 L28.044,33.1306667 C28.3514385,33.7996676 29.1429991,34.0927718 29.812,33.7853333 C30.4810009,33.4778948 30.7741052,32.6863343 30.4666667,32.0173333 L24.0786667,18.1106667 L24.0786667,18.1106667 Z M20.9866667,27 L22.956,22.0533333 L25.228,27 L20.9866667,27 Z" id="Shape" fill="#0D5FFF"></path>
            </g>
            <g id="切片" transform="translate(0.000000, 100.000000)"></g>
        </g>
    </g>
</svg>
