<?xml version="1.0" encoding="UTF-8"?>
<svg width="37px" height="37px" viewBox="0 0 37 37" version="1.1" xmlns="http://www.w3.org/2000/svg" xmlns:xlink="http://www.w3.org/1999/xlink">
    <!-- Generator: Sketch 54 (76480) - https://sketchapp.com -->
    <title>yibiaopan</title>
    <desc>Created with Sketch.</desc>
    <defs>
        <rect id="path-1" x="780" y="1333" width="360" height="226"></rect>
        <filter x="-11.1%" y="-8.8%" width="122.2%" height="135.4%" filterUnits="objectBoundingBox" id="filter-2">
            <feOffset dx="0" dy="20" in="SourceAlpha" result="shadowOffsetOuter1"></feOffset>
            <feGaussianBlur stdDeviation="10" in="shadowOffsetOuter1" result="shadowBlurOuter1"></feGaussianBlur>
            <feComposite in="shadowBlurOuter1" in2="SourceAlpha" operator="out" result="shadowBlurOuter1"></feComposite>
            <feColorMatrix values="0 0 0 0 0.851958786   0 0 0 0 0.851958786   0 0 0 0 0.851958786  0 0 0 0.5 0" type="matrix" in="shadowBlurOuter1"></feColorMatrix>
        </filter>
    </defs>
    <g id="Page-1" stroke="none" stroke-width="1" fill="none" fill-rule="evenodd">
        <g id="home" transform="translate(-942.000000, -1363.000000)">
            <g id="Rectangle-Copy-3">
                <use fill="black" fill-opacity="1" filter="url(#filter-2)" xlink:href="#path-1"></use>
                <rect stroke="#EAEAEA" stroke-width="1" stroke-linejoin="square" fill="#FFFFFF" fill-rule="evenodd" x="780.5" y="1333.5" width="359" height="225"></rect>
            </g>
            <g id="yibiaopan" transform="translate(942.000000, 1363.000000)" fill-rule="nonzero">
                <path d="M36.9735714,19.0285714 C36.9788571,18.8515 37,18.6783929 37,18.5 C37,16.2866071 36.6115,14.1260714 35.8596071,12.0910714 C35.5966823,11.4218664 34.8469579,11.085689 34.172385,11.3345186 C33.497812,11.5833483 33.1459822,12.325856 33.3806071,13.0055 C33.9488214,14.5449643 34.2593571,16.1703214 34.3280714,17.8379643 L31.7142857,17.8379643 C30.9844809,17.8379643 30.3928571,18.429588 30.3928571,19.1593929 C30.3928571,19.8891977 30.9844809,20.4808214 31.7142857,20.4808214 L34.2197143,20.4808214 C33.2973571,27.87025 27.3007143,33.6713214 19.8214286,34.28975 L19.8214286,31.7142857 C19.8214286,30.9844809 19.2298048,30.3928571 18.5,30.3928571 C17.7701952,30.3928571 17.1785714,30.9844809 17.1785714,31.7142857 L17.1785714,34.28975 C9.69928571,33.6713214 3.70264286,27.87025 2.78028571,20.4821429 L5.28571429,20.4821429 C6.01551913,20.4821429 6.60714286,19.8905191 6.60714286,19.1607143 C6.60714286,18.4309094 6.01551913,17.8392857 5.28571429,17.8392857 L2.67589286,17.8392857 C3.00757143,9.83142857 9.25925,3.36435714 17.1785714,2.71025 L17.1785714,5.28571429 C17.1785714,6.01551913 17.7701952,6.60714286 18.5,6.60714286 C19.2298048,6.60714286 19.8214286,6.01551913 19.8214286,5.28571429 L19.8214286,2.71157143 C21.5934643,2.85825 23.31,3.28375 24.9155357,3.99467857 C25.347036,4.18587946 25.8477631,4.13235371 26.2290981,3.85426395 C26.6104331,3.5761742 26.814442,3.11576888 26.7642767,2.64647824 C26.7141114,2.17718759 26.4173931,1.77030803 25.9858929,1.57910714 C23.6287029,0.534344523 21.0783444,-0.00363931253 18.5,2.55858838e-15 C8.28271429,1.38492597e-15 0,8.28271429 0,18.5 C0,18.6783929 0.0211428571,18.8515 0.0264285714,19.0285714 C0.0224642857,19.0748214 0,19.1144643 0,19.1607143 C0,19.2386786 0.0317142857,19.3073929 0.0449285714,19.3813929 C0.507428571,29.1863929 8.58003571,37 18.5,37 C28.4199643,37 36.4925714,29.1863929 36.9550714,19.3813929 C36.9682857,19.3073929 37,19.2386786 37,19.1607143 C37,19.1144643 36.9775357,19.0748214 36.9735714,19.0285714 Z" id="Path" fill="#333333"></path>
                <path d="M32.5150714,4.07132143 L17.01075,10.7167857 C12.9931809,11.4822786 10.2177483,15.1789594 10.6036768,19.2505561 C10.9896052,23.3221528 14.4101551,26.4315441 18.5,26.4285714 C21.789206,26.426554 24.7353588,24.3932195 25.9039643,21.3186071 L34.1985714,5.91207143 C34.2104643,5.88960714 34.2091429,5.8645 34.2197143,5.84203571 C34.2593571,5.75878571 34.2778571,5.67025 34.299,5.58039286 C34.3175,5.50110714 34.3399643,5.42446429 34.3439286,5.34385714 C34.3478929,5.26325 34.3320357,5.18660714 34.3201429,5.106 C34.3069286,5.0135 34.2963571,4.92496429 34.2646429,4.83775 C34.2567143,4.81396429 34.2593571,4.78885714 34.2501071,4.76507143 C34.2276429,4.71089286 34.1840357,4.67521429 34.1549643,4.62632143 C34.1118665,4.54637982 34.060012,4.47147902 34.0003571,4.403 C33.9375749,4.33754182 33.8675263,4.27946355 33.7915714,4.22989286 C33.7453214,4.19685714 33.7136071,4.15060714 33.6620714,4.12285714 C33.6396071,4.11096429 33.6145,4.11228571 33.5920357,4.10171429 C33.5087857,4.06207143 33.42025,4.04357143 33.3303929,4.02242857 C33.2511071,4.00392857 33.1744643,3.98146429 33.0938571,3.9775 C33.01325,3.97353571 32.9366071,3.98939286 32.856,4.00128571 C32.7635,4.0145 32.6749643,4.02507143 32.58775,4.05678571 C32.5639643,4.06471429 32.5388571,4.06075 32.5150714,4.07132143 L32.5150714,4.07132143 Z M22.0652143,11.4250714 L30.0783571,7.99067857 L25.9171786,15.7183929 C25.2166317,13.8551093 23.8418915,12.3228517 22.0652143,11.4250714 L22.0652143,11.4250714 Z" id="Shape" fill="#0D5FFF"></path>
            </g>
        </g>
    </g>
</svg>
