<?xml version="1.0" encoding="UTF-8"?>
<svg width="38px" height="38px" viewBox="0 0 38 38" version="1.1" xmlns="http://www.w3.org/2000/svg" xmlns:xlink="http://www.w3.org/1999/xlink">
    <!-- Generator: Sketch 54 (76480) - https://sketchapp.com -->
    <title>yunyingguanli</title>
    <desc>Created with Sketch.</desc>
    <g id="Page-1" stroke="none" stroke-width="1" fill="none" fill-rule="evenodd">
        <g id="home" transform="translate(-552.000000, -1359.000000)">
            <rect id="Rectangle" stroke="#EAEAEA" x="390.5" y="1333.5" width="359" height="225"></rect>
            <g id="yunyingguanli" transform="translate(552.000000, 1359.000000)" fill-rule="nonzero">
                <path d="M35.3523996,2.65805993 C31.8123685,-0.881971143 25.5825616,-0.763205327 19.0045549,2.49610655 C12.4278979,-0.763205327 6.1967414,-0.881971143 2.65671032,2.65805993 C-0.285442841,5.6002131 -0.69572475,10.3994317 1.11140511,15.7047547 C0.0147293897,17.3317704 0.245858985,19.5115616 1.65934739,20.8724173 C-0.699773585,26.6460555 -0.595853496,32.0984861 2.65805993,35.3523996 C6.19809101,38.8924306 12.4305971,38.7750144 19.0126526,35.5116537 C25.4570477,38.703485 31.7502863,38.9545128 35.3523996,35.3523996 C38.9558624,31.7489367 38.7021354,25.4529989 35.5076049,19.0059046 C38.7021354,12.5574606 38.9558624,6.26152275 35.3523996,2.65805993 Z M33.4440488,33.4440488 C29.3776693,37.5104284 19.4148368,34.6843418 11.3711521,26.6393074 C11.030258,26.2984134 10.5333942,26.1652791 10.0677243,26.290055 C9.60205436,26.4148309 9.23832477,26.7785605 9.11354889,27.2442304 C8.98877302,27.7099003 9.1219073,28.2067641 9.46280133,28.5476582 C11.4716519,30.563079 13.6977064,32.3496258 16.1001909,33.8745749 C11.1552142,35.8949434 6.85940067,35.7356892 4.56641065,33.4426992 C2.21403774,31.0903263 2.18164706,26.7634717 4.11699001,21.9790988 C4.23575583,21.9898957 4.3491232,22.0155383 4.47058824,22.0155383 C6.70669786,22.0155383 8.51942286,20.2028133 8.51942286,17.9667037 C8.51942286,17.0800089 8.22655716,16.2675427 7.74339623,15.6008346 C8.8437638,14.1010841 10.0565072,12.6871191 11.3711521,11.3711521 C11.7120461,11.030258 11.8451804,10.5333942 11.7204045,10.0677243 C11.5956286,9.60205434 11.231899,9.23832474 10.7662291,9.11354887 C10.3005592,8.988773 9.80369535,9.12190729 9.46280133,9.46280133 C8.03208089,10.896333 6.71409778,12.438116 5.52058602,14.074424 C5.17930692,13.9748594 4.82606798,13.9221913 4.47058824,13.917869 C4.11766521,13.9228608 3.76692231,13.9741337 3.42733851,14.0703751 C2.21673696,10.0026459 2.59327858,6.53954273 4.56641065,4.56641065 C7.19680355,1.93601776 12.4643374,2.11281687 18.3203019,5.16698779 C18.5366288,5.2731991 18.7780973,5.31756952 19.0180511,5.29520089 C19.251073,5.31256221 19.4845032,5.26736715 19.6942064,5.16428857 C25.5488213,2.11281687 30.8136559,1.93601776 33.4440488,4.56641065 C35.805869,6.92823085 35.8288124,11.2807281 33.8678269,16.089394 C33.0034756,14.7287036 32.0513296,13.4258145 31.0174473,12.1890166 C31.292768,11.7004573 31.4628191,11.1444173 31.4628191,10.5438402 C31.4628191,8.68041549 29.9522149,7.16981132 28.0887902,7.16981132 C26.2253655,7.16981132 24.7147614,8.68041549 24.7147614,10.5438402 C24.7147614,12.4072649 26.2253655,13.917869 28.0887902,13.917869 C28.3573629,13.917869 28.6151387,13.8787303 28.8648169,13.8193474 C30.2257476,15.4307521 31.4317844,17.1668305 32.4669301,19.0045549 C31.1375627,21.394717 29.3466282,23.8159201 27.1454118,26.1048613 C27.0104506,26.0886659 26.8781887,26.0643729 26.7391787,26.0643729 C25.1867319,26.0625402 23.8333946,27.1202715 23.460139,28.6271804 C23.0868834,30.1340893 23.7900549,31.7012101 25.1638732,32.424202 C26.5376916,33.147194 28.2275446,32.8394373 29.2582665,31.6785296 C30.2889883,30.5176219 30.3945273,28.8032185 29.51398,27.5246526 C31.1368611,25.7966747 32.5944965,23.9206355 33.8678269,21.9210655 C35.8274628,26.7283818 35.805869,31.0822286 33.4440488,33.4440488 L33.4440488,33.4440488 Z" id="Shape" fill="#333333"></path>
                <path d="M19.3163152,13.917869 C16.3348357,13.917869 13.917869,16.3348357 13.917869,19.3163152 C13.917869,22.2977947 16.3348357,24.7147614 19.3163152,24.7147614 C22.2977947,24.7147614 24.7147614,22.2977947 24.7147614,19.3163152 C24.7147614,16.3348357 22.2977947,13.917869 19.3163152,13.917869 Z M19.3163152,22.0155383 C18.3517346,22.0152972 17.4605539,21.5004768 16.9784724,20.665005 C16.4963908,19.8295331 16.4966481,18.8003378 16.9791472,17.965107 C17.4616463,17.1298762 18.3530842,16.6155014 19.3176648,16.6157425 C20.8087772,16.6161152 22.0172606,17.8252028 22.0168879,19.3163152 C22.0165152,20.8074276 20.8074276,22.015911 19.3163152,22.0155383 Z" id="Shape" fill="#0D5FFF"></path>
            </g>
            <g id="切片" transform="translate(0.000000, 100.000000)"></g>
        </g>
    </g>
</svg>
