<?xml version="1.0" encoding="UTF-8"?>
<svg width="74px" height="80px" viewBox="0 0 74 80" version="1.1" xmlns="http://www.w3.org/2000/svg" xmlns:xlink="http://www.w3.org/1999/xlink">
    <!-- Generator: Sketch 54 (76480) - https://sketchapp.com -->
    <title>diagram</title>
    <desc>Created with Sketch.</desc>
    <g id="Page-1" stroke="none" stroke-width="1" fill="none" fill-rule="evenodd">
        <g id="MIKA-1" transform="translate(-540.000000, -1646.000000)" fill-rule="nonzero">
            <g id="diagram" transform="translate(540.000000, 1646.000000)">
                <path d="M37.3854167,31.5384615 C33.7163299,31.5384615 30.8333333,28.6314746 30.8333333,24.931504 C30.8333333,24.1386753 31.3574447,23.6101745 32.1436886,23.6101745 C32.9299324,23.6101745 33.4540438,24.1386753 33.4540438,24.931504 C33.4540438,27.1779037 35.157521,28.8956476 37.3852631,28.8956476 C38.5646289,28.8956476 39.6130052,28.3671467 40.3992491,27.4420767 C40.792371,27.0456623 40.9233605,26.5171615 40.792371,25.9885058 C40.792371,25.4600049 40.3992491,24.9313492 40.0061271,24.5349348 L33.1920649,19.1172204 C32.1436886,18.3243917 31.4885877,17.1351486 31.3574447,15.8138191 C31.2263017,14.4924895 31.6195772,13.3032465 32.405821,12.3781764 C33.7163299,10.9249152 35.419807,10 37.3854167,10 C41.0545035,10 43.9375,12.906987 43.9375,16.6069575 C43.9375,17.3997862 43.4133886,17.9282871 42.6271448,17.9282871 C41.8409009,17.9282871 41.3167895,17.3997862 41.3167895,16.6069575 C41.3167895,14.3605579 39.6133123,12.642814 37.3855702,12.642814 C36.2062044,12.642814 35.1578281,13.1713148 34.3715843,14.0963849 C33.9784623,14.4927992 33.8474729,15.0213001 33.9784623,15.5499558 C33.9784623,16.0784566 34.3715843,16.6071123 34.7647062,17.0035267 L41.5787684,22.4212411 C42.6271448,23.2140698 43.2822456,24.4033129 43.4133886,25.7246425 C43.5443781,27.045972 43.1512561,28.2352151 42.3650123,29.1602851 C41.1856465,30.7456328 39.3510263,31.5384615 37.3854167,31.5384615 Z" id="Path" fill="#0D5FFF"></path>
                <path d="M37.3854167,33.8461538 C36.6916396,33.8461538 36.2291667,33.323126 36.2291667,32.5385075 L36.2291667,8.99995403 C36.2291667,8.21533558 36.6916396,7.69230769 37.3854167,7.69230769 C38.0791938,7.69230769 38.5416667,8.21533558 38.5416667,8.99995403 L38.5416667,32.5385075 C38.5416667,33.3229727 38.0791938,33.8461538 37.3854167,33.8461538 Z" id="Path" fill="#0D5FFF"></path>
                <path d="M37.3854167,66.1538462 C36.6916396,66.1538462 36.2291667,65.6308183 36.2291667,64.8461998 L36.2291667,41.3076463 C36.2291667,40.5230279 36.6916396,40 37.3854167,40 C38.0791938,40 38.5416667,40.5230279 38.5416667,41.3076463 L38.5416667,64.8461998 C38.5416667,65.630665 38.0791938,66.1538462 37.3854167,66.1538462 Z" id="Path" fill="#333333"></path>
                <path d="M64.9776447,66.1538462 C64.1892932,66.1538462 63.6637768,65.6308244 63.6637768,64.8462151 L63.6637768,63.5384309 C63.6637768,59.22308 60.1161947,55.6923383 55.780261,55.6923383 L18.9904183,55.6923383 C14.6544847,55.6923383 11.1069026,59.22308 11.1069026,63.5384309 L11.1069026,64.8460619 C11.1069026,65.6306712 10.5813862,66.1536929 9.79303463,66.1536929 C9.00468306,66.1536929 8.47916667,65.6306712 8.47916667,64.8460619 L8.47916667,63.5384309 C8.47916667,57.7845786 13.2092761,53.0769231 18.9905723,53.0769231 L55.780261,53.0769231 C61.5615572,53.0769231 66.2916667,57.7845786 66.2916667,63.5384309 L66.2916667,64.8460619 C66.2915127,65.6306712 65.7659963,66.1538462 64.9776447,66.1538462 Z" id="Path" fill="#333333"></path>
                <path d="M17.1786157,80 L1.32138433,80 C0.52852276,80 0,79.4615858 0,78.6538856 L0,65.1922683 C0,64.3845681 0.52852276,63.8461538 1.32138433,63.8461538 L17.1786157,63.8461538 C17.9714772,63.8461538 18.5,64.3845681 18.5,65.1922683 L18.5,78.6538856 C18.5,79.4615858 17.9714772,80 17.1786157,80 Z M2.64276865,77.3076134 L15.8570765,77.3076134 L15.8570765,66.5382249 L2.64276865,66.5382249 L2.64276865,77.3076134 Z" id="Shape" fill="#333333"></path>
                <path d="M44.9286157,80 L29.0713843,80 C28.2785228,80 27.75,79.4615858 27.75,78.6538856 L27.75,65.1922683 C27.75,64.3845681 28.2785228,63.8461538 29.0713843,63.8461538 L44.9286157,63.8461538 C45.7214772,63.8461538 46.25,64.3845681 46.25,65.1922683 L46.25,78.6538856 C46.25,79.4615858 45.7214772,80 44.9286157,80 Z M30.3927687,77.3076134 L43.6070765,77.3076134 L43.6070765,66.5382249 L30.3927687,66.5382249 L30.3927687,77.3076134 Z" id="Shape" fill="#333333"></path>
                <path d="M72.6786157,80 L56.8213843,80 C56.0285228,80 55.5,79.4615858 55.5,78.6538856 L55.5,65.1922683 C55.5,64.3845681 56.0285228,63.8461538 56.8213843,63.8461538 L72.6786157,63.8461538 C73.4714772,63.8461538 74,64.3845681 74,65.1922683 L74,78.6538856 C74,79.4615858 73.4714772,80 72.6786157,80 Z M58.1427687,77.3076134 L71.3570765,77.3076134 L71.3570765,66.5382249 L58.1427687,66.5382249 L58.1427687,77.3076134 Z" id="Shape" fill="#333333"></path>
                <path d="M37.3854167,42.3076923 C25.7265858,42.3076923 16.1875,32.7884732 16.1875,21.1539236 C16.1875,9.51937408 25.7265858,0 37.3854167,0 C49.0442475,0 58.5833333,9.51921915 58.5833333,21.1537687 C58.5833333,32.7883182 49.0442475,42.3076923 37.3854167,42.3076923 Z M37.3854167,2.64427919 C27.1838426,2.64427919 18.8371425,10.9735959 18.8371425,21.1539236 C18.8371425,31.3342513 27.1838426,39.6634131 37.3854167,39.6634131 C47.5869907,39.6634131 55.9336908,31.3340964 55.9336908,21.1537687 C55.9336908,10.973441 47.5869907,2.64427919 37.3854167,2.64427919 Z" id="Shape" fill="#333333"></path>
                <path d="M11.8196201,72.3076923 L6.68053046,72.3076923 C5.90968207,72.3076923 5.39583333,71.8461809 5.39583333,71.1538462 C5.39583333,70.4615114 5.90968207,70 6.68053046,70 L11.8194695,70 C12.5903179,70 13.1041667,70.4615114 13.1041667,71.1538462 C13.1041667,71.8461809 12.5904685,72.3076923 11.8196201,72.3076923 Z" id="Path" fill="#333333"></path>
                <path d="M39.5694695,72.3076923 L34.4305305,72.3076923 C33.6596821,72.3076923 33.1458333,71.8461809 33.1458333,71.1538462 C33.1458333,70.4615114 33.6596821,70 34.4305305,70 L39.5694695,70 C40.3403179,70 40.8541667,70.4615114 40.8541667,71.1538462 C40.8541667,71.8461809 40.3403179,72.3076923 39.5694695,72.3076923 Z" id="Path" fill="#333333"></path>
                <path d="M67.3194695,72.3076923 L62.1805305,72.3076923 C61.4096821,72.3076923 60.8958333,71.8461809 60.8958333,71.1538462 C60.8958333,70.4615114 61.4096821,70 62.1805305,70 L67.3194695,70 C68.0903179,70 68.6041667,70.4615114 68.6041667,71.1538462 C68.6041667,71.8461809 68.0903179,72.3076923 67.3194695,72.3076923 Z" id="Path" fill="#333333"></path>
            </g>
        </g>
    </g>
</svg>