<?xml version="1.0" encoding="UTF-8"?>
<svg width="103px" height="94px" viewBox="0 0 103 94" version="1.1" xmlns="http://www.w3.org/2000/svg" xmlns:xlink="http://www.w3.org/1999/xlink">
    <!-- Generator: Sketch 54 (76480) - https://sketchapp.com -->
    <title>2</title>
    <desc>Created with Sketch.</desc>
    <g id="Page-1" stroke="none" stroke-width="1" fill="none" fill-rule="evenodd">
        <g id="MIKA-1" transform="translate(-897.000000, -1931.000000)">
            <g id="2" transform="translate(897.000000, 1931.000000)">
                <path d="M55.5933485,34 L16.8556311,34 C15.9987528,34 15.3061224,34.672 15.3061224,35.5 C15.3061224,36.328 15.9987528,37 16.8556311,37 L55.5933485,37 C56.4502268,37 57.1428571,36.328 57.1428571,35.5 C57.1428571,34.672 56.4502268,34 55.5933485,34 Z" id="Path" fill="#000000" fill-rule="nonzero"></path>
                <path d="M16.8367347,25 L32.1428571,25 C32.9892857,25 33.6734694,24.328 33.6734694,23.5 C33.6734694,22.672 32.9892857,22 32.1428571,22 L16.8367347,22 C15.9903061,22 15.3061224,22.672 15.3061224,23.5 C15.3061224,24.328 15.9903061,25 16.8367347,25 Z" id="Path" fill="#000000" fill-rule="nonzero"></path>
                <path d="M57.1428571,47.5 C57.1428571,46.672 56.4502268,46 55.5933485,46 L16.8556311,46 C15.9987528,46 15.3061224,46.672 15.3061224,47.5 C15.3061224,48.328 15.9987528,49 16.8556311,49 L55.5933485,49 C56.4502268,49 57.1428571,48.328 57.1428571,47.5 Z" id="Path" fill="#000000" fill-rule="nonzero"></path>
                <path d="M44.8979592,59.5 C44.8979592,58.672 44.2017723,58 43.3404941,58 L16.8635875,58 C16.0023093,58 15.3061224,58.672 15.3061224,59.5 C15.3061224,60.328 16.0023093,61 16.8635875,61 L43.3404941,61 C44.2017723,61 44.8979592,60.328 44.8979592,59.5 Z" id="Path" fill="#000000" fill-rule="nonzero"></path>
                <path d="M16.9005102,71 C16.0188138,71 15.3061224,71.672 15.3061224,72.5 C15.3061224,73.328 16.0188138,74 16.9005102,74 L39.2219388,74 C40.1036352,74 40.8163265,73.328 40.8163265,72.5 C40.8163265,71.672 40.1036352,71 39.2219388,71 L16.9005102,71 Z" id="Path" fill="#000000" fill-rule="nonzero"></path>
                <path d="M3.12635693,3.06666667 L48.4585323,3.06666667 L48.4585323,24.5333333 L70.3430308,24.5333333 L70.3430308,47.5333333 L73.4693878,47.5333333 L73.4693878,22.3652 L50.6688667,0 L0,0 L0,92 L57.8376031,92 L57.8376031,88.9333333 L3.12635693,88.9333333 L3.12635693,3.06666667 Z M51.5848893,5.2348 L68.1326965,21.4666667 L51.5848893,21.4666667 L51.5848893,5.2348 Z" id="Shape" fill="#000000" fill-rule="nonzero"></path>
                <polygon id="Star" stroke="#21B3A7" stroke-width="3" points="79.5918367 85 67.5962193 91.1803399 69.8871784 78.0901699 60.1825201 68.8196601 73.594028 66.9098301 79.5918367 55 85.5896454 66.9098301 99.0011534 68.8196601 89.2964951 78.0901699 91.5874541 91.1803399"></polygon>
            </g>
        </g>
    </g>
</svg>