<?xml version="1.0" encoding="UTF-8"?>
<svg width="68px" height="80px" viewBox="0 0 68 80" version="1.1" xmlns="http://www.w3.org/2000/svg" xmlns:xlink="http://www.w3.org/1999/xlink">
    <!-- Generator: Sketch 54 (76480) - https://sketchapp.com -->
    <title>knowledge (1)</title>
    <desc>Created with Sketch.</desc>
    <g id="Page-1" stroke="none" stroke-width="1" fill="none" fill-rule="evenodd">
        <g id="MIKA-1" transform="translate(-1323.000000, -1646.000000)" fill-rule="nonzero">
            <g id="knowledge-(1)" transform="translate(1323.000000, 1646.000000)">
                <g id="Group" fill="#333333">
                    <path d="M67.7090323,29.6645161 C67.7090323,13.5148387 54.5748387,0.209032258 38.4316129,0.00258064516 C38.3051613,0.00129032258 38.18,0 38.056129,0 C24.1180645,0 11.9322581,9.92903226 8.99935484,23.7393548 C8.27548387,27.1509677 8.18516129,30.6658065 8.7283871,34.196129 L0.00580645161,49.7974194 L9.6483871,52.5832258 L9.66903226,68.3625806 L22.5709677,68.3625806 L22.5709677,79.9754839 L25.1516129,79.9754839 L25.1516129,65.7819355 L12.2470968,65.7819355 L12.2264516,50.6425806 L3.84451613,48.2193548 L11.4225806,34.6670968 L11.3464516,34.2180645 C10.7774194,30.8580645 10.8354839,27.5122581 11.5245161,24.276129 C14.2290323,11.5419355 25.4987097,2.45419355 38.3980645,2.58322581 C53.1374194,2.7716129 65.1283871,14.9212903 65.1283871,29.6658065 L65.1309677,34.3754839 C65.1387097,44.7122581 60.0483871,54.3896774 51.5154839,60.2632258 L50.9567742,60.6477419 L50.9567742,79.9754839 L53.5374194,79.9754839 L53.5374194,61.996129 C62.4341935,55.6064516 67.7193548,45.3329032 67.7116129,34.3729032 L67.7090323,29.6645161 Z" id="Path"></path>
                    <polygon id="Path" points="46.4406452 9.19225806 39.3245161 4.92258065 32.2083871 9.19225806 33.5374194 11.4051613 38.0341935 8.70580645 38.0341935 41.2658065 40.6148387 41.2658065 40.6148387 8.70580645 45.1116129 11.4051613"></polygon>
                    <rect id="Rectangle" x="38.0341935" y="43.8464516" width="2.58064516" height="2.58064516"></rect>
                    <rect id="Rectangle" x="38.0341935" y="49.0077419" width="2.58064516" height="2.58064516"></rect>
                    <rect id="Rectangle" x="38.0341935" y="54.1690323" width="2.58064516" height="2.58064516"></rect>
                    <polygon id="Path" points="27.7116129 23.2012903 25.1309677 23.2012903 25.1309677 27.0722581 21.26 27.0722581 21.26 29.6529032 25.1309677 29.6529032 25.1309677 33.523871 27.7116129 33.523871 27.7116129 29.6529032 31.5825806 29.6529032 31.5825806 27.0722581 27.7116129 27.0722581"></polygon>
                    <polygon id="Path" points="21.26 46.4270968 21.26 42.556129 25.1309677 42.556129 25.1309677 39.9754839 21.26 39.9754839 21.26 36.1045161 18.6793548 36.1045161 18.6793548 39.9754839 14.8083871 39.9754839 14.8083871 42.556129 18.6793548 42.556129 18.6793548 46.4270968"></polygon>
                    <polygon id="Path" points="52.2277419 24.4916129 52.2277419 20.6206452 56.0987097 20.6206452 56.0987097 18.04 52.2277419 18.04 52.2277419 14.1690323 49.6470968 14.1690323 49.6470968 18.04 45.776129 18.04 45.776129 20.6206452 49.6470968 20.6206452 49.6470968 24.4916129"></polygon>
                    <polygon id="Path" points="54.8083871 41.2658065 57.3890323 41.2658065 57.3890323 37.3948387 61.26 37.3948387 61.26 34.8141935 57.3890323 34.8141935 57.3890323 30.9432258 54.8083871 30.9432258 54.8083871 34.8141935 50.9374194 34.8141935 50.9374194 37.3948387 54.8083871 37.3948387"></polygon>
                </g>
                <g id="Group" transform="translate(34.032258, 12.903226)" fill="#21B3A7">
                    <rect id="Rectangle" x="7.87290323" y="0" width="2.58064516" height="2.58064516"></rect>
                    <rect id="Rectangle" x="7.87290323" y="5.16129032" width="2.58064516" height="2.58064516"></rect>
                    <rect id="Rectangle" x="7.87290323" y="10.3225806" width="2.58064516" height="2.58064516"></rect>
                    <rect id="Rectangle" x="7.87290323" y="15.483871" width="2.58064516" height="2.58064516"></rect>
                    <rect id="Rectangle" x="7.87290323" y="20.6451613" width="2.58064516" height="2.58064516"></rect>
                    <rect id="Rectangle" x="7.87290323" y="25.8064516" width="2.58064516" height="2.58064516"></rect>
                    <rect id="Rectangle" x="7.87290323" y="30.9677419" width="2.58064516" height="2.58064516"></rect>
                    <rect id="Rectangle" x="7.87290323" y="36.1290323" width="2.58064516" height="2.58064516"></rect>
                    <rect id="Rectangle" x="7.87290323" y="41.2903226" width="2.58064516" height="2.58064516"></rect>
                    <rect id="Rectangle" x="7.87290323" y="46.4516129" width="2.58064516" height="2.58064516"></rect>
                    <rect id="Rectangle" x="0.130967742" y="2.58064516" width="2.58064516" height="2.58064516"></rect>
                    <rect id="Rectangle" x="0.130967742" y="7.74193548" width="2.58064516" height="2.58064516"></rect>
                    <rect id="Rectangle" x="0.130967742" y="12.9032258" width="2.58064516" height="2.58064516"></rect>
                    <rect id="Rectangle" x="0.130967742" y="18.0645161" width="2.58064516" height="2.58064516"></rect>
                    <rect id="Rectangle" x="0.130967742" y="23.2258065" width="2.58064516" height="2.58064516"></rect>
                    <rect id="Rectangle" x="0.130967742" y="28.3870968" width="2.58064516" height="2.58064516"></rect>
                    <rect id="Rectangle" x="0.130967742" y="33.5483871" width="2.58064516" height="2.58064516"></rect>
                    <rect id="Rectangle" x="0.130967742" y="38.7096774" width="2.58064516" height="2.58064516"></rect>
                    <rect id="Rectangle" x="0.130967742" y="43.8709677" width="2.58064516" height="2.58064516"></rect>
                </g>
            </g>
        </g>
    </g>
</svg>