<?xml version="1.0" encoding="UTF-8"?>
<svg width="159px" height="100px" viewBox="0 0 159 100" version="1.1" xmlns="http://www.w3.org/2000/svg" xmlns:xlink="http://www.w3.org/1999/xlink">
    <!-- Generator: Sketch 54 (76480) - https://sketchapp.com -->
    <title>Group 3</title>
    <desc>Created with Sketch.</desc>
    <defs>
        <linearGradient x1="100%" y1="50%" x2="-57.494213%" y2="50%" id="linearGradient-1">
            <stop stop-color="#80DCC5" offset="0%"></stop>
            <stop stop-color="#0D5FFF" offset="100%"></stop>
        </linearGradient>
        <ellipse id="path-2" cx="102.816254" cy="33.7078652" rx="7.86572438" ry="7.86516854"></ellipse>
        <filter x="-44.5%" y="-31.8%" width="189.0%" height="189.0%" filterUnits="objectBoundingBox" id="filter-3">
            <feOffset dx="0" dy="2" in="SourceAlpha" result="shadowOffsetOuter1"></feOffset>
            <feGaussianBlur stdDeviation="2" in="shadowOffsetOuter1" result="shadowBlurOuter1"></feGaussianBlur>
            <feColorMatrix values="0 0 0 0 0.314369351   0 0 0 0 0.8883757   0 0 0 0 0.759899616  0 0 0 1 0" type="matrix" in="shadowBlurOuter1"></feColorMatrix>
        </filter>
    </defs>
    <g id="Page-1" stroke="none" stroke-width="1" fill="none" fill-rule="evenodd">
        <g id="MIKA-1" transform="translate(-1338.000000, -1423.000000)">
            <g id="Group-3" transform="translate(1338.000000, 1423.000000)">
                <g id="profits" fill="#333333" fill-rule="nonzero">
                    <path d="M102.79299,87.5470552 L102.79299,79.9294414 C102.796436,79.8319787 102.788681,79.7345161 102.770586,79.6379159 C102.780926,79.5896159 102.788681,79.5395907 102.79299,79.4904281 L102.79299,31.0497527 C102.824009,30.8850151 102.824009,30.7159645 102.79299,30.5520893 L102.79299,13.0260575 C102.79299,12.4878566 102.468142,12.0022681 101.970101,11.7987178 C101.471198,11.5951674 100.899915,11.7141927 100.523368,12.0988683 L89.1046056,23.7797271 L78.8577054,17.3799654 C78.3019324,17.0315148 77.5738269,17.1445026 77.149027,17.6447535 L67.1244356,29.4558498 L63.1978358,27.8015719 C62.6205213,27.5574839 61.9510089,27.7532718 61.595142,28.2699103 L55.1507619,37.6125273 L44.3515353,26.5725072 C44.0215182,26.2344066 43.5364019,26.0981313 43.0788586,26.2154315 C42.6213153,26.3318692 42.2602783,26.6837699 42.1318905,27.1391707 L37.2850343,44.2339517 L34.7198626,42.6288364 C34.1459947,42.2708982 33.3946243,42.4028608 32.9775793,42.9358867 L26.564219,51.1279267 L17.7244147,41.8361974 C17.4107695,41.5058592 16.9497796,41.360959 16.5034378,41.4506591 C16.0467564,41.5394968 15.6641779,41.8508598 15.4849519,42.2812482 L10.1469475,56.3046612 L10.1469475,1.21927369 C10.1624573,0.888935531 10.0357929,0.566360056 9.79969708,0.334346969 C9.56360144,0.102334104 9.23961602,-0.0184161154 8.9087373,0.00228392213 L1.2985267,0.00228392213 C0.567836195,0.00228392213 0,0.488734805 0,1.21927369 L0,87.5470552 C0,88.2784565 0.567836195,88.7640449 1.29938831,88.7640449 L101.493601,88.7640449 C102.225153,88.7640449 102.79299,88.2784565 102.79299,87.5470552 Z M10.1469475,78.6072265 L10.1469475,78.1035256 L15.6512529,67.8526946 L24.0809053,69.6725728 C24.6366781,69.7924605 25.207961,69.5475101 25.5043732,69.0619216 L32.8741797,56.8514871 L39.5710271,61.8238085 C40.1405865,62.2455719 40.9402101,62.1455215 41.3874134,61.5952457 L52.7587844,47.6071952 L64.1689305,56.2313484 C64.7376283,56.6608743 65.5432833,56.5634114 65.9930717,56.010548 L73.1121341,47.2759946 L80.4914191,51.9757658 C80.8171277,52.1827661 81.2169395,52.2379662 81.5865931,52.1258409 C81.9562466,52.0137158 82.2578288,51.7454778 82.4137899,51.3927147 L88.4402633,37.7030899 L94.035905,40.6079951 C94.5977094,40.8995206 95.2879017,40.752033 95.681682,40.2552321 L100.14596,34.6291343 L100.14596,78.6072265 L10.1469475,78.6072265 Z M17.2168951,45.1904659 L25.6818757,54.0664696 C25.9515765,54.3450576 26.3281233,54.4942703 26.7150101,54.4761579 C27.1001737,54.4571827 27.4586256,54.2726073 27.6981679,53.9698694 L34.3252207,45.5078665 L37.3763705,47.4148575 C37.7296526,47.6356579 38.1656542,47.677058 38.5542644,47.5278452 C38.9428746,47.3777699 39.238425,47.0534693 39.3513029,46.6524061 L44.0559847,30.0596009 L54.3821582,40.61317 C54.658752,40.8960706 55.0473623,41.0401084 55.4402807,41.0064708 C55.8340611,40.9728334 56.192513,40.7649703 56.4174071,40.4398073 L63.1625077,30.6616271 L66.9900161,32.2745049 C67.5225242,32.4987553 68.1386135,32.3521302 68.5125753,31.9113918 L78.4260119,20.2322582 L88.6048411,26.5914822 C89.1321788,26.9209576 89.8172013,26.8390202 90.2514796,26.3948318 L100.14596,16.2742383 L100.14596,30.3683766 L94.286649,37.7539773 L88.4057968,34.7015844 C88.0809498,34.5333966 87.7018179,34.506659 87.3562908,34.6282716 C87.0116254,34.7498845 86.7324465,35.008635 86.5851022,35.3432856 L80.6111902,48.9121602 L73.5412425,44.4081769 C72.9751298,44.0476514 72.2289292,44.1675392 71.8049908,44.6876274 L64.7462448,53.3480056 L53.3352372,44.7229899 C52.7674012,44.2934643 51.9608843,44.3909269 51.5110959,44.9437903 L40.1345548,58.9413284 L33.2877781,53.8560192 C32.9879192,53.6334937 32.6087873,53.5481059 32.2434421,53.6196936 C31.8772352,53.6921438 31.5584197,53.9155317 31.3662687,54.2346574 L23.7379632,66.8832428 L15.2764293,65.0504268 C14.6861899,64.9253641 14.0830256,65.1970522 13.7857518,65.7214531 L10.1469475,72.4722529 L10.1469475,63.7972121 L17.2168951,45.1904659 Z M100.14596,86.1144401 L2.64702977,86.1144401 L2.64702977,2.65188873 L7.49991769,2.65188873 L7.49991769,79.930304 C7.54041592,80.6780927 8.16081352,81.2628689 8.9087373,81.2568313 L100.14596,81.2568313 L100.14596,86.1144401 Z" id="Shape"></path>
                </g>
                <g id="search" transform="translate(76.409894, 17.415730)" fill-rule="nonzero">
                    <path d="M82.590106,76.0516933 L58.2074898,51.6708002 C62.2548316,46.2701058 64.6835447,39.5912318 64.6835447,32.3394869 C64.6835447,14.5065698 50.1759497,0 32.3417724,0 C14.507595,0 0,14.5065698 0,32.3394869 C0,50.1724039 14.507595,64.6789738 32.3417724,64.6789738 C39.5940298,64.6789738 46.2733758,62.2504323 51.6744518,58.2033765 L76.057068,82.5842697 L82.590106,76.0516933 Z M3.0801688,32.3394869 C3.0801688,16.2051629 16.2063081,3.07995113 32.3417724,3.07995113 C48.4772366,3.07995113 61.6033759,16.2051629 61.6033759,32.3394869 C61.6033759,48.4738109 48.4772366,61.5990226 32.3417724,61.5990226 C16.2063081,61.5990226 3.0801688,48.4738109 3.0801688,32.3394869 Z" id="Shape" fill="#333333"></path>
                    <path d="M3.0801688,32.3394869 C3.0801688,16.2051629 16.2063081,3.07995113 32.3417724,3.07995113 C48.4772366,3.07995113 61.6033759,16.2051629 61.6033759,32.3394869 C61.6033759,48.4738109 48.4772366,61.5990226 32.3417724,61.5990226 C16.2063081,61.5990226 3.0801688,48.4738109 3.0801688,32.3394869 Z" id="Path" fill="#FFFFFF"></path>
                </g>
                <polyline id="Path-5" stroke="#333333" stroke-width="3" points="76.409894 47.7103526 84.4786872 54.5733158 101.421598 32.5842697"></polyline>
                <g id="Oval" fill-rule="nonzero">
                    <use fill="black" fill-opacity="1" filter="url(#filter-3)" xlink:href="#path-2"></use>
                    <use fill="url(#linearGradient-1)" xlink:href="#path-2"></use>
                </g>
            </g>
        </g>
    </g>
</svg>