<?xml version="1.0" encoding="UTF-8"?>
<svg width="80px" height="80px" viewBox="0 0 80 80" version="1.1" xmlns="http://www.w3.org/2000/svg" xmlns:xlink="http://www.w3.org/1999/xlink">
    <!-- Generator: Sketch 54 (76480) - https://sketchapp.com -->
    <title>product-icon1</title>
    <desc>Created with Sketch.</desc>
    <g id="Page-1" stroke="none" stroke-width="1" fill="none" fill-rule="evenodd">
        <g id="MIKA2" transform="translate(-535.000000, -1654.000000)" fill-rule="nonzero">
            <g id="product-icon1" transform="translate(535.000000, 1654.000000)">
                <path d="M20.2173913,69.2733941 L18.6835652,69.2733941 C19.6835887,67.7517907 20.2165607,65.9734178 20.2173913,64.1554623 L20.2173913,60.7832855 C20.2180025,60.0418747 20.0945622,59.305533 19.8521304,58.6044437 L15.6833043,46.5463979 C15.3202209,45.1985342 14.2821486,44.133392 12.9391304,43.7306638 L15.4797826,34.2872282 C15.9356805,32.6460788 15.2907918,30.8982887 13.8758696,29.9402711 C13.5092705,29.6783584 13.0984163,29.4839891 12.6628261,29.3663977 C12.3124072,29.2657582 11.9492898,29.2156373 11.5845652,29.2175661 C9.77399825,29.200767 8.17815041,30.3966624 7.69473913,32.1325212 L0.50273913,54.1220633 C0.140790175,55.2402501 0.0776181213,56.4328989 0.319434783,57.5827345 L2.39778261,65.6169623 C2.59513325,66.3791175 2.69521055,67.1629641 2.69565217,67.9499991 L2.69565217,69.2733941 L1.34782609,69.2733941 C0.603442294,69.2733941 0,69.8737022 0,70.6142198 L0,78.6591743 C0,79.3996919 0.603442294,80 1.34782609,80 L20.2173913,80 C20.9617751,80 21.5652174,79.3996919 21.5652174,78.6591743 L21.5652174,70.6142198 C21.5652174,69.8737022 20.9617751,69.2733941 20.2173913,69.2733941 Z M5.00852174,64.942527 L2.94634783,56.9793629 C2.81019505,56.3023467 2.85150585,55.6018637 3.06630435,54.9453303 L10.2812174,32.8833836 C10.3737857,32.5418651 10.599802,32.2513572 10.9089212,32.0765705 C11.2180404,31.9017839 11.5845871,31.8572362 11.926913,31.9528506 C12.0758003,31.9910202 12.215854,32.0574962 12.3393478,32.1486111 C12.8136774,32.4648957 13.0309422,33.0479235 12.8784783,33.5953621 L10.0952174,43.9317877 C8.65465648,44.5781851 7.73075775,46.0067294 7.73652174,47.5788337 C7.73127807,47.9307247 7.77666537,48.2815524 7.87130435,48.6206553 L10.3108696,57.6873189 C10.503665,58.4026589 11.2428818,58.8270768 11.9619565,58.6352827 C12.6810313,58.4434887 13.107665,57.7081112 12.9148696,56.9927712 L10.4712609,47.8952686 C10.4431612,47.7921781 10.4299994,47.6856249 10.4321739,47.5788337 C10.4268396,47.0144234 10.7876922,46.510879 11.3257826,46.3318658 C11.3567826,46.3211392 11.4848261,46.2782327 11.5050435,46.2742103 C12.2397302,46.1299734 12.9541005,46.601354 13.1062609,47.3307809 L17.3020435,59.4773213 C17.4477532,59.897464 17.5220037,60.3388407 17.5217391,60.7832855 L17.5217391,64.1554623 C17.5228223,65.4794421 17.128786,66.7739416 16.3895652,67.8749129 L15.4528261,69.2733941 L5.39130435,69.2733941 L5.39130435,67.9499991 C5.39083947,66.9355159 5.26223796,65.925111 5.00852174,64.942527 L5.00852174,64.942527 Z M18.8695652,77.3183485 L2.69565217,77.3183485 L2.69565217,71.9550456 L18.8695652,71.9550456 L18.8695652,77.3183485 Z" id="Shape" fill="#333333"></path>
                <path d="M58.4347826,70.6132201 L58.4347826,78.6590314 C58.4347826,79.3996279 59.0382249,80 59.7826087,80 L78.6521739,80 C79.3965577,80 80,79.3996279 80,78.6590314 L80,70.6132201 C80,69.8726236 79.3965577,69.2722515 78.6521739,69.2722515 L77.3043478,69.2722515 L77.3043478,67.9487155 C77.3042228,67.1593528 77.4043046,66.3731347 77.6022174,65.6087254 L79.6805652,57.5736417 C79.9223819,56.4236836 79.8592098,55.2309078 79.4972609,54.1126019 L72.3052609,32.1274223 C71.8204716,30.3959322 70.2287205,29.2031082 68.4221739,29.2175205 C68.0574493,29.2155915 67.694332,29.2657177 67.343913,29.366368 C66.9083228,29.483972 66.4974686,29.6783619 66.1308696,29.9403025 C64.7159473,30.8984222 64.0710586,32.6463984 64.5269565,34.2877226 L67.0608696,43.7321642 C65.7178514,44.1349352 64.6797791,45.2001909 64.3166957,46.5481982 L60.1478696,58.6075285 C59.9060272,59.3069901 59.7825951,60.041549 59.7826087,60.7812385 L59.7826087,64.1537745 C59.7834393,65.9719236 60.3164113,67.750486 61.3164348,69.2722515 L59.7826087,69.2722515 C59.0382249,69.2722515 58.4347826,69.8726236 58.4347826,70.6132201 Z M74.6086957,67.9487155 L74.6086957,69.2722515 L64.5471739,69.2722515 L63.6104348,67.8736213 C62.871214,66.7725327 62.4771777,65.4778953 62.4782609,64.1537745 L62.4782609,60.7812385 C62.4779963,60.3367463 62.5522468,59.8953227 62.6979565,59.4751352 L66.8937391,47.3273009 C67.0458995,46.5977963 67.7602698,46.1263655 68.4949565,46.2706177 C68.5151739,46.2706177 68.6432174,46.3175516 68.6742174,46.3282794 C69.2123078,46.5073117 69.5731604,47.0109097 69.5678261,47.5753801 C69.5700006,47.6821828 69.5568388,47.7887473 69.5287391,47.8918487 L67.0797391,56.9903204 C66.8869438,57.7057366 67.3135775,58.4411924 68.0326522,58.6330069 C68.7517269,58.8248213 69.4909437,58.4003583 69.6837391,57.6849421 L72.1233043,48.6173127 C72.2179433,48.2781737 72.2633306,47.9273086 72.258087,47.5753801 C72.2648051,46.0043649 71.343237,44.5760075 69.9047826,43.9279456 L67.1228696,33.589078 C66.9704056,33.0415811 67.1876704,32.4584912 67.662,32.1421729 C67.7854938,32.0510483 67.9255476,31.9845652 68.0744348,31.9463915 C68.4167607,31.850767 68.7833075,31.8953194 69.0924266,32.0701247 C69.4015458,32.2449299 69.6275621,32.5354688 69.7201304,32.8770237 L76.9350435,54.9413204 C77.149842,55.5979238 77.1911528,56.2984814 77.055,56.9755698 L74.9928261,64.9395821 C74.7385433,65.9226479 74.6094879,66.9336189 74.6086957,67.9487155 L74.6086957,67.9487155 Z M61.1304348,71.9541886 L77.3043478,71.9541886 L77.3043478,77.3180629 L61.1304348,77.3180629 L61.1304348,71.9541886 Z" id="Shape" fill="#333333"></path>
                <path d="M61.8107415,9.42023181 L40.5319692,0.1110254 C40.1927717,-0.0370084668 39.8072282,-0.0370084668 39.4680306,0.1110254 L18.1892583,9.42023181 C17.7048265,9.63164925 17.3915767,10.1098642 17.3913043,10.638408 L17.3913043,37.2361406 C17.3913052,37.7362237 17.6718552,38.1940318 18.1174425,38.4210695 L39.3962148,49.2463467 C39.5832185,49.3416306 39.7901192,49.3913037 39.9999999,49.3913043 C40.2072497,49.3909631 40.4116152,49.3427178 40.5971355,49.2503364 L61.8759078,38.5580479 C62.3253586,38.3322049 62.608931,37.8721202 62.6086955,37.3691292 L62.6086955,10.638408 C62.6084232,10.1098642 62.2951733,9.63164925 61.8107415,9.42023181 Z M39.9999999,2.78010787 L57.9606137,10.638408 L39.9999999,18.4967081 L35.3319693,16.4540022 L42.4350894,13.3460571 C42.918908,13.1341661 43.2314764,12.6560527 43.2314764,12.127881 C43.2314764,11.5997093 42.918908,11.1215958 42.4350894,10.9097048 L36.7283887,8.42148695 C36.3891911,8.27345308 36.0036476,8.27345308 35.6644501,8.42148695 L26.3137596,12.5082286 L22.0460358,10.638408 L39.9999999,2.78010787 Z M28.0306905,16.162757 L30.690537,17.3264078 L30.690537,23.1154043 L28.0306905,21.7855177 L28.0306905,16.162757 Z M29.6265984,13.9604648 L36.1910997,11.0918993 L38.5716623,12.1305408 L32.0204603,15.001766 L29.6265984,13.9604648 Z M20.0511509,12.6718046 L25.370844,14.9991062 L25.370844,22.6073876 C25.3706091,23.1114492 25.6553789,23.5723207 26.1062915,23.7976362 L31.4259846,26.4574094 C31.8383428,26.6634598 32.3279974,26.6412841 32.7200411,26.3988034 C33.1120848,26.1563228 33.3505984,25.7281236 33.3503836,25.2671609 L33.3503836,18.4847391 L38.6700767,20.8120407 L38.6700767,45.8923726 L20.0511509,36.42092 L20.0511509,12.6718046 Z M41.3299232,45.9043416 L41.3299232,20.8173602 L59.948849,12.6718046 L59.948849,36.5485892 L41.3299232,45.9043416 Z" id="Shape" fill="#0D5FFF"></path>
                <path d="M48.7671099,36.3224074 L43.1998323,39.113834 C42.514216,39.4582968 42.2383367,40.2919901 42.5836387,40.9759401 C42.9289407,41.6598901 43.7646652,41.9350989 44.4502815,41.5906361 L50.017559,38.7992095 C50.7031753,38.4547466 50.9790546,37.6210534 50.6337526,36.9371034 C50.2884506,36.2531534 49.4527262,35.9779446 48.7671099,36.3224074 Z" id="Path" fill="#333333"></path>
                <path d="M44.4179238,36.1739124 C44.6179777,36.1738979 44.8152703,36.1232121 44.9941185,36.0258842 L50.0744064,33.2538458 C50.7090777,32.906778 50.9644576,32.0667799 50.6448134,31.3776576 C50.3251692,30.6885352 49.5515437,30.4112452 48.9168724,30.758313 L43.8378706,33.5303514 C43.3056873,33.8215729 43.0274614,34.4716098 43.1655783,35.1010706 C43.3036953,35.7305314 43.8219744,36.1745234 44.4179238,36.1739124 L44.4179238,36.1739124 Z" id="Path" fill="#333333"></path>
            </g>
        </g>
    </g>
</svg>