<?xml version="1.0" encoding="UTF-8"?>
<svg width="80px" height="80px" viewBox="0 0 80 80" version="1.1" xmlns="http://www.w3.org/2000/svg" xmlns:xlink="http://www.w3.org/1999/xlink">
    <!-- Generator: Sketch 54 (76480) - https://sketchapp.com -->
    <title>product-icon2</title>
    <desc>Created with Sketch.</desc>
    <g id="Page-1" stroke="none" stroke-width="1" fill="none" fill-rule="evenodd">
        <g id="MIKA2" transform="translate(-919.000000, -1654.000000)" fill-rule="nonzero">
            <g id="product-icon2" transform="translate(919.000000, 1654.000000)">
                <path d="M79.600352,31.7828947 L47.7241909,0.388019326 L47.7241909,0.381340134 C47.6921519,0.350615849 47.6494332,0.338593303 47.6147242,0.310540696 C47.5192746,0.225380994 47.4116435,0.154748536 47.2956689,0.100814058 C46.9699388,-0.0336046861 46.60416,-0.0336046861 46.2784299,0.100814058 C46.1300825,0.165435244 45.9945841,0.255771319 45.877942,0.367981749 C45.8694317,0.374160002 45.8604207,0.380004296 45.8512428,0.385347649 L13.6520216,32.4053954 C13.3975449,32.6550302 13.2533693,32.996003 13.2515337,33.3525049 C13.2515337,33.3805575 13.2662183,33.4032667 13.2675533,33.4299835 C13.2715581,33.5772597 13.3009272,33.7226991 13.3543256,33.8601235 C13.4172356,34.0125761 13.5076791,34.1521712 13.6213175,34.2715617 C13.6279923,34.2782409 13.6293273,34.2875918 13.6360021,34.294271 C13.887475,34.5474124 14.2297253,34.6893452 14.5864932,34.6883433 L26.601128,34.6883433 C27.3383593,34.6883433 27.9360874,34.0902217 27.9360874,33.3525049 C28.0929451,30.2762359 30.5155627,27.7987565 33.5856357,27.5750036 C36.4613051,27.5497896 38.8150055,29.8579515 38.8480457,32.7353475 C38.8480457,33.4730643 39.4457738,34.071186 40.1830051,34.071186 L45.4440802,34.071186 L45.4440802,38.0172528 C41.1865609,38.6841701 38.2753481,42.6783271 38.9418266,46.9388169 C39.4649638,50.2835894 42.0828193,52.9100148 45.4240558,53.4421794 L45.2905599,65.3965977 C45.2817158,66.1343145 45.8721016,66.7396163 46.6093329,66.7484663 C46.6093329,66.7484663 46.6094998,66.7484663 46.6094998,66.7484663 L46.6255193,66.7484663 C47.0433616,66.7432899 47.4338372,66.5387396 47.6761324,66.1981008 C47.6934868,66.1820708 47.7161812,66.1767274 47.7322007,66.1606973 L79.6177065,33.6717703 C80.1341689,33.1454499 80.126326,32.2996972 79.600352,31.7828947 Z M48.1139991,4.51976767 L75.4059095,31.3995091 L66.5698131,31.3995091 C65.8325817,31.3995091 65.2348537,31.9976307 65.2348537,32.7353475 C65.1886307,35.6433009 62.7952153,37.9629843 59.8893424,37.9167309 C57.0485487,37.8714794 54.7567571,35.5780117 54.7113685,32.7353475 C54.7113685,31.9976307 54.1136404,31.3995091 53.3764091,31.3995091 L48.1139991,31.3995091 L48.1139991,27.4547781 C52.3713515,26.7870259 55.2817299,22.792201 54.6144171,18.5318782 C54.0896112,15.1809274 51.4627448,12.5523313 48.1139991,12.0271798 L48.1139991,4.51976767 L48.1139991,4.51976767 Z M41.3938133,31.3995091 C40.7074773,27.6271013 37.4174698,24.8898013 33.5856357,24.9033267 C29.540208,25.0916799 26.1532491,28.034866 25.3996645,32.0166664 L17.8224348,32.0166664 L45.4440802,4.54247692 L45.4440802,13.2427928 C45.4440802,13.9805096 46.0418083,14.5786312 46.7790396,14.5786312 C49.6281768,14.5327118 51.9752023,16.8068098 52.0210916,19.657823 C52.0669808,22.5088362 49.7943792,24.8574072 46.9452421,24.9033267 C46.8898413,24.9041616 46.8346073,24.9041616 46.7792065,24.9033267 C46.0419752,24.9033267 45.4442471,25.5014483 45.4442471,26.2391651 L45.4442471,31.3995091 L41.3938133,31.3995091 Z M47.9991926,62.0730317 L48.1139991,52.2452682 L48.1139991,52.2292381 C48.1056556,52.1462491 48.0891354,52.064429 48.0646056,51.9847797 C48.0647724,51.8014358 47.9928515,51.6252721 47.8643616,51.4945269 C47.8264822,51.4227256 47.781761,51.3545979 47.7308657,51.2914795 C47.5913624,51.1936293 47.450858,51.097449 47.3090185,51.0029384 C47.2222462,50.9748858 47.1328039,50.9556831 47.0420266,50.9454973 C46.9624297,50.9201164 46.8806634,50.9025835 46.7977291,50.8933996 L46.7817096,50.8933996 C43.9050389,50.9192815 41.5501705,48.6102847 41.5179646,45.7317198 C41.5480011,42.852654 43.9018683,40.5414865 46.7790396,40.5660325 C47.516271,40.5660325 48.1139991,39.9679109 48.1139991,39.2301941 L48.1139991,34.071186 L52.1656009,34.071186 C52.9583999,38.387113 57.0974416,41.2428017 61.4105286,40.4494806 C64.6521439,39.8531957 67.1887336,37.3151027 67.7846262,34.071186 L75.4860071,34.071186 L47.9991926,62.0730317 Z" id="Shape" fill="#333333"></path>
                <path d="M32.6684204,54.3721462 C32.7903181,54.3676335 32.912381,54.3676335 33.0344439,54.3721462 C33.7641784,54.3721462 34.3558282,53.7734678 34.3558282,53.0350643 L34.3558282,46.5729476 C34.3558282,45.8345441 33.7641784,45.2358657 33.0344439,45.2358657 L27.6775517,45.2358657 C26.9720976,41.4661305 23.703323,38.7461716 19.9117758,38.773749 C16.0835601,38.7214356 12.7624257,41.4375503 12.0098973,45.2358657 L1.32105405,45.2358657 C0.591319536,45.2360328 -0.00016513846,45.8347112 3.45852043e-08,46.5732818 C3.45852043e-08,46.9277757 0.139240912,47.2675616 0.386835306,47.5182645 L32.1000599,79.6082296 C32.3478195,79.8589325 32.6837815,79.9999946 33.0342787,79.9999946 C33.2080407,80.000496 33.3799859,79.9660661 33.5403689,79.8983764 C34.0340711,79.6912958 34.3558282,79.2035952 34.355663,78.6629127 L34.355663,65.9606349 C34.355663,65.2222314 33.7640132,64.623553 33.0342787,64.623553 C30.2367428,64.7258397 27.8868259,62.5138049 27.78574,59.6830354 C27.6848193,56.8522659 29.8707194,54.474433 32.6684204,54.3721462 Z M25.2518203,60.6462358 C25.7514688,64.0255431 28.3732605,66.6786478 31.7130595,67.1842319 L31.7130595,75.4313529 L4.51087589,47.9100295 L13.2135133,47.9100295 C13.9432478,47.9100295 14.5348976,47.311351 14.5348976,46.5729476 C14.6604292,43.6734855 17.043711,41.4016163 19.9116106,41.4479127 C22.7568815,41.3994435 25.1023387,43.693876 25.1508996,46.5729476 C25.1508996,47.311351 25.7425494,47.9100295 26.472284,47.9100295 L31.7128943,47.9100295 L31.7128943,51.8076231 C27.5166731,52.4429042 24.6239976,56.399998 25.2518203,60.6462358 Z" id="Shape" fill="#0D5FFF"></path>
                <path d="M43.8212095,20.1226994 L37.1603856,20.1226994 C36.4246976,20.1226994 35.8282209,20.6720859 35.8282209,21.3496933 C35.8282209,22.0273006 36.4246976,22.5766871 37.1603856,22.5766871 L43.8212095,22.5766871 C44.5568975,22.5766871 45.1533742,22.0273006 45.1533742,21.3496933 C45.1533742,20.6720859 44.557064,20.1226994 43.8212095,20.1226994 Z" id="Path" fill="#333333"></path>
                <path d="M43.8212095,16.196319 L37.1603856,16.196319 C36.4246976,16.196319 35.8282209,16.7457055 35.8282209,17.4233129 C35.8282209,18.1009202 36.4246976,18.6503067 37.1603856,18.6503067 L43.8212095,18.6503067 C44.5568975,18.6503067 45.1533742,18.1009202 45.1533742,17.4233129 C45.1533742,16.7457055 44.557064,16.196319 43.8212095,16.196319 Z" id="Path" fill="#333333"></path>
                <path d="M56.0911481,46.6257669 L49.4303243,46.6257669 C48.6946363,46.6257669 48.0981595,47.1751534 48.0981595,47.8527607 C48.0981595,48.5303681 48.6946363,49.0797546 49.4303243,49.0797546 L56.0911481,49.0797546 C56.8268361,49.0797546 57.4233129,48.5303681 57.4233129,47.8527607 C57.4233129,47.1751534 56.8270026,46.6257669 56.0911481,46.6257669 Z" id="Path" fill="#333333"></path>
                <path d="M56.0911481,42.6993865 L49.4303243,42.6993865 C48.6946363,42.6993865 48.0981595,43.248773 48.0981595,43.9263804 C48.0981595,44.6039877 48.6946363,45.1533742 49.4303243,45.1533742 L56.0911481,45.1533742 C56.8268361,45.1533742 57.4233129,44.6039877 57.4233129,43.9263804 C57.4233129,43.248773 56.8270026,42.6993865 56.0911481,42.6993865 Z" id="Path" fill="#333333"></path>
            </g>
        </g>
    </g>
</svg>