<?xml version="1.0" encoding="UTF-8"?>
<svg width="80px" height="80px" viewBox="0 0 80 80" version="1.1" xmlns="http://www.w3.org/2000/svg" xmlns:xlink="http://www.w3.org/1999/xlink">
    <!-- Generator: Sketch 54 (76480) - https://sketchapp.com -->
    <title>product-icon3</title>
    <desc>Created with Sketch.</desc>
    <g id="Page-1" stroke="none" stroke-width="1" fill="none" fill-rule="evenodd">
        <g id="MIKA2" transform="translate(-1312.000000, -1654.000000)" fill-rule="nonzero">
            <g id="product-icon3" transform="translate(1312.000000, 1654.000000)">
                <path d="M27.6363636,68.8601665 C23.9919815,67.3034207 20.6468823,65.0455703 17.7678571,62.1567314 C12.1964286,56.5661978 8.98214286,49.2074124 8.66071429,41.3485153 L0,41.3485153 L0,38.6693458 L8.67857143,38.6693458 C9,30.7211431 12.2142857,23.3623577 17.7857143,17.7718241 C23.3571429,12.1812905 30.7321429,8.98414825 38.6785714,8.66264791 L38.6785714,0 L41.3571429,0 L41.3571429,8.66264791 C49.2142857,9.00200938 56.5535714,12.1991516 62.1607143,17.7718241 C67.7857143,23.3623577 71.0178571,30.7390042 71.3392857,38.6693458 L80,38.6693458 L80,41.3306542 L71.3392857,41.3306542 C71.0178571,49.1895512 67.7857143,56.5304756 62.1607143,62.1567314 C59.0986721,65.2194573 55.523342,67.5676539 51.6363636,69.1264099 L51.6363636,66.2388831 C61.2878633,61.9359779 68.1500356,52.4515347 68.6607143,41.3485153 L63.2525804,41.3485153 C63.265968,41.0218883 63.2727273,40.6935517 63.2727273,40.3636364 C63.2727273,39.7939407 63.2525724,39.2289525 63.2129367,38.6693458 L68.6607143,38.6693458 C67.9821429,23.9160527 56.0892857,12.0205403 41.3392857,11.3418174 L41.3392857,16.7876762 C40.7768574,16.7476354 40.2089885,16.7272727 39.6363636,16.7272727 C39.3095529,16.7272727 38.9842914,16.7339054 38.6607062,16.7470434 L38.6607143,11.3418174 C23.6607143,12.0026792 12,23.6659969 11.3392857,38.6693458 L16.0597906,38.6693458 C16.0201549,39.2289525 16,39.7939407 16,40.3636364 C16,40.6935517 16.0067593,41.0218883 16.0201469,41.3485153 L11.3392857,41.3485153 C11.8370417,52.1705747 18.3689116,61.454937 27.6363636,65.9023342 L27.6363636,68.8601665 Z M38.6607143,72 L41.3392857,72 L41.3392857,80 L38.6607143,80 L38.6607143,72 Z" id="Combined-Shape" fill="#333333"></path>
                <path d="M52.0512364,24.5069017 C47.6936645,20.962918 41.9802715,19.6026498 36.37683,20.7751794 C29.3091018,22.2540389 23.610567,28.0174272 22.19717,35.1169192 C20.3551106,44.3685274 25.4195667,52.7714085 33.2309536,56.0350855 L33.2309536,61.9523823 C33.2309536,65.8885723 36.4306913,69.0909091 40.363687,69.0909091 C44.2966825,69.0909091 47.4964203,65.8885723 47.4964203,61.9523823 C46.9113742,57.5477752 48.2861397,55.7967876 49.9614145,54.7815123 C55.3523821,51.5141177 58.9090909,45.6102043 58.9090909,38.9181607 C58.9090909,33.3038479 56.4095511,28.0512573 52.0512364,24.5069017 Z M44.6436241,61.9523823 C44.6436241,64.3141707 42.7235586,66.235424 40.363687,66.235424 C38.0038153,66.235424 36.0841212,64.3141707 36.0841212,61.9523823 L36.0841212,60.3341129 L39.2389126,60.3341129 L40.363687,65.0298078 L41.4888328,60.3341129 L44.6436241,60.3341129 L44.6436241,61.9523823 Z M48.4833838,52.3390521 C46.5031421,53.5390919 45.1803807,55.3993767 44.7751202,57.4786278 L42.1726866,57.4786278 L38.5546873,57.4786278 L36.0841212,57.4786278 L36.0841212,56.0350855 C36.0841212,54.8789133 35.3954384,53.8443065 34.3293544,53.3993103 C27.3374035,50.4787673 23.4991297,43.1900496 24.9953618,35.6745586 C26.1884844,29.6821664 30.9966347,24.8180645 36.9603903,23.5700677 C41.7195081,22.5744956 46.5640611,23.7236044 50.252266,26.7229604 C53.9404709,29.7226882 56.0559233,34.1674454 56.0559233,38.9185324 C56.0559233,44.4480839 53.2250431,49.464979 48.4833838,52.3390521 Z" id="Shape" fill="#333333"></path>
                <path d="M38.0895769,47.2066651 L37.0801376,46.8482519 C33.4009162,45.5428247 30.8532104,42.1708568 30.5454545,38.3096758 L32.4843166,36.3636364 L36.4241048,40.3190555 L40.36338,36.3636364 L44.3031681,40.3190555 L48.2429562,36.3636364 L50.1818182,38.3096758 C49.8740623,42.1708568 47.3258437,45.5428247 43.6466222,46.8482519 L42.6371829,47.2066651 L40.36338,56.7272727 L38.0895769,47.2066651 Z" id="Path" fill="#0D5FFF"></path>
            </g>
        </g>
    </g>
</svg>