<?xml version="1.0" encoding="UTF-8"?>
<svg width="142px" height="110px" viewBox="0 0 142 110" version="1.1" xmlns="http://www.w3.org/2000/svg" xmlns:xlink="http://www.w3.org/1999/xlink">
    <!-- Generator: Sketch 54 (76480) - https://sketchapp.com -->
    <title>product-icon-large</title>
    <desc>Created with Sketch.</desc>
    <defs>
        <linearGradient x1="100%" y1="50%" x2="-57.494213%" y2="50%" id="linearGradient-1">
            <stop stop-color="#80DCC5" offset="0%"></stop>
            <stop stop-color="#0D5FFF" offset="100%"></stop>
        </linearGradient>
        <path d="M18.4867749,26.4768162 C18.4867749,25.7580478 17.8980241,25.1699645 17.1784398,25.1699645 L1.30833509,25.1699645 C0.588750792,25.1699645 0,25.7580478 0,26.4768162 C0,27.1955847 0.588750792,27.783668 1.30833509,27.783668 L17.1784398,27.783668 C17.8980241,27.783668 18.4867749,27.2086532 18.4867749,26.4768162 Z" id="path-2"></path>
        <filter x="-37.9%" y="-191.3%" width="175.7%" height="635.6%" filterUnits="objectBoundingBox" id="filter-3">
            <feOffset dx="0" dy="2" in="SourceAlpha" result="shadowOffsetOuter1"></feOffset>
            <feGaussianBlur stdDeviation="2" in="shadowOffsetOuter1" result="shadowBlurOuter1"></feGaussianBlur>
            <feColorMatrix values="0 0 0 0 0.314369351   0 0 0 0 0.8883757   0 0 0 0 0.759899616  0 0 0 1 0" type="matrix" in="shadowBlurOuter1"></feColorMatrix>
        </filter>
        <linearGradient x1="100%" y1="50%" x2="-57.494213%" y2="50%" id="linearGradient-4">
            <stop stop-color="#80DCC5" offset="0%"></stop>
            <stop stop-color="#0D5FFF" offset="100%"></stop>
        </linearGradient>
        <path d="M3.96425533,21.7590814 L19.83436,21.8505611 C20.5539443,21.8505611 21.1426951,21.2755463 21.1557785,20.5567778 C21.1688618,19.8249409 20.580111,19.2368576 19.8605267,19.2368576 L3.99042204,19.145378 C3.97733868,19.145378 3.97733868,19.145378 3.97733868,19.145378 C3.25775438,19.145378 2.66900359,19.7203927 2.66900359,20.4391612 C2.65592024,21.1709982 3.24467103,21.7590814 3.96425533,21.7590814 Z" id="path-5"></path>
        <filter x="-37.9%" y="-184.8%" width="175.7%" height="617.5%" filterUnits="objectBoundingBox" id="filter-6">
            <feOffset dx="0" dy="2" in="SourceAlpha" result="shadowOffsetOuter1"></feOffset>
            <feGaussianBlur stdDeviation="2" in="shadowOffsetOuter1" result="shadowBlurOuter1"></feGaussianBlur>
            <feColorMatrix values="0 0 0 0 0.314369351   0 0 0 0 0.8883757   0 0 0 0 0.759899616  0 0 0 1 0" type="matrix" in="shadowBlurOuter1"></feColorMatrix>
        </filter>
        <path d="M6.63325892,15.8259746 L22.5033636,15.8259746 C23.2229479,15.8259746 23.8116987,15.2378913 23.8116987,14.5191228 C23.8116987,13.8003544 23.2229479,13.2122711 22.5033636,13.2122711 L6.63325892,13.2122711 C5.91367462,13.2122711 5.32492383,13.8003544 5.32492383,14.5191228 C5.32492383,15.2378913 5.91367462,15.8259746 6.63325892,15.8259746 Z" id="path-7"></path>
        <filter x="-37.9%" y="-191.3%" width="175.7%" height="635.6%" filterUnits="objectBoundingBox" id="filter-8">
            <feOffset dx="0" dy="2" in="SourceAlpha" result="shadowOffsetOuter1"></feOffset>
            <feGaussianBlur stdDeviation="2" in="shadowOffsetOuter1" result="shadowBlurOuter1"></feGaussianBlur>
            <feColorMatrix values="0 0 0 0 0.314369351   0 0 0 0 0.8883757   0 0 0 0 0.759899616  0 0 0 1 0" type="matrix" in="shadowBlurOuter1"></feColorMatrix>
        </filter>
    </defs>
    <g id="Page-1" stroke="none" stroke-width="1" fill="none" fill-rule="evenodd">
        <g id="MIKA2" transform="translate(-1331.000000, -1412.000000)" fill-rule="nonzero">
            <g id="product-icon-large" transform="translate(1331.000000, 1412.000000)">
                <g id="delivery-truck" transform="translate(77.102804, 67.850467)">
                    <path d="M54.0473227,12.402023 C53.8118224,12.1798582 53.497822,12.0622415 53.1707382,12.0622415 L46.4589792,12.0622415 C45.7393949,12.0622415 45.1506441,12.6503248 45.1506441,13.3690933 L45.1506441,24.0852775 C45.1506441,24.804046 45.7393949,25.3921293 46.4589792,25.3921293 L57.1088268,25.3921293 C57.8284111,25.3921293 58.4171619,24.804046 58.4171619,24.0852775 L58.4171619,16.9106615 C58.4171619,16.544743 58.2601617,16.191893 57.9854114,15.9435912 L54.0473227,12.402023 Z M55.8004917,22.7784258 L47.7673143,22.7784258 L47.7673143,14.6628765 L52.6604875,14.6628765 L55.8004917,17.4856763 L55.8004917,22.7784258 Z M11.8535159,33.5991582 L9.22376241,33.5991582 L9.22376241,30.1229326 C9.22376241,29.4041641 8.63501162,28.8160808 7.91542732,28.8160808 C7.19584302,28.8160808 6.60709222,29.4041641 6.60709222,30.1229326 L6.60709222,34.9060099 C6.60709222,35.6247784 7.19584302,36.2128617 7.91542732,36.2128617 L11.8535159,36.2128617 C12.5731002,36.2128617 13.161851,35.6247784 13.161851,34.9060099 C13.161851,34.1872415 12.5731002,33.5991582 11.8535159,33.5991582 Z M63.7682525,14.0617247 L63.7682525,14.0617247 L54.4005732,6.3120939 C54.1650729,6.11606614 53.8772392,6.011518 53.5632387,6.011518 L42.5470572,6.011518 L42.5470572,1.30685174 C42.5470572,0.588083282 41.9583065,0 41.2387222,0 L7.91542732,0 C7.19584302,0 6.60709222,0.588083282 6.60709222,1.30685174 L6.60709222,10.8730065 C6.60709222,11.5917749 7.19584302,12.1798582 7.91542732,12.1798582 C8.63501162,12.1798582 9.22376241,11.5917749 9.22376241,10.8730065 L9.22376241,2.61370348 L39.9434704,2.61370348 L39.9434704,33.5991582 L29.2151226,33.5991582 C28.4955383,33.5991582 27.9067875,34.1872415 27.9067875,34.9060099 C27.9067875,35.6247784 28.4955383,36.2128617 29.2151226,36.2128617 L45.1898941,36.2128617 C45.9094784,36.2128617 46.4982292,35.6247784 46.4982292,34.9060099 C46.4982292,34.1872415 45.9094784,33.5991582 45.1898941,33.5991582 L42.5601406,33.5991582 L42.5601406,8.62522147 L53.1053215,8.62522147 L61.6356663,15.6822209 L61.5440828,33.5730212 L60.1834143,33.5730212 C59.46383,33.5730212 58.8750792,34.1611044 58.8750792,34.8798729 C58.8750792,35.5986414 59.46383,36.1867246 60.1834143,36.1867246 L62.8393345,36.1867246 C63.5589188,36.1867246 64.1476696,35.6117099 64.1476696,34.8929414 L64.2523364,15.0810691 C64.2392531,14.6890135 64.0691695,14.3100265 63.7682525,14.0617247 Z" id="Shape" fill="#333333"></path>
                    <g id="Path">
                        <use fill="black" fill-opacity="1" filter="url(#filter-3)" xlink:href="#path-2"></use>
                        <use fill="url(#linearGradient-1)" xlink:href="#path-2"></use>
                    </g>
                    <g id="Path">
                        <use fill="black" fill-opacity="1" filter="url(#filter-6)" xlink:href="#path-5"></use>
                        <use fill="url(#linearGradient-4)" xlink:href="#path-5"></use>
                    </g>
                    <g id="Path">
                        <use fill="black" fill-opacity="1" filter="url(#filter-8)" xlink:href="#path-7"></use>
                        <use fill="url(#linearGradient-1)" xlink:href="#path-7"></use>
                    </g>
                    <path d="M21.0747664,31.6121495 C19.6728972,31.6121495 18.3411215,32.1624351 17.3364486,33.1576324 C16.3317757,34.1645379 15.771028,35.4758567 15.771028,36.8808411 C15.771028,38.2858255 16.3200935,39.5971443 17.3364486,40.6040498 C18.3528037,41.5992471 19.6728972,42.1495327 21.0747664,42.1495327 C23.9485981,42.1495327 26.2850467,39.7844756 26.2850467,36.8808411 C26.2850467,33.9772066 23.9485981,31.6121495 21.0747664,31.6121495 Z" id="Path" fill="#333333"></path>
                    <path d="M53.2009346,31.6121495 C51.7990654,31.6121495 50.4672897,32.1624351 49.4626168,33.1576324 C48.4579439,34.1645379 47.8971963,35.4758567 47.8971963,36.8808411 C47.8971963,38.2858255 48.4462617,39.5971443 49.4626168,40.6040498 C50.478972,41.5992471 51.7990654,42.1495327 53.2009346,42.1495327 C56.0747664,42.1495327 58.411215,39.7844756 58.411215,36.8808411 C58.411215,33.9772066 56.0747664,31.6121495 53.2009346,31.6121495 Z" id="Path" fill="#333333"></path>
                </g>
                <g id="brain-process" fill="#000000">
                    <path d="M83.8351739,62.0809969 L81.1462216,62.0809969 L83.6481551,55.5553829 L80.5606704,52.8739558 C80.241388,52.5961133 80.0821551,52.1760614 80.1368659,51.7551875 C80.489628,49.0236175 80.4185856,46.2534123 79.9253719,43.5432146 C79.8494301,43.1264508 79.9874319,42.6981788 80.2911993,42.4047177 L83.268446,39.5292942 L80.3663245,32.8503873 L76.2426012,33.1561785 C75.8130806,33.1874151 75.3982585,32.9958847 75.1418528,32.6473485 L75.1418528,32.6481704 C73.5225768,30.4418706 71.5350237,28.5364299 69.2673842,27.016516 C68.9072729,26.7748424 68.6965957,26.3638328 68.7088442,25.9281626 L68.8305144,21.7794311 L62.0855729,19.1588335 L59.422709,22.2668885 C59.1467054,22.5882981 58.7294336,22.7494139 58.3113452,22.6943385 C56.6471573,22.4773254 54.9658215,22.419784 53.2910181,22.5225365 L53.2910181,31.5951637 C53.7883146,31.5499526 54.2888774,31.527758 54.7894405,31.527758 C63.9416567,31.527758 71.3610925,38.9966257 71.3610925,48.2098182 C71.3610925,57.4238328 63.9416567,64.8927004 54.7894405,64.8927004 C54.2888774,64.8927004 53.7883146,64.8696839 53.2910181,64.8244728 L53.2910181,73.8502449 C55.3937088,74.0491735 57.0701453,73.9472433 59.4251588,73.5140391 C59.8399809,73.4375911 60.2646019,73.5756903 60.5561205,73.8823037 L63.4116971,76.8785641 L70.0455838,73.9571073 L69.7426332,69.8059098 C69.7116031,69.3743498 69.9018659,68.955942 70.2480954,68.6978278 C72.4389766,67.0685856 74.3326231,65.0677905 75.8424774,62.7850429 C76.0833683,62.4233544 76.4908412,62.2112733 76.9236279,62.2227817 L77.0505307,62.2265531 L77.0505307,65.4336565 C75.6843348,67.2581567 74.0860818,68.8960417 72.2952587,70.3040537 L72.6137246,74.663222 C72.6521036,75.1967127 72.3524193,75.6973224 71.8649218,75.9118694 L63.6158417,79.5451948 C63.13406,79.7572756 62.5714372,79.644659 62.2080597,79.2624201 L59.2087654,76.1149082 C56.7867923,76.5497564 54.3101086,76.5883913 51.8750704,76.2291689 C51.2503874,76.147789 50.7833043,75.6118324 50.7833043,74.9780554 L50.7833043,21.3610231 C50.7833043,20.714094 51.2683523,20.1723832 51.9069169,20.1049776 C53.9189673,19.8945406 55.9473492,19.8961848 57.9585831,20.1107317 L60.7643482,16.8366287 C61.1105776,16.4330174 61.6707507,16.2916301 62.1655976,16.4831605 L70.5624784,19.7449332 C71.0581416,19.9381078 71.3798738,20.4247432 71.3643588,20.9598777 L71.2369725,25.3141142 C73.3176155,26.7912828 75.1704332,28.5676665 76.7374479,30.5873679 L81.0677658,30.2667805 C81.5977255,30.2281455 82.0950222,30.5298267 82.3081492,31.0205722 L85.9174279,39.3246115 C86.1281052,39.8104249 86.0162339,40.3759742 85.6365248,40.7425947 L82.5073945,43.7635158 C82.9067015,46.2887591 82.9728443,48.8559253 82.7041899,51.3992532 L85.9558072,54.2245336 C86.3559308,54.5730698 86.4963823,55.1369751 86.3061195,55.6342968 L83.8351739,62.0809969 Z M94.7687977,62.0809969 L92.1596972,62.0809969 C92.7768101,59.8804627 93.2253276,57.6227819 93.4954929,55.3262599 L88.1063551,55.3262599 C87.6438911,55.3262599 87.219079,55.0724018 86.9997156,54.6662289 C86.7803521,54.260056 86.8008151,53.7662612 87.0537378,53.3797418 L94.0316238,42.7365389 C94.2640835,42.3819565 94.6586102,42.1682243 95.0826039,42.1682243 C95.5065973,42.1682243 95.9019426,42.3819565 96.133584,42.7365389 L103.11147,53.3797418 C103.365211,53.7662612 103.386493,54.260056 103.166311,54.6670477 C102.946947,55.0740395 102.522135,55.3270788 102.06049,55.3270788 L96.0263577,55.3270788 C96.0255393,55.3459134 96.0255393,55.3639291 96.0230837,55.3827637 C95.7675497,57.6560153 95.3466448,59.8940556 94.7687977,62.0809969 Z M77.0505307,87.9245421 C69.4103586,93.4950525 60.349668,96.635514 51.6895671,96.635514 C45.2731864,96.635514 38.5850568,94.9158305 32.3479319,91.662353 C25.9020843,88.2942301 20.3115906,83.4971321 16.003718,77.635468 C15.5928207,77.0753425 15.7147804,76.2883827 16.2746481,75.8772965 C16.8353347,75.467029 17.6219327,75.5890448 18.0320113,76.1491701 C22.1115166,81.6996534 27.4057061,86.2428934 33.5102308,89.431678 C39.3888437,92.4984469 45.6750798,94.1198627 51.6895671,94.1198627 C60.3884136,94.1198627 69.5413593,90.7275001 77.0505307,84.7644185 L77.0505307,87.9245421 Z M16.9277685,58.7342027 C16.9269455,55.6786801 18.2591219,52.7730266 20.5778821,50.7706805 C18.6968722,48.9714355 17.8213715,46.3687952 18.2360824,43.804646 C18.6507933,41.2413156 20.3022312,39.0432393 22.6555508,37.9220894 C21.7010575,34.3170479 22.725492,30.477785 25.3519942,27.8194558 C27.9793191,25.1611265 31.818686,24.0776486 35.4564572,24.9678532 C35.1166248,22.3529285 36.2661308,19.7666675 38.4384258,18.2573326 C40.6107208,16.7488167 43.4462239,16.5670087 45.7954293,17.7872523 C48.143812,19.0066769 49.6166937,21.4250521 49.6158709,24.0620884 L49.6158709,71.9980042 C49.6175167,75.2074904 47.7439121,78.1262474 44.8170738,79.475067 C41.8902355,80.8230674 38.4425399,80.356263 35.98472,78.2777541 C33.4207534,79.6879954 30.2989023,79.6445906 27.7769008,78.1631003 C25.2540763,76.6816101 23.7063161,73.9823331 23.7079619,71.0668519 L23.7079619,68.5829603 C19.6250347,67.0040143 16.9327054,63.0935023 16.9277685,58.7342027 Z M21.5661119,48.046835 C21.8878418,48.5300185 22.2860961,48.9583323 22.7452402,49.3145779 C24.2304645,48.56032 25.8753198,48.1680404 27.5432145,48.1688593 C28.2418048,48.1688593 28.8070952,48.7323006 28.8070952,49.4267747 C28.8070952,50.1212489 28.2418048,50.6846902 27.5432145,50.6846902 C24.6278958,50.6453804 21.9166412,52.1710943 20.4470509,54.6779167 C18.9782831,57.1847391 18.9782831,60.2844852 20.4470509,62.7913078 C21.9166412,65.2981302 24.6278958,66.8238441 27.5432145,66.7845343 C28.2418048,66.7845343 28.8070952,67.3479756 28.8070952,68.0424497 C28.8070952,68.7369239 28.2418048,69.3003652 27.5432145,69.3003652 C27.1062869,69.2995461 26.6693594,69.2717017 26.2357234,69.2168317 L26.2357234,71.0668519 C26.277688,74.1977184 28.8400088,76.7127305 31.9857222,76.7127305 C35.1314358,76.7127305 37.6929336,74.1977184 37.7357214,71.0668519 C37.7357214,70.3723778 38.3018346,69.8089365 38.9996021,69.8089365 C39.6973696,69.8089365 40.2634828,70.3723778 40.2634828,71.0668519 C40.2651284,73.1519122 39.4686202,75.159172 38.0368804,76.6807912 C39.7919959,77.9084051 42.0885397,78.060731 43.9917662,77.0763465 C45.8949928,76.0911433 47.0889323,74.1330209 47.0881095,71.9980042 L47.0881095,24.0620884 C47.0881095,22.161293 45.9032213,20.4595036 44.1151922,19.7920551 C42.3271629,19.1254253 40.3103846,19.6315397 39.055555,21.0638928 C37.7999027,22.4962457 37.568685,24.5534617 38.4762763,26.2265876 C38.7305337,26.382189 38.979854,26.5492559 39.2225913,26.7277883 C39.7845904,27.1405418 39.9030792,27.9283768 39.4883684,28.4869044 C39.0736575,29.0462508 38.2820865,29.1641804 37.7209102,28.7514269 C34.6385551,26.4886533 30.3836548,26.6876593 27.5284033,29.2288779 C24.672329,31.7692776 23.9992468,35.9557776 25.9148161,39.2569868 C26.2645226,39.8581 26.0579901,40.6270991 25.4540262,40.9751551 C24.8500623,41.3232111 24.0765938,41.1184724 23.7268871,40.5165401 C23.6791625,40.4362826 23.6388432,40.3511112 23.5935873,40.2683966 C23.4174996,40.3584818 23.2463491,40.4567564 23.0817813,40.5648585 C20.5902248,42.2166915 19.9122054,45.5637622 21.5661119,48.046835 Z M41.2075244,49.2062665 L41.2083668,49.2062665 C42.3599497,49.2571145 43.4719391,49.6335526 44.4087059,50.2880135 C44.9882883,50.6947963 45.1197052,51.4821178 44.7018667,52.0471849 C44.2840283,52.611432 43.4753088,52.739372 42.8957264,52.3325892 C41.8165914,51.5772525 40.3802718,51.5173833 39.2387978,52.1800455 C38.0973238,52.8427078 37.4688815,54.1024222 37.6390494,55.3851001 C37.7325577,56.0756466 37.2338473,56.7079642 36.5253753,56.7989983 C35.8160608,56.8900324 35.1665579,56.4045175 35.0730496,55.7139708 C34.7470347,53.2831157 36.035089,50.9178707 38.2843403,49.8156206 C38.3348851,49.791837 38.3854303,49.7696935 38.435975,49.74673 C38.8605528,48.6715442 38.6676395,47.4577569 37.9288406,46.5588982 C37.4815175,46.0159743 37.5708138,45.2229119 38.1284932,44.7882449 C38.6853302,44.3527576 39.4999467,44.4396912 39.9472698,44.9817948 C40.9269999,46.1709782 41.381062,47.6906726 41.2075244,49.2062665 Z M27.9512382,45.3372491 C27.6863834,45.0404278 27.4578675,44.7018913 27.2726789,44.3336725 C27.2587024,44.3416948 27.2461234,44.3513214 27.2321471,44.3585413 C26.8869274,44.5542829 26.4774159,44.5229963 26.1580526,44.2767148 C25.8386895,44.0296314 25.6583925,43.6060596 25.6863455,43.1648387 C25.7142986,42.7244203 25.944911,42.3345415 26.2922271,42.1436134 C27.1070574,41.6831393 27.5298466,40.6314295 27.3055237,39.6206331 C27.2048929,39.19305 27.3125119,38.735785 27.5878491,38.4237214 C27.8631861,38.1124605 28.2629142,37.9945342 28.6346892,38.114867 C29.0064642,38.2360022 29.2929826,38.5769454 29.3845288,39.0077372 C29.6507811,40.2094621 29.4893525,41.4833867 28.9358829,42.5487342 C29.023236,42.9386129 29.2014365,43.293996 29.4523148,43.5755751 C29.8709111,44.0520934 29.8758028,44.8270375 29.463496,45.3115781 C29.051189,45.7953165 28.3761239,45.8073498 27.9512382,45.3372491 Z M34.881624,33.0062831 C34.4366696,33.1193997 33.9624967,32.9941637 33.6402596,32.6766297 C33.3171876,32.359096 33.195305,31.8985509 33.3196921,31.4695167 C33.4449137,31.0404825 33.7972039,30.7092132 34.2446628,30.6017525 C36.2498798,30.1048487 38.3594482,30.8950472 39.4972961,32.5683613 C40.2553046,32.7154125 41.0383578,32.4819081 41.5793156,31.9478373 C42.0743587,31.4582052 42.8866301,31.4493174 43.3925258,31.9284459 C43.8992564,32.4075745 43.9084392,33.1937331 43.4133961,33.6833654 C42.5869329,34.501843 41.4791382,34.9979392 40.2995498,35.0795445 C40.3129068,35.8972141 40.1058736,36.7035721 39.6984856,37.4202451 C39.4789302,37.8113045 39.05902,38.0585446 38.5998739,38.0682403 C38.1398928,38.077936 37.7099649,37.8484714 37.4728784,37.4671076 C37.235792,37.0857439 37.2282787,36.6106552 37.4520082,36.2220198 C37.5647078,36.024066 37.6448497,35.8107609 37.6907641,35.5893761 C37.8460392,34.8428081 37.5939262,34.0720009 37.022915,33.5468179 C36.452739,33.0224428 35.6446416,32.8180252 34.881624,33.0062831 Z M30.1381502,61.9098353 L30.1381502,61.9106636 C29.6471934,61.4144824 29.6463752,60.6084988 30.137332,60.1114893 C30.6274704,59.6144798 31.4236388,59.6136515 31.9145956,60.110661 C32.5978437,60.8006758 33.1256224,61.6331666 33.4627461,62.5493209 C34.8325155,63.2302238 36.4600373,63.1043147 37.7111591,62.2196378 C38.0793766,61.9570512 38.5572412,61.913977 38.9655537,62.106154 C39.3738661,62.298331 39.6488019,62.6959386 39.6880785,63.149874 C39.7265366,63.6038093 39.5227896,64.0436628 39.1537539,64.3037643 C37.6154225,65.3922152 35.6982361,65.7782258 33.8661489,65.3690214 C33.7745036,66.7879834 33.2442703,68.1415058 32.3507289,69.2390686 C31.9080495,69.7750106 31.120882,69.8487336 30.5881938,69.4039102 C30.0546876,68.959915 29.9761345,68.163043 30.4114494,67.6204743 C31.2714421,66.5618442 31.5750171,65.1495089 31.2280743,63.8249786 C31.2149821,63.7843895 31.2035264,63.7438003 31.1937074,63.7032112 C30.9948699,63.0256215 30.63238,62.4093297 30.1381502,61.9098353 Z M53.2910181,34.1352035 L53.2910181,62.284433 C53.7883146,62.3378644 54.2888774,62.3658129 54.7894405,62.3666351 C62.5559224,62.3666351 68.8525621,56.0280441 68.8525621,48.2098182 C68.8525621,40.3907705 62.5559224,34.0521794 54.7894405,34.0521794 C54.2888774,34.0530014 53.7883146,34.0809502 53.2910181,34.1352035 Z M95.0826039,45.7181424 L90.4342269,52.8097896 L99.7317993,52.8097896 L95.0826039,45.7181424 Z M7.18350645,52.7285365 L0.206417122,42.0860494 C-0.0473248769,41.6995858 -0.0686065775,41.2058624 0.150757564,40.7989292 C0.370940175,40.3919961 0.79575362,40.1389935 1.25740054,40.1389935 L7.43479303,40.1389935 C8.98098277,28.8259268 14.6287909,18.4757437 23.3043153,11.0551516 C31.4952742,4.02921046 41.8193036,0 51.6293007,0 C58.0448832,0 64.733034,1.7194355 70.9701786,4.97244365 C77.4160466,8.3392621 83.006558,13.1364872 87.3144442,18.9964871 C87.7245243,19.5573507 87.6033827,20.3441971 87.0426946,20.7544052 C86.4828249,21.1654321 85.6962244,21.0434341 85.2861445,20.4833894 C81.2066263,14.9337067 75.9124201,10.3911219 69.8078761,7.20279712 C63.9284261,4.13647054 57.6421701,2.5152885 51.6284822,2.5152885 C42.4094586,2.5152885 32.6821323,6.32342878 24.9405427,12.9645435 C16.8240692,19.9077878 11.5061259,29.5652839 9.9771251,40.1389935 L15.2123977,40.1389935 C15.6740446,40.1389935 16.098858,40.3919961 16.3182222,40.7989292 C16.5375863,41.2058624 16.5171233,41.6995858 16.2633811,42.0860494 L9.28547329,52.7285365 C9.05383125,53.0822489 8.65848463,53.2959502 8.23448987,53.2959502 C7.8104951,53.2959502 7.41514848,53.0822489 7.18350645,52.7285365 Z M12.8837,42.654282 L3.58527971,42.654282 L8.23530834,49.7449065 L12.8837,42.654282 Z" id="Combined-Shape"></path>
                </g>
            </g>
        </g>
    </g>
</svg>