<?xml version="1.0" encoding="UTF-8"?>
<svg width="80px" height="79px" viewBox="0 0 80 79" version="1.1" xmlns="http://www.w3.org/2000/svg" xmlns:xlink="http://www.w3.org/1999/xlink">
    <!-- Generator: Sketch 54 (76480) - https://sketchapp.com -->
    <title>brand-icon1</title>
    <desc>Created with Sketch.</desc>
    <g id="Page-1" stroke="none" stroke-width="1" fill="none" fill-rule="evenodd">
        <g id="MIKA3" transform="translate(-630.000000, -1643.000000)" fill-rule="nonzero">
            <g id="brand-icon1" transform="translate(630.000000, 1643.000000)">
                <path d="M74.7700143,35.9028369 C71.3803042,32.378604 66.8389388,30.368449 61.9825347,30.2424835 C56.9406668,30.1138709 52.1793363,31.969722 48.5734079,35.4738689 C44.9662305,38.9792615 42.9796759,43.6756436 42.9796759,48.6977612 C42.9796759,49.0138429 42.9796759,49.0252094 44.4612007,51.9530911 L42.8346457,66.823878 L48.8692445,66.823878 L48.8692445,75.3834634 L58.9657817,75.3834634 L58.9657817,78.7401575 L61.4898379,78.7401575 L61.4898379,75.3834634 L68.8938715,75.3834634 L68.8938715,72.8660207 L51.3933007,72.8660207 L51.3933007,64.3064353 L45.6487623,64.3064353 L47.0511372,51.484574 C47.0511372,51.484574 45.7731854,48.9549863 45.5060738,48.4160904 C45.578667,44.1849555 47.2867137,40.2389171 50.3346896,37.2769358 C53.4488579,34.2504926 57.5627823,32.6429915 61.9164984,32.7591476 C70.4959166,32.9816505 77.4757876,40.2136928 77.4757876,48.8800921 L77.4757876,78.7401575 L80,78.7401575 L80,48.8800921 C80,44.0180395 78.1425519,39.4093194 74.7700143,35.9028369 Z" id="Path" fill="#000000"></path>
                <path d="M35.538813,51.953153 C37.0201692,49.025261 37.0201692,49.0138945 37.0201692,48.6978117 C37.0201692,43.6755208 35.0334752,38.9791222 31.4264842,35.473873 C27.8205861,31.9697138 23.0596078,30.114012 18.0176262,30.2424693 C13.1611067,30.368591 8.61977947,32.3785973 5.23009783,35.9028425 C1.85743251,39.4091816 0,44.0179179 0,48.8799875 L0,78.7401575 L2.52403504,78.7401575 L2.52403504,48.8799875 C2.52403504,40.2135579 9.50384741,32.9814902 18.0830375,32.7589866 C22.4398392,32.6456327 26.5507629,34.2504925 29.664749,37.2767906 C32.7126993,40.2387822 34.4208877,44.1848345 34.4934803,48.4159841 C34.2262148,48.9548819 32.9482738,51.4844785 32.9482738,51.4844785 L34.3506369,64.3063847 L28.6063028,64.3063847 L28.6063028,72.8660001 L11.1060352,72.8660001 L11.1060352,75.3834517 L18.5100066,75.3834517 L18.5100066,78.7401575 L21.0340416,78.7401575 L21.0340416,75.3834517 L31.130494,75.3834517 L31.130494,66.8238362 L37.1653543,66.8238362 L35.538813,51.953153 Z" id="Path" fill="#000000"></path>
                <path d="M48.7138608,5.02754833 L48.7138608,0 L6.2992126,0 L6.2992126,22.6238897 L13.3543989,22.6238897 L13.3543989,28.9881997 L21.4348563,22.6238897 L28.3605396,22.6238897 L28.3605396,20.1101933 L20.5601266,20.1101933 L15.8741751,23.8008246 L15.8741751,20.1101933 L8.81883295,20.1101933 L8.81883295,2.5138519 L46.1942404,2.5138519 L46.1942404,5.02754833 L30.656218,5.02754833 L30.656218,27.6514381 L37.7777921,27.6514381 L45.8582495,34.015748 L45.8582495,27.6514381 L73.0708661,27.6514381 L73.0708661,5.02754833 L48.7138608,5.02754833 Z M70.5512458,25.1375862 L43.3386291,25.1375862 L43.3386291,28.8282174 L38.6526776,25.1375862 L33.1758383,25.1375862 L33.1758383,22.6238897 L48.7138608,22.6238897 L48.7138608,9.97129641 L46.1942404,9.97129641 L46.1942404,20.1101933 L33.1758383,20.1101933 L33.1758383,7.54124476 L70.5512458,7.54124476 L70.5512458,25.1375862 Z" id="Shape" fill="#000000"></path>
                <g id="Group" transform="translate(13.228346, 8.188976)" fill="#000000">
                    <rect id="Rectangle" x="0.0117025372" y="0.120244969" width="2.4895608" height="2.2632371"></rect>
                    <rect id="Rectangle" x="11.2980297" y="0.120244969" width="2.4895608" height="2.2632371"></rect>
                    <rect id="Rectangle" x="5.65478915" y="0.120244969" width="2.4895608" height="2.2632371"></rect>
                </g>
                <g id="Group" transform="translate(52.283465, 15.118110)" fill="#0D5FFF">
                    <rect id="Rectangle" x="5.9565562" y="0.125564304" width="2.57412131" height="2.2632371"></rect>
                    <rect id="Rectangle" x="0.121637103" y="0.125564304" width="2.57412131" height="2.2632371"></rect>
                    <rect id="Rectangle" x="11.7913161" y="0.125564304" width="2.57412131" height="2.2632371"></rect>
                </g>
            </g>
        </g>
    </g>
</svg>