<?xml version="1.0" encoding="UTF-8"?>
<svg width="80px" height="73px" viewBox="0 0 80 73" version="1.1" xmlns="http://www.w3.org/2000/svg" xmlns:xlink="http://www.w3.org/1999/xlink">
    <!-- Generator: Sketch 54 (76480) - https://sketchapp.com -->
    <title>brand-icon2</title>
    <desc>Created with Sketch.</desc>
    <g id="Page-1" stroke="none" stroke-width="1" fill="none" fill-rule="evenodd">
        <g id="MIKA3" transform="translate(-1219.000000, -1649.000000)">
            <g id="brand-icon2" transform="translate(1219.000000, 1649.000000)">
                <path d="M8.74645875,20.9929078 C8.13240644,20.9929078 7.58959426,20.5434231 7.47737516,19.9040698 L6.26187927,12.9764515 C6.20009569,12.6283593 6.27764033,12.2705798 6.47686061,11.9819021 C6.67482009,11.6925786 6.97743317,11.4968979 7.31787289,11.438129 L14.2994088,10.2317534 C14.9973103,10.109695 15.6599069,10.5888871 15.7853653,11.3018628 L17.0008612,18.2301268 C17.0620142,18.5775732 16.9844696,18.9353528 16.7858797,19.2246763 C16.58729,19.513354 16.2846769,19.7090347 15.9448676,19.7678036 L8.96270105,20.9741791 C8.89019996,20.9870954 8.81832943,20.9929078 8.74645875,20.9929078 Z M9.03394118,13.823756 L9.79236526,18.1481087 L14.2281687,17.3815308 L13.4697446,13.0571781 L9.03394118,13.823756 Z" id="Shape" fill="#000000" fill-rule="nonzero"></path>
                <polygon id="Path" fill="#000000" fill-rule="nonzero" points="10.212766 24.5496048 20.546908 22.6950355 20.9929078 25.3788081 10.6594056 27.2340426"></polygon>
                <path d="M6.81417717,37.4468085 C6.19068181,37.4468085 5.6364637,37.0119585 5.52292584,36.392797 L0.020515149,6.43125433 C-0.043630465,6.08262464 0.0442489852,5.72337349 0.261702658,5.43972123 C0.479156331,5.15544438 0.808864705,4.9730073 1.17000455,4.93427058 L20.6702712,2.84499108 C21.0429572,2.80375538 21.4124359,2.92121487 21.6901866,3.16363127 C21.9685785,3.40604767 22.1276596,3.75280313 22.1276596,4.1170524 L22.1276596,36.1672498 C22.1276596,36.873881 21.5388028,37.4468085 20.8139574,37.4468085 C20.0884705,37.4468085 19.5002552,36.873881 19.5002552,36.1672498 L19.5002552,5.54530994 L2.85510987,7.32782019 L8.109277,35.9429521 C8.2362854,36.6383372 7.76160785,37.303108 7.04702563,37.4280649 C6.96876806,37.4411855 6.89115191,37.4468085 6.81417717,37.4468085 Z" id="Path" fill="#000000" fill-rule="nonzero"></path>
                <path d="M71.1522428,21.5602837 C71.0783978,21.5602837 71.0026264,21.5538228 70.926855,21.5402546 L63.5025421,20.2506431 C63.1583601,20.1905559 62.8520638,19.9954343 62.651077,19.7079208 C62.4494481,19.4197609 62.370466,19.0644069 62.4314682,18.7174523 L63.7240771,11.3073541 C63.8486503,10.5895391 64.525456,10.1081961 65.2433578,10.2322469 L72.6676708,11.5225047 C73.0118528,11.5819457 73.318149,11.7770674 73.5191358,12.065227 C73.7207649,12.3527408 73.7997468,12.7087406 73.7387445,13.0556954 L72.4461358,20.4651475 C72.334405,21.1080151 71.7789622,21.5602837 71.1522428,21.5602837 Z M65.2504213,17.8684796 L70.0830956,18.7090531 L70.9210758,13.9053142 L66.0877594,13.0653868 L65.2504213,17.8684796 Z" id="Shape" fill="#000000" fill-rule="nonzero"></path>
                <rect id="Rectangle" fill="#0D5FFF" x="27.2" y="7.2" width="13.6" height="13.6"></rect>
                <polygon id="Path" fill="#000000" fill-rule="nonzero" points="59.0070922 25.3792014 59.453092 22.6950355 69.787234 24.5498766 69.3412343 27.2340426"></polygon>
                <path d="M74.6780488,29.5035461 C74.6060508,29.5035461 74.5334374,29.4972716 74.458978,29.4834676 C73.7734586,29.361114 73.3150098,28.6947581 73.4356217,27.996402 L77.2619771,5.76884904 L62.0950135,4.39221536 L62.0950135,28.2185206 C62.0950135,28.9275435 61.5301062,29.5035461 60.8347408,29.5035461 C60.1387601,29.5035461 59.5744681,28.9275435 59.5744681,28.2185206 L59.5744681,2.98734614 C59.5744681,2.62718771 59.7233871,2.28271558 59.9836876,2.03926332 C60.2446034,1.7964388 60.5910552,1.67471267 60.9461223,1.70734027 L78.8520868,3.33244584 C79.2034617,3.36444587 79.5252988,3.54515258 79.7400622,3.83064412 C79.9548254,4.11613567 80.0415922,4.4800589 79.9812863,4.83457029 L75.9173991,28.4393844 C75.8109405,29.063701 75.2786475,29.5035461 74.6780488,29.5035461 Z" id="Path" fill="#000000" fill-rule="nonzero"></path>
                <polygon id="Path" fill="#000000" fill-rule="nonzero" points="46.5248227 7.94326241 56.1702128 7.94326241 56.1702128 10.212766 46.5248227 10.212766"></polygon>
                <polygon id="Path" fill="#000000" fill-rule="nonzero" points="46.5248227 15.3191489 56.1702128 15.3191489 56.1702128 17.5886525 46.5248227 17.5886525"></polygon>
                <polygon id="Path" fill="#000000" fill-rule="nonzero" points="25.5319149 27.2340426 40.8510638 27.2340426 40.8510638 29.5035461 25.5319149 29.5035461"></polygon>
                <path d="M21.1459063,37.4468085 C20.4347512,37.4468085 19.858156,36.8667624 19.858156,36.1513514 L19.858156,1.29545716 C19.858156,0.580045963 20.4347512,0 21.1459063,0 L60.5562213,0 C61.2667477,0 61.8439716,0.580045963 61.8439716,1.29545716 L61.8439716,28.7967222 C61.8439716,29.5115009 61.2667477,30.0921794 60.5562213,30.0921794 C59.8450662,30.0921794 59.268471,29.5115009 59.268471,28.7967222 L59.268471,2.59091432 L22.4336566,2.59091432 L22.4336566,36.1513514 C22.4336566,36.8673951 21.8570614,37.4468085 21.1459063,37.4468085 Z" id="Path" fill="#000000" fill-rule="nonzero"></path>
                <path d="M72.6410838,72.6241135 L7.34415786,72.6241135 C6.21907056,72.6241135 5.28741708,71.7535926 5.22272764,70.6432537 L2.84063734,37.3607819 C2.80575578,36.7709931 3.01504495,36.2013464 3.41269409,35.7821368 C3.81288022,35.3610389 4.37732662,35.1199619 4.96143339,35.1199619 L39.4820824,35.1199619 L46.0176096,29.0389051 C46.8744265,28.2407703 47.9963428,27.8014184 49.175338,27.8014184 L75.0377608,27.8014184 C75.6193309,27.8014184 76.1806061,28.0406071 76.5801579,28.457299 C76.9778072,28.8727319 77.1896332,29.4379724 77.1604595,30.0082486 L74.7631482,70.6382182 C74.7079719,71.7460393 73.7763185,72.6241135 72.6410838,72.6241135 L72.6410838,72.6241135 Z M7.78366506,70.0459116 L72.1958688,70.0459116 L74.5367355,30.378991 L49.175338,30.378991 C48.6584573,30.378991 48.1682136,30.5703419 47.79403,30.9190538 L40.5095015,37.6975344 L5.46880087,37.6975344 L7.78366506,70.0459116 Z" id="Shape" fill="#000000" fill-rule="nonzero"></path>
                <path d="M52.1384306,59.5744681 L28.4276903,59.5744681 C27.5410263,59.5744681 26.8233727,58.8750052 26.7593536,57.9465036 L26.1037984,48.4145458 C26.0679477,47.8922636 26.2472011,47.3854153 26.5967451,47.0248801 C26.9097984,46.7026209 27.3272026,46.5248227 27.7721351,46.5248227 L52.794626,46.5248227 C53.2395585,46.5248227 53.6563225,46.7020036 53.9693757,47.0242627 C54.3189198,47.3841805 54.4994537,47.8910289 54.463603,48.4139283 L53.8067673,57.9465036 C53.7440286,58.8743877 53.0263749,59.5744681 52.1384306,59.5744681 L52.1384306,59.5744681 Z M29.3252376,57.0457829 L51.2408833,57.0457829 L51.7914472,49.0528906 L28.7753138,49.0528906 L29.3252376,57.0457829 Z" id="Shape" fill="#000000" fill-rule="nonzero"></path>
                <polygon id="Path" fill="#000000" fill-rule="nonzero" points="32.3404255 52.1985816 47.6595745 52.1985816 47.6595745 54.4680851 32.3404255 54.4680851"></polygon>
            </g>
        </g>
    </g>
</svg>