<?xml version="1.0" encoding="UTF-8"?>
<svg width="125px" height="100px" viewBox="0 0 125 100" version="1.1" xmlns="http://www.w3.org/2000/svg" xmlns:xlink="http://www.w3.org/1999/xlink">
    <!-- Generator: Sketch 54 (76480) - https://sketchapp.com -->
    <title>brand-large-icon</title>
    <desc>Created with Sketch.</desc>
    <defs>
        <linearGradient x1="100%" y1="50%" x2="-57.494213%" y2="50%" id="linearGradient-1">
            <stop stop-color="#80DCC5" offset="0%"></stop>
            <stop stop-color="#0D5FFF" offset="100%"></stop>
        </linearGradient>
        <circle id="path-2" cx="86.0943775" cy="34.3875502" r="8.28313253"></circle>
        <filter x="-42.3%" y="-30.2%" width="184.5%" height="184.5%" filterUnits="objectBoundingBox" id="filter-3">
            <feOffset dx="0" dy="2" in="SourceAlpha" result="shadowOffsetOuter1"></feOffset>
            <feGaussianBlur stdDeviation="2" in="shadowOffsetOuter1" result="shadowBlurOuter1"></feGaussianBlur>
            <feColorMatrix values="0 0 0 0 0.314369351   0 0 0 0 0.8883757   0 0 0 0 0.759899616  0 0 0 1 0" type="matrix" in="shadowBlurOuter1"></feColorMatrix>
        </filter>
    </defs>
    <g id="Page-1" stroke="none" stroke-width="1" fill="none" fill-rule="evenodd">
        <g id="MIKA3" transform="translate(-1323.000000, -1371.000000)">
            <g id="brand-large-icon" transform="translate(1323.000000, 1371.000000)">
                <g id="network" transform="translate(26.606426, 0.000000)">
                    <path d="M5.67387486,60.2790166 L19.8566296,64.0850107 L19.8566296,65.2355516 C19.8566296,69.1344771 23.0173333,72.2951807 26.9162588,72.2951807 L83.1759068,72.2951807 C90.6317509,72.2951807 96.6759068,66.2510248 96.6759068,58.7951807 L96.6759068,15 C96.6759068,7.54415588 90.6317509,1.5 83.1759068,1.5 L33.3566296,1.5 C25.9007855,1.5 19.8566296,7.54415588 19.8566296,15 L19.8566296,55.7413048 L5.67387486,60.2790166 Z" id="Rectangle" stroke="#333333" stroke-width="3" fill="#FFFFFF"></path>
                    <path d="M77.8021176,11.5461847 C74.7516521,11.5461847 72.2709018,14.026935 72.2709018,17.0774005 C72.2709018,18.0315352 72.5133534,18.9294359 72.9401789,19.7139467 L63.8791256,28.775 C62.6299927,27.8024279 61.0665024,27.2179628 59.3647317,27.2179628 C57.6629609,27.2179628 56.0994706,27.8024279 54.8494158,28.7740781 L47.7796002,21.7042625 C48.1040982,21.1557503 48.3023001,20.5251917 48.3023001,19.8430084 C48.3023001,17.8093647 46.6484666,16.1555312 44.6148229,16.1555312 C42.5811793,16.1555312 40.9273457,17.8093647 40.9273457,19.8430084 C40.9273457,21.8766521 42.5811793,23.5304856 44.6148229,23.5304856 C45.2970062,23.5304856 45.9275648,23.3322837 46.476077,23.0077857 L53.5458927,30.0776013 C52.5742424,31.3276561 51.9897773,32.8911464 51.9897773,34.5929171 C51.9897773,36.2946878 52.5742424,37.8581782 53.5458927,39.1073111 L41.8713399,50.7827857 C40.8886272,49.8913381 39.5897134,49.3428258 38.1617379,49.3428258 C35.1112724,49.3428258 32.6305221,51.8235761 32.6305221,54.8740416 C32.6305221,57.9245071 35.1112724,60.4052574 38.1617379,60.4052574 C41.2122034,60.4052574 43.6929536,57.9245071 43.6929536,54.8740416 C43.6929536,53.9199069 43.450502,53.0220062 43.0236765,52.2374954 L54.8503377,40.4108342 C55.8699252,41.2036418 57.0996988,41.7346386 58.4437842,41.9033406 L58.4437842,51.2695327 C55.8321285,51.7101862 53.8344378,53.9816721 53.8344378,56.7177802 C53.8344378,59.7682457 56.315188,62.248996 59.3656535,62.248996 C62.416119,62.248996 64.8968693,59.7682457 64.8968693,56.7177802 C64.8968693,53.982594 62.8991785,51.7111081 60.2875228,51.2695327 L60.2875228,41.9033406 C61.6316083,41.7346386 62.8613819,41.2036418 63.8809693,40.4108342 L70.950785,47.4806499 C70.6253651,48.030084 70.4271632,48.6606426 70.4271632,49.3428258 C70.4271632,51.3764695 72.0809967,53.030303 74.1146404,53.030303 C76.148284,53.030303 77.8021176,51.3764695 77.8021176,49.3428258 C77.8021176,47.3091822 76.148284,45.6553487 74.1146404,45.6553487 C73.4324571,45.6553487 72.8018985,45.8535506 72.2533863,46.1780486 L65.1835706,39.1082329 C66.1552209,37.8581782 66.739686,36.2946878 66.739686,34.5929171 C66.739686,32.8911464 66.1552209,31.3276561 65.1835706,30.0785232 L74.0934374,21.1686564 C75.0752282,22.0601041 76.374142,22.6086163 77.8021176,22.6086163 C80.8525831,22.6086163 83.3333333,20.127866 83.3333333,17.0774005 C83.3333333,14.026935 80.8525831,11.5461847 77.8021176,11.5461847 Z" id="Path" fill="#333333" fill-rule="nonzero"></path>
                    <path d="M42.7710843,19.8430084 C42.7710843,18.8261866 43.5980011,17.9992698 44.6148229,17.9992698 C45.6316448,17.9992698 46.4585615,18.8261866 46.4585615,19.8430084 C46.4585615,20.8598302 45.6316448,21.686747 44.6148229,21.686747 C43.5980011,21.686747 42.7710843,20.8598302 42.7710843,19.8430084 Z M38.1617379,58.5615188 C36.1280942,58.5615188 34.4742607,56.9076853 34.4742607,54.8740416 C34.4742607,52.840398 36.1280942,51.1865644 38.1617379,51.1865644 C40.1953815,51.1865644 41.849215,52.840398 41.849215,54.8740416 C41.849215,56.9076853 40.1953815,58.5615188 38.1617379,58.5615188 Z M63.0522088,56.7177802 C63.0522088,58.7514239 61.3983753,60.4052574 59.3647317,60.4052574 C57.331088,60.4052574 55.6772545,58.7514239 55.6772545,56.7177802 C55.6772545,54.6841365 57.331088,53.030303 59.3647317,53.030303 C61.3983753,53.030303 63.0522088,54.6841365 63.0522088,56.7177802 Z M75.958379,49.3428258 C75.958379,50.3596477 75.1314622,51.1865644 74.1146404,51.1865644 C73.0978185,51.1865644 72.2709018,50.3596477 72.2709018,49.3428258 C72.2709018,48.326004 73.0978185,47.4990873 74.1146404,47.4990873 C75.1314622,47.4990873 75.958379,48.326004 75.958379,49.3428258 Z M77.8021176,20.7648777 C75.7684739,20.7648777 74.1146404,19.1110442 74.1146404,17.0774005 C74.1146404,15.0437568 75.7684739,13.3899233 77.8021176,13.3899233 C79.8357612,13.3899233 81.4895947,15.0437568 81.4895947,17.0774005 C81.4895947,19.1110442 79.8357612,20.7648777 77.8021176,20.7648777 Z" id="Shape" fill="#FFFFFF" fill-rule="nonzero"></path>
                </g>
                <g id="smartphone-(3)" transform="translate(0.000000, 26.104418)" fill="#000000" fill-rule="nonzero">
                    <path d="M40.1606426,23.0923695 L38.3307747,23.0923695 L38.3307747,10.1556495 L1.82897478,10.1556495 L1.82897478,58.2736194 L38.3307747,58.2736194 L38.3307747,44.1767068 L40.1606426,44.1767068 L40.1606426,68.38525 C40.1606426,71.0916934 37.9630151,73.2931727 35.261705,73.2931727 L4.89893753,73.2931727 C2.1974489,73.2931727 0,71.0915145 0,68.38525 L0,4.90792271 C0,2.20147926 2.1974489,0 4.89893753,0 L35.261705,0 C37.9631937,0 40.1606426,2.20147926 40.1606426,4.90792271 L40.1606426,23.0923695 Z M38.3307747,68.38525 L38.3307747,60.1059487 L1.82897478,60.1059487 L1.82897478,68.38525 C1.82897478,70.0810493 3.20624281,71.4608434 4.89893753,71.4608434 L35.260812,71.4608434 C36.9535067,71.4608434 38.3307747,70.0810493 38.3307747,68.38525 Z M38.3307747,8.32332014 L38.3307747,4.90792271 C38.3307747,3.2121234 36.9535067,1.83232932 35.260812,1.83232932 L4.89893753,1.83232932 C3.20624281,1.83232932 1.82897478,3.2121234 1.82897478,4.90792271 L1.82897478,8.32332014 L38.3307747,8.32332014 Z M19.8293173,62.248996 C21.9051999,62.248996 23.5943775,63.9374808 23.5943775,66.0136096 C23.5943775,68.0897385 21.9051999,69.7791165 19.8293173,69.7791165 C17.7534346,69.7791165 16.064257,68.0906317 16.064257,66.0145028 C16.064257,63.9383739 17.7534346,62.248996 19.8293173,62.248996 Z M19.8293173,67.9507583 C20.8965517,67.9507583 21.7653431,67.0818639 21.7653431,66.0145028 C21.7653431,64.9471418 20.8965517,64.0782474 19.8293173,64.0782474 C18.7620828,64.0782474 17.8932915,64.9471418 17.8932915,66.0145028 C17.8932915,67.0818639 18.7620828,67.9507583 19.8293173,67.9507583 Z" id="Combined-Shape"></path>
                    <path d="M19.8293173,62.248996 C17.7534346,62.248996 16.064257,63.9383739 16.064257,66.0145028 C16.064257,68.0906317 17.7534346,69.7791165 19.8293173,69.7791165 C21.9051999,69.7791165 23.5943775,68.0897385 23.5943775,66.0136096 C23.5943775,63.9374808 21.9051999,62.248996 19.8293173,62.248996 Z" id="Path"></path>
                </g>
                <path d="M9.28714859,49.1967871 L30.8303527,49.1967871" id="Line" stroke="#333333" stroke-width="3" stroke-linecap="square"></path>
                <path d="M9.28714859,54.2168675 L25.3514056,54.2168675" id="Line" stroke="#333333" stroke-width="3" stroke-linecap="square"></path>
                <path d="M9.28714859,59.2369478 L20.0587506,59.2369478" id="Line" stroke="#333333" stroke-width="3" stroke-linecap="square"></path>
                <path d="M9.28714859,64.2570281 L30.8303527,64.2570281" id="Line" stroke="#333333" stroke-width="3" stroke-linecap="square"></path>
                <path d="M9.28714859,69.2771084 L30.8303527,69.2771084" id="Line" stroke="#333333" stroke-width="3" stroke-linecap="square"></path>
                <g id="Oval" fill-rule="nonzero">
                    <use fill="black" fill-opacity="1" filter="url(#filter-3)" xlink:href="#path-2"></use>
                    <use fill="url(#linearGradient-1)" xlink:href="#path-2"></use>
                </g>
            </g>
        </g>
    </g>
</svg>