<?xml version="1.0" encoding="UTF-8"?>
<svg width="706px" height="466px" viewBox="0 0 706 466" version="1.1" xmlns="http://www.w3.org/2000/svg" xmlns:xlink="http://www.w3.org/1999/xlink">
    <!-- Generator: Sketch 54 (76480) - https://sketchapp.com -->
    <title>pattern3</title>
    <desc>Created with Sketch.</desc>
    <defs>
        <polygon id="path-1" points="0 40.8260762 0 281 55 234.208848 55 0"></polygon>
        <filter x="-29.1%" y="-2.8%" width="140.0%" height="107.2%" filterUnits="objectBoundingBox" id="filter-2">
            <feMorphology radius="1" operator="dilate" in="SourceAlpha" result="shadowSpreadOuter1"></feMorphology>
            <feOffset dx="-7" dy="2" in="shadowSpreadOuter1" result="shadowOffsetOuter1"></feOffset>
            <feGaussianBlur stdDeviation="1.5" in="shadowOffsetOuter1" result="shadowBlurOuter1"></feGaussianBlur>
            <feComposite in="shadowBlurOuter1" in2="SourceAlpha" operator="out" result="shadowBlurOuter1"></feComposite>
            <feColorMatrix values="0 0 0 0 0.349733232   0 0 0 0 1   0 0 0 0 0.868482978  0 0 0 0.5 0" type="matrix" in="shadowBlurOuter1"></feColorMatrix>
        </filter>
        <polygon id="path-3" points="664.455977 126 664.244196 151.593413 627 187.866096 664.455977 226.5 703 187.866096 664.455977 151.593413"></polygon>
        <filter x="-21.6%" y="-246.5%" width="130.1%" height="357.8%" filterUnits="objectBoundingBox" id="filter-4">
            <feMorphology radius="1" operator="dilate" in="SourceAlpha" result="shadowSpreadOuter1"></feMorphology>
            <feOffset dx="-7" dy="2" in="shadowSpreadOuter1" result="shadowOffsetOuter1"></feOffset>
            <feGaussianBlur stdDeviation="1.5" in="shadowOffsetOuter1" result="shadowBlurOuter1"></feGaussianBlur>
            <feComposite in="shadowBlurOuter1" in2="SourceAlpha" operator="out" result="shadowBlurOuter1"></feComposite>
            <feColorMatrix values="0 0 0 0 0.349733232   0 0 0 0 1   0 0 0 0 0.868482978  0 0 0 0.5 0" type="matrix" in="shadowBlurOuter1"></feColorMatrix>
        </filter>
        <rect id="path-5" x="638.817682" y="166.426339" width="52" height="52"></rect>
        <filter x="-30.8%" y="-13.5%" width="142.3%" height="134.6%" filterUnits="objectBoundingBox" id="filter-6">
            <feMorphology radius="1" operator="dilate" in="SourceAlpha" result="shadowSpreadOuter1"></feMorphology>
            <feOffset dx="-7" dy="2" in="shadowSpreadOuter1" result="shadowOffsetOuter1"></feOffset>
            <feGaussianBlur stdDeviation="1.5" in="shadowOffsetOuter1" result="shadowBlurOuter1"></feGaussianBlur>
            <feComposite in="shadowBlurOuter1" in2="SourceAlpha" operator="out" result="shadowBlurOuter1"></feComposite>
            <feColorMatrix values="0 0 0 0 0.349733232   0 0 0 0 1   0 0 0 0 0.868482978  0 0 0 0.5 0" type="matrix" in="shadowBlurOuter1"></feColorMatrix>
        </filter>
        <path d="M626.697266,165 L626.302734,194" id="path-7"></path>
        <filter x="-1571.1%" y="-24.2%" width="2240.8%" height="162.2%" filterUnits="objectBoundingBox" id="filter-8">
            <feMorphology radius="1" operator="dilate" in="SourceAlpha" result="shadowSpreadOuter1"></feMorphology>
            <feOffset dx="-7" dy="2" in="shadowSpreadOuter1" result="shadowOffsetOuter1"></feOffset>
            <feMorphology radius="1" operator="erode" in="SourceAlpha" result="shadowInner"></feMorphology>
            <feOffset dx="-7" dy="2" in="shadowInner" result="shadowInner"></feOffset>
            <feComposite in="shadowOffsetOuter1" in2="shadowInner" operator="out" result="shadowOffsetOuter1"></feComposite>
            <feGaussianBlur stdDeviation="1.5" in="shadowOffsetOuter1" result="shadowBlurOuter1"></feGaussianBlur>
            <feColorMatrix values="0 0 0 0 0.349733232   0 0 0 0 1   0 0 0 0 0.868482978  0 0 0 0.5 0" type="matrix" in="shadowBlurOuter1"></feColorMatrix>
        </filter>
        <path d="M664.697266,126.190291 L664.302734,155.190291" id="path-9"></path>
        <filter x="-1571.1%" y="-24.2%" width="2240.8%" height="162.2%" filterUnits="objectBoundingBox" id="filter-10">
            <feMorphology radius="1" operator="dilate" in="SourceAlpha" result="shadowSpreadOuter1"></feMorphology>
            <feOffset dx="-7" dy="2" in="shadowSpreadOuter1" result="shadowOffsetOuter1"></feOffset>
            <feMorphology radius="1" operator="erode" in="SourceAlpha" result="shadowInner"></feMorphology>
            <feOffset dx="-7" dy="2" in="shadowInner" result="shadowInner"></feOffset>
            <feComposite in="shadowOffsetOuter1" in2="shadowInner" operator="out" result="shadowOffsetOuter1"></feComposite>
            <feGaussianBlur stdDeviation="1.5" in="shadowOffsetOuter1" result="shadowBlurOuter1"></feGaussianBlur>
            <feColorMatrix values="0 0 0 0 0.349733232   0 0 0 0 1   0 0 0 0 0.868482978  0 0 0 0.5 0" type="matrix" in="shadowBlurOuter1"></feColorMatrix>
        </filter>
        <path d="M702.5,163 L702.5,194" id="path-11"></path>
        <filter x="-1550.0%" y="-22.6%" width="2200.0%" height="158.1%" filterUnits="objectBoundingBox" id="filter-12">
            <feMorphology radius="1" operator="dilate" in="SourceAlpha" result="shadowSpreadOuter1"></feMorphology>
            <feOffset dx="-7" dy="2" in="shadowSpreadOuter1" result="shadowOffsetOuter1"></feOffset>
            <feMorphology radius="1" operator="erode" in="SourceAlpha" result="shadowInner"></feMorphology>
            <feOffset dx="-7" dy="2" in="shadowInner" result="shadowInner"></feOffset>
            <feComposite in="shadowOffsetOuter1" in2="shadowInner" operator="out" result="shadowOffsetOuter1"></feComposite>
            <feGaussianBlur stdDeviation="1.5" in="shadowOffsetOuter1" result="shadowBlurOuter1"></feGaussianBlur>
            <feColorMatrix values="0 0 0 0 0.349733232   0 0 0 0 1   0 0 0 0 0.868482978  0 0 0 0.5 0" type="matrix" in="shadowBlurOuter1"></feColorMatrix>
        </filter>
    </defs>
    <g id="Page-1" stroke="none" stroke-width="1" fill="none" fill-rule="evenodd">
        <g id="technology" transform="translate(-896.000000, -2874.000000)">
            <g id="pattern3" transform="translate(897.000000, 2875.000000)">
                <polygon id="Path-39" stroke="#979797" fill-opacity="0.5" fill="#FFFFFF" points="27 70.9622337 27 359 93 302.883921 93 22"></polygon>
                <polygon id="Path-39" stroke="#979797" points="0 59.1324306 0 407 77 339.227763 77 0"></polygon>
                <g id="Group-3" transform="translate(49.000000, 39.000000)">
                    <g id="Path-39">
                        <use fill="black" fill-opacity="1" filter="url(#filter-2)" xlink:href="#path-1"></use>
                        <use stroke="#2DE6E3" stroke-width="2" fill="#FFFFFF" fill-rule="evenodd" xlink:href="#path-1"></use>
                    </g>
                    <path d="M100,140 C126.143506,82.3036628 148.843401,46.846388 168.099686,33.6281757 C196.984113,13.8008572 247.170207,-5.12923037e-13 300,0" id="Path-40" stroke="#999999"></path>
                    <path d="M100,140 C126.143506,90.9581133 148.843401,60.8194298 168.099686,49.5839493 C196.984113,32.7307286 247.170207,21 300,21" id="Path-40" stroke="#999999"></path>
                    <path d="M100,140 C126.143506,100.024681 148.843401,75.4578545 168.099686,66.2995217 C196.984113,52.5620225 247.170207,43 300,43" id="Path-40" stroke="#999999"></path>
                    <path d="M100,140 C126.143506,108.679131 148.843401,89.4308963 168.099686,82.2552954 C196.984113,71.4918939 247.170207,64 300,64" id="Path-40" stroke="#999999"></path>
                    <path d="M100,140 C126.143506,119.394165 148.843401,106.730853 168.099686,102.010063 C196.984113,94.9288776 247.170207,90 300,90" id="Path-40" stroke="#999999"></path>
                    <path d="M100,140 C126.143506,129.284966 148.843401,122.700043 168.099686,120.245233 C196.984113,116.563016 247.170207,114 300,114" id="Path-40" stroke="#999999"></path>
                    <path d="M100,279 C126.143506,221.303663 148.843401,185.846388 168.099686,172.628176 C196.984113,152.800857 247.170207,139 300,139" id="Path-40" stroke="#999999" transform="translate(200.000000, 209.000000) scale(-1, 1) rotate(-180.000000) translate(-200.000000, -209.000000) "></path>
                    <path d="M100,258 C126.143506,208.958113 148.843401,178.81943 168.099686,167.583949 C196.984113,150.730729 247.170207,139 300,139" id="Path-40" stroke="#999999" transform="translate(200.000000, 198.500000) scale(-1, 1) rotate(-180.000000) translate(-200.000000, -198.500000) "></path>
                    <path d="M100,236 C126.143506,196.024681 148.843401,171.457855 168.099686,162.299522 C196.984113,148.562022 247.170207,139 300,139" id="Path-40" stroke="#999999" transform="translate(200.000000, 187.500000) scale(-1, 1) rotate(-180.000000) translate(-200.000000, -187.500000) "></path>
                    <path d="M100,214 C126.143506,182.679131 148.843401,163.430896 168.099686,156.255295 C196.984113,145.491894 247.170207,138 300,138" id="Path-40" stroke="#999999" transform="translate(200.000000, 176.000000) scale(-1, 1) rotate(-180.000000) translate(-200.000000, -176.000000) "></path>
                    <path d="M100,189 C126.143506,168.394165 148.843401,155.730853 168.099686,151.010063 C196.984113,143.928878 247.170207,139 300,139" id="Path-40" stroke="#999999" transform="translate(200.000000, 164.000000) scale(-1, 1) rotate(-180.000000) translate(-200.000000, -164.000000) "></path>
                    <path d="M100,164 C126.143506,153.284966 148.843401,146.700043 168.099686,144.245233 C196.984113,140.563016 247.170207,138 300,138" id="Path-40" stroke="#999999" transform="translate(200.000000, 151.000000) scale(-1, 1) rotate(-180.000000) translate(-200.000000, -151.000000) "></path>
                    <path id="Path-40" d="M510.497753,138.523426 L510.47928,134.520816 L519.479184,134.47928 L519.52072,143.479184 L510.520816,143.52072 L510.502368,139.523433 C481.760752,139.825727 458.940152,143.030033 438.615258,149.236564 C421.589253,154.435727 407.146908,161.22611 386.356142,173.062692 C363.242556,186.2217 335.918615,221.619838 304.438785,279.239724 C304.306389,279.482058 304.00261,279.571181 303.760276,279.438785 C303.517942,279.306389 303.428819,279.00261 303.561215,278.760276 C335.124581,220.987487 362.539817,185.471076 385.861386,172.19366 C406.710734,160.323726 421.213809,153.50479 438.323206,148.280162 C458.745673,142.043836 481.662086,138.826309 510.497753,138.523426 Z M511.500264,139.065345 L511.51619,142.516116 L518.516116,142.48381 L518.48381,135.483884 L511.483884,135.51619 L511.499811,138.967019 C511.501384,138.982412 511.50226,138.998013 511.502407,139.013793 C511.502569,139.03119 511.501841,139.048389 511.500264,139.065345 Z" fill="#999999" fill-rule="nonzero"></path>
                    <path id="Path-40" d="M510.49756,138.525432 L510.477459,134.522654 L519.477346,134.477459 L519.522541,143.477346 L510.522654,143.522541 L510.502582,139.525439 C457.836194,140.121177 406.468437,151.219034 376.087153,168.021492 C355.876099,179.199274 331.974636,209.278902 304.435805,258.245099 C304.300441,258.485788 303.99559,258.57117 303.754901,258.435805 C303.514212,258.300441 303.42883,257.99559 303.564195,257.754901 C331.188161,208.637325 355.183477,178.439585 375.603184,167.146407 C406.146139,150.254536 457.675668,139.122079 510.49756,138.525432 Z M511.500302,139.068835 L511.51762,142.517532 L518.517532,142.48238 L518.48238,135.482468 L511.482468,135.51762 L511.499787,138.966377 C511.501497,138.982387 511.502453,138.998625 511.502618,139.015057 C511.5028,139.033216 511.502012,139.051158 511.500302,139.068835 Z" fill="#999999" fill-rule="nonzero"></path>
                    <path id="Path-40" d="M510.498,138.520731 L510.481615,134.51846 L519.48154,134.481615 L519.518385,143.48154 L510.51846,143.518385 L510.502094,139.520736 C457.822791,140.006396 406.441529,149.054901 376.050657,162.755345 C355.839015,171.866911 331.945388,196.37756 304.411548,236.283952 C304.254725,236.511243 303.94334,236.56837 303.716048,236.411548 C303.488757,236.254725 303.43163,235.94334 303.588452,235.716048 C331.217408,195.671801 355.220561,171.048798 375.63968,161.843699 C406.173027,148.079027 457.68903,139.007019 510.498,138.520731 Z M511.500219,139.060719 L511.514358,142.514299 L518.514299,142.485642 L518.485642,135.485701 L511.485701,135.514358 L511.49984,138.967989 C511.501241,138.982576 511.502016,138.997347 511.502138,139.012277 C511.502272,139.028613 511.50162,139.044772 511.500219,139.060719 Z" fill="#999999" fill-rule="nonzero"></path>
                    <path id="Path-40" d="M510.498425,137.516244 L510.485587,133.514459 L519.485541,133.485587 L519.514413,142.485541 L510.514459,142.514413 L510.501633,138.516246 C457.80928,138.896812 406.414301,145.988237 376.011691,156.726751 C355.793508,163.868021 331.905274,183.067907 304.375244,214.330442 C304.192745,214.537684 303.876799,214.557742 303.669558,214.375244 C303.462316,214.192745 303.442258,213.876799 303.624756,213.669558 C331.257523,182.290356 355.266068,162.993772 375.678646,155.78384 C406.200237,145.003301 457.702507,137.897207 510.498425,137.516244 Z M511.50015,138.052387 L511.511246,141.51121 L518.51121,141.488754 L518.488754,134.48879 L511.48879,134.511246 L511.499886,137.970112 C511.500989,137.983144 511.501593,137.996321 511.501678,138.009621 C511.501771,138.024023 511.501253,138.038287 511.50015,138.052387 Z" fill="#999999" fill-rule="nonzero"></path>
                    <path id="Path-40" d="M510.498957,138.510687 L510.490511,134.509509 L519.490491,134.490511 L519.509489,143.490491 L510.509509,143.509489 L510.501068,139.510688 C457.79165,139.761103 406.37883,144.42812 375.958341,151.497086 C355.720514,156.199855 331.830007,168.83256 304.299254,189.400558 C304.078032,189.565832 303.764715,189.520476 303.599442,189.299254 C303.434168,189.078032 303.479524,188.764715 303.700746,188.599442 C331.33279,167.95577 355.339062,155.261851 375.731996,150.523039 C406.235688,143.434738 457.720103,138.761279 510.498957,138.510687 Z M511.500078,139.040871 L511.507396,142.50738 L518.50738,142.492604 L518.492604,135.49262 L511.49262,135.507396 L511.499937,138.973936 C511.500668,138.984645 511.501061,138.995447 511.501107,139.006332 C511.501156,139.01794 511.500809,139.029458 511.500078,139.040871 Z" fill="#999999" fill-rule="nonzero"></path>
                    <path id="Path-40" d="M510.499455,137.505557 L510.495063,133.504943 L519.495057,133.495063 L519.504937,142.495057 L510.504943,142.504937 L510.500552,138.505558 C457.774673,138.635795 406.344816,141.063442 375.90515,144.741622 C355.635652,147.190888 331.726315,153.765073 304.181061,164.466065 C303.92366,164.566063 303.633932,164.438462 303.533935,164.181061 C303.433937,163.92366 303.561538,163.633932 303.818939,163.533935 C331.436482,152.804859 355.423924,146.209199 375.785187,143.748843 C406.269686,140.065246 457.737058,137.635844 510.499455,137.505557 Z M511.500029,138.028056 L511.503844,141.50384 L518.50384,141.496156 L518.496156,134.49616 L511.49616,134.503844 L511.499976,137.979646 C511.500358,137.987483 511.500559,137.995366 511.500577,138.003294 C511.500595,138.011596 511.500411,138.019852 511.500029,138.028056 Z" fill="#999999" fill-rule="nonzero"></path>
                    <path id="Path-40" d="M510.497145,-0.470080884 L510.473496,-4.47333918 L519.473339,-4.5265038 L519.526504,4.47333918 L510.526661,4.5265038 L510.503052,0.529929038 C457.848279,1.23072487 406.492439,14.2840344 376.117854,34.0472729 C355.903534,47.1997302 331.994619,82.5985609 304.451105,140.215648 C304.332006,140.464787 304.03349,140.570204 303.784352,140.451105 C303.535213,140.332006 303.429796,140.03349 303.548895,139.784352 C331.168178,82.0087647 355.156042,46.4930457 375.572483,33.2090785 C406.122158,13.3319172 457.663629,0.231921474 510.497145,-0.470080884 Z M511.500389,0.0761460583 L511.520736,3.52061406 L518.520614,3.4792638 L518.479264,-3.52061406 L511.479386,-3.4792638 L511.499734,-0.0347295195 C511.501736,-0.017505981 511.502864,-1.14175653e-05 511.503074,0.0177093582 C511.503307,0.0374635031 511.502391,0.0569635897 511.500389,0.0761460583 Z" fill="#999999" fill-rule="nonzero"></path>
                    <path id="Path-40" d="M510.49756,20.5254322 L510.477459,16.5226544 L519.477346,16.477459 L519.522541,25.4773456 L510.522654,25.522541 L510.502582,21.5254394 C457.836194,22.1211775 406.468437,33.2190343 376.087153,50.021492 C355.876099,61.1992741 331.974636,91.2789021 304.435805,140.245099 C304.300441,140.485788 303.99559,140.57117 303.754901,140.435805 C303.514212,140.300441 303.42883,139.99559 303.564195,139.754901 C331.188161,90.6373245 355.183477,60.4395855 375.603184,49.1464066 C406.146139,32.2545364 457.675668,21.1220786 510.49756,20.5254322 Z M511.500302,21.068835 L511.51762,24.5175319 L518.517532,24.4823799 L518.48238,17.4824681 L511.482468,17.5176201 L511.499787,20.9663768 C511.501497,20.9823865 511.502453,20.9986252 511.502618,21.0150569 C511.5028,21.0332158 511.502012,21.0511582 511.500302,21.068835 Z" fill="#999999" fill-rule="nonzero"></path>
                    <path id="Path-40" d="M510.498,42.5207312 L510.481615,38.51846 L519.48154,38.4816154 L519.518385,47.48154 L510.51846,47.5183846 L510.502094,43.520736 C457.822791,44.0063962 406.441529,53.0549014 376.050657,66.7553446 C355.839015,75.8669112 331.945388,100.37756 304.411548,140.283952 C304.254725,140.511243 303.94334,140.56837 303.716048,140.411548 C303.488757,140.254725 303.43163,139.94334 303.588452,139.716048 C331.217408,99.671801 355.220561,75.0487979 375.63968,65.8436989 C406.173027,52.0790268 457.68903,43.0070188 510.498,42.5207312 Z M511.500219,43.0607195 L511.514358,46.5142991 L518.514299,46.4856422 L518.485642,39.4857009 L511.485701,39.5143578 L511.49984,42.9679895 C511.501241,42.9825758 511.502016,42.9973472 511.502138,43.0122767 C511.502272,43.0286128 511.50162,43.0447723 511.500219,43.0607195 Z" fill="#999999" fill-rule="nonzero"></path>
                    <path id="Path-40" d="M510.498425,63.5162435 L510.485587,59.5144588 L519.485541,59.4855875 L519.514413,68.4855412 L510.514459,68.5144125 L510.501633,64.5162465 C457.80928,64.8968119 406.414301,71.988237 376.011691,82.7267507 C355.793508,89.8680206 331.905274,109.067907 304.375244,140.330442 C304.192745,140.537684 303.876799,140.557742 303.669558,140.375244 C303.462316,140.192745 303.442258,139.876799 303.624756,139.669558 C331.257523,108.290356 355.266068,88.9937721 375.678646,81.78384 C406.200237,71.0033007 457.702507,63.8972066 510.498425,63.5162435 Z M511.50015,64.0523873 L511.511246,67.5112098 L518.51121,67.4887542 L518.488754,60.4887902 L511.48879,60.5112458 L511.499886,63.9701119 C511.500989,63.9831444 511.501593,63.9963206 511.501678,64.0096215 C511.501771,64.0240232 511.501253,64.0382867 511.50015,64.0523873 Z" fill="#999999" fill-rule="nonzero"></path>
                    <path id="Path-40" d="M510.498957,89.5106869 L510.490511,85.5095086 L519.490491,85.4905115 L519.509489,94.4904914 L510.509509,94.5094885 L510.501068,90.5106882 C457.79165,90.7611029 406.37883,95.42812 375.958341,102.497086 C355.720514,107.199855 331.830007,119.83256 304.299254,140.400558 C304.078032,140.565832 303.764715,140.520476 303.599442,140.299254 C303.434168,140.078032 303.479524,139.764715 303.700746,139.599442 C331.33279,118.95577 355.339062,106.261851 375.731996,101.523039 C406.235688,94.4347384 457.720103,89.7612791 510.498957,89.5106869 Z M511.500078,90.0408714 L511.507396,93.50738 L518.50738,93.4926044 L518.492604,86.49262 L511.49262,86.5073956 L511.499937,89.9739358 C511.500668,89.9846448 511.501061,89.9954471 511.501107,90.006332 C511.501156,90.0179401 511.500809,90.0294575 511.500078,90.0408714 Z" fill="#999999" fill-rule="nonzero"></path>
                    <path id="Path-40" d="M510.499455,113.505557 L510.495063,109.504943 L519.495057,109.495063 L519.504937,118.495057 L510.504943,118.504937 L510.500552,114.505558 C457.774673,114.635795 406.344816,117.063442 375.90515,120.741622 C355.635652,123.190888 331.726315,129.765073 304.181061,140.466065 C303.92366,140.566063 303.633932,140.438462 303.533935,140.181061 C303.433937,139.92366 303.561538,139.633932 303.818939,139.533935 C331.436482,128.804859 355.423924,122.209199 375.785187,119.748843 C406.269686,116.065246 457.737058,113.635844 510.499455,113.505557 Z M511.500029,114.028056 L511.503844,117.50384 L518.50384,117.496156 L518.496156,110.49616 L511.49616,110.503844 L511.499976,113.979646 C511.500358,113.987483 511.500559,113.995366 511.500577,114.003294 C511.500595,114.011596 511.500411,114.019852 511.500029,114.028056 Z" fill="#999999" fill-rule="nonzero"></path>
                    <path d="M103,138.5 L300,138.5" id="Path-41" stroke="#999999"></path>
                    <path id="Path-41" d="M309.497169,139.024854 L309.47507,143.024793 L300.475207,142.97507 L300.52493,133.975207 L309.524793,134.02493 L309.502694,138.024869 L576.502762,139.500008 L576.497238,140.499992 L309.497169,139.024854 Z M308.519283,135.01939 L301.51939,134.980717 L301.480717,141.98061 L308.48061,142.019283 L308.519283,135.01939 Z" fill="#999999" fill-rule="nonzero"></path>
                    <path d="M103,138.5 L34.5,138.5" id="Path-43" stroke="#979797"></path>
                </g>
                <g id="Path-47" transform="translate(665.000000, 176.250000) scale(1, -1) translate(-665.000000, -176.250000) ">
                    <use fill="black" fill-opacity="1" filter="url(#filter-4)" xlink:href="#path-3"></use>
                    <use stroke="#2DE6E3" stroke-width="2" fill="#FFFFFF" fill-rule="evenodd" xlink:href="#path-3"></use>
                </g>
                <g id="Rectangle" opacity="0.600539435" transform="translate(664.817682, 192.426339) scale(1, -1) rotate(46.000000) translate(-664.817682, -192.426339) ">
                    <use fill="black" fill-opacity="1" filter="url(#filter-6)" xlink:href="#path-5"></use>
                    <use stroke="#2DE6E3" stroke-width="2" fill="#FFFFFF" fill-rule="evenodd" xlink:href="#path-5"></use>
                </g>
                <g id="Path-38" transform="translate(626.500000, 179.500000) scale(1, -1) translate(-626.500000, -179.500000) ">
                    <use fill="black" fill-opacity="1" filter="url(#filter-8)" xlink:href="#path-7"></use>
                    <use stroke="#2DE6E3" stroke-width="2" xlink:href="#path-7"></use>
                </g>
                <g id="Path-38" transform="translate(664.500000, 140.690291) scale(1, -1) translate(-664.500000, -140.690291) ">
                    <use fill="black" fill-opacity="1" filter="url(#filter-10)" xlink:href="#path-9"></use>
                    <use stroke="#2DE6E3" stroke-width="2" xlink:href="#path-9"></use>
                </g>
                <g id="Path-42" transform="translate(702.500000, 178.500000) scale(1, -1) translate(-702.500000, -178.500000) ">
                    <use fill="black" fill-opacity="1" filter="url(#filter-12)" xlink:href="#path-11"></use>
                    <use stroke="#2DE6E3" stroke-width="2" xlink:href="#path-11"></use>
                </g>
            </g>
        </g>
    </g>
</svg>